<?xml version="1.0" standalone="no"?>
<!DOCTYPE svg PUBLIC "-//W3C//DTD SVG 1.1//EN" "http://www.w3.org/Graphics/SVG/1.1/DTD/svg11.dtd" >
<svg xmlns="http://www.w3.org/2000/svg">
<metadata></metadata>
<defs>
<font id="att_aleck_sansblack_italic" horiz-adv-x="438" >
<font-face units-per-em="1000" ascent="750" descent="-250" />
<missing-glyph horiz-adv-x="230" />
<glyph unicode="fb" horiz-adv-x="1014" d="M419 617q-31 0 -49.5 -20.5t-26.5 -64.5h115l-29 -135h-115l-110 -522h-180l110 522h-90l29 135h90l3 13q20 100 85 157.5t159 57.5q64 0 104 -27l-59 -122q-16 6 -36 6zM742 750l-53 -249q59 43 125 43q51 0 89.5 -27.5t59.5 -75t21 -107.5q0 -101 -39 -180.5 t-104 -122.5t-144 -43q-43 0 -79 16.5t-58 46.5l-32 -51h-125l159 750h180zM740 396q-41 0 -80 -31l-45 -212q19 -10 34 -13.5t35 -3.5q52 0 84.5 47t32.5 122q0 44 -16 67.5t-45 23.5z" />
<glyph unicode="fj" horiz-adv-x="702" d="M419 617q-31 0 -49.5 -20.5t-26.5 -64.5h267l-29 -135h-267l-110 -522h-180l110 522h-90l29 135h90l3 13q20 100 85 157.5t159 57.5q64 0 104 -27l-59 -122q-16 6 -36 6zM696 532l-110 -515q-26 -123 -82 -183t-144 -60q-67 0 -125 29l50 129q22 -10 47 -10q28 0 45.5 21 t27.5 67l111 522h180zM534 659q0 43 33 74t79 31q41 0 64.5 -22t23.5 -60q0 -43 -33 -74t-79 -31q-41 0 -64.5 22t-23.5 60z" />
<glyph unicode="fk" horiz-adv-x="1008" d="M419 617q-31 0 -49.5 -20.5t-26.5 -64.5h115l-29 -135h-115l-110 -522h-180l110 522h-90l29 135h90l3 13q20 100 85 157.5t159 57.5q64 0 104 -27l-59 -122q-16 6 -36 6zM562 750h180l-77 -362l169 144h211l-231 -209l129 -323h-188l-82 218l-54 -49l-36 -169h-180z" />
<glyph unicode="ft" horiz-adv-x="823" d="M419 617q-31 0 -49.5 -20.5t-26.5 -64.5h267l-29 -135h-267l-110 -522h-180l110 522h-90l29 135h90l3 13q20 100 85 157.5t159 57.5q64 0 104 -27l-59 -122q-16 6 -36 6zM587 -12q-70 0 -111.5 38.5t-41.5 101.5q0 39 9 84l39 185h-80l29 135h88l58 135h142l-28 -135h137 l-29 -135h-137l-35 -166q-7 -34 -7 -54q0 -19 10.5 -30t28.5 -11q35 0 75 26l29 -123q-34 -24 -80 -37.5t-96 -13.5z" />
<glyph unicode="fh" horiz-adv-x="1003" d="M419 617q-31 0 -49.5 -20.5t-26.5 -64.5h115l-29 -135h-115l-110 -522h-180l110 522h-90l29 135h90l3 13q20 100 85 157.5t159 57.5q64 0 104 -27l-59 -122q-16 6 -36 6zM685 480q32 31 69 47.5t74 16.5q61 0 99 -38.5t38 -99.5q0 -39 -14 -105l-64 -301h-180l63 296 q7 31 7 55q0 20 -11 30.5t-31 10.5q-37 0 -75 -30l-77 -362h-180l159 750h180z" />
<glyph unicode="ff" horiz-adv-x="802" d="M419 617q-31 0 -49.5 -20.5t-26.5 -64.5h267l-29 -135h-267l-110 -522h-180l110 522h-90l29 135h90l3 13q20 100 85 157.5t159 57.5q64 0 104 -27l-59 -122q-16 6 -36 6zM426 532h90l3 13q20 100 85 157.5t159 57.5q74 0 131 -27l-49 -129q-22 8 -35.5 10.5t-29.5 2.5 q-38 0 -56.5 -19.5t-27.5 -65.5h133l-29 -135h-133l-110 -522h-180l110 522h-90z" />
<glyph unicode="fi" horiz-adv-x="703" d="M419 617q-31 0 -49.5 -20.5t-26.5 -64.5h267l-29 -135h-267l-110 -522h-180l110 522h-90l29 135h90l3 13q20 100 85 157.5t159 57.5q64 0 104 -27l-59 -122q-16 6 -36 6zM516 532h180l-113 -532h-180zM534 659q0 43 33 74t79 31q41 0 64.5 -22t23.5 -60q0 -43 -33 -74 t-79 -31q-41 0 -64.5 22t-23.5 60z" />
<glyph unicode="fl" horiz-adv-x="703" d="M419 617q-31 0 -49.5 -20.5t-26.5 -64.5h115l-29 -135h-115l-110 -522h-180l110 522h-90l29 135h90l3 13q20 100 85 157.5t159 57.5q64 0 104 -27l-59 -122q-16 6 -36 6zM562 750h180l-159 -750h-180z" />
<glyph unicode="ffi" horiz-adv-x="1056" d="M419 617q-31 0 -49.5 -20.5t-26.5 -64.5h267l-29 -135h-267l-110 -522h-180l110 522h-90l29 135h90l3 13q20 100 85 157.5t159 57.5q64 0 104 -27l-59 -122q-16 6 -36 6zM772 617q-31 0 -49.5 -20.5t-26.5 -64.5h267l-29 -135h-267l-110 -522h-180l110 522h-90l29 135h90 l3 13q20 100 85 157.5t159 57.5q64 0 104 -27l-59 -122q-16 6 -36 6zM869 532h180l-113 -532h-180zM887 659q0 43 33 74t79 31q41 0 64.5 -22t23.5 -60q0 -43 -33 -74t-79 -31q-41 0 -64.5 22t-23.5 60z" />
<glyph unicode="ffl" horiz-adv-x="1056" d="M419 617q-31 0 -49.5 -20.5t-26.5 -64.5h267l-29 -135h-267l-110 -522h-180l110 522h-90l29 135h90l3 13q20 100 85 157.5t159 57.5q64 0 104 -27l-59 -122q-16 6 -36 6zM772 617q-31 0 -49.5 -20.5t-26.5 -64.5h115l-29 -135h-115l-110 -522h-180l110 522h-90l29 135h90 l3 13q20 100 85 157.5t159 57.5q64 0 104 -27l-59 -122q-16 6 -36 6zM915 750h180l-159 -750h-180z" />
<glyph unicode="ffb" horiz-adv-x="1367" d="M419 617q-31 0 -49.5 -20.5t-26.5 -64.5h267l-29 -135h-267l-110 -522h-180l110 522h-90l29 135h90l3 13q20 100 85 157.5t159 57.5q64 0 104 -27l-59 -122q-16 6 -36 6zM772 617q-31 0 -49.5 -20.5t-26.5 -64.5h115l-29 -135h-115l-110 -522h-180l110 522h-90l29 135h90 l3 13q20 100 85 157.5t159 57.5q64 0 104 -27l-59 -122q-16 6 -36 6zM1095 750l-53 -249q59 43 125 43q51 0 89.5 -27.5t59.5 -75t21 -107.5q0 -101 -39 -180.5t-104 -122.5t-144 -43q-43 0 -79 16.5t-58 46.5l-32 -51h-125l159 750h180zM1093 396q-41 0 -80 -31l-45 -212 q19 -10 34 -13.5t35 -3.5q52 0 84.5 47t32.5 122q0 44 -16 67.5t-45 23.5z" />
<glyph unicode="ffh" horiz-adv-x="1356" d="M419 617q-31 0 -49.5 -20.5t-26.5 -64.5h267l-29 -135h-267l-110 -522h-180l110 522h-90l29 135h90l3 13q20 100 85 157.5t159 57.5q64 0 104 -27l-59 -122q-16 6 -36 6zM772 617q-31 0 -49.5 -20.5t-26.5 -64.5h115l-29 -135h-115l-110 -522h-180l110 522h-90l29 135h90 l3 13q20 100 85 157.5t159 57.5q64 0 104 -27l-59 -122q-16 6 -36 6zM1038 480q32 31 69 47.5t74 16.5q61 0 99 -38.5t38 -99.5q0 -39 -14 -105l-64 -301h-180l63 296q7 31 7 55q0 20 -11 30.5t-31 10.5q-37 0 -75 -30l-77 -362h-180l159 750h180z" />
<glyph unicode="ffj" horiz-adv-x="1055" d="M419 617q-31 0 -49.5 -20.5t-26.5 -64.5h267l-29 -135h-267l-110 -522h-180l110 522h-90l29 135h90l3 13q20 100 85 157.5t159 57.5q64 0 104 -27l-59 -122q-16 6 -36 6zM772 617q-31 0 -49.5 -20.5t-26.5 -64.5h267l-29 -135h-267l-110 -522h-180l110 522h-90l29 135h90 l3 13q20 100 85 157.5t159 57.5q64 0 104 -27l-59 -122q-16 6 -36 6zM1049 532l-110 -515q-26 -123 -82 -183t-144 -60q-67 0 -125 29l50 129q22 -10 47 -10q28 0 45.5 21t27.5 67l111 522h180zM887 659q0 43 33 74t79 31q41 0 64.5 -22t23.5 -60q0 -43 -33 -74t-79 -31 q-41 0 -64.5 22t-23.5 60z" />
<glyph unicode="ffk" horiz-adv-x="1361" d="M419 617q-31 0 -49.5 -20.5t-26.5 -64.5h267l-29 -135h-267l-110 -522h-180l110 522h-90l29 135h90l3 13q20 100 85 157.5t159 57.5q64 0 104 -27l-59 -122q-16 6 -36 6zM772 617q-31 0 -49.5 -20.5t-26.5 -64.5h115l-29 -135h-115l-110 -522h-180l110 522h-90l29 135h90 l3 13q20 100 85 157.5t159 57.5q64 0 104 -27l-59 -122q-16 6 -36 6zM915 750h180l-77 -362l169 144h211l-231 -209l129 -323h-188l-82 218l-54 -49l-36 -169h-180z" />
<glyph unicode="fft" horiz-adv-x="1176" d="M419 617q-31 0 -49.5 -20.5t-26.5 -64.5h267l-29 -135h-267l-110 -522h-180l110 522h-90l29 135h90l3 13q20 100 85 157.5t159 57.5q64 0 104 -27l-59 -122q-16 6 -36 6zM772 617q-31 0 -49.5 -20.5t-26.5 -64.5h267l-29 -135h-267l-110 -522h-180l110 522h-90l29 135h90 l3 13q20 100 85 157.5t159 57.5q64 0 104 -27l-59 -122q-16 6 -36 6zM940 -12q-70 0 -111.5 38.5t-41.5 101.5q0 39 9 84l39 185h-80l29 135h88l58 135h142l-28 -135h137l-29 -135h-137l-35 -166q-7 -34 -7 -54q0 -19 10.5 -30t28.5 -11q35 0 75 26l29 -123 q-34 -24 -80 -37.5t-96 -13.5z" />
<glyph unicode=" "  horiz-adv-x="230" />
<glyph unicode="&#x09;" horiz-adv-x="230" />
<glyph unicode="&#xa0;" horiz-adv-x="230" />
<glyph unicode="!" horiz-adv-x="338" d="M167 700h192l-119 -458h-148zM239 95q0 -45 -34 -76t-83 -31q-37 0 -61 23t-24 59q0 45 34 76t83 31q37 0 61 -23t24 -59z" />
<glyph unicode="&#x22;" horiz-adv-x="472" d="M125 700h174l-84 -313h-139zM355 700h174l-84 -313h-139z" />
<glyph unicode="#" horiz-adv-x="600" d="M101 541h105l51 149h128l-51 -149h100l51 149h128l-51 -149h78l-27 -128h-95l-47 -136h88l-27 -128h-105l-51 -149h-128l51 149h-100l-51 -149h-128l51 149h-78l27 128h95l47 136h-88zM243 277h100l47 136h-100z" />
<glyph unicode="$" horiz-adv-x="600" d="M181 -110l22 103q-55 7 -105.5 26.5t-86.5 47.5l53 127q82 -49 169 -61l30 144q-88 28 -130.5 77t-42.5 120q0 99 72 159.5t194 65.5l21 99h80l-22 -103q83 -14 157 -60l-54 -131q-62 37 -133 49l-30 -142q90 -32 132.5 -81t42.5 -120q0 -96 -73 -155.5t-195 -64.5 l-21 -100h-80zM384 193q0 36 -47 59l-25 -120q35 6 53.5 22t18.5 39zM255 497q0 -19 11 -32.5t35 -25.5l24 117q-34 -4 -52 -19t-18 -40z" />
<glyph unicode="%" horiz-adv-x="952" d="M148 0l540 690h151l-540 -690h-151zM698 94q21 0 36.5 21.5t26.5 67.5q9 33 9 66q0 47 -33 47q-21 0 -36.5 -21.5t-26.5 -67.5q-9 -33 -9 -66q0 -47 33 -47zM681 -10q-67 0 -108 42t-41 112q0 35 9 72q20 84 78.5 134t134.5 50q67 0 108 -42t41 -112q0 -35 -9 -72 q-20 -84 -78.5 -134t-134.5 -50zM248 394q21 0 36.5 21.5t26.5 67.5q9 33 9 66q0 47 -33 47q-21 0 -36.5 -21.5t-26.5 -67.5q-9 -33 -9 -66q0 -47 33 -47zM231 290q-67 0 -108 42t-41 112q0 35 9 72q20 84 78.5 134t134.5 50q67 0 108 -42t41 -112q0 -35 -9 -72 q-20 -84 -78.5 -134t-134.5 -50z" />
<glyph unicode="&#x26;" horiz-adv-x="717" d="M432 60q-47 -37 -98.5 -54.5t-115.5 -17.5q-89 0 -143 48t-54 128q0 65 47.5 121.5t135.5 95.5q-42 68 -42 127t32.5 106t86 72.5t118.5 25.5q85 0 139 -44t54 -113q0 -56 -46 -105.5t-135 -89.5l59 -88q8 10 15 20l14 20l42 63h170l-87 -117q-37 -50 -73 -93l117 -165 h-193zM269 123q49 0 87 34l-88 130q-37 -26 -53 -49t-16 -52q0 -28 19 -45.5t51 -17.5zM324 524q0 -29 25 -73q43 26 62 48t19 46q0 19 -12.5 30.5t-33.5 11.5q-25 0 -42.5 -18t-17.5 -45z" />
<glyph unicode="'" horiz-adv-x="242" d="M125 700h174l-84 -313h-139z" />
<glyph unicode="(" horiz-adv-x="412" d="M131 -163q-33 58 -53 142.5t-20 167.5q0 112 31.5 223.5t87 204.5t127.5 155h195q-123 -125 -189.5 -274.5t-66.5 -300.5q0 -89 18 -174.5t50 -143.5h-180z" />
<glyph unicode=")" horiz-adv-x="412" d="M291 730q33 -58 53 -142.5t20 -167.5q0 -112 -31.5 -223.5t-87 -204.5t-127.5 -155h-195q123 125 189.5 274.5t66.5 300.5q0 89 -18 174.5t-50 143.5h180z" />
<glyph unicode="*" horiz-adv-x="435" d="M79 406l101 92l-115 31l63 109l94 -52l8 119h128l-41 -120l119 51l19 -115l-120 -24l74 -99l-109 -64l-45 114l-87 -113z" />
<glyph unicode="+" horiz-adv-x="600" d="M191 100l38 177h-158l29 136h158l38 177h145l-38 -177h158l-29 -136h-158l-38 -177h-145z" />
<glyph unicode="," horiz-adv-x="279" d="M-72 -122q46 27 77 56.5t50 63.5q-25 5 -39.5 24.5t-14.5 48.5q0 45 33 75.5t82 30.5q40 0 63.5 -24.5t23.5 -67.5q0 -69 -63.5 -143.5t-170.5 -129.5z" />
<glyph unicode="-" horiz-adv-x="406" d="M60 352h319l-30 -141h-320z" />
<glyph unicode="." horiz-adv-x="279" d="M1 70q0 45 34 76t83 31q37 0 61 -23t24 -59q0 -45 -34 -76t-83 -31q-37 0 -61 23t-24 59z" />
<glyph unicode="/" horiz-adv-x="543" d="M462 730h174l-554 -893h-175z" />
<glyph unicode="0" horiz-adv-x="595" d="M272 137q38 0 65 42.5t49 139.5q22 94 22 157q0 36 -15 55.5t-44 19.5q-38 0 -65 -42.5t-49 -139.5q-22 -94 -22 -157q0 -36 15 -55.5t44 -19.5zM255 -12q-104 0 -160.5 61.5t-56.5 174.5q0 66 21 157q38 162 113.5 240.5t193.5 78.5q104 0 160.5 -61.5t56.5 -174.5 q0 -66 -21 -157q-38 -162 -113.5 -240.5t-193.5 -78.5z" />
<glyph unicode="1" horiz-adv-x="507" d="M75 528l250 162h166l-146 -690h-178l106 497l-141 -86z" />
<glyph unicode="2" horiz-adv-x="531" d="M-24 0l25 116q13 57 40.5 103t73.5 85t120 77l19 10q64 33 87 57t23 55q0 25 -20.5 39t-56.5 14q-34 0 -72 -12.5t-88 -40.5l-51 116q57 38 122.5 59.5t126.5 21.5q97 0 156 -49.5t59 -132.5q0 -73 -50 -132t-163 -118l-19 -10q-41 -21 -63.5 -37t-35 -33.5t-19.5 -44.5 h271l-30 -143h-455z" />
<glyph unicode="3" horiz-adv-x="502" d="M165 -12q-56 0 -109.5 15.5t-92.5 41.5l54 126q70 -39 142 -39q55 0 89.5 25.5t34.5 65.5q0 30 -21.5 46.5t-59.5 16.5h-110l26 128h102q43 0 72.5 24.5t29.5 60.5q0 27 -22 42t-60 15q-67 0 -131 -28l-41 121q96 51 211 51q64 0 113 -22.5t75 -60.5t26 -86 q0 -54 -33 -100t-93 -75q89 -43 89 -134q0 -67 -40.5 -121t-106.5 -83.5t-144 -29.5z" />
<glyph unicode="4" horiz-adv-x="599" d="M275 0l29 136h-303l28 133l406 421h153l-91 -426h79l-28 -128h-78l-29 -136h-166zM331 264l41 193l-186 -193h145z" />
<glyph unicode="5" horiz-adv-x="527" d="M192 -12q-119 0 -217 60l53 129q37 -19 82 -29.5t89 -10.5q53 0 84.5 25.5t31.5 68.5q0 39 -23.5 56.5t-76.5 17.5q-77 0 -165 -2l101 387h393l-32 -147h-251l-31 -115q28 4 61 4q94 0 146.5 -46.5t52.5 -129.5q0 -81 -38 -142.5t-105 -93.5t-155 -32z" />
<glyph unicode="6" horiz-adv-x="586" d="M406 700q101 0 171 -44l-55 -126q-25 14 -54.5 21.5t-55.5 7.5q-56 0 -98.5 -32t-68.5 -92q61 8 101 8q94 0 148.5 -53t54.5 -144q0 -75 -37 -134.5t-99 -91.5t-138 -32q-110 0 -169 65t-59 187q0 128 48 236t128.5 166t182.5 58zM289 317q-40 0 -75 -4q-4 -31 -4 -70 q0 -58 19.5 -85.5t60.5 -27.5q44 0 69 29t25 79q0 41 -22.5 60t-72.5 19z" />
<glyph unicode="7" horiz-adv-x="500" d="M59 0l14 66q12 58 31 105.5t53.5 103t104.5 147.5l91 121h-295l32 147h474l-30 -137l-147 -211q-55 -78 -83 -138.5t-45 -141.5l-13 -62h-187z" />
<glyph unicode="8" horiz-adv-x="577" d="M15 168q0 65 38.5 114.5t106.5 73.5q-61 50 -61 133q0 61 36 109.5t94.5 75t128.5 26.5q98 0 157.5 -46t59.5 -123q0 -56 -31 -101.5t-87 -71.5q79 -59 79 -149q0 -64 -39 -114.5t-103.5 -78.5t-141.5 -28q-110 0 -173.5 48.5t-63.5 131.5zM185 192q0 -35 21 -55t57 -20 q44 0 73.5 26.5t29.5 65.5q0 33 -14.5 52.5t-46.5 29.5l-26 8q-28 -6 -49.5 -22t-33 -38.5t-11.5 -46.5zM263 493q0 -27 14.5 -46t42.5 -27l23 -7q30 11 49 37.5t19 57.5q0 29 -17 46t-47 17q-37 0 -60.5 -22t-23.5 -56z" />
<glyph unicode="9" horiz-adv-x="586" d="M210 -12q-105 0 -181 50l55 125q31 -18 61 -26t69 -8q51 0 91.5 31.5t65.5 92.5q-62 -8 -103 -8q-94 0 -148.5 53t-54.5 144q0 75 37.5 134.5t99.5 91.5t139 32q109 0 167.5 -65t58.5 -187q0 -136 -45 -242.5t-124.5 -162t-187.5 -55.5zM325 371q36 0 75 3q4 29 4 71 q0 60 -19 86.5t-60 26.5q-44 0 -69.5 -30t-25.5 -78q0 -41 22.5 -60t72.5 -19z" />
<glyph unicode=":" horiz-adv-x="279" d="M1 70q0 45 34 76t83 31q37 0 61 -23t24 -59q0 -45 -34 -76t-83 -31q-37 0 -61 23t-24 59zM76 425q0 45 34 76t83 31q37 0 61 -23t24 -59q0 -45 -34 -76t-83 -31q-37 0 -61 23t-24 59z" />
<glyph unicode=";" horiz-adv-x="279" d="M-72 -122q46 27 77 56.5t50 63.5q-25 5 -39.5 24.5t-14.5 48.5q0 45 33 75.5t82 30.5q40 0 63.5 -24.5t23.5 -67.5q0 -69 -63.5 -143.5t-170.5 -129.5zM81 425q0 45 34 76t83 31q37 0 61 -23t24 -59q0 -45 -34 -76t-83 -31q-37 0 -61 23t-24 59z" />
<glyph unicode="&#x3c;" horiz-adv-x="600" d="M547 429l-308 -90l270 -90l-37 -169l-408 193l33 149l490 193z" />
<glyph unicode="=" horiz-adv-x="600" d="M45 155l29 136h462l-29 -136h-462zM96 399l29 136h462l-29 -136h-462z" />
<glyph unicode="&#x3e;" horiz-adv-x="600" d="M82 267l307 90l-269 90l37 169l408 -193l-33 -149l-490 -193z" />
<glyph unicode="?" horiz-adv-x="512" d="M134 242l3 14q10 50 24.5 83t38 58t63.5 48l12 7q71 42 71 83q0 22 -17 34t-49 12q-64 0 -161 -59l-47 123q126 84 261 84q95 0 148.5 -41.5t53.5 -115.5q0 -66 -34 -115.5t-110 -95.5l-15 -9q-37 -22 -56 -43.5t-25 -47.5l-4 -19h-157zM285 95q0 -45 -34 -76t-83 -31 q-37 0 -61 23t-24 59q0 45 34 76t83 31q37 0 61 -23t24 -59z" />
<glyph unicode="@" horiz-adv-x="1062" d="M723 -15q-61 0 -100.5 25.5t-49.5 70.5q-31 -30 -69.5 -46.5t-77.5 -16.5q-65 0 -103.5 46.5t-38.5 124.5q0 76 37 141t95 101.5t121 36.5q73 0 116 -49l24 39h113l-73 -258q-7 -28 -7 -47q0 -47 40 -47q37 0 69 29.5t50 75.5t18 98q0 129 -80 202t-222 73 q-123 0 -216 -51t-143 -140t-50 -204q0 -137 88 -215.5t242 -78.5q68 0 124 9.5t110 30.5l28 -110q-114 -51 -270 -51q-140 0 -243.5 52t-158 145t-54.5 215q0 150 75 269.5t199 184.5t272 65q132 0 230 -50t150 -138.5t52 -203.5q0 -95 -40.5 -170.5t-108 -116.5 t-148.5 -41zM498 139q27 0 62 28l47 167q-26 13 -51 13q-41 0 -69 -40.5t-28 -102.5q0 -65 39 -65z" />
<glyph unicode="A" horiz-adv-x="699" d="M445 0l-10 118h-224l-58 -118h-200l394 700h191l97 -700h-190zM285 266h139l-19 241z" />
<glyph unicode="B" horiz-adv-x="663" d="M649 529q0 -63 -39.5 -109t-106.5 -64q50 -16 77.5 -53t27.5 -89q0 -100 -81.5 -157t-224.5 -57h-289l148 700h244q121 0 182.5 -43t61.5 -128zM254 285l-31 -146h98q47 0 73.5 23.5t26.5 65.5q0 29 -19 43t-59 14h-89zM312 561l-30 -143h80q50 0 76 22.5t26 64.5 q0 31 -17 43.5t-56 12.5h-79z" />
<glyph unicode="C" horiz-adv-x="662" d="M386 -12q-155 0 -239.5 82t-84.5 232q0 119 55.5 213t147.5 145.5t205 51.5q58 0 112 -14.5t96 -41.5l-60 -150q-42 19 -76 26.5t-74 7.5q-63 0 -111 -29t-73.5 -79t-25.5 -115q0 -157 156 -157q38 0 75 10.5t66 28.5l43 -150q-29 -25 -89.5 -43t-122.5 -18z" />
<glyph unicode="D" horiz-adv-x="739" d="M161 700h226q158 0 242.5 -75t84.5 -216q0 -127 -56.5 -220t-159 -141t-243.5 -48h-242zM318 539l-80 -378h49q110 0 170.5 63.5t60.5 179.5q0 70 -34 102.5t-106 32.5h-60z" />
<glyph unicode="E" horiz-adv-x="582" d="M13 0l148 700h458l-34 -157h-269l-25 -116h218l-33 -153h-217l-25 -117h283l-34 -157h-470z" />
<glyph unicode="F" horiz-adv-x="555" d="M13 0l148 700h452l-34 -157h-263l-28 -131h212l-33 -153h-211l-55 -259h-188z" />
<glyph unicode="G" horiz-adv-x="736" d="M386 -12q-155 0 -239.5 81.5t-84.5 232.5q0 120 57 214t153 145t216 51q113 0 215 -50l-60 -150q-77 30 -152 30q-108 0 -170.5 -60.5t-62.5 -164.5q0 -80 40.5 -119.5t124.5 -39.5q36 0 63 8l21 100h-94l29 140h266l-75 -356q-44 -29 -109 -45.5t-138 -16.5z" />
<glyph unicode="H" horiz-adv-x="718" d="M402 0l57 270h-198l-57 -270h-191l148 700h191l-56 -264h198l56 264h191l-148 -700h-191z" />
<glyph unicode="I" horiz-adv-x="329" d="M13 0l148 700h191l-148 -700h-191z" />
<glyph unicode="J" horiz-adv-x="496" d="M140 -12q-46 0 -92.5 12t-71.5 30l48 149q19 -11 45.5 -18.5t50.5 -7.5q38 0 61 11.5t38 40t26 81.5l88 414h191l-94 -442q-20 -94 -55 -153.5t-90 -88t-145 -28.5z" />
<glyph unicode="K" horiz-adv-x="712" d="M338 284l-96 -93l-40 -191h-189l148 700h189l-55 -261l252 261h234l-291 -299l155 -401h-209z" />
<glyph unicode="L" horiz-adv-x="557" d="M13 0l148 700h191l-113 -534h271l-36 -166h-461z" />
<glyph unicode="M" horiz-adv-x="854" d="M544 0l78 369l-163 -246h-123l-63 246l-79 -369h-181l148 700h180l99 -377l252 377h185l-149 -700h-184z" />
<glyph unicode="N" horiz-adv-x="714" d="M13 0l148 700h171l141 -395l83 395h181l-148 -700h-171l-141 395l-83 -395h-181z" />
<glyph unicode="O" horiz-adv-x="774" d="M426 542q-49 0 -87.5 -30.5t-59.5 -80.5t-21 -110q0 -80 32.5 -121.5t94.5 -41.5q49 0 87.5 30.5t59.5 80.5t21 110q0 80 -32.5 121.5t-94.5 41.5zM438 712q96 0 166.5 -39t107.5 -109.5t37 -165.5q0 -119 -51.5 -213.5t-137 -145.5t-187.5 -51q-96 0 -166.5 39 t-107.5 109.5t-37 165.5q0 119 51.5 213.5t137 145.5t187.5 51z" />
<glyph unicode="P" horiz-adv-x="659" d="M245 209l-44 -209h-188l148 700h224q137 0 203 -52.5t66 -162.5q0 -86 -39.5 -148.5t-112.5 -95t-174 -32.5h-83zM278 366h60q58 0 91 28t33 78q0 38 -20.5 54.5t-68.5 16.5h-57z" />
<glyph unicode="Q" horiz-adv-x="774" d="M438 712q96 0 166.5 -39t107.5 -109.5t37 -165.5q0 -110 -45.5 -202t-127.5 -147l40 -88l-137 -59l-41 92q-31 -6 -65 -6q-96 0 -166.5 39t-107.5 109.5t-37 165.5q0 119 51.5 213.5t137 145.5t187.5 51zM426 542q-49 0 -87.5 -30.5t-59.5 -80.5t-21 -110 q0 -161 112 -171l-37 89l132 57l36 -87q52 67 52 170q0 80 -32.5 121.5t-94.5 41.5z" />
<glyph unicode="R" horiz-adv-x="675" d="M403 0l-71 230h-83l-48 -230h-188l148 700h234q128 0 193.5 -51.5t65.5 -153.5q0 -83 -38.5 -143.5t-110.5 -91.5l100 -260h-202zM463 477q0 35 -18.5 50.5t-61.5 15.5h-67l-36 -166h71q54 0 83 26t29 74z" />
<glyph unicode="S" horiz-adv-x="609" d="M263 -12q-80 0 -146 18.5t-112 52.5l59 146q38 -22 90 -37t95 -15q50 0 78.5 16t28.5 44q0 23 -18.5 36.5t-76.5 36.5l-20 8q-139 55 -139 186q0 107 75.5 169.5t204.5 62.5q64 0 125 -16.5t101 -44.5l-60 -147q-83 43 -167 43q-41 0 -62.5 -13.5t-21.5 -38.5 q0 -19 11.5 -30.5t50.5 -27.5l20 -8q93 -37 132.5 -82.5t39.5 -113.5q0 -75 -36 -131t-100.5 -85t-151.5 -29z" />
<glyph unicode="T" horiz-adv-x="631" d="M165 0l113 534h-193l35 166h573l-35 -166h-190l-112 -534h-191z" />
<glyph unicode="U" horiz-adv-x="693" d="M633 278q-22 -104 -60.5 -167t-101 -93t-158.5 -30q-118 0 -185.5 57.5t-67.5 157.5q0 55 16 132l77 365h191l-77 -365q-15 -68 -15 -100q0 -41 19 -59t61 -18t71 32.5t42 93.5l88 416h189z" />
<glyph unicode="V" horiz-adv-x="674" d="M292 700l26 -503l236 503h200l-379 -700h-191l-82 700h190z" />
<glyph unicode="W" horiz-adv-x="913" d="M118 0l-7 700h185l-20 -457l183 397h152l13 -367l163 427h195l-305 -700h-188l-7 380l-176 -380h-188z" />
<glyph unicode="X" horiz-adv-x="674" d="M253 364l-132 336h203l64 -205l140 205h218l-285 -357l138 -343h-203l-69 208l-145 -208h-218z" />
<glyph unicode="Y" horiz-adv-x="651" d="M226 253l-129 447h189l60 -308l191 308h199l-319 -447l-53 -253h-191z" />
<glyph unicode="Z" horiz-adv-x="608" d="M-14 0l33 153l353 383h-266l34 164h501l-33 -153l-353 -383h290l-34 -164h-525z" />
<glyph unicode="[" horiz-adv-x="391" d="M-22 -163l189 893h299l-30 -142h-126l-128 -609h139l-30 -142h-313z" />
<glyph unicode="\" horiz-adv-x="543" d="M450 -163h-165l-192 893h165z" />
<glyph unicode="]" horiz-adv-x="391" d="M424 730l-189 -893h-299l30 142h126l128 609h-139l30 142h313z" />
<glyph unicode="^" horiz-adv-x="600" d="M377 279l-25 236l-124 -236h-185l257 411h169l82 -411h-174z" />
<glyph unicode="_" horiz-adv-x="500" d="M-67 -52h500l-25 -117h-500z" />
<glyph unicode="`" horiz-adv-x="608" d="M328 601l-109 161h190l69 -161h-150z" />
<glyph unicode="a" horiz-adv-x="618" d="M368 0l-6 58q-40 -37 -78 -53.5t-84 -16.5q-51 0 -89.5 27.5t-59.5 75t-21 107.5q0 101 39 180.5t104 122.5t144 43q40 0 74.5 -15.5t58.5 -43.5l26 47h135l-113 -532h-130zM274 136q43 0 79 30l45 212q-33 18 -68 18q-52 0 -84.5 -47t-32.5 -122q0 -44 16 -67.5 t45 -23.5z" />
<glyph unicode="b" horiz-adv-x="619" d="M347 750l-53 -249q59 43 125 43q51 0 89.5 -27.5t59.5 -75t21 -107.5q0 -101 -39 -180.5t-104 -122.5t-144 -43q-43 0 -79 16.5t-58 46.5l-32 -51h-125l159 750h180zM345 396q-41 0 -80 -31l-45 -212q19 -10 34 -13.5t35 -3.5q52 0 84.5 47t32.5 122q0 44 -16 67.5 t-45 23.5z" />
<glyph unicode="c" horiz-adv-x="508" d="M257 -12q-106 0 -166.5 61t-60.5 171q0 95 44.5 169t119 114.5t165.5 40.5q87 0 154 -41l-60 -132q-52 23 -94 23q-65 0 -105.5 -42t-40.5 -111q0 -54 21.5 -78.5t68.5 -24.5q49 0 108 36l29 -128q-34 -26 -84.5 -42t-98.5 -16z" />
<glyph unicode="d" horiz-adv-x="618" d="M368 0l-6 58q-40 -37 -78 -53.5t-84 -16.5q-51 0 -89.5 27.5t-59.5 75t-21 107.5q0 101 39 180.5t104 122.5t144 43q62 0 108 -40l52 246h180l-159 -750h-130zM274 136q43 0 79 30l45 212q-33 18 -68 18q-52 0 -84.5 -47t-32.5 -122q0 -44 16 -67.5t45 -23.5z" />
<glyph unicode="e" horiz-adv-x="556" d="M257 -12q-109 0 -168 60t-59 172q0 95 45.5 169t121.5 114.5t168 40.5q77 0 124 -39.5t47 -104.5q0 -60 -37 -105t-101 -69.5t-142 -24.5q-29 0 -58 4q6 -39 28.5 -56.5t71.5 -17.5q36 0 73.5 12t70.5 34l29 -126q-41 -31 -96 -47t-118 -16zM335 411q-40 0 -74.5 -30 t-52.5 -79q15 -2 33 -2q58 0 95.5 20.5t37.5 52.5q0 18 -10.5 28t-28.5 10z" />
<glyph unicode="f" horiz-adv-x="449" d="M73 532h90l3 13q20 100 85 157.5t159 57.5q74 0 131 -27l-49 -129q-22 8 -35.5 10.5t-29.5 2.5q-38 0 -56.5 -19.5t-27.5 -65.5h133l-29 -135h-133l-110 -522h-180l110 522h-90z" />
<glyph unicode="g" horiz-adv-x="620" d="M189 -226q-108 0 -190 41l56 138q64 -31 139 -31q58 0 89 25t43 81l2 10q-30 -21 -60.5 -30.5t-65.5 -9.5q-75 0 -122.5 57.5t-47.5 147.5q0 99 39 177.5t104 121t144 42.5q40 0 74.5 -15.5t58.5 -43.5l26 47h135l-104 -489q-29 -136 -108 -202.5t-212 -66.5zM276 146 q44 0 82 32l42 200q-33 18 -68 18q-51 0 -84 -46t-33 -118q0 -41 16 -63.5t45 -22.5z" />
<glyph unicode="h" horiz-adv-x="608" d="M290 480q32 31 69 47.5t74 16.5q61 0 99 -38.5t38 -99.5q0 -39 -14 -105l-64 -301h-180l63 296q7 31 7 55q0 20 -11 30.5t-31 10.5q-37 0 -75 -30l-77 -362h-180l159 750h180z" />
<glyph unicode="i" horiz-adv-x="308" d="M121 532h180l-113 -532h-180zM139 659q0 43 33 74t79 31q41 0 64.5 -22t23.5 -60q0 -43 -33 -74t-79 -31q-41 0 -64.5 22t-23.5 60z" />
<glyph unicode="j" horiz-adv-x="307" d="M301 532l-110 -515q-26 -123 -82 -183t-144 -60q-67 0 -125 29l50 129q22 -10 47 -10q28 0 45.5 21t27.5 67l111 522h180zM139 659q0 43 33 74t79 31q41 0 64.5 -22t23.5 -60q0 -43 -33 -74t-79 -31q-41 0 -64.5 22t-23.5 60z" />
<glyph unicode="k" horiz-adv-x="613" d="M167 750h180l-77 -362l169 144h211l-231 -209l129 -323h-188l-82 218l-54 -49l-36 -169h-180z" />
<glyph unicode="l" horiz-adv-x="308" d="M167 750h180l-159 -750h-180z" />
<glyph unicode="m" horiz-adv-x="896" d="M271 532l2 -64q35 36 75.5 56t80.5 20q44 0 77 -23.5t47 -63.5q35 39 82.5 63t89.5 24q59 0 96 -39t37 -99q0 -39 -14 -105l-64 -301h-180l63 296q7 31 7 55q0 19 -10 30t-28 11q-32 0 -73 -31q-2 -18 -11 -60l-64 -301h-180l63 296q7 31 7 55q0 19 -10 30t-28 11 q-33 0 -71 -30l-77 -362h-180l113 532h150z" />
<glyph unicode="n" horiz-adv-x="608" d="M271 532l2 -64q35 37 76.5 56.5t83.5 19.5q61 0 99 -38.5t38 -99.5q0 -39 -14 -105l-64 -301h-180l63 296q7 31 7 55q0 20 -11 30.5t-31 10.5q-37 0 -75 -30l-77 -362h-180l113 532h150z" />
<glyph unicode="o" horiz-adv-x="602" d="M572 312q0 -95 -41 -169.5t-110.5 -114.5t-157.5 -40q-71 0 -124 29.5t-81 82t-28 120.5q0 95 41 169.5t110.5 114.5t157.5 40q71 0 124 -29.5t81 -82t28 -120.5zM281 136q31 0 55.5 22t38.5 57.5t14 75.5q0 50 -17.5 77.5t-50.5 27.5q-31 0 -55.5 -22t-38.5 -57.5 t-14 -75.5q0 -50 17.5 -77.5t50.5 -27.5z" />
<glyph unicode="p" horiz-adv-x="619" d="M258 532l2 -55q38 35 75.5 51t83.5 16q51 0 89.5 -27.5t59.5 -75t21 -107.5q0 -101 -39 -180.5t-104 -122.5t-144 -43q-63 0 -108 39l-52 -243h-180l159 748h137zM345 396q-41 0 -80 -31l-45 -212q19 -10 34 -13.5t35 -3.5q52 0 84.5 47t32.5 122q0 44 -16 67.5t-45 23.5 z" />
<glyph unicode="q" horiz-adv-x="618" d="M272 -216l51 242q-57 -38 -123 -38q-51 0 -89.5 27.5t-59.5 75t-21 107.5q0 101 39 180.5t104 122.5t144 43q40 0 74.5 -15.5t58.5 -43.5l26 47h135l-159 -748h-180zM274 136q43 0 79 30l45 212q-33 18 -68 18q-52 0 -84.5 -47t-32.5 -122q0 -44 16 -67.5t45 -23.5z" />
<glyph unicode="r" horiz-adv-x="439" d="M271 532l2 -64q35 37 76 56.5t83 19.5q21 0 39 -5l-43 -159q-31 7 -57 7q-63 0 -107 -26l-76 -361h-180l113 532h150z" />
<glyph unicode="s" horiz-adv-x="514" d="M216 -12q-65 0 -117 13.5t-102 44.5l58 125q82 -44 160 -44q30 0 47 8.5t17 24.5q0 12 -13.5 21t-45.5 20l-18 6q-70 24 -100 57.5t-30 88.5q0 57 32.5 100.5t88.5 67t127 23.5q100 0 183 -49l-58 -125q-63 35 -130 35q-31 0 -48.5 -8t-17.5 -22q0 -12 11 -19.5t41 -17.5 l18 -6q71 -24 104 -59t33 -87q0 -58 -32.5 -103t-86.5 -70t-121 -25z" />
<glyph unicode="t" horiz-adv-x="454" d="M218 -12q-70 0 -111.5 38.5t-41.5 101.5q0 39 9 84l39 185h-80l29 135h88l58 135h142l-28 -135h137l-29 -135h-137l-35 -166q-7 -34 -7 -54q0 -19 10.5 -30t28.5 -11q35 0 75 26l29 -123q-34 -24 -80 -37.5t-96 -13.5z" />
<glyph unicode="u" horiz-adv-x="604" d="M334 66q-34 -37 -76 -57.5t-84 -20.5q-60 0 -97.5 38.5t-37.5 99.5q0 39 14 105l64 301h180l-63 -296q-7 -31 -7 -55q0 -20 11 -30.5t31 -10.5q31 0 71 29l77 363h180l-113 -532h-143z" />
<glyph unicode="v" horiz-adv-x="601" d="M154 0l-93 532h202l17 -340l156 340h211l-316 -532h-177z" />
<glyph unicode="w" horiz-adv-x="838" d="M66 532h193l-7 -323l137 304h156l12 -289l122 308h199l-275 -532h-160l-16 326l-149 -326h-160z" />
<glyph unicode="x" horiz-adv-x="580" d="M197 283l-113 249h189l49 -130l99 130h196l-226 -269l121 -263h-189l-57 145l-111 -145h-196z" />
<glyph unicode="y" horiz-adv-x="595" d="M41 -226q-67 0 -122 28l55 135q30 -16 68 -16q34 0 58 16t49 54l12 18l-106 523h197l31 -323l152 323h206l-331 -543q-49 -81 -89 -127.5t-82 -67t-98 -20.5z" />
<glyph unicode="z" horiz-adv-x="530" d="M13 119l281 281h-213l28 132h425l-26 -119l-281 -281h230l-28 -132h-442z" />
<glyph unicode="{" horiz-adv-x="430" d="M209 -169q-75 0 -118 36.5t-43 102.5q0 20 5 39.5t26 78.5q14 40 17.5 54.5t3.5 26.5q0 24 -13.5 34.5t-45.5 10.5h-22l30 140h22q40 0 57.5 13.5t25.5 52.5q4 20 7 41.5t6 45.5q7 53 12 75q17 73 70.5 113.5t132.5 40.5q56 0 128 -18l-27 -128q-32 7 -61 7 q-33 0 -52.5 -16t-27.5 -52q-3 -13 -5.5 -31t-5.5 -41q-3 -25 -5 -41.5t-5 -29.5q-18 -82 -97 -106q55 -22 55 -83q0 -18 -4 -33.5t-27 -76.5q-11 -32 -14.5 -45.5t-3.5 -25.5q0 -24 13 -35t41 -11q33 0 71 7l-29 -135q-53 -11 -117 -11z" />
<glyph unicode="|" horiz-adv-x="309" d="M169 730h168l-200 -946h-168z" />
<glyph unicode="}" horiz-adv-x="430" d="M235 736q75 0 118 -36.5t43 -102.5q0 -20 -5 -39.5t-26 -78.5q-14 -40 -17.5 -54.5t-3.5 -26.5q0 -24 13.5 -34.5t45.5 -10.5h22l-30 -140h-22q-40 0 -57.5 -13.5t-25.5 -52.5q-4 -20 -7 -41.5t-6 -45.5q-7 -53 -12 -75q-17 -73 -70.5 -113.5t-132.5 -40.5q-56 0 -128 18 l27 128q32 -7 61 -7q33 0 52.5 16t27.5 52q3 14 5.5 32t5.5 40q3 25 5 41.5t5 29.5q18 82 97 106q-55 22 -55 83q0 18 4 33.5t27 76.5q11 32 14.5 45.5t3.5 25.5q0 24 -13 35t-41 11q-33 0 -71 -7l29 135q53 11 117 11z" />
<glyph unicode="~" horiz-adv-x="600" d="M406 198q-73 0 -138 86q-24 32 -33.5 41.5t-20.5 9.5q-14 0 -23.5 -15.5t-17.5 -52.5l-11 -51h-140l13 60q26 115 71.5 165.5t121.5 50.5q73 0 138 -86q24 -32 33.5 -41.5t20.5 -9.5q14 0 23.5 15.5t17.5 52.5l11 51h140l-13 -60q-26 -115 -71.5 -165.5t-121.5 -50.5z " />
<glyph unicode="&#xa1;" horiz-adv-x="338" d="M171 -168h-192l119 458h148zM99 437q0 45 34 76t83 31q37 0 61 -23t24 -59q0 -45 -34 -76t-83 -31q-37 0 -61 23t-24 59z" />
<glyph unicode="&#xa2;" horiz-adv-x="600" d="M240 -110l21 101q-86 12 -134.5 71.5t-48.5 152.5q0 86 40 156t107.5 111t151.5 48l21 100h80l-22 -101q53 -7 101 -34l-51 -124q-44 19 -78 23l-57 -267q39 4 90 34l28 -116q-59 -45 -147 -55l-21 -100h-81zM242 232q0 -74 50 -96l54 250q-49 -16 -76.5 -56.5 t-27.5 -97.5z" />
<glyph unicode="&#xa3;" horiz-adv-x="600" d="M455 279h-132q-21 -88 -75 -136h306l-30 -143h-509l26 124q100 45 126 155h-79l27 128h61l-3 20q-3 21 -3 44q0 72 31.5 123.5t88 78.5t130.5 27q109 0 196 -60l-53 -127q-41 24 -73.5 34t-66.5 10q-48 0 -72.5 -23.5t-24.5 -68.5q0 -7 0.5 -14.5t1.5 -15.5l3 -28h151z " />
<glyph unicode="&#xa5;" horiz-adv-x="600" d="M157 0l19 92h-153l24 113h153l12 55h-153l24 113h98l-98 317h183l63 -276l176 276h197l-235 -317h100l-24 -113h-154l-12 -55h154l-24 -113h-154l-19 -92h-177z" />
<glyph unicode="&#xa7;" horiz-adv-x="552" d="M272 52q0 14 -9.5 21.5t-41.5 14.5l-40 9q-83 19 -119.5 53.5t-36.5 93.5q0 55 33.5 99t94.5 68q-44 41 -44 110q0 57 33 100.5t90.5 67t128.5 23.5q57 0 103 -11.5t91 -37.5l-58 -125q-60 35 -131 35q-37 0 -56.5 -10t-19.5 -29q0 -11 11.5 -18.5t40.5 -14.5l39 -9 q82 -19 119 -54t37 -94q0 -58 -33 -102.5t-93 -67.5q42 -40 42 -102q0 -58 -34.5 -103t-92.5 -70t-127 -25q-65 0 -117.5 14t-102.5 44l58 125q83 -44 159 -44q37 0 56.5 10t19.5 29zM265 359q-31 -8 -50 -26.5t-19 -42.5q0 -20 15.5 -33t49.5 -21l34 -8q32 8 51.5 27 t19.5 44q0 38 -64 52z" />
<glyph unicode="&#xa8;" horiz-adv-x="608" d="M188 670q0 38 29.5 64.5t71.5 26.5q32 0 53 -19.5t21 -49.5q0 -38 -29.5 -64.5t-71.5 -26.5q-32 0 -53 19.5t-21 49.5zM401 670q0 38 29.5 64.5t71.5 26.5q32 0 53 -19.5t21 -49.5q0 -38 -29.5 -64.5t-71.5 -26.5q-32 0 -53 19.5t-21 49.5z" />
<glyph unicode="&#xa9;" horiz-adv-x="604" d="M358 349q-62 0 -102.5 40.5t-40.5 104.5q0 63 40.5 104t102.5 41q49 0 88 -24l-21 -67q-29 13 -54 13q-30 0 -48.5 -18t-18.5 -49q0 -30 18 -48.5t49 -18.5q29 0 56 15l22 -66q-37 -27 -91 -27zM348 224q-80 0 -141.5 36t-95 97t-33.5 137q0 80 36 141.5t97 95t137 33.5 q80 0 141.5 -36t95 -97t33.5 -137q0 -80 -36 -141.5t-97 -95t-137 -33.5zM348 289q61 0 106.5 26.5t70 73t24.5 105.5q0 62 -26 108.5t-71.5 71.5t-103.5 25q-61 0 -106.5 -26.5t-70 -73t-24.5 -105.5q0 -62 26 -108.5t71.5 -71.5t103.5 -25z" />
<glyph unicode="&#xaa;" horiz-adv-x="436" d="M314 339l-4 40q-52 -48 -113 -48q-54 0 -87 37.5t-33 99.5q0 68 26.5 121.5t71.5 82t100 28.5q27 0 51.5 -11t40.5 -30l19 33h92l-75 -353h-89zM53 200l18 83h318l-18 -83h-318zM249 435q31 0 55 20l26 128q-22 13 -46 13q-36 0 -58.5 -29.5t-22.5 -78.5q0 -53 46 -53z " />
<glyph unicode="&#xab;" horiz-adv-x="583" d="M177 272l103 -188h-153l-105 196l176 196h165zM413 272l103 -188h-153l-105 196l176 196h165z" />
<glyph unicode="&#xac;" horiz-adv-x="600" d="M339 100l38 177h-316l29 136h461l-67 -313h-145z" />
<glyph unicode="&#xae;" horiz-adv-x="604" d="M348 224q-80 0 -141.5 36t-95 97t-33.5 137q0 80 36 141.5t97 95t137 33.5q80 0 141.5 -36t95 -97t33.5 -137q0 -80 -36 -141.5t-97 -95t-137 -33.5zM348 289q61 0 106.5 26.5t70 73t24.5 105.5q0 62 -26 108.5t-71.5 71.5t-103.5 25q-61 0 -106.5 -26.5t-70 -73 t-24.5 -105.5q0 -62 26 -108.5t71.5 -71.5t103.5 -25zM243 634h115q50 0 78 -25t28 -68q0 -23 -11 -43t-32 -33l59 -101h-85l-44 85h-32v-85h-76v270zM319 510h41q13 0 21.5 8.5t8.5 22.5q0 12 -8.5 20t-21.5 8h-41v-59z" />
<glyph unicode="&#xb0;" horiz-adv-x="356" d="M227 481q28 0 47 22t19 54q0 24 -13 38t-36 14q-28 0 -47 -22t-19 -54q0 -24 13 -38t36 -14zM220 390q-63 0 -103.5 38.5t-40.5 98.5q0 51 23.5 90.5t63 61t88.5 21.5q63 0 103.5 -38.5t40.5 -98.5q0 -51 -23.5 -90.5t-63 -61t-88.5 -21.5z" />
<glyph unicode="&#xb2;" d="M89 420l10 45q13 60 47.5 98t109.5 75q33 16 51.5 26.5t26 18t7.5 17.5q0 9 -10 14.5t-27 5.5q-22 0 -54.5 -9.5t-65.5 -25.5l-26 87q41 23 85.5 35.5t85.5 12.5q67 0 105.5 -29.5t38.5 -81.5q0 -44 -32.5 -75.5t-116.5 -68.5q-36 -16 -46.5 -24t-14.5 -19h167l-22 -102 h-319z" />
<glyph unicode="&#xb3;" d="M230 410q-31 0 -66 5t-61 14l32 90q45 -13 97 -13q34 0 51.5 10.5t17.5 30.5q0 26 -56 26h-63l19 87h63q27 0 43 10.5t16 27.5q0 12 -14.5 19t-37.5 7q-38 0 -89 -14l-15 82q23 12 65.5 20t80.5 8q66 0 106 -25.5t40 -68.5q0 -32 -20 -58t-57 -43q50 -27 50 -81 q0 -62 -54.5 -98t-147.5 -36z" />
<glyph unicode="&#xb4;" horiz-adv-x="608" d="M228 601l140 161h206l-173 -161h-173z" />
<glyph unicode="&#xb6;" horiz-adv-x="602" d="M203 -110l77 361q-99 9 -149.5 58t-50.5 137q0 80 36 137.5t103.5 87t160.5 29.5h245l-172 -810h-91l153 718h-66l-153 -718h-93z" />
<glyph unicode="&#xb7;" horiz-adv-x="279" d="M41 275q0 45 34 76t83 31q37 0 61 -23t24 -59q0 -45 -34 -76t-83 -31q-37 0 -61 23t-24 59z" />
<glyph unicode="&#xb8;" horiz-adv-x="608" d="M120 -149q13 -7 32 -12t35 -5q23 0 37.5 10t14.5 27q0 26 -51 26h-43l57 105h91l-24 -42q72 -14 72 -87q0 -55 -43 -91t-109 -36q-60 0 -110 29z" />
<glyph unicode="&#xb9;" d="M146 703l179 107h124l-83 -390h-131l53 253l-99 -57z" />
<glyph unicode="&#xba;" horiz-adv-x="436" d="M46 200l18 83h318l-17 -83h-319zM256 435q31 0 53 29t22 69q0 30 -12.5 46.5t-35.5 16.5q-31 0 -53 -29t-22 -69q0 -30 12.5 -46.5t35.5 -16.5zM243 331q-71 0 -116 42t-45 110q0 63 28.5 113t77 77t108.5 27q71 0 116 -42t45 -110q0 -63 -28.5 -113t-77 -77t-108.5 -27z " />
<glyph unicode="&#xbb;" horiz-adv-x="583" d="M176 288l-103 188h153l105 -196l-176 -196h-165zM412 288l-103 188h153l105 -196l-176 -196h-165z" />
<glyph unicode="&#xbc;" horiz-adv-x="952" d="M190 0l540 690h151l-540 -690h-151zM702 0l13 62h-201l20 94l254 234h116l-51 -240h37l-19 -88h-37l-13 -62h-119zM733 150l23 106l-115 -106h92zM121 583l179 107h124l-83 -390h-131l53 253l-99 -57z" />
<glyph unicode="&#xbd;" horiz-adv-x="952" d="M144 0l540 690h151l-540 -690h-151zM514 0l10 45q13 60 47.5 98t109.5 75q33 16 51.5 26.5t26 18t7.5 17.5q0 9 -10 14.5t-27 5.5q-22 0 -54.5 -9.5t-65.5 -25.5l-26 87q41 23 85.5 35.5t85.5 12.5q67 0 105.5 -29.5t38.5 -81.5q0 -44 -32.5 -75.5t-116.5 -68.5 q-36 -16 -46.5 -24t-14.5 -19h167l-22 -102h-319zM121 583l179 107h124l-83 -390h-131l53 253l-99 -57z" />
<glyph unicode="&#xbe;" horiz-adv-x="952" d="M190 0l540 690h151l-540 -690h-151zM702 0l13 62h-201l20 94l254 234h116l-51 -240h37l-19 -88h-37l-13 -62h-119zM733 150l23 106l-115 -106h92zM205 290q-31 0 -66 5t-61 14l32 90q45 -13 97 -13q34 0 51.5 10.5t17.5 30.5q0 26 -56 26h-63l19 87h63q27 0 43 10.5 t16 27.5q0 12 -14.5 19t-37.5 7q-38 0 -89 -14l-15 82q23 12 65.5 20t80.5 8q66 0 106 -25.5t40 -68.5q0 -32 -20 -58t-57 -43q50 -27 50 -81q0 -62 -54.5 -98t-147.5 -36z" />
<glyph unicode="&#xbf;" horiz-adv-x="512" d="M378 290l-3 -14q-10 -50 -24.5 -83t-38 -58t-63.5 -48l-12 -7q-71 -42 -71 -83q0 -22 17 -34t49 -12q64 0 161 59l47 -123q-126 -84 -261 -84q-95 0 -148.5 41.5t-53.5 115.5q0 66 34 115.5t110 95.5l15 9q37 22 56 43.5t25 47.5l4 19h157zM227 437q0 45 34 76t83 31 q37 0 61 -23t24 -59q0 -45 -34 -76t-83 -31q-37 0 -61 23t-24 59z" />
<glyph unicode="&#xc0;" horiz-adv-x="699" d="M445 0l-10 118h-224l-58 -118h-200l394 700h191l97 -700h-190zM285 266h139l-19 241zM366 760l-136 140h211l88 -140h-163z" />
<glyph unicode="&#xc1;" horiz-adv-x="699" d="M445 0l-10 118h-224l-58 -118h-200l394 700h191l97 -700h-190zM285 266h139l-19 241zM348 760l150 141h232l-194 -141h-188z" />
<glyph unicode="&#xc2;" horiz-adv-x="699" d="M445 0l-10 118h-224l-58 -118h-200l394 700h191l97 -700h-190zM285 266h139l-19 241zM225 760l169 141h160l110 -141h-152l-50 56l-73 -56h-164z" />
<glyph unicode="&#xc3;" horiz-adv-x="699" d="M445 0l-10 118h-224l-58 -118h-200l394 700h191l97 -700h-190zM285 266h139l-19 241zM248 760q13 71 51 112.5t89 41.5q25 0 44 -6t44 -22q19 -12 28 -16t19 -4q13 0 23.5 11.5t14.5 30.5h115q-13 -71 -51 -112.5t-89 -41.5q-25 0 -44 6t-44 22q-19 12 -28 16t-19 4 q-13 0 -23.5 -11.5t-14.5 -30.5h-115z" />
<glyph unicode="&#xc4;" horiz-adv-x="699" d="M445 0l-10 118h-224l-58 -118h-200l394 700h191l97 -700h-190zM285 266h139l-19 241zM259 829q0 40 31 67.5t75 27.5q34 0 56 -20.5t22 -52.5q0 -40 -31 -67.5t-75 -27.5q-34 0 -56 20.5t-22 52.5zM484 829q0 40 31 67.5t75 27.5q34 0 56 -20.5t22 -52.5q0 -40 -31 -67.5 t-75 -27.5q-34 0 -56 20.5t-22 52.5z" />
<glyph unicode="&#xc5;" horiz-adv-x="699" d="M445 0l-10 118h-224l-58 -118h-200l394 700h191l97 -700h-190zM285 266h139l-19 241zM449 746q-50 0 -81.5 30.5t-31.5 79.5q0 41 22 73.5t57 50.5t76 18q50 0 81.5 -30.5t31.5 -79.5q0 -40 -22 -73t-57 -51t-76 -18zM463 831q19 0 33 13.5t14 32.5q0 15 -9.5 25.5 t-23.5 10.5q-19 0 -33 -13.5t-14 -32.5q0 -15 9.5 -25.5t23.5 -10.5z" />
<glyph unicode="&#xc6;" horiz-adv-x="968" d="M424 700h581l-34 -157h-264l-25 -116h213l-33 -153h-212l-25 -117h278l-34 -157h-465l35 168h-182l-106 -168h-213zM471 316l49 232h-24l-146 -232h121z" />
<glyph unicode="&#xc7;" horiz-adv-x="662" d="M386 -12q-155 0 -239.5 82t-84.5 232q0 119 55.5 213t147.5 145.5t205 51.5q58 0 112 -14.5t96 -41.5l-60 -150q-42 19 -76 26.5t-74 7.5q-63 0 -111 -29t-73.5 -79t-25.5 -115q0 -157 156 -157q38 0 75 10.5t66 28.5l43 -150q-29 -25 -89.5 -43t-122.5 -18zM220 -146 q13 -7 31.5 -12t34.5 -5q23 0 37.5 9.5t14.5 24.5q0 26 -52 26h-43l58 105h93l-23 -42q33 -8 51 -30t18 -56q0 -54 -43.5 -90.5t-108.5 -36.5q-59 0 -109 29z" />
<glyph unicode="&#xc8;" horiz-adv-x="582" d="M13 0l148 700h458l-34 -157h-269l-25 -116h218l-33 -153h-217l-25 -117h283l-34 -157h-470zM321 760l-136 140h211l88 -140h-163z" />
<glyph unicode="&#xc9;" horiz-adv-x="582" d="M13 0l148 700h458l-34 -157h-269l-25 -116h218l-33 -153h-217l-25 -117h283l-34 -157h-470zM303 760l150 141h232l-194 -141h-188z" />
<glyph unicode="&#xca;" horiz-adv-x="582" d="M13 0l148 700h458l-34 -157h-269l-25 -116h218l-33 -153h-217l-25 -117h283l-34 -157h-470zM180 760l169 141h160l110 -141h-152l-50 56l-73 -56h-164z" />
<glyph unicode="&#xcb;" horiz-adv-x="582" d="M13 0l148 700h458l-34 -157h-269l-25 -116h218l-33 -153h-217l-25 -117h283l-34 -157h-470zM214 829q0 40 31 67.5t75 27.5q34 0 56 -20.5t22 -52.5q0 -40 -31 -67.5t-75 -27.5q-34 0 -56 20.5t-22 52.5zM439 829q0 40 31 67.5t75 27.5q34 0 56 -20.5t22 -52.5 q0 -40 -31 -67.5t-75 -27.5q-34 0 -56 20.5t-22 52.5z" />
<glyph unicode="&#xcc;" horiz-adv-x="329" d="M13 0l148 700h191l-148 -700h-191zM180 760l-136 140h211l88 -140h-163z" />
<glyph unicode="&#xcd;" horiz-adv-x="329" d="M13 0l148 700h191l-148 -700h-191zM162 760l150 141h232l-194 -141h-188z" />
<glyph unicode="&#xce;" horiz-adv-x="329" d="M13 0l148 700h191l-148 -700h-191zM39 760l169 141h160l110 -141h-152l-50 56l-73 -56h-164z" />
<glyph unicode="&#xcf;" horiz-adv-x="329" d="M13 0l148 700h191l-148 -700h-191zM73 829q0 40 31 67.5t75 27.5q34 0 56 -20.5t22 -52.5q0 -40 -31 -67.5t-75 -27.5q-34 0 -56 20.5t-22 52.5zM298 829q0 40 31 67.5t75 27.5q34 0 56 -20.5t22 -52.5q0 -40 -31 -67.5t-75 -27.5q-34 0 -56 20.5t-22 52.5z" />
<glyph unicode="&#xd0;" horiz-adv-x="759" d="M734 409q0 -127 -56.5 -220t-159 -141t-243.5 -48h-242l62 293h-68l29 135h67l58 272h226q158 0 242.5 -75t84.5 -216zM538 404q0 70 -34 102.5t-106 32.5h-60l-24 -111h82l-29 -135h-81l-28 -132h49q110 0 170.5 63.5t60.5 179.5z" />
<glyph unicode="&#xd1;" horiz-adv-x="714" d="M13 0l148 700h171l141 -395l83 395h181l-148 -700h-171l-141 395l-83 -395h-181zM255 760q13 71 51 112.5t89 41.5q25 0 44 -6t44 -22q19 -12 28 -16t19 -4q13 0 23.5 11.5t14.5 30.5h115q-13 -71 -51 -112.5t-89 -41.5q-25 0 -44 6t-44 22q-19 12 -28 16t-19 4 q-13 0 -23.5 -11.5t-14.5 -30.5h-115z" />
<glyph unicode="&#xd2;" horiz-adv-x="774" d="M426 542q-49 0 -87.5 -30.5t-59.5 -80.5t-21 -110q0 -80 32.5 -121.5t94.5 -41.5q49 0 87.5 30.5t59.5 80.5t21 110q0 80 -32.5 121.5t-94.5 41.5zM438 712q96 0 166.5 -39t107.5 -109.5t37 -165.5q0 -119 -51.5 -213.5t-137 -145.5t-187.5 -51q-96 0 -166.5 39 t-107.5 109.5t-37 165.5q0 119 51.5 213.5t137 145.5t187.5 51zM379 760l-136 140h211l88 -140h-163z" />
<glyph unicode="&#xd3;" horiz-adv-x="774" d="M426 542q-49 0 -87.5 -30.5t-59.5 -80.5t-21 -110q0 -80 32.5 -121.5t94.5 -41.5q49 0 87.5 30.5t59.5 80.5t21 110q0 80 -32.5 121.5t-94.5 41.5zM438 712q96 0 166.5 -39t107.5 -109.5t37 -165.5q0 -119 -51.5 -213.5t-137 -145.5t-187.5 -51q-96 0 -166.5 39 t-107.5 109.5t-37 165.5q0 119 51.5 213.5t137 145.5t187.5 51zM361 760l150 141h232l-194 -141h-188z" />
<glyph unicode="&#xd4;" horiz-adv-x="774" d="M426 542q-49 0 -87.5 -30.5t-59.5 -80.5t-21 -110q0 -80 32.5 -121.5t94.5 -41.5q49 0 87.5 30.5t59.5 80.5t21 110q0 80 -32.5 121.5t-94.5 41.5zM438 712q96 0 166.5 -39t107.5 -109.5t37 -165.5q0 -119 -51.5 -213.5t-137 -145.5t-187.5 -51q-96 0 -166.5 39 t-107.5 109.5t-37 165.5q0 119 51.5 213.5t137 145.5t187.5 51zM238 760l169 141h160l110 -141h-152l-50 56l-73 -56h-164z" />
<glyph unicode="&#xd5;" horiz-adv-x="774" d="M426 542q-49 0 -87.5 -30.5t-59.5 -80.5t-21 -110q0 -80 32.5 -121.5t94.5 -41.5q49 0 87.5 30.5t59.5 80.5t21 110q0 80 -32.5 121.5t-94.5 41.5zM438 712q96 0 166.5 -39t107.5 -109.5t37 -165.5q0 -119 -51.5 -213.5t-137 -145.5t-187.5 -51q-96 0 -166.5 39 t-107.5 109.5t-37 165.5q0 119 51.5 213.5t137 145.5t187.5 51zM261 760q13 71 51 112.5t89 41.5q25 0 44 -6t44 -22q19 -12 28 -16t19 -4q13 0 23.5 11.5t14.5 30.5h115q-13 -71 -51 -112.5t-89 -41.5q-25 0 -44 6t-44 22q-19 12 -28 16t-19 4q-13 0 -23.5 -11.5 t-14.5 -30.5h-115z" />
<glyph unicode="&#xd6;" horiz-adv-x="774" d="M426 542q-49 0 -87.5 -30.5t-59.5 -80.5t-21 -110q0 -80 32.5 -121.5t94.5 -41.5q49 0 87.5 30.5t59.5 80.5t21 110q0 80 -32.5 121.5t-94.5 41.5zM438 712q96 0 166.5 -39t107.5 -109.5t37 -165.5q0 -119 -51.5 -213.5t-137 -145.5t-187.5 -51q-96 0 -166.5 39 t-107.5 109.5t-37 165.5q0 119 51.5 213.5t137 145.5t187.5 51zM272 829q0 40 31 67.5t75 27.5q34 0 56 -20.5t22 -52.5q0 -40 -31 -67.5t-75 -27.5q-34 0 -56 20.5t-22 52.5zM497 829q0 40 31 67.5t75 27.5q34 0 56 -20.5t22 -52.5q0 -40 -31 -67.5t-75 -27.5 q-34 0 -56 20.5t-22 52.5z" />
<glyph unicode="&#xd7;" horiz-adv-x="600" d="M414 337l111 -149l-116 -90l-107 143l-157 -135l-87 106l162 139l-110 149l116 90l106 -143l158 135l87 -106z" />
<glyph unicode="&#xd8;" horiz-adv-x="774" d="M788 645l-79 -76q40 -72 40 -171q0 -119 -51.5 -213.5t-137 -145.5t-187.5 -51q-122 0 -202 62l-72 -70l-76 75l79 76q-40 72 -40 171q0 119 51.5 213.5t137 145.5t187.5 51q122 0 202 -62l72 70zM427 548q-51 0 -91 -31.5t-62 -83t-22 -113.5q0 -21 3 -41l253 244 q-31 25 -81 25zM559 380q0 22 -3 41l-253 -244q31 -25 81 -25q51 0 91 31.5t62 83t22 113.5z" />
<glyph unicode="&#xd9;" horiz-adv-x="693" d="M633 278q-22 -104 -60.5 -167t-101 -93t-158.5 -30q-118 0 -185.5 57.5t-67.5 157.5q0 55 16 132l77 365h191l-77 -365q-15 -68 -15 -100q0 -41 19 -59t61 -18t71 32.5t42 93.5l88 416h189zM362 760l-136 140h211l88 -140h-163z" />
<glyph unicode="&#xda;" horiz-adv-x="693" d="M633 278q-22 -104 -60.5 -167t-101 -93t-158.5 -30q-118 0 -185.5 57.5t-67.5 157.5q0 55 16 132l77 365h191l-77 -365q-15 -68 -15 -100q0 -41 19 -59t61 -18t71 32.5t42 93.5l88 416h189zM344 760l150 141h232l-194 -141h-188z" />
<glyph unicode="&#xdb;" horiz-adv-x="693" d="M633 278q-22 -104 -60.5 -167t-101 -93t-158.5 -30q-118 0 -185.5 57.5t-67.5 157.5q0 55 16 132l77 365h191l-77 -365q-15 -68 -15 -100q0 -41 19 -59t61 -18t71 32.5t42 93.5l88 416h189zM221 760l169 141h160l110 -141h-152l-50 56l-73 -56h-164z" />
<glyph unicode="&#xdc;" horiz-adv-x="693" d="M633 278q-22 -104 -60.5 -167t-101 -93t-158.5 -30q-118 0 -185.5 57.5t-67.5 157.5q0 55 16 132l77 365h191l-77 -365q-15 -68 -15 -100q0 -41 19 -59t61 -18t71 32.5t42 93.5l88 416h189zM255 829q0 40 31 67.5t75 27.5q34 0 56 -20.5t22 -52.5q0 -40 -31 -67.5 t-75 -27.5q-34 0 -56 20.5t-22 52.5zM480 829q0 40 31 67.5t75 27.5q34 0 56 -20.5t22 -52.5q0 -40 -31 -67.5t-75 -27.5q-34 0 -56 20.5t-22 52.5z" />
<glyph unicode="&#xdd;" horiz-adv-x="651" d="M226 253l-129 447h189l60 -308l191 308h199l-319 -447l-53 -253h-191zM318 760l150 141h232l-194 -141h-188z" />
<glyph unicode="&#xde;" horiz-adv-x="658" d="M349 700l-21 -96h37q137 0 203 -52.5t66 -162.5q0 -86 -39.5 -148.5t-112.5 -95t-174 -32.5h-83l-24 -113h-188l148 700h188zM295 447l-37 -177h60q58 0 91 28t33 78q0 38 -20.5 54.5t-68.5 16.5h-58z" />
<glyph unicode="&#xdf;" horiz-adv-x="655" d="M652 576q0 -59 -37.5 -108t-100.5 -74q47 -18 73 -59t26 -98q0 -80 -34 -135.5t-96.5 -84.5t-142.5 -29q-71 0 -113 20l46 132q27 -9 62 -9q45 0 72.5 29t27.5 74q0 40 -24 59.5t-76 19.5h-31l30 138h25q51 0 82 28.5t31 71.5q0 32 -18 49t-50 17q-43 0 -73 -35t-44 -102 l-102 -480h-177l102 482q29 137 109.5 207.5t207.5 70.5q104 0 164.5 -48.5t60.5 -135.5z" />
<glyph unicode="&#xe0;" horiz-adv-x="618" d="M368 0l-6 58q-40 -37 -78 -53.5t-84 -16.5q-51 0 -89.5 27.5t-59.5 75t-21 107.5q0 101 39 180.5t104 122.5t144 43q40 0 74.5 -15.5t58.5 -43.5l26 47h135l-113 -532h-130zM274 136q43 0 79 30l45 212q-33 18 -68 18q-52 0 -84.5 -47t-32.5 -122q0 -44 16 -67.5 t45 -23.5zM284 601l-109 161h190l69 -161h-150z" />
<glyph unicode="&#xe1;" horiz-adv-x="618" d="M368 0l-6 58q-40 -37 -78 -53.5t-84 -16.5q-51 0 -89.5 27.5t-59.5 75t-21 107.5q0 101 39 180.5t104 122.5t144 43q40 0 74.5 -15.5t58.5 -43.5l26 47h135l-113 -532h-130zM274 136q43 0 79 30l45 212q-33 18 -68 18q-52 0 -84.5 -47t-32.5 -122q0 -44 16 -67.5 t45 -23.5zM265 601l140 161h206l-173 -161h-173z" />
<glyph unicode="&#xe2;" horiz-adv-x="618" d="M368 0l-6 58q-40 -37 -78 -53.5t-84 -16.5q-51 0 -89.5 27.5t-59.5 75t-21 107.5q0 101 39 180.5t104 122.5t144 43q40 0 74.5 -15.5t58.5 -43.5l26 47h135l-113 -532h-130zM274 136q43 0 79 30l45 212q-33 18 -68 18q-52 0 -84.5 -47t-32.5 -122q0 -44 16 -67.5 t45 -23.5zM156 601l159 161h150l91 -161h-137l-42 65l-69 -65h-152z" />
<glyph unicode="&#xe3;" horiz-adv-x="618" d="M368 0l-6 58q-40 -37 -78 -53.5t-84 -16.5q-51 0 -89.5 27.5t-59.5 75t-21 107.5q0 101 39 180.5t104 122.5t144 43q40 0 74.5 -15.5t58.5 -43.5l26 47h135l-113 -532h-130zM274 136q43 0 79 30l45 212q-33 18 -68 18q-52 0 -84.5 -47t-32.5 -122q0 -44 16 -67.5 t45 -23.5zM171 614q14 74 53 116.5t91 42.5q22 0 40 -6.5t41 -22.5q16 -11 25.5 -15.5t19.5 -4.5q24 0 34 43h110q-14 -74 -53 -116.5t-91 -42.5q-22 0 -40 6.5t-41 22.5q-16 11 -25.5 15.5t-19.5 4.5q-24 0 -34 -43h-110z" />
<glyph unicode="&#xe4;" horiz-adv-x="618" d="M368 0l-6 58q-40 -37 -78 -53.5t-84 -16.5q-51 0 -89.5 27.5t-59.5 75t-21 107.5q0 101 39 180.5t104 122.5t144 43q40 0 74.5 -15.5t58.5 -43.5l26 47h135l-113 -532h-130zM274 136q43 0 79 30l45 212q-33 18 -68 18q-52 0 -84.5 -47t-32.5 -122q0 -44 16 -67.5 t45 -23.5zM182 670q0 38 29.5 64.5t71.5 26.5q32 0 53 -19.5t21 -49.5q0 -38 -29.5 -64.5t-71.5 -26.5q-32 0 -53 19.5t-21 49.5zM395 670q0 38 29.5 64.5t71.5 26.5q32 0 53 -19.5t21 -49.5q0 -38 -29.5 -64.5t-71.5 -26.5q-32 0 -53 19.5t-21 49.5z" />
<glyph unicode="&#xe5;" horiz-adv-x="618" d="M368 0l-6 58q-40 -37 -78 -53.5t-84 -16.5q-51 0 -89.5 27.5t-59.5 75t-21 107.5q0 101 39 180.5t104 122.5t144 43q40 0 74.5 -15.5t58.5 -43.5l26 47h135l-113 -532h-130zM274 136q43 0 79 30l45 212q-33 18 -68 18q-52 0 -84.5 -47t-32.5 -122q0 -44 16 -67.5 t45 -23.5zM360 578q-49 0 -80.5 30.5t-31.5 78.5q0 40 21.5 72.5t56.5 50.5t76 18q49 0 80.5 -30.5t31.5 -78.5q0 -40 -21.5 -72.5t-56.5 -50.5t-76 -18zM374 661q20 0 34 14t14 33q0 16 -9.5 26.5t-24.5 10.5q-20 0 -34 -14t-14 -33q0 -16 9.5 -26.5t24.5 -10.5z" />
<glyph unicode="&#xe6;" horiz-adv-x="907" d="M627 -12q-53 0 -86 13t-54 41l-7 -42h-127l-1 49q-36 -32 -72 -46.5t-80 -14.5q-51 0 -89.5 27.5t-59.5 75t-21 107.5q0 101 39 180.5t104 122.5t144 43q36 0 68.5 -13t56.5 -37l16 38h119l-3 -42q68 54 158 54q67 0 111 -40.5t44 -103.5q0 -60 -37 -105t-101 -69.5 t-142 -24.5q-29 0 -58 4q6 -39 28.5 -56.5t71.5 -17.5q36 0 73.5 12t70.5 34l29 -126q-39 -29 -91.5 -46t-103.5 -17zM274 136q43 0 79 30l45 212q-33 18 -68 18q-52 0 -84.5 -47t-32.5 -122q0 -44 16 -67.5t45 -23.5zM686 411q-40 0 -74.5 -30t-52.5 -79q15 -2 33 -2 q58 0 95.5 20.5t37.5 52.5q0 18 -10.5 28t-28.5 10z" />
<glyph unicode="&#xe7;" horiz-adv-x="508" d="M257 -12q-106 0 -166.5 61t-60.5 171q0 95 44.5 169t119 114.5t165.5 40.5q87 0 154 -41l-60 -132q-52 23 -94 23q-65 0 -105.5 -42t-40.5 -111q0 -54 21.5 -78.5t68.5 -24.5q49 0 108 36l29 -128q-34 -26 -84.5 -42t-98.5 -16zM99 -149q13 -7 32 -12t35 -5q23 0 37.5 10 t14.5 27q0 26 -51 26h-43l57 105h91l-24 -42q72 -14 72 -87q0 -55 -43 -91t-109 -36q-60 0 -110 29z" />
<glyph unicode="&#xe8;" horiz-adv-x="556" d="M257 -12q-109 0 -168 60t-59 172q0 95 45.5 169t121.5 114.5t168 40.5q77 0 124 -39.5t47 -104.5q0 -60 -37 -105t-101 -69.5t-142 -24.5q-29 0 -58 4q6 -39 28.5 -56.5t71.5 -17.5q36 0 73.5 12t70.5 34l29 -126q-41 -31 -96 -47t-118 -16zM335 411q-40 0 -74.5 -30 t-52.5 -79q15 -2 33 -2q58 0 95.5 20.5t37.5 52.5q0 18 -10.5 28t-28.5 10zM278 601l-109 161h190l69 -161h-150z" />
<glyph unicode="&#xe9;" horiz-adv-x="556" d="M257 -12q-109 0 -168 60t-59 172q0 95 45.5 169t121.5 114.5t168 40.5q77 0 124 -39.5t47 -104.5q0 -60 -37 -105t-101 -69.5t-142 -24.5q-29 0 -58 4q6 -39 28.5 -56.5t71.5 -17.5q36 0 73.5 12t70.5 34l29 -126q-41 -31 -96 -47t-118 -16zM335 411q-40 0 -74.5 -30 t-52.5 -79q15 -2 33 -2q58 0 95.5 20.5t37.5 52.5q0 18 -10.5 28t-28.5 10zM259 601l140 161h206l-173 -161h-173z" />
<glyph unicode="&#xea;" horiz-adv-x="556" d="M257 -12q-109 0 -168 60t-59 172q0 95 45.5 169t121.5 114.5t168 40.5q77 0 124 -39.5t47 -104.5q0 -60 -37 -105t-101 -69.5t-142 -24.5q-29 0 -58 4q6 -39 28.5 -56.5t71.5 -17.5q36 0 73.5 12t70.5 34l29 -126q-41 -31 -96 -47t-118 -16zM335 411q-40 0 -74.5 -30 t-52.5 -79q15 -2 33 -2q58 0 95.5 20.5t37.5 52.5q0 18 -10.5 28t-28.5 10zM150 601l159 161h150l91 -161h-137l-42 65l-69 -65h-152z" />
<glyph unicode="&#xeb;" horiz-adv-x="556" d="M257 -12q-109 0 -168 60t-59 172q0 95 45.5 169t121.5 114.5t168 40.5q77 0 124 -39.5t47 -104.5q0 -60 -37 -105t-101 -69.5t-142 -24.5q-29 0 -58 4q6 -39 28.5 -56.5t71.5 -17.5q36 0 73.5 12t70.5 34l29 -126q-41 -31 -96 -47t-118 -16zM335 411q-40 0 -74.5 -30 t-52.5 -79q15 -2 33 -2q58 0 95.5 20.5t37.5 52.5q0 18 -10.5 28t-28.5 10zM176 670q0 38 29.5 64.5t71.5 26.5q32 0 53 -19.5t21 -49.5q0 -38 -29.5 -64.5t-71.5 -26.5q-32 0 -53 19.5t-21 49.5zM389 670q0 38 29.5 64.5t71.5 26.5q32 0 53 -19.5t21 -49.5 q0 -38 -29.5 -64.5t-71.5 -26.5q-32 0 -53 19.5t-21 49.5z" />
<glyph unicode="&#xec;" horiz-adv-x="308" d="M121 532h180l-113 -532h-180zM143 601l-109 161h190l69 -161h-150z" />
<glyph unicode="&#xed;" horiz-adv-x="308" d="M121 532h180l-113 -532h-180zM124 601l140 161h206l-173 -161h-173z" />
<glyph unicode="&#xee;" horiz-adv-x="308" d="M121 532h180l-113 -532h-180zM15 601l159 161h150l91 -161h-137l-42 65l-69 -65h-152z" />
<glyph unicode="&#xef;" horiz-adv-x="308" d="M121 532h180l-113 -532h-180zM41 670q0 38 29.5 64.5t71.5 26.5q32 0 53 -19.5t21 -49.5q0 -38 -29.5 -64.5t-71.5 -26.5q-32 0 -53 19.5t-21 49.5zM254 670q0 38 29.5 64.5t71.5 26.5q32 0 53 -19.5t21 -49.5q0 -38 -29.5 -64.5t-71.5 -26.5q-32 0 -53 19.5t-21 49.5z " />
<glyph unicode="&#xf0;" horiz-adv-x="615" d="M214 578l76 53q-37 22 -60 33l74 121q64 -23 120 -61l101 71l46 -67l-83 -58q52 -55 79 -126.5t27 -154.5q0 -122 -41.5 -213.5t-115.5 -139.5t-172 -48q-109 0 -173 59.5t-64 162.5q0 81 38 146.5t99 102t131 36.5q34 0 64.5 -10t53.5 -29q-13 68 -60 121l-94 -66z M283 136q29 0 53.5 18.5t37.5 48.5t13 65q0 38 -19 59t-53 21q-29 0 -53.5 -18.5t-37.5 -48.5t-13 -65q0 -38 19 -59t53 -21z" />
<glyph unicode="&#xf1;" horiz-adv-x="608" d="M271 532l2 -64q35 37 76.5 56.5t83.5 19.5q61 0 99 -38.5t38 -99.5q0 -39 -14 -105l-64 -301h-180l63 296q7 31 7 55q0 20 -11 30.5t-31 10.5q-37 0 -75 -30l-77 -362h-180l113 532h150zM182 614q14 74 53 116.5t91 42.5q22 0 40 -6.5t41 -22.5q16 -11 25.5 -15.5 t19.5 -4.5q24 0 34 43h110q-14 -74 -53 -116.5t-91 -42.5q-22 0 -40 6.5t-41 22.5q-16 11 -25.5 15.5t-19.5 4.5q-24 0 -34 -43h-110z" />
<glyph unicode="&#xf2;" horiz-adv-x="602" d="M572 312q0 -95 -41 -169.5t-110.5 -114.5t-157.5 -40q-71 0 -124 29.5t-81 82t-28 120.5q0 95 41 169.5t110.5 114.5t157.5 40q71 0 124 -29.5t81 -82t28 -120.5zM281 136q31 0 55.5 22t38.5 57.5t14 75.5q0 50 -17.5 77.5t-50.5 27.5q-31 0 -55.5 -22t-38.5 -57.5 t-14 -75.5q0 -50 17.5 -77.5t50.5 -27.5zM273 601l-109 161h190l69 -161h-150z" />
<glyph unicode="&#xf3;" horiz-adv-x="602" d="M572 312q0 -95 -41 -169.5t-110.5 -114.5t-157.5 -40q-71 0 -124 29.5t-81 82t-28 120.5q0 95 41 169.5t110.5 114.5t157.5 40q71 0 124 -29.5t81 -82t28 -120.5zM281 136q31 0 55.5 22t38.5 57.5t14 75.5q0 50 -17.5 77.5t-50.5 27.5q-31 0 -55.5 -22t-38.5 -57.5 t-14 -75.5q0 -50 17.5 -77.5t50.5 -27.5zM254 601l140 161h206l-173 -161h-173z" />
<glyph unicode="&#xf4;" horiz-adv-x="602" d="M572 312q0 -95 -41 -169.5t-110.5 -114.5t-157.5 -40q-71 0 -124 29.5t-81 82t-28 120.5q0 95 41 169.5t110.5 114.5t157.5 40q71 0 124 -29.5t81 -82t28 -120.5zM281 136q31 0 55.5 22t38.5 57.5t14 75.5q0 50 -17.5 77.5t-50.5 27.5q-31 0 -55.5 -22t-38.5 -57.5 t-14 -75.5q0 -50 17.5 -77.5t50.5 -27.5zM145 601l159 161h150l91 -161h-137l-42 65l-69 -65h-152z" />
<glyph unicode="&#xf5;" horiz-adv-x="602" d="M572 312q0 -95 -41 -169.5t-110.5 -114.5t-157.5 -40q-71 0 -124 29.5t-81 82t-28 120.5q0 95 41 169.5t110.5 114.5t157.5 40q71 0 124 -29.5t81 -82t28 -120.5zM281 136q31 0 55.5 22t38.5 57.5t14 75.5q0 50 -17.5 77.5t-50.5 27.5q-31 0 -55.5 -22t-38.5 -57.5 t-14 -75.5q0 -50 17.5 -77.5t50.5 -27.5zM160 614q14 74 53 116.5t91 42.5q22 0 40 -6.5t41 -22.5q16 -11 25.5 -15.5t19.5 -4.5q24 0 34 43h110q-14 -74 -53 -116.5t-91 -42.5q-22 0 -40 6.5t-41 22.5q-16 11 -25.5 15.5t-19.5 4.5q-24 0 -34 -43h-110z" />
<glyph unicode="&#xf6;" horiz-adv-x="602" d="M572 312q0 -95 -41 -169.5t-110.5 -114.5t-157.5 -40q-71 0 -124 29.5t-81 82t-28 120.5q0 95 41 169.5t110.5 114.5t157.5 40q71 0 124 -29.5t81 -82t28 -120.5zM281 136q31 0 55.5 22t38.5 57.5t14 75.5q0 50 -17.5 77.5t-50.5 27.5q-31 0 -55.5 -22t-38.5 -57.5 t-14 -75.5q0 -50 17.5 -77.5t50.5 -27.5zM171 670q0 38 29.5 64.5t71.5 26.5q32 0 53 -19.5t21 -49.5q0 -38 -29.5 -64.5t-71.5 -26.5q-32 0 -53 19.5t-21 49.5zM384 670q0 38 29.5 64.5t71.5 26.5q32 0 53 -19.5t21 -49.5q0 -38 -29.5 -64.5t-71.5 -26.5q-32 0 -53 19.5 t-21 49.5z" />
<glyph unicode="&#xf7;" horiz-adv-x="600" d="M264 86q-30 0 -49.5 18.5t-19.5 47.5q0 37 27.5 62t67.5 25q30 0 49.5 -18.5t19.5 -47.5q0 -37 -27.5 -62t-67.5 -25zM532 277h-461l29 136h461zM342 451q-30 0 -49.5 18.5t-19.5 47.5q0 37 27.5 62t67.5 25q30 0 49.5 -18.5t19.5 -47.5q0 -37 -27.5 -62t-67.5 -25z" />
<glyph unicode="&#xf8;" horiz-adv-x="602" d="M603 493l-60 -58q29 -52 29 -123q0 -95 -41 -169.5t-110.5 -114.5t-157.5 -40q-85 0 -144 42l-58 -55l-62 64l60 58q-29 52 -29 123q0 95 41 169.5t110.5 114.5t157.5 40q85 0 144 -42l58 55zM279 124q37 0 65.5 23.5t44.5 62.5t16 83v11l-173 -166q19 -14 47 -14z M197 228l173 166q-19 14 -47 14q-37 0 -65.5 -23.5t-44.5 -62.5t-16 -83v-11z" />
<glyph unicode="&#xf9;" horiz-adv-x="604" d="M334 66q-34 -37 -76 -57.5t-84 -20.5q-60 0 -97.5 38.5t-37.5 99.5q0 39 14 105l64 301h180l-63 -296q-7 -31 -7 -55q0 -20 11 -30.5t31 -10.5q31 0 71 29l77 363h180l-113 -532h-143zM289 601l-109 161h190l69 -161h-150z" />
<glyph unicode="&#xfa;" horiz-adv-x="604" d="M334 66q-34 -37 -76 -57.5t-84 -20.5q-60 0 -97.5 38.5t-37.5 99.5q0 39 14 105l64 301h180l-63 -296q-7 -31 -7 -55q0 -20 11 -30.5t31 -10.5q31 0 71 29l77 363h180l-113 -532h-143zM270 601l140 161h206l-173 -161h-173z" />
<glyph unicode="&#xfb;" horiz-adv-x="604" d="M334 66q-34 -37 -76 -57.5t-84 -20.5q-60 0 -97.5 38.5t-37.5 99.5q0 39 14 105l64 301h180l-63 -296q-7 -31 -7 -55q0 -20 11 -30.5t31 -10.5q31 0 71 29l77 363h180l-113 -532h-143zM161 601l159 161h150l91 -161h-137l-42 65l-69 -65h-152z" />
<glyph unicode="&#xfc;" horiz-adv-x="604" d="M334 66q-34 -37 -76 -57.5t-84 -20.5q-60 0 -97.5 38.5t-37.5 99.5q0 39 14 105l64 301h180l-63 -296q-7 -31 -7 -55q0 -20 11 -30.5t31 -10.5q31 0 71 29l77 363h180l-113 -532h-143zM187 670q0 38 29.5 64.5t71.5 26.5q32 0 53 -19.5t21 -49.5q0 -38 -29.5 -64.5 t-71.5 -26.5q-32 0 -53 19.5t-21 49.5zM400 670q0 38 29.5 64.5t71.5 26.5q32 0 53 -19.5t21 -49.5q0 -38 -29.5 -64.5t-71.5 -26.5q-32 0 -53 19.5t-21 49.5z" />
<glyph unicode="&#xfd;" horiz-adv-x="595" d="M41 -226q-67 0 -122 28l55 135q30 -16 68 -16q34 0 58 16t49 54l12 18l-106 523h197l31 -323l152 323h206l-331 -543q-49 -81 -89 -127.5t-82 -67t-98 -20.5zM256 601l140 161h206l-173 -161h-173z" />
<glyph unicode="&#xfe;" horiz-adv-x="620" d="M303 -12q-63 0 -109 35l-51 -239h-180l205 966h180l-53 -249q59 43 125 43q51 0 89.5 -27.5t59.5 -75t21 -107.5q0 -101 -39 -180.5t-104 -122.5t-144 -43zM346 396q-41 0 -80 -31l-45 -212q19 -10 34 -13.5t35 -3.5q52 0 84.5 47t32.5 122q0 44 -16 67.5t-45 23.5z" />
<glyph unicode="&#xff;" horiz-adv-x="595" d="M41 -226q-67 0 -122 28l55 135q30 -16 68 -16q34 0 58 16t49 54l12 18l-106 523h197l31 -323l152 323h206l-331 -543q-49 -81 -89 -127.5t-82 -67t-98 -20.5zM173 670q0 38 29.5 64.5t71.5 26.5q32 0 53 -19.5t21 -49.5q0 -38 -29.5 -64.5t-71.5 -26.5q-32 0 -53 19.5 t-21 49.5zM386 670q0 38 29.5 64.5t71.5 26.5q32 0 53 -19.5t21 -49.5q0 -38 -29.5 -64.5t-71.5 -26.5q-32 0 -53 19.5t-21 49.5z" />
<glyph unicode="&#x102;" horiz-adv-x="699" d="M445 0l-10 118h-224l-58 -118h-200l394 700h191l97 -700h-190zM285 266h139l-19 241zM444 755q-68 0 -110.5 37.5t-42.5 97.5q0 15 1 21h125v-6q0 -21 12.5 -33.5t32.5 -12.5q21 0 37.5 15t20.5 37h126q-14 -74 -67 -115t-135 -41z" />
<glyph unicode="&#x103;" horiz-adv-x="618" d="M368 0l-6 58q-40 -37 -78 -53.5t-84 -16.5q-51 0 -89.5 27.5t-59.5 75t-21 107.5q0 101 39 180.5t104 122.5t144 43q40 0 74.5 -15.5t58.5 -43.5l26 47h135l-113 -532h-130zM274 136q43 0 79 30l45 212q-33 18 -68 18q-52 0 -84.5 -47t-32.5 -122q0 -44 16 -67.5 t45 -23.5zM363 598q-66 0 -107.5 37.5t-41.5 97.5q0 10 2 26h113v-6q0 -21 13 -33.5t36 -12.5q24 0 42 15t22 37h115q-13 -76 -64.5 -118.5t-129.5 -42.5z" />
<glyph unicode="&#x131;" horiz-adv-x="308" d="M121 532h180l-113 -532h-180z" />
<glyph unicode="&#x132;" horiz-adv-x="826" d="M13 0l148 700h191l-148 -700h-191zM470 -12q-46 0 -92.5 12t-71.5 30l48 149q19 -11 45.5 -18.5t50.5 -7.5q38 0 61 11.5t38 40t26 81.5l88 414h191l-94 -442q-20 -94 -55 -153.5t-90 -88t-145 -28.5z" />
<glyph unicode="&#x133;" horiz-adv-x="617" d="M121 532h180l-113 -532h-180zM139 659q0 43 33 74t79 31q41 0 64.5 -22t23.5 -60q0 -43 -33 -74t-79 -31q-41 0 -64.5 22t-23.5 60zM610 532l-110 -515q-26 -123 -82 -183t-144 -60q-67 0 -125 29l50 129q22 -10 47 -10q28 0 45.5 21t27.5 67l111 522h180zM448 659 q0 43 33 74t79 31q41 0 64.5 -22t23.5 -60q0 -43 -33 -74t-79 -31q-41 0 -64.5 22t-23.5 60z" />
<glyph unicode="&#x152;" horiz-adv-x="1028" d="M312 -12q-73 0 -130.5 41t-88.5 112t-31 161q0 117 50.5 211.5t132 146.5t176.5 52q57 0 103.5 -20t73.5 -56l14 64h453l-34 -157h-264l-25 -116h213l-33 -153h-212l-25 -117h278l-34 -157h-455l14 67q-60 -79 -176 -79zM385 158q49 0 87.5 30.5t59.5 80.5t21 110 q0 80 -32.5 121.5t-94.5 41.5q-49 0 -87.5 -30.5t-59.5 -80.5t-21 -110q0 -80 32.5 -121.5t94.5 -41.5z" />
<glyph unicode="&#x153;" horiz-adv-x="915" d="M616 -12q-127 0 -173 83q-33 -40 -84.5 -61.5t-113.5 -21.5q-64 0 -113 30.5t-75.5 83t-26.5 118.5q0 95 41 169.5t110.5 114.5t157.5 40q58 0 103 -23t69 -66q42 43 96.5 66t116.5 23q77 0 124 -39.5t47 -104.5q0 -60 -37 -105t-101 -69.5t-142 -24.5q-29 0 -58 4 q6 -39 28.5 -56.5t71.5 -17.5q36 0 73.5 12t70.5 34l29 -126q-41 -31 -96 -47t-118 -16zM281 136q31 0 55.5 22t38.5 57.5t14 75.5q0 50 -17.5 77.5t-50.5 27.5q-31 0 -55.5 -22t-38.5 -57.5t-14 -75.5q0 -50 17.5 -77.5t50.5 -27.5zM694 411q-40 0 -74.5 -30t-52.5 -79 q15 -2 33 -2q58 0 95.5 20.5t37.5 52.5q0 18 -10.5 28t-28.5 10z" />
<glyph unicode="&#x15e;" horiz-adv-x="609" d="M263 -12q-80 0 -146 18.5t-112 52.5l59 146q38 -22 90 -37t95 -15q50 0 78.5 16t28.5 44q0 23 -18.5 36.5t-76.5 36.5l-20 8q-139 55 -139 186q0 107 75.5 169.5t204.5 62.5q64 0 125 -16.5t101 -44.5l-60 -147q-83 43 -167 43q-41 0 -62.5 -13.5t-21.5 -38.5 q0 -19 11.5 -30.5t50.5 -27.5l20 -8q93 -37 132.5 -82.5t39.5 -113.5q0 -75 -36 -131t-100.5 -85t-151.5 -29zM110 -146q13 -7 31.5 -12t34.5 -5q23 0 37.5 9.5t14.5 24.5q0 26 -52 26h-43l58 105h93l-23 -42q33 -8 51 -30t18 -56q0 -54 -43.5 -90.5t-108.5 -36.5 q-59 0 -109 29z" />
<glyph unicode="&#x15f;" horiz-adv-x="514" d="M216 -12q-65 0 -117 13.5t-102 44.5l58 125q82 -44 160 -44q30 0 47 8.5t17 24.5q0 12 -13.5 21t-45.5 20l-18 6q-70 24 -100 57.5t-30 88.5q0 57 32.5 100.5t88.5 67t127 23.5q100 0 183 -49l-58 -125q-63 35 -130 35q-31 0 -48.5 -8t-17.5 -22q0 -12 11 -19.5t41 -17.5 l18 -6q71 -24 104 -59t33 -87q0 -58 -32.5 -103t-86.5 -70t-121 -25zM65 -149q13 -7 32 -12t35 -5q23 0 37.5 10t14.5 27q0 26 -51 26h-43l57 105h91l-24 -42q72 -14 72 -87q0 -55 -43 -91t-109 -36q-60 0 -110 29z" />
<glyph unicode="&#x160;" horiz-adv-x="609" d="M263 -12q-80 0 -146 18.5t-112 52.5l59 146q38 -22 90 -37t95 -15q50 0 78.5 16t28.5 44q0 23 -18.5 36.5t-76.5 36.5l-20 8q-139 55 -139 186q0 107 75.5 169.5t204.5 62.5q64 0 125 -16.5t101 -44.5l-60 -147q-83 43 -167 43q-41 0 -62.5 -13.5t-21.5 -38.5 q0 -19 11.5 -30.5t50.5 -27.5l20 -8q93 -37 132.5 -82.5t39.5 -113.5q0 -75 -36 -131t-100.5 -85t-151.5 -29zM656 901l-169 -141h-160l-110 141h152l50 -56l73 56h164z" />
<glyph unicode="&#x161;" horiz-adv-x="514" d="M216 -12q-65 0 -117 13.5t-102 44.5l58 125q82 -44 160 -44q30 0 47 8.5t17 24.5q0 12 -13.5 21t-45.5 20l-18 6q-70 24 -100 57.5t-30 88.5q0 57 32.5 100.5t88.5 67t127 23.5q100 0 183 -49l-58 -125q-63 35 -130 35q-31 0 -48.5 -8t-17.5 -22q0 -12 11 -19.5t41 -17.5 l18 -6q71 -24 104 -59t33 -87q0 -58 -32.5 -103t-86.5 -70t-121 -25zM559 762l-159 -161h-150l-91 161h137l42 -65l69 65h152z" />
<glyph unicode="&#x162;" horiz-adv-x="631" d="M165 0l113 534h-193l35 166h573l-35 -166h-190l-112 -534h-191zM137 -146q13 -7 31.5 -12t34.5 -5q23 0 37.5 9.5t14.5 24.5q0 26 -52 26h-43l58 105h93l-23 -42q33 -8 51 -30t18 -56q0 -54 -43.5 -90.5t-108.5 -36.5q-59 0 -109 29z" />
<glyph unicode="&#x163;" horiz-adv-x="454" d="M218 -12q-70 0 -111.5 38.5t-41.5 101.5q0 39 9 84l39 185h-80l29 135h88l58 135h142l-28 -135h137l-29 -135h-137l-35 -166q-7 -34 -7 -54q0 -19 10.5 -30t28.5 -11q35 0 75 26l29 -123q-34 -24 -80 -37.5t-96 -13.5zM75 -149q13 -7 32 -12t35 -5q23 0 37.5 10t14.5 27 q0 26 -51 26h-43l57 105h91l-24 -42q72 -14 72 -87q0 -55 -43 -91t-109 -36q-60 0 -110 29z" />
<glyph unicode="&#x174;" horiz-adv-x="913" d="M118 0l-7 700h185l-20 -457l183 397h152l13 -367l163 427h195l-305 -700h-188l-7 380l-176 -380h-188zM329 760l169 141h160l110 -141h-152l-50 56l-73 -56h-164z" />
<glyph unicode="&#x175;" horiz-adv-x="838" d="M66 532h193l-7 -323l137 304h156l12 -289l122 308h199l-275 -532h-160l-16 326l-149 -326h-160zM275 601l159 161h150l91 -161h-137l-42 65l-69 -65h-152z" />
<glyph unicode="&#x176;" horiz-adv-x="651" d="M226 253l-129 447h189l60 -308l191 308h199l-319 -447l-53 -253h-191zM195 760l169 141h160l110 -141h-152l-50 56l-73 -56h-164z" />
<glyph unicode="&#x177;" horiz-adv-x="595" d="M41 -226q-67 0 -122 28l55 135q30 -16 68 -16q34 0 58 16t49 54l12 18l-106 523h197l31 -323l152 323h206l-331 -543q-49 -81 -89 -127.5t-82 -67t-98 -20.5zM147 601l159 161h150l91 -161h-137l-42 65l-69 -65h-152z" />
<glyph unicode="&#x178;" horiz-adv-x="651" d="M226 253l-129 447h189l60 -308l191 308h199l-319 -447l-53 -253h-191zM229 829q0 40 31 67.5t75 27.5q34 0 56 -20.5t22 -52.5q0 -40 -31 -67.5t-75 -27.5q-34 0 -56 20.5t-22 52.5zM454 829q0 40 31 67.5t75 27.5q34 0 56 -20.5t22 -52.5q0 -40 -31 -67.5t-75 -27.5 q-34 0 -56 20.5t-22 52.5z" />
<glyph unicode="&#x17d;" horiz-adv-x="608" d="M-14 0l33 153l353 383h-266l34 164h501l-33 -153l-353 -383h290l-34 -164h-525zM643 901l-169 -141h-160l-110 141h152l50 -56l73 56h164z" />
<glyph unicode="&#x17e;" horiz-adv-x="530" d="M13 119l281 281h-213l28 132h425l-26 -119l-281 -281h230l-28 -132h-442zM562 762l-159 -161h-150l-91 161h137l42 -65l69 65h152z" />
<glyph unicode="&#x218;" horiz-adv-x="609" d="M263 -12q-80 0 -146 18.5t-112 52.5l59 146q38 -22 90 -37t95 -15q50 0 78.5 16t28.5 44q0 23 -18.5 36.5t-76.5 36.5l-20 8q-139 55 -139 186q0 107 75.5 169.5t204.5 62.5q64 0 125 -16.5t101 -44.5l-60 -147q-83 43 -167 43q-41 0 -62.5 -13.5t-21.5 -38.5 q0 -19 11.5 -30.5t50.5 -27.5l20 -8q93 -37 132.5 -82.5t39.5 -113.5q0 -75 -36 -131t-100.5 -85t-151.5 -29zM84 -266q58 40 82 81q-21 6 -32.5 20.5t-11.5 33.5q0 36 26 58.5t65 22.5q30 0 49 -19t19 -48q0 -53 -41 -106t-117 -97z" />
<glyph unicode="&#x219;" horiz-adv-x="514" d="M216 -12q-65 0 -117 13.5t-102 44.5l58 125q82 -44 160 -44q30 0 47 8.5t17 24.5q0 12 -13.5 21t-45.5 20l-18 6q-70 24 -100 57.5t-30 88.5q0 57 32.5 100.5t88.5 67t127 23.5q100 0 183 -49l-58 -125q-63 35 -130 35q-31 0 -48.5 -8t-17.5 -22q0 -12 11 -19.5t41 -17.5 l18 -6q71 -24 104 -59t33 -87q0 -58 -32.5 -103t-86.5 -70t-121 -25zM63 -266q54 36 79 81q-20 5 -31.5 19.5t-11.5 34.5q0 35 25 58t64 23q29 0 48 -18.5t19 -48.5q0 -50 -42 -104t-114 -96z" />
<glyph unicode="&#x21a;" horiz-adv-x="631" d="M165 0l113 534h-193l35 166h573l-35 -166h-190l-112 -534h-191zM111 -266q58 40 82 81q-21 6 -32.5 20.5t-11.5 33.5q0 36 26 58.5t65 22.5q30 0 49 -19t19 -48q0 -53 -41 -106t-117 -97z" />
<glyph unicode="&#x21b;" horiz-adv-x="454" d="M218 -12q-70 0 -111.5 38.5t-41.5 101.5q0 39 9 84l39 185h-80l29 135h88l58 135h142l-28 -135h137l-29 -135h-137l-35 -166q-7 -34 -7 -54q0 -19 10.5 -30t28.5 -11q35 0 75 26l29 -123q-34 -24 -80 -37.5t-96 -13.5zM71 -266q54 36 79 81q-20 5 -31.5 19.5t-11.5 34.5 q0 35 25 58t64 23q29 0 48 -18.5t19 -48.5q0 -50 -42 -104t-114 -96z" />
<glyph unicode="&#x237;" horiz-adv-x="308" d="M301 532l-110 -515q-26 -123 -82 -183t-144 -60q-67 0 -125 29l50 129q22 -10 47 -10q28 0 45.5 21t27.5 67l111 522h180z" />
<glyph unicode="&#x2c6;" horiz-adv-x="608" d="M164 601l159 161h150l91 -161h-137l-42 65l-69 -65h-152z" />
<glyph unicode="&#x2c7;" horiz-adv-x="608" d="M602 762l-159 -161h-150l-91 161h137l42 -65l69 65h152z" />
<glyph unicode="&#x2cb;" horiz-adv-x="608" d="M328 601l-109 161h190l69 -161h-150z" />
<glyph unicode="&#x2d8;" horiz-adv-x="608" d="M376 598q-66 0 -107.5 37.5t-41.5 97.5q0 10 2 26h113v-6q0 -21 13 -33.5t36 -12.5q24 0 42 15t22 37h115q-13 -76 -64.5 -118.5t-129.5 -42.5z" />
<glyph unicode="&#x2da;" horiz-adv-x="608" d="M366 578q-49 0 -80.5 30.5t-31.5 78.5q0 40 21.5 72.5t56.5 50.5t76 18q49 0 80.5 -30.5t31.5 -78.5q0 -40 -21.5 -72.5t-56.5 -50.5t-76 -18zM380 661q20 0 34 14t14 33q0 16 -9.5 26.5t-24.5 10.5q-20 0 -34 -14t-14 -33q0 -16 9.5 -26.5t24.5 -10.5z" />
<glyph unicode="&#x2dc;" horiz-adv-x="608" d="M182 614q14 74 53 116.5t91 42.5q22 0 40 -6.5t41 -22.5q16 -11 25.5 -15.5t19.5 -4.5q24 0 34 43h110q-14 -74 -53 -116.5t-91 -42.5q-22 0 -40 6.5t-41 22.5q-16 11 -25.5 15.5t-19.5 4.5q-24 0 -34 -43h-110z" />
<glyph unicode="&#x300;" horiz-adv-x="0" d="M-64 601l-109 161h190l69 -161h-150z" />
<glyph unicode="&#x301;" horiz-adv-x="0" d="M-83 601l140 161h206l-173 -161h-173z" />
<glyph unicode="&#x302;" horiz-adv-x="0" d="M-192 601l159 161h150l91 -161h-137l-42 65l-69 -65h-152z" />
<glyph unicode="&#x303;" horiz-adv-x="0" d="M-177 614q14 74 53 116.5t91 42.5q22 0 40 -6.5t41 -22.5q16 -11 25.5 -15.5t19.5 -4.5q24 0 34 43h110q-14 -74 -53 -116.5t-91 -42.5q-22 0 -40 6.5t-41 22.5q-16 11 -25.5 15.5t-19.5 4.5q-24 0 -34 -43h-110z" />
<glyph unicode="&#x306;" horiz-adv-x="0" d="M15 598q-66 0 -107.5 37.5t-41.5 97.5q0 10 2 26h113v-6q0 -21 13 -33.5t36 -12.5q24 0 42 15t22 37h115q-13 -76 -64.5 -118.5t-129.5 -42.5z" />
<glyph unicode="&#x308;" horiz-adv-x="0" d="M-166 670q0 38 29.5 64.5t71.5 26.5q32 0 53 -19.5t21 -49.5q0 -38 -29.5 -64.5t-71.5 -26.5q-32 0 -53 19.5t-21 49.5zM47 670q0 38 29.5 64.5t71.5 26.5q32 0 53 -19.5t21 -49.5q0 -38 -29.5 -64.5t-71.5 -26.5q-32 0 -53 19.5t-21 49.5z" />
<glyph unicode="&#x30a;" horiz-adv-x="0" d="M12 578q-49 0 -80.5 30.5t-31.5 78.5q0 40 21.5 72.5t56.5 50.5t76 18q49 0 80.5 -30.5t31.5 -78.5q0 -40 -21.5 -72.5t-56.5 -50.5t-76 -18zM26 661q20 0 34 14t14 33q0 16 -9.5 26.5t-24.5 10.5q-20 0 -34 -14t-14 -33q0 -16 9.5 -26.5t24.5 -10.5z" />
<glyph unicode="&#x30c;" horiz-adv-x="0" d="M245 762l-159 -161h-150l-91 161h137l42 -65l69 65h152z" />
<glyph unicode="&#x326;" horiz-adv-x="0" d="M-137 -266q54 36 79 81q-20 5 -31.5 19.5t-11.5 34.5q0 35 25 58t64 23q29 0 48 -18.5t19 -48.5q0 -50 -42 -104t-114 -96z" />
<glyph unicode="&#x327;" horiz-adv-x="0" d="M-145 -149q13 -7 32 -12t35 -5q23 0 37.5 10t14.5 27q0 26 -51 26h-43l57 105h91l-24 -42q72 -14 72 -87q0 -55 -43 -91t-109 -36q-60 0 -110 29z" />
<glyph unicode="&#x1e80;" horiz-adv-x="913" d="M118 0l-7 700h185l-20 -457l183 397h152l13 -367l163 427h195l-305 -700h-188l-7 380l-176 -380h-188zM470 760l-136 140h211l88 -140h-163z" />
<glyph unicode="&#x1e81;" horiz-adv-x="838" d="M66 532h193l-7 -323l137 304h156l12 -289l122 308h199l-275 -532h-160l-16 326l-149 -326h-160zM403 601l-109 161h190l69 -161h-150z" />
<glyph unicode="&#x1e82;" horiz-adv-x="913" d="M118 0l-7 700h185l-20 -457l183 397h152l13 -367l163 427h195l-305 -700h-188l-7 380l-176 -380h-188zM452 760l150 141h232l-194 -141h-188z" />
<glyph unicode="&#x1e83;" horiz-adv-x="838" d="M66 532h193l-7 -323l137 304h156l12 -289l122 308h199l-275 -532h-160l-16 326l-149 -326h-160zM384 601l140 161h206l-173 -161h-173z" />
<glyph unicode="&#x1e84;" horiz-adv-x="913" d="M118 0l-7 700h185l-20 -457l183 397h152l13 -367l163 427h195l-305 -700h-188l-7 380l-176 -380h-188zM363 829q0 40 31 67.5t75 27.5q34 0 56 -20.5t22 -52.5q0 -40 -31 -67.5t-75 -27.5q-34 0 -56 20.5t-22 52.5zM588 829q0 40 31 67.5t75 27.5q34 0 56 -20.5t22 -52.5 q0 -40 -31 -67.5t-75 -27.5q-34 0 -56 20.5t-22 52.5z" />
<glyph unicode="&#x1e85;" horiz-adv-x="838" d="M66 532h193l-7 -323l137 304h156l12 -289l122 308h199l-275 -532h-160l-16 326l-149 -326h-160zM301 670q0 38 29.5 64.5t71.5 26.5q32 0 53 -19.5t21 -49.5q0 -38 -29.5 -64.5t-71.5 -26.5q-32 0 -53 19.5t-21 49.5zM514 670q0 38 29.5 64.5t71.5 26.5q32 0 53 -19.5 t21 -49.5q0 -38 -29.5 -64.5t-71.5 -26.5q-32 0 -53 19.5t-21 49.5z" />
<glyph unicode="&#x1e9e;" horiz-adv-x="733" d="M424 -12q-94 0 -149 38l42 135q48 -21 89 -21q40 0 63 20.5t23 57.5q0 68 -96 68q-20 0 -28 -1l26 121l137 135q-37 14 -77 14q-71 0 -110.5 -39.5t-57.5 -127.5l-82 -388h-191l86 405q32 151 125.5 229t241.5 78q73 0 139.5 -21t117.5 -60l-24 -117l-128 -127 q53 -16 83.5 -58.5t30.5 -100.5q0 -74 -34.5 -128t-94 -83t-132.5 -29z" />
<glyph unicode="&#x1ef2;" horiz-adv-x="651" d="M226 253l-129 447h189l60 -308l191 308h199l-319 -447l-53 -253h-191zM336 760l-136 140h211l88 -140h-163z" />
<glyph unicode="&#x1ef3;" horiz-adv-x="595" d="M41 -226q-67 0 -122 28l55 135q30 -16 68 -16q34 0 58 16t49 54l12 18l-106 523h197l31 -323l152 323h206l-331 -543q-49 -81 -89 -127.5t-82 -67t-98 -20.5zM275 601l-109 161h190l69 -161h-150z" />
<glyph unicode="&#x2000;" horiz-adv-x="500" />
<glyph unicode="&#x2001;" horiz-adv-x="1000" />
<glyph unicode="&#x2002;" horiz-adv-x="500" />
<glyph unicode="&#x2003;" horiz-adv-x="1000" />
<glyph unicode="&#x2004;" horiz-adv-x="333" />
<glyph unicode="&#x2005;" horiz-adv-x="250" />
<glyph unicode="&#x2006;" horiz-adv-x="166" />
<glyph unicode="&#x2007;" horiz-adv-x="600" />
<glyph unicode="&#x2008;" horiz-adv-x="279" />
<glyph unicode="&#x2009;" horiz-adv-x="200" />
<glyph unicode="&#x200a;" horiz-adv-x="55" />
<glyph unicode="&#x200b;" horiz-adv-x="0" />
<glyph unicode="&#x2013;" horiz-adv-x="500" d="M17 347h500l-28 -131h-500z" />
<glyph unicode="&#x2014;" horiz-adv-x="1000" d="M17 347h1000l-28 -131h-1000z" />
<glyph unicode="&#x2018;" horiz-adv-x="251" d="M307 670q-69 -45 -98 -98q22 -6 35.5 -24.5t13.5 -43.5q0 -39 -28.5 -65t-71.5 -26q-34 0 -55 21t-21 57q0 60 50 124.5t133 111.5z" />
<glyph unicode="&#x2019;" horiz-adv-x="251" d="M54 455q69 45 98 98q-22 6 -35.5 24.5t-13.5 43.5q0 39 28.5 65t71.5 26q34 0 55 -21t21 -57q0 -60 -50 -124.5t-133 -111.5z" />
<glyph unicode="&#x201a;" horiz-adv-x="251" d="M-58 -96q69 45 98 98q-22 6 -35.5 24.5t-13.5 43.5q0 39 28.5 65t71.5 26q34 0 55 -21t21 -57q0 -60 -50 -124.5t-133 -111.5z" />
<glyph unicode="&#x201c;" horiz-adv-x="463" d="M307 670q-69 -45 -98 -98q22 -6 35.5 -24.5t13.5 -43.5q0 -39 -28.5 -65t-71.5 -26q-34 0 -55 21t-21 57q0 60 50 124.5t133 111.5zM519 670q-69 -45 -98 -98q22 -6 35.5 -24.5t13.5 -43.5q0 -39 -28.5 -65t-71.5 -26q-34 0 -55 21t-21 57q0 60 50 124.5t133 111.5z" />
<glyph unicode="&#x201d;" horiz-adv-x="463" d="M54 455q69 45 98 98q-22 6 -35.5 24.5t-13.5 43.5q0 39 28.5 65t71.5 26q34 0 55 -21t21 -57q0 -60 -50 -124.5t-133 -111.5zM266 455q69 45 98 98q-22 6 -35.5 24.5t-13.5 43.5q0 39 28.5 65t71.5 26q34 0 55 -21t21 -57q0 -60 -50 -124.5t-133 -111.5z" />
<glyph unicode="&#x201e;" horiz-adv-x="463" d="M-58 -96q69 45 98 98q-22 6 -35.5 24.5t-13.5 43.5q0 39 28.5 65t71.5 26q34 0 55 -21t21 -57q0 -60 -50 -124.5t-133 -111.5zM154 -96q69 45 98 98q-22 6 -35.5 24.5t-13.5 43.5q0 39 28.5 65t71.5 26q34 0 55 -21t21 -57q0 -60 -50 -124.5t-133 -111.5z" />
<glyph unicode="&#x2020;" horiz-adv-x="573" d="M99 539h160l40 191h168l-40 -191h160l-30 -141h-160l-109 -514h-168l109 514h-160z" />
<glyph unicode="&#x2021;" horiz-adv-x="573" d="M488 75h-160l-40 -191h-168l40 191h-159l29 141h160l39 182h-160l30 141h160l40 191h168l-40 -191h160l-30 -141h-160l-39 -182h160z" />
<glyph unicode="&#x2022;" horiz-adv-x="335" d="M146 146q-56 0 -91 35t-35 89q0 46 24.5 82.5t64 57t85.5 20.5q56 0 91 -35t35 -89q0 -46 -24.5 -82.5t-64 -57t-85.5 -20.5z" />
<glyph unicode="&#x2026;" horiz-adv-x="1000" d="M27 70q0 45 34 76t83 31q37 0 61 -23t24 -59q0 -45 -34 -76t-83 -31q-37 0 -61 23t-24 59zM360 70q0 45 34 76t83 31q37 0 61 -23t24 -59q0 -45 -34 -76t-83 -31q-37 0 -61 23t-24 59zM693 70q0 45 34 76t83 31q37 0 61 -23t24 -59q0 -45 -34 -76t-83 -31q-37 0 -61 23 t-24 59z" />
<glyph unicode="&#x2032;" horiz-adv-x="267" d="M168 700h183l-144 -286h-147z" />
<glyph unicode="&#x2033;" horiz-adv-x="502" d="M168 700h183l-144 -286h-147zM403 700h183l-144 -286h-147z" />
<glyph unicode="&#x2039;" horiz-adv-x="347" d="M177 272l103 -188h-153l-105 196l176 196h165z" />
<glyph unicode="&#x203a;" horiz-adv-x="347" d="M176 288l-103 188h153l105 -196l-176 -196h-165z" />
<glyph unicode="&#x2044;" horiz-adv-x="102" d="M-265 0l540 690h151l-540 -690h-151z" />
<glyph unicode="&#x2070;" d="M273 514q21 0 36.5 21.5t26.5 67.5q9 33 9 66q0 47 -33 47q-21 0 -36.5 -21.5t-26.5 -67.5q-9 -33 -9 -66q0 -47 33 -47zM256 410q-67 0 -108 42t-41 112q0 35 9 72q20 84 78.5 134t134.5 50q67 0 108 -42t41 -112q0 -35 -9 -72q-20 -84 -78.5 -134t-134.5 -50z" />
<glyph unicode="&#x2074;" d="M277 420l13 62h-201l20 94l254 234h116l-51 -240h37l-19 -88h-37l-13 -62h-119zM308 570l23 106l-115 -106h92z" />
<glyph unicode="&#x2075;" d="M251 410q-82 0 -147 24l41 89q59 -15 104 -15q66 0 66 44q0 14 -10 20t-35 6h-126l62 232h275l-22 -98h-178l-14 -51q12 1 32 1q149 0 149 -104q0 -73 -50.5 -110.5t-146.5 -37.5z" />
<glyph unicode="&#x2076;" d="M269 410q-77 0 -118 39.5t-41 114.5q0 72 32.5 132t86.5 92t124 32q66 0 122 -22l-32 -88q-49 16 -91 16q-66 0 -96 -59q35 5 62 5q65 0 100.5 -27t35.5 -76q0 -47 -24 -83.5t-65.5 -56t-95.5 -19.5zM284 593q-22 0 -48 -3q-1 -8 -1 -16v-16q0 -23 11.5 -36.5t31.5 -13.5 q24 0 39 14t15 36q0 35 -48 35z" />
<glyph unicode="&#x2077;" d="M139 420l1 5q8 42 26 76t54.5 77t98.5 102l24 23h-188l23 107h319l-22 -100l-49 -60q-83 -99 -111.5 -141.5t-34.5 -73.5l-3 -15h-138z" />
<glyph unicode="&#x2078;" d="M253 410q-77 0 -120 26.5t-43 73.5q0 35 23 62t64 41q-38 24 -38 72q0 60 52.5 97.5t136.5 37.5q71 0 112 -26t41 -70q0 -30 -19 -54t-53 -38q50 -26 50 -81q0 -64 -56 -102.5t-150 -38.5zM274 581q-23 -7 -36.5 -20.5t-13.5 -31.5q0 -17 12 -26t34 -9q27 0 42.5 13 t15.5 35q0 14 -10 23t-29 13zM268 694q0 -28 32 -33l15 -2q18 6 28.5 19t10.5 28q0 14 -9.5 22t-26.5 8q-23 0 -36.5 -11.5t-13.5 -30.5z" />
<glyph unicode="&#x2079;" d="M221 410q-62 0 -115 23l31 88q48 -17 84 -17q72 0 106 58q-27 -4 -59 -4q-65 0 -100.5 27t-35.5 76q0 47 25.5 83t68 56t95.5 20q72 0 113.5 -38.5t41.5 -105.5q0 -123 -68 -194.5t-187 -71.5zM302 637q23 0 48 3q0 4 0.5 8t0.5 8q0 35 -10 50.5t-33 15.5q-24 0 -39 -14 t-15 -36q0 -35 48 -35z" />
<glyph unicode="&#x2080;" d="M158 -26q21 0 36.5 21.5t26.5 67.5q9 33 9 66q0 47 -33 47q-21 0 -36.5 -21.5t-26.5 -67.5q-9 -33 -9 -66q0 -47 33 -47zM141 -130q-67 0 -108 42t-41 112q0 35 9 72q20 84 78.5 134t134.5 50q67 0 108 -42t41 -112q0 -35 -9 -72q-20 -84 -78.5 -134t-134.5 -50z" />
<glyph unicode="&#x2081;" d="M31 163l179 107h124l-83 -390h-131l53 253l-99 -57z" />
<glyph unicode="&#x2082;" d="M-26 -120l10 45q13 60 47.5 98t109.5 75q33 16 51.5 26.5t26 18t7.5 17.5q0 9 -10 14.5t-27 5.5q-22 0 -54.5 -9.5t-65.5 -25.5l-26 87q41 23 85.5 35.5t85.5 12.5q67 0 105.5 -29.5t38.5 -81.5q0 -44 -32.5 -75.5t-116.5 -68.5q-36 -16 -46.5 -24t-14.5 -19h167 l-22 -102h-319z" />
<glyph unicode="&#x2083;" d="M115 -130q-31 0 -66 5t-61 14l32 90q45 -13 97 -13q34 0 51.5 10.5t17.5 30.5q0 26 -56 26h-63l19 87h63q27 0 43 10.5t16 27.5q0 12 -14.5 19t-37.5 7q-38 0 -89 -14l-15 82q23 12 65.5 20t80.5 8q66 0 106 -25.5t40 -68.5q0 -32 -20 -58t-57 -43q50 -27 50 -81 q0 -62 -54.5 -98t-147.5 -36z" />
<glyph unicode="&#x2084;" d="M162 -120l13 62h-201l20 94l254 234h116l-51 -240h37l-19 -88h-37l-13 -62h-119zM193 30l23 106l-115 -106h92z" />
<glyph unicode="&#x2085;" d="M136 -130q-82 0 -147 24l41 89q59 -15 104 -15q66 0 66 44q0 14 -10 20t-35 6h-126l62 232h275l-22 -98h-178l-14 -51q12 1 32 1q149 0 149 -104q0 -73 -50.5 -110.5t-146.5 -37.5z" />
<glyph unicode="&#x2086;" d="M154 -130q-77 0 -118 39.5t-41 114.5q0 72 32.5 132t86.5 92t124 32q66 0 122 -22l-32 -88q-49 16 -91 16q-66 0 -96 -59q35 5 62 5q65 0 100.5 -27t35.5 -76q0 -47 -24 -83.5t-65.5 -56t-95.5 -19.5zM169 53q-22 0 -48 -3q-1 -8 -1 -16v-16q0 -23 11.5 -36.5t31.5 -13.5 q24 0 39 14t15 36q0 35 -48 35z" />
<glyph unicode="&#x2087;" d="M24 -120l1 5q8 42 26 76t54.5 77t98.5 102l24 23h-188l23 107h319l-22 -100l-49 -60q-83 -99 -111.5 -141.5t-34.5 -73.5l-3 -15h-138z" />
<glyph unicode="&#x2088;" d="M138 -130q-77 0 -120 26.5t-43 73.5q0 35 23 62t64 41q-38 24 -38 72q0 60 52.5 97.5t136.5 37.5q71 0 112 -26t41 -70q0 -30 -19 -54t-53 -38q50 -26 50 -81q0 -64 -56 -102.5t-150 -38.5zM159 41q-23 -7 -36.5 -20.5t-13.5 -31.5q0 -17 12 -26t34 -9q27 0 42.5 13 t15.5 35q0 14 -10 23t-29 13zM153 154q0 -28 32 -33l15 -2q18 6 28.5 19t10.5 28q0 14 -9.5 22t-26.5 8q-23 0 -36.5 -11.5t-13.5 -30.5z" />
<glyph unicode="&#x2089;" d="M106 -130q-62 0 -115 23l31 88q48 -17 84 -17q72 0 106 58q-27 -4 -59 -4q-65 0 -100.5 27t-35.5 76q0 47 25.5 83t68 56t95.5 20q72 0 113.5 -38.5t41.5 -105.5q0 -123 -68 -194.5t-187 -71.5zM187 97q23 0 48 3q0 4 0.5 8t0.5 8q0 35 -10 50.5t-33 15.5q-24 0 -39 -14 t-15 -36q0 -35 48 -35z" />
<glyph unicode="&#x20ac;" horiz-adv-x="600" d="M299 220q9 -41 32.5 -60t67.5 -19q30 0 62 9.5t81 33.5l37 -130q-45 -32 -101 -49t-115 -17q-110 0 -175.5 60.5t-75.5 171.5h-81l38 93h43q1 25 8 55h-66l38 93h55q31 75 84 129t121 82t146 28q97 0 162 -47l-54 -132q-56 26 -115 26q-112 0 -161 -86h218l-38 -93h-211 q-4 -18 -6 -55h194l-38 -93h-150z" />
<glyph unicode="&#x20ba;" horiz-adv-x="600" d="M279 295l-32 -152h15q64 0 98.5 37t51.5 121h176q-23 -152 -104.5 -226.5t-224.5 -74.5h-223l44 209l-70 -30l22 103l70 30l12 55l-71 -30l23 103l70 30l47 220h180l-29 -135l130 56l-22 -103l-129 -55l-12 -55l130 56l-22 -103z" />
<glyph unicode="&#x20bd;" horiz-adv-x="600" d="M237 89l-19 -89h-167l19 89h-82l24 114h82l11 53h-81l28 139h82l63 295h191q117 0 176.5 -48t59.5 -142q0 -75 -36.5 -130t-101 -84.5t-149.5 -29.5h-65l-11 -53h166l-24 -114h-166zM302 395h49q48 0 75 25t27 69q0 33 -17 47.5t-54 14.5h-47z" />
<glyph unicode="&#x2122;" horiz-adv-x="877" d="M455 316v384h126l94 -192l89 192h131v-384h-120v204l-67 -155h-66l-69 148v-197h-118zM168 583h-109v117h344v-117h-109v-267h-126v267z" />
<glyph unicode="&#x2212;" horiz-adv-x="600" d="M71 277l29 136h461l-29 -136h-461z" />
<glyph unicode="&#x25fc;" horiz-adv-x="530" d="M0 530h530v-530h-530v530z" />
<glyph unicode="&#xfeff;" horiz-adv-x="0" />
<glyph horiz-adv-x="600" d="M275 137q38 0 65 42.5t49 139.5q22 94 22 157q0 36 -15 55.5t-44 19.5q-38 0 -65 -42.5t-49 -139.5q-22 -94 -22 -157q0 -36 15 -55.5t44 -19.5zM258 -12q-104 0 -160.5 61.5t-56.5 174.5q0 66 21 157q38 162 113.5 240.5t193.5 78.5q104 0 160.5 -61.5t56.5 -174.5 q0 -66 -21 -157q-38 -162 -113.5 -240.5t-193.5 -78.5z" />
<glyph horiz-adv-x="600" d="M87 539l243 151h165l-117 -547h144l-31 -143h-482l31 143h161l78 366l-137 -83z" />
<glyph horiz-adv-x="600" d="M12 0l25 116q13 57 40.5 103t73.5 85t120 77l19 10q64 33 87 57t23 55q0 25 -20.5 39t-56.5 14q-34 0 -72 -12.5t-88 -40.5l-51 116q57 38 122.5 59.5t126.5 21.5q97 0 156 -49.5t59 -132.5q0 -73 -50 -132t-163 -118l-19 -10q-41 -21 -63.5 -37t-35 -33.5t-19.5 -44.5 h271l-30 -143h-455z" />
<glyph horiz-adv-x="600" d="M216 -12q-56 0 -109.5 15.5t-92.5 41.5l54 126q70 -39 142 -39q55 0 89.5 25.5t34.5 65.5q0 30 -21.5 46.5t-59.5 16.5h-110l26 128h102q43 0 72.5 24.5t29.5 60.5q0 27 -22 42t-60 15q-67 0 -131 -28l-41 121q96 51 211 51q64 0 113 -22.5t75 -60.5t26 -86 q0 -54 -33 -100t-93 -75q89 -43 89 -134q0 -67 -40.5 -121t-106.5 -83.5t-144 -29.5z" />
<glyph horiz-adv-x="600" d="M275 0l29 136h-303l28 133l406 421h153l-91 -426h79l-28 -128h-78l-29 -136h-166zM331 264l41 193l-186 -193h145z" />
<glyph horiz-adv-x="600" d="M226 -12q-119 0 -217 60l53 129q37 -19 82 -29.5t89 -10.5q53 0 84.5 25.5t31.5 68.5q0 39 -23.5 56.5t-76.5 17.5q-77 0 -165 -2l101 387h393l-32 -147h-251l-31 -115q28 4 61 4q94 0 146.5 -46.5t52.5 -129.5q0 -81 -38 -142.5t-105 -93.5t-155 -32z" />
<glyph horiz-adv-x="600" d="M411 700q101 0 171 -44l-55 -126q-25 14 -54.5 21.5t-55.5 7.5q-56 0 -98.5 -32t-68.5 -92q61 8 101 8q94 0 148.5 -53t54.5 -144q0 -75 -37 -134.5t-99 -91.5t-138 -32q-110 0 -169 65t-59 187q0 128 48 236t128.5 166t182.5 58zM294 317q-40 0 -75 -4q-4 -31 -4 -70 q0 -58 19.5 -85.5t60.5 -27.5q44 0 69 29t25 79q0 41 -22.5 60t-72.5 19z" />
<glyph horiz-adv-x="600" d="M119 0l14 66q12 58 31 105.5t53.5 103t104.5 147.5l91 121h-295l32 147h474l-30 -137l-147 -211q-55 -78 -83 -138.5t-45 -141.5l-13 -62h-187z" />
<glyph horiz-adv-x="600" d="M28 168q0 65 38.5 114.5t106.5 73.5q-61 50 -61 133q0 61 36 109.5t94.5 75t128.5 26.5q98 0 157.5 -46t59.5 -123q0 -56 -31 -101.5t-87 -71.5q79 -59 79 -149q0 -64 -39 -114.5t-103.5 -78.5t-141.5 -28q-110 0 -173.5 48.5t-63.5 131.5zM198 192q0 -35 21 -55t57 -20 q44 0 73.5 26.5t29.5 65.5q0 33 -14.5 52.5t-46.5 29.5l-26 8q-28 -6 -49.5 -22t-33 -38.5t-11.5 -46.5zM276 493q0 -27 14.5 -46t42.5 -27l23 -7q30 11 49 37.5t19 57.5q0 29 -17 46t-47 17q-37 0 -60.5 -22t-23.5 -56z" />
<glyph horiz-adv-x="600" d="M220 -12q-105 0 -181 50l55 125q31 -18 61 -26t69 -8q51 0 91.5 31.5t65.5 92.5q-62 -8 -103 -8q-94 0 -148.5 53t-54.5 144q0 75 37.5 134.5t99.5 91.5t139 32q109 0 167.5 -65t58.5 -187q0 -136 -45 -242.5t-124.5 -162t-187.5 -55.5zM335 371q36 0 75 3q4 29 4 71 q0 60 -19 86.5t-60 26.5q-44 0 -69.5 -30t-25.5 -78q0 -41 22.5 -60t72.5 -19z" />
<glyph d="M184 94q21 0 36.5 21.5t26.5 67.5q9 33 9 66q0 47 -33 47q-21 0 -36.5 -21.5t-26.5 -67.5q-9 -33 -9 -66q0 -47 33 -47zM167 -10q-67 0 -108 42t-41 112q0 35 9 72q20 84 78.5 134t134.5 50q67 0 108 -42t41 -112q0 -35 -9 -72q-20 -84 -78.5 -134t-134.5 -50z" />
<glyph d="M57 283l179 107h124l-83 -390h-131l53 253l-99 -57z" />
<glyph d="M0 0l10 45q13 60 47.5 98t109.5 75q33 16 51.5 26.5t26 18t7.5 17.5q0 9 -10 14.5t-27 5.5q-22 0 -54.5 -9.5t-65.5 -25.5l-26 87q41 23 85.5 35.5t85.5 12.5q67 0 105.5 -29.5t38.5 -81.5q0 -44 -32.5 -75.5t-116.5 -68.5q-36 -16 -46.5 -24t-14.5 -19h167l-22 -102 h-319z" />
<glyph d="M141 -10q-31 0 -66 5t-61 14l32 90q45 -13 97 -13q34 0 51.5 10.5t17.5 30.5q0 26 -56 26h-63l19 87h63q27 0 43 10.5t16 27.5q0 12 -14.5 19t-37.5 7q-38 0 -89 -14l-15 82q23 12 65.5 20t80.5 8q66 0 106 -25.5t40 -68.5q0 -32 -20 -58t-57 -43q50 -27 50 -81 q0 -62 -54.5 -98t-147.5 -36z" />
<glyph d="M188 0l13 62h-201l20 94l254 234h116l-51 -240h37l-19 -88h-37l-13 -62h-119zM219 150l23 106l-115 -106h92z" />
<glyph d="M162 -10q-82 0 -147 24l41 89q59 -15 104 -15q66 0 66 44q0 14 -10 20t-35 6h-126l62 232h275l-22 -98h-178l-14 -51q12 1 32 1q149 0 149 -104q0 -73 -50.5 -110.5t-146.5 -37.5z" />
<glyph d="M180 -10q-77 0 -118 39.5t-41 114.5q0 72 32.5 132t86.5 92t124 32q66 0 122 -22l-32 -88q-49 16 -91 16q-66 0 -96 -59q35 5 62 5q65 0 100.5 -27t35.5 -76q0 -47 -24 -83.5t-65.5 -56t-95.5 -19.5zM195 173q-22 0 -48 -3q-1 -8 -1 -16v-16q0 -23 11.5 -36.5t31.5 -13.5 q24 0 39 14t15 36q0 35 -48 35z" />
<glyph d="M50 0l1 5q8 42 26 76t54.5 77t98.5 102l24 23h-188l23 107h319l-22 -100l-49 -60q-83 -99 -111.5 -141.5t-34.5 -73.5l-3 -15h-138z" />
<glyph d="M164 -10q-77 0 -120 26.5t-43 73.5q0 35 23 62t64 41q-38 24 -38 72q0 60 52.5 97.5t136.5 37.5q71 0 112 -26t41 -70q0 -30 -19 -54t-53 -38q50 -26 50 -81q0 -64 -56 -102.5t-150 -38.5zM185 161q-23 -7 -36.5 -20.5t-13.5 -31.5q0 -17 12 -26t34 -9q27 0 42.5 13 t15.5 35q0 14 -10 23t-29 13zM179 274q0 -28 32 -33l15 -2q18 6 28.5 19t10.5 28q0 14 -9.5 22t-26.5 8q-23 0 -36.5 -11.5t-13.5 -30.5z" />
<glyph d="M132 -10q-62 0 -115 23l31 88q48 -17 84 -17q72 0 106 58q-27 -4 -59 -4q-65 0 -100.5 27t-35.5 76q0 47 25.5 83t68 56t95.5 20q72 0 113.5 -38.5t41.5 -105.5q0 -123 -68 -194.5t-187 -71.5zM213 217q23 0 48 3q0 4 0.5 8t0.5 8q0 35 -10 50.5t-33 15.5q-24 0 -39 -14 t-15 -36q0 -35 48 -35z" />
<glyph d="M248 394q21 0 36.5 21.5t26.5 67.5q9 33 9 66q0 47 -33 47q-21 0 -36.5 -21.5t-26.5 -67.5q-9 -33 -9 -66q0 -47 33 -47zM231 290q-67 0 -108 42t-41 112q0 35 9 72q20 84 78.5 134t134.5 50q67 0 108 -42t41 -112q0 -35 -9 -72q-20 -84 -78.5 -134t-134.5 -50z" />
<glyph d="M121 583l179 107h124l-83 -390h-131l53 253l-99 -57z" />
<glyph d="M64 300l10 45q13 60 47.5 98t109.5 75q33 16 51.5 26.5t26 18t7.5 17.5q0 9 -10 14.5t-27 5.5q-22 0 -54.5 -9.5t-65.5 -25.5l-26 87q41 23 85.5 35.5t85.5 12.5q67 0 105.5 -29.5t38.5 -81.5q0 -44 -32.5 -75.5t-116.5 -68.5q-36 -16 -46.5 -24t-14.5 -19h167l-22 -102 h-319z" />
<glyph d="M205 290q-31 0 -66 5t-61 14l32 90q45 -13 97 -13q34 0 51.5 10.5t17.5 30.5q0 26 -56 26h-63l19 87h63q27 0 43 10.5t16 27.5q0 12 -14.5 19t-37.5 7q-38 0 -89 -14l-15 82q23 12 65.5 20t80.5 8q66 0 106 -25.5t40 -68.5q0 -32 -20 -58t-57 -43q50 -27 50 -81 q0 -62 -54.5 -98t-147.5 -36z" />
<glyph d="M252 300l13 62h-201l20 94l254 234h116l-51 -240h37l-19 -88h-37l-13 -62h-119zM283 450l23 106l-115 -106h92z" />
<glyph d="M226 290q-82 0 -147 24l41 89q59 -15 104 -15q66 0 66 44q0 14 -10 20t-35 6h-126l62 232h275l-22 -98h-178l-14 -51q12 1 32 1q149 0 149 -104q0 -73 -50.5 -110.5t-146.5 -37.5z" />
<glyph d="M244 290q-77 0 -118 39.5t-41 114.5q0 72 32.5 132t86.5 92t124 32q66 0 122 -22l-32 -88q-49 16 -91 16q-66 0 -96 -59q35 5 62 5q65 0 100.5 -27t35.5 -76q0 -47 -24 -83.5t-65.5 -56t-95.5 -19.5zM259 473q-22 0 -48 -3q-1 -8 -1 -16v-16q0 -23 11.5 -36.5t31.5 -13.5 q24 0 39 14t15 36q0 35 -48 35z" />
<glyph d="M114 300l1 5q8 42 26 76t54.5 77t98.5 102l24 23h-188l23 107h319l-22 -100l-49 -60q-83 -99 -111.5 -141.5t-34.5 -73.5l-3 -15h-138z" />
<glyph d="M228 290q-77 0 -120 26.5t-43 73.5q0 35 23 62t64 41q-38 24 -38 72q0 60 52.5 97.5t136.5 37.5q71 0 112 -26t41 -70q0 -30 -19 -54t-53 -38q50 -26 50 -81q0 -64 -56 -102.5t-150 -38.5zM249 461q-23 -7 -36.5 -20.5t-13.5 -31.5q0 -17 12 -26t34 -9q27 0 42.5 13 t15.5 35q0 14 -10 23t-29 13zM243 574q0 -28 32 -33l15 -2q18 6 28.5 19t10.5 28q0 14 -9.5 22t-26.5 8q-23 0 -36.5 -11.5t-13.5 -30.5z" />
<glyph d="M196 290q-62 0 -115 23l31 88q48 -17 84 -17q72 0 106 58q-27 -4 -59 -4q-65 0 -100.5 27t-35.5 76q0 47 25.5 83t68 56t95.5 20q72 0 113.5 -38.5t41.5 -105.5q0 -123 -68 -194.5t-187 -71.5zM277 517q23 0 48 3q0 4 0.5 8t0.5 8q0 35 -10 50.5t-33 15.5q-24 0 -39 -14 t-15 -36q0 -35 48 -35z" />
<glyph d="M96 -192l13 64q-77 12 -123 44l35 74q50 -28 106 -38l18 84l-10 3q-58 17 -84.5 42.5t-26.5 66.5q0 58 48.5 94.5t126.5 37.5l13 60h57l-14 -65q54 -9 104 -41l-32 -69q-48 24 -89 30l-18 -84q65 -20 93 -46.5t28 -68.5q0 -59 -46.5 -94t-124.5 -35h-5l-12 -59h-57z M132 162q0 -13 7.5 -20.5t27.5 -14.5l15 71q-50 -5 -50 -36zM234 -14q0 11 -8.5 18.5t-27.5 14.5l-15 -70q23 2 37 12t14 25z" />
<glyph d="M124 -192l13 64q-55 7 -85.5 41t-30.5 88q0 72 50 122t132 59l13 62h57l-13 -62q34 -3 67 -20l-32 -69q-33 10 -52 12l-34 -157q26 3 63 19l16 -65q-40 -26 -95 -32l-13 -62h-56zM121 10q0 -46 33 -58l32 149q-31 -10 -48 -33.5t-17 -57.5z" />
<glyph horiz-adv-x="608" d="M46 -120l331 390h105l-331 -390h-105zM402 -70q28 0 40 52q5 23 5 34q0 30 -23 30q-28 0 -40 -52q-5 -23 -5 -34q0 -30 23 -30zM393 -130q-49 0 -76 22t-27 62q0 17 5 39q12 53 48.5 83t89.5 30q49 0 76 -22t27 -62q0 -17 -5 -39q-12 -53 -48.5 -83t-89.5 -30zM104 104 q28 0 40 52q5 23 5 34q0 30 -23 30q-28 0 -40 -52q-5 -23 -5 -34q0 -30 23 -30zM95 44q-49 0 -76 22t-27 62q0 17 5 39q12 53 48.5 83t89.5 30q49 0 76 -22t27 -62q0 -17 -5 -39q-12 -53 -48.5 -83t-89.5 -30z" />
<glyph horiz-adv-x="388" d="M-36 -120l31 85h-51l16 75h63l25 70h-58l16 75h70l31 85h88l-31 -85h64l31 85h88l-31 -85h51l-16 -75h-63l-25 -70h58l-16 -75h-70l-31 -85h-88l31 85h-64l-31 -85h-88zM111 40h64l25 70h-64z" />
<glyph d="M211 348l13 64q-77 12 -123 44l35 74q50 -28 106 -38l18 84l-10 3q-58 17 -84.5 42.5t-26.5 66.5q0 58 48.5 94.5t126.5 37.5l13 60h57l-14 -65q54 -9 104 -41l-32 -69q-48 24 -89 30l-18 -84q65 -20 93 -46.5t28 -68.5q0 -59 -46.5 -94t-124.5 -35h-5l-12 -59h-57z M247 702q0 -13 7.5 -20.5t27.5 -14.5l15 71q-50 -5 -50 -36zM349 526q0 11 -8.5 18.5t-27.5 14.5l-15 -70q23 2 37 12t14 25z" />
<glyph d="M239 348l13 64q-55 7 -85.5 41t-30.5 88q0 72 50 122t132 59l13 62h57l-13 -62q34 -3 67 -20l-32 -69q-33 10 -52 12l-34 -157q26 3 63 19l16 -65q-40 -26 -95 -32l-13 -62h-56zM236 550q0 -46 33 -58l32 149q-31 -10 -48 -33.5t-17 -57.5z" />
<glyph horiz-adv-x="608" d="M161 420l331 390h105l-331 -390h-105zM517 470q28 0 40 52q5 23 5 34q0 30 -23 30q-28 0 -40 -52q-5 -23 -5 -34q0 -30 23 -30zM508 410q-49 0 -76 22t-27 62q0 17 5 39q12 53 48.5 83t89.5 30q49 0 76 -22t27 -62q0 -17 -5 -39q-12 -53 -48.5 -83t-89.5 -30zM219 644 q28 0 40 52q5 23 5 34q0 30 -23 30q-28 0 -40 -52q-5 -23 -5 -34q0 -30 23 -30zM210 584q-49 0 -76 22t-27 62q0 17 5 39q12 53 48.5 83t89.5 30q49 0 76 -22t27 -62q0 -17 -5 -39q-12 -53 -48.5 -83t-89.5 -30z" />
<glyph horiz-adv-x="388" d="M79 420l31 85h-51l16 75h63l25 70h-58l16 75h70l31 85h88l-31 -85h64l31 85h88l-31 -85h51l-16 -75h-63l-25 -70h58l-16 -75h-70l-31 -85h-88l31 85h-64l-31 -85h-88zM226 580h64l25 70h-64z" />
<glyph d="M122 -72l13 64q-77 12 -123 44l35 74q50 -28 106 -38l18 84l-10 3q-58 17 -84.5 42.5t-26.5 66.5q0 58 48.5 94.5t126.5 37.5l13 60h57l-14 -65q54 -9 104 -41l-32 -69q-48 24 -89 30l-18 -84q65 -20 93 -46.5t28 -68.5q0 -59 -46.5 -94t-124.5 -35h-5l-12 -59h-57z M158 282q0 -13 7.5 -20.5t27.5 -14.5l15 71q-50 -5 -50 -36zM260 106q0 11 -8.5 18.5t-27.5 14.5l-15 -70q23 2 37 12t14 25z" />
<glyph d="M150 -72l13 64q-55 7 -85.5 41t-30.5 88q0 72 50 122t132 59l13 62h57l-13 -62q34 -3 67 -20l-32 -69q-33 10 -52 12l-34 -157q26 3 63 19l16 -65q-40 -26 -95 -32l-13 -62h-56zM147 130q0 -46 33 -58l32 149q-31 -10 -48 -33.5t-17 -57.5z" />
<glyph horiz-adv-x="608" d="M73 0l331 390h105l-331 -390h-105zM429 50q28 0 40 52q5 23 5 34q0 30 -23 30q-28 0 -40 -52q-5 -23 -5 -34q0 -30 23 -30zM420 -10q-49 0 -76 22t-27 62q0 17 5 39q12 53 48.5 83t89.5 30q49 0 76 -22t27 -62q0 -17 -5 -39q-12 -53 -48.5 -83t-89.5 -30zM131 224 q28 0 40 52q5 23 5 34q0 30 -23 30q-28 0 -40 -52q-5 -23 -5 -34q0 -30 23 -30zM122 164q-49 0 -76 22t-27 62q0 17 5 39q12 53 48.5 83t89.5 30q49 0 76 -22t27 -62q0 -17 -5 -39q-12 -53 -48.5 -83t-89.5 -30z" />
<glyph horiz-adv-x="388" d="M-10 0l31 85h-51l16 75h63l25 70h-58l16 75h70l31 85h88l-31 -85h64l31 85h88l-31 -85h51l-16 -75h-63l-25 -70h58l-16 -75h-70l-31 -85h-88l31 85h-64l-31 -85h-88zM137 160h64l25 70h-64z" />
<glyph d="M186 228l13 64q-77 12 -123 44l35 74q50 -28 106 -38l18 84l-10 3q-58 17 -84.5 42.5t-26.5 66.5q0 58 48.5 94.5t126.5 37.5l13 60h57l-14 -65q54 -9 104 -41l-32 -69q-48 24 -89 30l-18 -84q65 -20 93 -46.5t28 -68.5q0 -59 -46.5 -94t-124.5 -35h-5l-12 -59h-57z M222 582q0 -13 7.5 -20.5t27.5 -14.5l15 71q-50 -5 -50 -36zM324 406q0 11 -8.5 18.5t-27.5 14.5l-15 -70q23 2 37 12t14 25z" />
<glyph d="M214 228l13 64q-55 7 -85.5 41t-30.5 88q0 72 50 122t132 59l13 62h57l-13 -62q34 -3 67 -20l-32 -69q-33 10 -52 12l-34 -157q26 3 63 19l16 -65q-40 -26 -95 -32l-13 -62h-56zM211 430q0 -46 33 -58l32 149q-31 -10 -48 -33.5t-17 -57.5z" />
<glyph horiz-adv-x="608" d="M137 300l331 390h105l-331 -390h-105zM493 350q28 0 40 52q5 23 5 34q0 30 -23 30q-28 0 -40 -52q-5 -23 -5 -34q0 -30 23 -30zM484 290q-49 0 -76 22t-27 62q0 17 5 39q12 53 48.5 83t89.5 30q49 0 76 -22t27 -62q0 -17 -5 -39q-12 -53 -48.5 -83t-89.5 -30zM195 524 q28 0 40 52q5 23 5 34q0 30 -23 30q-28 0 -40 -52q-5 -23 -5 -34q0 -30 23 -30zM186 464q-49 0 -76 22t-27 62q0 17 5 39q12 53 48.5 83t89.5 30q49 0 76 -22t27 -62q0 -17 -5 -39q-12 -53 -48.5 -83t-89.5 -30z" />
<glyph horiz-adv-x="388" d="M54 300l31 85h-51l16 75h63l25 70h-58l16 75h70l31 85h88l-31 -85h64l31 85h88l-31 -85h51l-16 -75h-63l-25 -70h58l-16 -75h-70l-31 -85h-88l31 85h-64l-31 -85h-88zM201 460h64l25 70h-64z" />
<glyph horiz-adv-x="259" d="M58 359q0 41 31 69t75 28q34 0 55.5 -21t21.5 -54q0 -41 -31 -69t-75 -28q-34 0 -55.5 21t-21.5 54z" />
<glyph horiz-adv-x="259" d="M58 379q0 41 31 69t75 28q34 0 55.5 -21t21.5 -54q0 -41 -31 -69t-75 -28q-34 0 -55.5 21t-21.5 54z" />
<glyph horiz-adv-x="826" d="M13 0l148 700h191l-148 -700h-191zM470 -12q-46 0 -92.5 12t-71.5 30l48 149q19 -11 45.5 -18.5t50.5 -7.5q38 0 61 11.5t38 40t26 81.5l88 414h191l-94 -442q-20 -94 -55 -153.5t-90 -88t-145 -28.5zM162 760l150 141h232l-194 -141h-188zM664 760l150 141h232 l-194 -141h-188z" />
<glyph horiz-adv-x="617" d="M121 532h180l-113 -532h-180zM610 532l-110 -515q-26 -123 -82 -183t-144 -60q-67 0 -125 29l50 129q22 -10 47 -10q28 0 45.5 21t27.5 67l111 522h180zM124 601l140 161h206l-173 -161h-173zM433 601l140 161h206l-173 -161h-173z" />
<glyph horiz-adv-x="347" d="M419 617q-31 0 -49.5 -20.5t-26.5 -64.5h115l-29 -135h-115l-110 -522h-180l110 522h-90l29 135h90l3 13q20 100 85 157.5t159 57.5q64 0 104 -27l-59 -122q-16 6 -36 6z" />
<glyph horiz-adv-x="340" d="M419 617q-31 0 -49.5 -20.5t-26.5 -64.5h267l-29 -135h-267l-110 -522h-180l110 522h-90l29 135h90l3 13q20 100 85 157.5t159 57.5q64 0 104 -27l-59 -122q-16 6 -36 6z" />
<glyph horiz-adv-x="0" d="M-117 -146q13 -7 31.5 -12t34.5 -5q23 0 37.5 9.5t14.5 24.5q0 26 -52 26h-43l58 105h93l-23 -42q33 -8 51 -30t18 -56q0 -54 -43.5 -90.5t-108.5 -36.5q-59 0 -109 29z" />
<glyph horiz-adv-x="0" d="M-141 -266q58 40 82 81q-21 6 -32.5 20.5t-11.5 33.5q0 36 26 58.5t65 22.5q30 0 49 -19t19 -48q0 -53 -41 -106t-117 -97z" />
<glyph horiz-adv-x="0" d="M-92 750l150 141h232l-194 -141h-188z" />
<glyph horiz-adv-x="0" d="M-74 750l-136 140h211l88 -140h-163z" />
<glyph horiz-adv-x="0" d="M-215 750l169 141h160l110 -141h-152l-50 56l-73 -56h-164z" />
<glyph horiz-adv-x="0" d="M-192 750q13 71 51 112.5t89 41.5q25 0 44 -6t44 -22q19 -12 28 -16t19 -4q13 0 23.5 11.5t14.5 30.5h115q-13 -71 -51 -112.5t-89 -41.5q-25 0 -44 6t-44 22q-19 12 -28 16t-19 4q-13 0 -23.5 -11.5t-14.5 -30.5h-115z" />
<glyph horiz-adv-x="0" d="M254 891l-169 -141h-160l-110 141h152l50 -56l73 56h164z" />
<glyph horiz-adv-x="0" d="M-181 819q0 40 31 67.5t75 27.5q34 0 56 -20.5t22 -52.5q0 -40 -31 -67.5t-75 -27.5q-34 0 -56 20.5t-22 52.5zM44 819q0 40 31 67.5t75 27.5q34 0 56 -20.5t22 -52.5q0 -40 -31 -67.5t-75 -27.5q-34 0 -56 20.5t-22 52.5z" />
<glyph horiz-adv-x="0" d="M4 745q-68 0 -110.5 37.5t-42.5 97.5q0 15 1 21h125v-6q0 -21 12.5 -33.5t32.5 -12.5q21 0 37.5 15t20.5 37h126q-14 -74 -67 -115t-135 -41z" />
<glyph horiz-adv-x="0" d="M9 736q-50 0 -81.5 30.5t-31.5 79.5q0 41 22 73.5t57 50.5t76 18q50 0 81.5 -30.5t31.5 -79.5q0 -40 -22 -73t-57 -51t-76 -18zM23 821q19 0 33 13.5t14 32.5q0 15 -9.5 25.5t-23.5 10.5q-19 0 -33 -13.5t-14 -32.5q0 -15 9.5 -25.5t23.5 -10.5z" />
<glyph horiz-adv-x="638" d="M452 -10q-21 0 -39 6q-50 15 -74 15t-74 -15q-18 -6 -39 -6q-66 0 -85 76q-19 77 -19 94q0 19 8 39q3 9 3 23q0 21 -5 48.5t-12.5 56.5t-14.5 54t-11 42q-10 40 -10 55q0 43 40 75q7 6 10 9.5t5.5 8t5.5 13.5q21 60 72 93t126 33t126 -33t72 -93q3 -8 5 -12.5t5 -8 t11 -10.5q40 -32 40 -75q0 -15 -10 -55q-4 -17 -11 -42t-14.5 -54t-12.5 -56.5t-5 -48.5q0 -14 3 -23q8 -20 8 -39q0 -17 -19 -94q-19 -76 -85 -76zM233 238q5 0 14 7.5t14 16.5q7 12 15.5 35.5t8.5 28.5t-5 5q-1 0 -2.5 -0.5t-3.5 -2.5q-4 -4 -10 -7t-10 -3q-3 0 -5.5 1.5 t-2.5 2.5q0 4 8 10q10 7 10 11q0 5 -7 5q-3 0 -9 -7q-5 -5 -12 -5q-11 0 -16 8q-3 6 -7 6q-7 0 -7 -5q0 -2 0.5 -4t0.5 -4q0 -8 -7 -8q-4 0 -9 4q-3 2 -11 2q-3 0 -5.5 2t-2.5 5q0 7 13 14q4 3 27 8q4 1 4 7t-7 6q-19 0 -32 -5q-13 -4 -18 -11t-5 -18q0 -18 10 -41t27 -40 q12 -13 22 -18.5t20 -5.5zM338 53q22 0 41 8t27 21q12 17 12 37v19q0 13 2 25q1 4 1.5 7.5t0.5 5.5q0 4 -5 4t-24.5 -3.5t-54.5 -3.5q-34 0 -53 3.5t-24 3.5q-7 0 -7 -4q0 -2 2 -9.5t4 -11.5q3 -5 18 -7q25 -2 44 -2q23 0 35 1t18 1q16 0 16 -12q0 -11 -14 -13 q-25 -3 -53 -3q-17 0 -29.5 1t-21.5 1q-13 0 -13 -10q0 -13 12 -30q9 -13 27 -21t39 -8zM469 204q15 0 25 37q9 35 20 49q8 9 15 21t7 18q0 8 -4 8q-1 0 -5 -1.5t-8 -3.5t-5 -2q-7 0 -7 9q0 8 6 29.5t15 45.5q13 33 13 48q0 11 -8 25q-10 15 -15 15t-13 -8q-17 -17 -42 -17 q-29 0 -45 28q-7 12 -7 19q0 6 5 6q3 0 10 -5t11 -5q6 0 11 8q5 10 5 26q0 17 -6.5 29.5t-14.5 12.5q-3 0 -17 -4t-34.5 -8.5t-42.5 -4.5q-11 0 -32 3t-28 5q-15 5 -22 7t-10 2q-7 0 -18 -7q-12 -7 -28.5 -20.5t-25.5 -24.5q-29 -31 -29 -49q1 -10 4.5 -20t4.5 -25 q0 -12 -1.5 -20t-1.5 -15q0 -8 2.5 -10t13.5 -2q17 0 36.5 3t36 6t22.5 3q12 0 20.5 -4t18.5 -14q13 -13 13 -32q0 -6 -1 -17t-2 -20l-8 -79q2 -32 35 -32q17 0 26.5 8.5t9.5 23.5q0 4 -0.5 7.5t-0.5 6.5q0 11 8 11q5 0 20 -15l37 -38q16 -17 31 -17zM365 373q-4 0 -6.5 2.5 t-2.5 5.5q0 5 6 8q12 7 44.5 21t42.5 17q9 3 13 3q9 0 18 -8q7 -6 14.5 -15t7.5 -12q0 -5 -3 -9t-7 -4q-5 0 -9 2.5t-11 7.5t-16 5q-12 0 -47 -11q-7 -2 -16 -5t-17 -5.5t-11 -2.5zM451 338q-12 1 -24 4.5t-21 3.5q-11 0 -16.5 -0.5t-12.5 -0.5q-9 0 -9 5q0 7 6 8 q9 3 37.5 6t37.5 3q6 0 8.5 -1.5t4.5 -6.5q3 -6 10 -6q3 0 5.5 1t6.5 1q5 0 5 -5q0 -4 -13.5 -8t-24.5 -4z" />
</font>
</defs>
</svg>
