<?xml version="1.0" standalone="no"?>
<!DOCTYPE svg PUBLIC "-//W3C//DTD SVG 1.1//EN" "http://www.w3.org/Graphics/SVG/1.1/DTD/svg11.dtd" >
<svg xmlns="http://www.w3.org/2000/svg">
<metadata></metadata>
<defs>
<font id="att_aleck_sanslight" horiz-adv-x="438" >
<font-face units-per-em="1000" ascent="750" descent="-250" />
<missing-glyph horiz-adv-x="230" />
<glyph unicode="fb" horiz-adv-x="924" d="M113 0v474h-99v42h99v55q0 89 42 139t118 50q43 0 77 -16l-11 -40q-35 11 -64 11q-53 0 -82.5 -37t-29.5 -105v-57h167v-42h-167v-474h-50zM429 0v750h50v-294q48 39 87.5 54.5t90.5 15.5q65 0 114 -35t75 -95.5t26 -137.5q0 -81 -30 -142t-82 -93.5t-118 -32.5 q-91 0 -166 61l-6 -51h-41zM649 481q-47 0 -87 -17t-83 -55v-309q33 -31 73.5 -48t84.5 -17q83 0 133.5 61.5t50.5 161.5q0 99 -47.5 161t-124.5 62z" />
<glyph unicode="fj" horiz-adv-x="559" d="M163 516h285v-42h-285v-474h-50v474h-99v42h99v55q0 89 42 139t118 50q43 0 77 -16l-11 -40q-35 11 -64 11q-53 0 -82.5 -37t-29.5 -105v-57zM416 681q0 16 10.5 26t27.5 10t27.5 -10t10.5 -26t-10.5 -26t-27.5 -10t-27.5 10t-10.5 26zM479 516v-581q0 -78 -31 -119.5 t-88 -41.5q-41 0 -73 17l11 39q28 -11 55 -11q76 0 76 114v583h50z" />
<glyph unicode="fk" horiz-adv-x="862" d="M113 0v474h-99v42h99v55q0 89 42 139t118 50q43 0 77 -16l-11 -40q-35 11 -64 11q-53 0 -82.5 -37t-29.5 -105v-57h167v-42h-167v-474h-50zM429 0v750h50v-480l295 246h68l-246 -207l256 -309h-62l-231 280l-80 -67v-213h-50z" />
<glyph unicode="ft" horiz-adv-x="709" d="M163 516h285v-42h-285v-474h-50v474h-99v42h99v55q0 89 42 139t118 50q43 0 77 -16l-11 -40q-35 11 -64 11q-53 0 -82.5 -37t-29.5 -105v-57zM575 -10q-77 0 -114 45t-37 138v301h-96v42h98l9 151h39v-151h192v-42h-192v-297q0 -142 106 -142q49 0 93 25l13 -39 q-22 -14 -52.5 -22.5t-58.5 -8.5z" />
<glyph unicode="fh" horiz-adv-x="918" d="M113 0v474h-99v42h99v55q0 89 42 139t118 50q43 0 77 -16l-11 -40q-35 11 -64 11q-53 0 -82.5 -37t-29.5 -105v-57h167v-42h-167v-474h-50zM429 0v750h50v-299q48 39 93 57t96 18q86 0 130.5 -51.5t44.5 -152.5v-322h-50v317q0 162 -137 162q-93 0 -177 -73v-406h-50z " />
<glyph unicode="ff" horiz-adv-x="660" d="M163 516h285v-42h-285v-474h-50v474h-99v42h99v55q0 89 42 139t118 50q43 0 77 -16l-11 -40q-35 11 -64 11q-53 0 -82.5 -37t-29.5 -105v-57zM429 0v474h-99v42h99v55q0 89 42 139t118 50q45 0 87 -20l-11 -40q-40 15 -74 15q-53 0 -82.5 -37t-29.5 -105v-57h167v-42 h-167v-474h-50z" />
<glyph unicode="fi" horiz-adv-x="559" d="M163 516h285v-42h-285v-474h-50v474h-99v42h99v55q0 89 42 139t118 50q43 0 77 -16l-11 -40q-35 11 -64 11q-53 0 -82.5 -37t-29.5 -105v-57zM429 516h50v-516h-50v516zM416 681q0 16 10.5 26t27.5 10t27.5 -10t10.5 -26t-10.5 -26t-27.5 -10t-27.5 10t-10.5 26z" />
<glyph unicode="fl" horiz-adv-x="559" d="M113 0v474h-99v42h99v55q0 89 42 139t118 50q43 0 77 -16l-11 -40q-35 11 -64 11q-53 0 -82.5 -37t-29.5 -105v-57h167v-42h-167v-474h-50zM429 750h50v-750h-50v750z" />
<glyph unicode="ffi" horiz-adv-x="875" d="M163 516h285v-42h-285v-474h-50v474h-99v42h99v55q0 89 42 139t118 50q43 0 77 -16l-11 -40q-35 11 -64 11q-53 0 -82.5 -37t-29.5 -105v-57zM479 516h285v-42h-285v-474h-50v474h-99v42h99v55q0 89 42 139t118 50q43 0 77 -16l-11 -40q-35 11 -64 11q-53 0 -82.5 -37 t-29.5 -105v-57zM745 516h50v-516h-50v516zM732 681q0 16 10.5 26t27.5 10t27.5 -10t10.5 -26t-10.5 -26t-27.5 -10t-27.5 10t-10.5 26z" />
<glyph unicode="ffl" horiz-adv-x="875" d="M163 516h285v-42h-285v-474h-50v474h-99v42h99v55q0 89 42 139t118 50q43 0 77 -16l-11 -40q-35 11 -64 11q-53 0 -82.5 -37t-29.5 -105v-57zM429 0v474h-99v42h99v55q0 89 42 139t118 50q43 0 77 -16l-11 -40q-35 11 -64 11q-53 0 -82.5 -37t-29.5 -105v-57h167v-42 h-167v-474h-50zM745 750h50v-750h-50v750z" />
<glyph unicode="ffb" horiz-adv-x="1240" d="M163 516h285v-42h-285v-474h-50v474h-99v42h99v55q0 89 42 139t118 50q43 0 77 -16l-11 -40q-35 11 -64 11q-53 0 -82.5 -37t-29.5 -105v-57zM429 0v474h-99v42h99v55q0 89 42 139t118 50q43 0 77 -16l-11 -40q-35 11 -64 11q-53 0 -82.5 -37t-29.5 -105v-57h167v-42 h-167v-474h-50zM745 0v750h50v-294q48 39 87.5 54.5t90.5 15.5q65 0 114 -35t75 -95.5t26 -137.5q0 -81 -30 -142t-82 -93.5t-118 -32.5q-91 0 -166 61l-6 -51h-41zM965 481q-47 0 -87 -17t-83 -55v-309q33 -31 73.5 -48t84.5 -17q83 0 133.5 61.5t50.5 161.5 q0 99 -47.5 161t-124.5 62z" />
<glyph unicode="ffh" horiz-adv-x="1234" d="M163 516h285v-42h-285v-474h-50v474h-99v42h99v55q0 89 42 139t118 50q43 0 77 -16l-11 -40q-35 11 -64 11q-53 0 -82.5 -37t-29.5 -105v-57zM429 0v474h-99v42h99v55q0 89 42 139t118 50q43 0 77 -16l-11 -40q-35 11 -64 11q-53 0 -82.5 -37t-29.5 -105v-57h167v-42 h-167v-474h-50zM745 0v750h50v-299q48 39 93 57t96 18q86 0 130.5 -51.5t44.5 -152.5v-322h-50v317q0 162 -137 162q-93 0 -177 -73v-406h-50z" />
<glyph unicode="ffj" horiz-adv-x="875" d="M163 516h285v-42h-285v-474h-50v474h-99v42h99v55q0 89 42 139t118 50q43 0 77 -16l-11 -40q-35 11 -64 11q-53 0 -82.5 -37t-29.5 -105v-57zM479 516h285v-42h-285v-474h-50v474h-99v42h99v55q0 89 42 139t118 50q43 0 77 -16l-11 -40q-35 11 -64 11q-53 0 -82.5 -37 t-29.5 -105v-57zM732 681q0 16 10.5 26t27.5 10t27.5 -10t10.5 -26t-10.5 -26t-27.5 -10t-27.5 10t-10.5 26zM795 516v-581q0 -78 -31 -119.5t-88 -41.5q-41 0 -73 17l11 39q28 -11 55 -11q76 0 76 114v583h50z" />
<glyph unicode="ffk" horiz-adv-x="1178" d="M163 516h285v-42h-285v-474h-50v474h-99v42h99v55q0 89 42 139t118 50q43 0 77 -16l-11 -40q-35 11 -64 11q-53 0 -82.5 -37t-29.5 -105v-57zM429 0v474h-99v42h99v55q0 89 42 139t118 50q43 0 77 -16l-11 -40q-35 11 -64 11q-53 0 -82.5 -37t-29.5 -105v-57h167v-42 h-167v-474h-50zM745 0v750h50v-480l295 246h68l-246 -207l256 -309h-62l-231 280l-80 -67v-213h-50z" />
<glyph unicode="fft" horiz-adv-x="1025" d="M163 516h285v-42h-285v-474h-50v474h-99v42h99v55q0 89 42 139t118 50q43 0 77 -16l-11 -40q-35 11 -64 11q-53 0 -82.5 -37t-29.5 -105v-57zM479 516h285v-42h-285v-474h-50v474h-99v42h99v55q0 89 42 139t118 50q43 0 77 -16l-11 -40q-35 11 -64 11q-53 0 -82.5 -37 t-29.5 -105v-57zM891 -10q-77 0 -114 45t-37 138v301h-96v42h98l9 151h39v-151h192v-42h-192v-297q0 -142 106 -142q49 0 93 25l13 -39q-22 -14 -52.5 -22.5t-58.5 -8.5z" />
<glyph unicode=" "  horiz-adv-x="230" />
<glyph unicode="&#x09;" horiz-adv-x="230" />
<glyph unicode="&#xa0;" horiz-adv-x="230" />
<glyph unicode="!" horiz-adv-x="226" d="M155 30q0 -17 -12 -28.5t-30 -11.5t-30 11.5t-12 28.5t12 28.5t30 11.5t30 -11.5t12 -28.5zM134 194h-42l-7 506h56z" />
<glyph unicode="&#x22;" horiz-adv-x="315" d="M47 700h55l-6 -245h-43zM213 700h55l-6 -245h-43z" />
<glyph unicode="#" horiz-adv-x="600" d="M63 479h115l29 211h45l-29 -211h191l29 211h45l-29 -211h106v-43h-112l-24 -182h109v-43h-115l-29 -211h-45l29 211h-191l-29 -211h-45l29 211h-106v43h112l24 182h-109v43zM193 254h191l24 182h-191z" />
<glyph unicode="$" horiz-adv-x="600" d="M282 -113v103q-54 1 -111.5 17t-98.5 43l17 41q94 -54 193 -56v305q-71 18 -113.5 41t-62 56t-19.5 84q0 50 25.5 89.5t70 62.5t100.5 26v92h43v-92q91 -4 177 -52l-17 -41q-83 44 -160 48v-278q110 -29 156 -73.5t46 -118.5q0 -54 -25 -95.5t-71 -66.5t-107 -30v-105 h-43zM478 182q0 57 -34 89t-119 57v-291q73 7 113 45t40 100zM136 525q0 -54 32 -84t115 -53v266q-69 -5 -108 -39.5t-39 -89.5z" />
<glyph unicode="%" horiz-adv-x="940" d="M249 0l390 690h52l-390 -690h-52zM721 33q51 0 78.5 40t27.5 114v16q0 75 -27.5 114.5t-78.5 39.5t-78.5 -40t-27.5 -114v-16q0 -75 27.5 -114.5t78.5 -39.5zM721 -10q-71 0 -112.5 53t-41.5 144v16q0 91 41.5 144t112.5 53t112.5 -53t41.5 -144v-16q0 -91 -41.5 -144 t-112.5 -53zM219 333q51 0 78.5 40t27.5 114v16q0 75 -27.5 114.5t-78.5 39.5t-78.5 -40t-27.5 -114v-16q0 -75 27.5 -114.5t78.5 -39.5zM219 290q-71 0 -112.5 53t-41.5 144v16q0 91 41.5 144t112.5 53t112.5 -53t41.5 -144v-16q0 -91 -41.5 -144t-112.5 -53z" />
<glyph unicode="&#x26;" horiz-adv-x="708" d="M256 -10q-90 0 -143 48t-53 129q0 121 168 212q-38 39 -59 67t-30.5 53t-9.5 59q0 67 49.5 109.5t128.5 42.5q74 0 120 -39.5t46 -103.5q0 -50 -42 -97.5t-130 -95.5l178 -178q28 45 51 88l47 91h50l-52 -99q-32 -60 -63 -110l166 -166h-69l-127 126q-97 -136 -226 -136z M260 35q55 0 101 29t89 92l-193 194q-76 -43 -111 -87t-35 -95q0 -61 40.5 -97t108.5 -36zM179 559q0 -25 7 -44.5t26 -44.5t60 -67q81 46 116 84t35 79q0 43 -32.5 71t-83.5 28q-58 0 -93 -29t-35 -77z" />
<glyph unicode="'" horiz-adv-x="149" d="M47 700h55l-6 -245h-43z" />
<glyph unicode="(" horiz-adv-x="323" d="M234 -164q-70 83 -111 203t-41 244t41 244t111 203h52q-72 -91 -112 -208.5t-40 -238.5t40 -238.5t112 -208.5h-52z" />
<glyph unicode=")" horiz-adv-x="323" d="M37 -164q72 91 112 208.5t40 238.5t-40 238.5t-112 208.5h52q70 -83 111 -203t41 -244t-41 -244t-111 -203h-52z" />
<glyph unicode="*" horiz-adv-x="414" d="M207 501l-83 -130l-38 25l93 121l-140 39l14 45l138 -55l-8 150h48l-8 -150l138 55l14 -45l-140 -39l93 -121l-38 -25z" />
<glyph unicode="+" horiz-adv-x="600" d="M276 111v210h-200v46h200v210h48v-210h200v-46h-200v-210h-48z" />
<glyph unicode="," horiz-adv-x="172" d="M10 -109q63 46 71 101q-17 2 -27 12.5t-10 26.5q0 17 12 28t30 11q19 0 30.5 -14t11.5 -38q0 -86 -99 -152z" />
<glyph unicode="-" horiz-adv-x="397" d="M51 295h295v-44h-295v44z" />
<glyph unicode="." horiz-adv-x="172" d="M128 30q0 -17 -12 -28.5t-30 -11.5t-30 11.5t-12 28.5t12 28.5t30 11.5t30 -11.5t12 -28.5z" />
<glyph unicode="/" horiz-adv-x="464" d="M400 730h53l-389 -894h-53z" />
<glyph unicode="0" horiz-adv-x="566" d="M283 36q84 0 128 74t44 216v38q0 142 -44 216t-128 74t-128 -74t-44 -216v-38q0 -142 44 -216t128 -74zM283 -10q-108 0 -166.5 87.5t-58.5 248.5v38q0 161 58.5 248.5t166.5 87.5t166.5 -87.5t58.5 -248.5v-38q0 -161 -58.5 -248.5t-166.5 -87.5z" />
<glyph unicode="1" horiz-adv-x="393" d="M32 534l203 156h48v-690h-51v631l-174 -133z" />
<glyph unicode="2" horiz-adv-x="504" d="M52 0v37q0 79 16 133.5t54 96t110 80.5q96 52 129 88t33 87q0 60 -39.5 96t-106.5 36q-41 0 -83.5 -18.5t-79.5 -52.5l-25 36q86 81 194 81q58 0 102 -23t67.5 -63t23.5 -90q0 -43 -17.5 -78t-58.5 -68.5t-114 -71.5q-59 -31 -91.5 -63t-46.5 -77t-14 -119h349v-47h-402z " />
<glyph unicode="3" horiz-adv-x="499" d="M225 -10q-111 0 -195 63l21 39q79 -56 169 -56q82 0 128 40t46 110t-47 111.5t-125 41.5h-83v45h83q72 0 113.5 35t41.5 97q0 63 -42.5 100.5t-114.5 37.5q-75 0 -157 -56l-23 38q88 64 186 64q91 0 147 -50t56 -134q0 -53 -30 -93.5t-84 -59.5q62 -19 96.5 -65.5 t34.5 -113.5q0 -88 -60.5 -141t-160.5 -53z" />
<glyph unicode="4" horiz-adv-x="573" d="M389 0v178h-356v44l358 468h48v-467h101v-45h-101v-178h-50zM389 223v391l-300 -391h300z" />
<glyph unicode="5" horiz-adv-x="497" d="M236 -10q-111 0 -195 63l21 39q79 -56 169 -56q84 0 130.5 44t46.5 123q0 77 -52 117.5t-150 40.5q-10 0 -30.5 -0.5t-43 -0.5t-39.5 -0.5t-19 -0.5l23 331h324v-47h-281l-17 -239q57 3 95 3q114 0 178 -54t64 -150t-61 -154.5t-163 -58.5z" />
<glyph unicode="6" horiz-adv-x="548" d="M328 700q88 0 151 -39l-17 -41q-33 18 -64 26t-68 8q-94 0 -148 -64t-66 -189q92 12 168 12q229 0 229 -212q0 -60 -29 -109t-78 -75.5t-113 -26.5q-110 0 -170.5 82.5t-60.5 232.5v21q0 178 69.5 276t196.5 98zM281 369q-79 0 -168 -12v-53q0 -129 47 -198.5t135 -69.5 q77 0 121.5 45.5t44.5 118.5q0 87 -44 128t-136 41z" />
<glyph unicode="7" horiz-adv-x="485" d="M141 0v7q0 65 11.5 120t39.5 121.5t81 161.5l130 233h-373v47h425v-45l-142 -261q-47 -86 -72.5 -146t-37 -112.5t-11.5 -118.5v-7h-51z" />
<glyph unicode="8" horiz-adv-x="565" d="M53 179q0 62 35 109t101 72q-57 20 -87.5 59.5t-30.5 96.5q0 81 59 132.5t153 51.5q64 0 111.5 -24t73.5 -64.5t26 -91.5q0 -54 -28.5 -95t-84.5 -65q63 -24 97 -69.5t34 -107.5q0 -86 -63 -139.5t-166 -53.5t-166.5 52t-63.5 137zM283 35q81 0 129 40.5t48 110.5 q0 62 -42 102t-121 51l-51 7q-69 -23 -105 -64.5t-36 -97.5q0 -68 48 -108.5t130 -40.5zM328 375q115 45 115 140q0 63 -43.5 101.5t-116.5 38.5t-117 -38.5t-44 -101.5q0 -111 149 -132z" />
<glyph unicode="9" horiz-adv-x="548" d="M220 -10q-43 0 -82 10t-69 29l17 41q33 -18 64 -26t68 -8q100 0 152 62.5t62 193.5q-84 -12 -170 -12q-227 0 -227 211q0 47 17 86.5t47.5 66.5t70 41.5t85.5 14.5q110 0 170.5 -82.5t60.5 -232.5v-21q0 -186 -67 -280t-199 -94zM265 324q86 0 170 12v50q0 129 -47 198.5 t-135 69.5q-76 0 -121 -44.5t-45 -118.5q0 -85 43.5 -126t134.5 -41z" />
<glyph unicode=":" horiz-adv-x="172" d="M128 30q0 -17 -12 -28.5t-30 -11.5t-30 11.5t-12 28.5t12 28.5t30 11.5t30 -11.5t12 -28.5zM128 476q0 -17 -12 -28.5t-30 -11.5t-30 11.5t-12 28.5t12 28.5t30 11.5t30 -11.5t12 -28.5z" />
<glyph unicode=";" horiz-adv-x="172" d="M10 -109q63 46 71 101q-17 2 -27 12.5t-10 26.5q0 17 12 28t30 11q19 0 30.5 -14t11.5 -38q0 -86 -99 -152zM128 476q0 -17 -12 -28.5t-30 -11.5t-30 11.5t-12 28.5t12 28.5t30 11.5t30 -11.5t12 -28.5z" />
<glyph unicode="&#x3c;" horiz-adv-x="600" d="M87 367l426 176v-52l-373 -146l373 -145v-52l-426 176v43z" />
<glyph unicode="=" horiz-adv-x="600" d="M76 211v46h448v-46h-448zM76 432v46h448v-46h-448z" />
<glyph unicode="&#x3e;" horiz-adv-x="600" d="M513 324l-426 -176v52l373 146l-373 145v52l426 -176v-43z" />
<glyph unicode="?" horiz-adv-x="446" d="M165 194v39q0 53 19.5 89.5t71.5 77.5l16 13q43 33 62.5 65.5t19.5 70.5q0 51 -39 83t-103 32q-89 0 -171 -76l-23 34q41 41 93 64t107 23q86 0 137 -43t51 -115q0 -47 -23 -85.5t-74 -78.5l-16 -13q-45 -36 -62.5 -66t-17.5 -75v-39h-48zM231 30q0 -17 -12 -28.5 t-30 -11.5t-30 11.5t-12 28.5t12 28.5t30 11.5t30 -11.5t12 -28.5z" />
<glyph unicode="@" horiz-adv-x="1000" d="M700 -25q-53 0 -83 27t-31 75q-33 -32 -75.5 -50.5t-84.5 -18.5q-63 0 -99 42t-36 113q0 76 35 140.5t92 99.5t126 35q35 0 67.5 -12.5t54.5 -34.5l14 38h42l-80 -290q-8 -26 -8 -52q0 -34 16 -50.5t50 -16.5q54 0 97.5 36.5t67.5 97t24 133.5q0 100 -42.5 173.5 t-118 113t-174.5 39.5q-127 0 -229 -61.5t-158 -161.5t-56 -218q0 -110 45 -189.5t127 -121.5t193 -42q51 0 105 11t102 31l11 -42q-96 -45 -220 -45q-129 0 -222.5 49t-142.5 138.5t-49 209.5q0 141 68 252.5t180.5 173t246.5 61.5q117 0 204.5 -47.5t134 -131.5t46.5 -192 q0 -92 -32.5 -163t-87 -110t-120.5 -39zM436 52q36 0 78 21t77 58l61 220q-21 20 -51.5 31.5t-61.5 11.5q-56 0 -101.5 -31.5t-71 -82.5t-25.5 -111q0 -55 25 -86t70 -31z" />
<glyph unicode="A" horiz-adv-x="627" d="M286 700h55l269 -700h-56l-80 213h-324l-80 -213h-53zM167 260h290l-144 386z" />
<glyph unicode="B" horiz-adv-x="611" d="M84 700h242q103 0 158 -47.5t55 -137.5q0 -54 -31 -97.5t-82 -60.5q63 -12 98 -56t35 -113q0 -57 -27 -100t-75 -65.5t-111 -22.5h-262v700zM136 329v-281h210q75 0 117 37t42 104q0 140 -179 140h-190zM136 652v-275h190q76 0 117.5 36.5t41.5 101.5q0 66 -41.5 101.5 t-117.5 35.5h-190z" />
<glyph unicode="C" horiz-adv-x="638" d="M384 -10q-98 0 -172.5 47.5t-114.5 129t-40 183.5q0 106 43.5 188.5t117.5 127t166 44.5q53 0 105 -14.5t93 -40.5l-17 -42q-87 48 -178 48q-84 0 -146.5 -40t-96 -110.5t-33.5 -160.5q0 -94 35.5 -165t98 -108.5t142.5 -37.5q48 0 91.5 13t90.5 42l18 -42 q-43 -30 -96.5 -46t-106.5 -16z" />
<glyph unicode="D" horiz-adv-x="691" d="M580 350q0 141 -76.5 221.5t-212.5 80.5h-155v-604h155q136 0 212.5 80.5t76.5 221.5zM634 350q0 -108 -42.5 -187.5t-119.5 -121t-180 -41.5h-208v700h208q107 0 184 -44t117.5 -123t40.5 -183z" />
<glyph unicode="E" horiz-adv-x="541" d="M84 700h410v-48h-358v-274h300v-48h-300v-282h368v-48h-420v700z" />
<glyph unicode="F" horiz-adv-x="516" d="M84 700h400v-48h-348v-289h290v-48h-290v-315h-52v700z" />
<glyph unicode="G" horiz-adv-x="687" d="M388 -10q-101 0 -176 47t-115 128.5t-40 184.5q0 105 45 187.5t120.5 127.5t168.5 45q116 0 206 -55l-17 -42q-48 26 -91 37t-95 11q-86 0 -150 -40.5t-98.5 -111t-34.5 -159.5q0 -95 35.5 -165.5t98.5 -108t145 -37.5q56 0 96.5 8t75.5 27v244h-223v48h275v-320 q-92 -56 -226 -56z" />
<glyph unicode="H" horiz-adv-x="684" d="M84 700h52v-322h412v322h52v-700h-52v330h-412v-330h-52v700z" />
<glyph unicode="I" horiz-adv-x="220" d="M84 700h52v-700h-52v700z" />
<glyph unicode="J" horiz-adv-x="424" d="M163 -10q-76 0 -137 35l17 45q55 -31 116 -31q69 0 101 41t32 130v490h52v-496q0 -214 -181 -214z" />
<glyph unicode="K" horiz-adv-x="598" d="M260 375l-124 -132v-243h-52v700h52v-392l364 392h67l-270 -289l280 -411h-63z" />
<glyph unicode="L" horiz-adv-x="507" d="M84 700h52v-652h348v-48h-400v700z" />
<glyph unicode="M" horiz-adv-x="813" d="M677 0v597l-247 -474h-47l-247 469v-592h-52v700h52l272 -517l269 517h52v-700h-52z" />
<glyph unicode="N" horiz-adv-x="680" d="M84 0v700h53l407 -611v611h52v-700h-53l-407 611v-611h-52z" />
<glyph unicode="O" horiz-adv-x="750" d="M375 661q-79 0 -139 -40.5t-92.5 -111t-32.5 -159.5q0 -93 34.5 -164t94.5 -109t135 -38q79 0 139 40.5t92.5 111t32.5 159.5q0 93 -34.5 164t-94.5 109t-135 38zM375 710q94 0 166.5 -48t112 -129.5t39.5 -182.5q0 -106 -42.5 -188.5t-114.5 -127t-161 -44.5 q-94 0 -166.5 48t-112 129.5t-39.5 182.5q0 106 42.5 188.5t114.5 127t161 44.5z" />
<glyph unicode="P" horiz-adv-x="583" d="M84 700h208q113 0 177 -56t64 -155q0 -100 -64 -158t-177 -58h-156v-273h-52v700zM136 321h155q89 0 138.5 44.5t49.5 123.5q0 78 -49 120.5t-139 42.5h-155v-331z" />
<glyph unicode="Q" horiz-adv-x="750" d="M375 -10q-94 0 -166.5 48t-112 129.5t-39.5 182.5q0 106 42.5 188.5t114.5 127t161 44.5q94 0 166.5 -48t112 -129.5t39.5 -182.5q0 -94 -35 -172t-97 -126l72 -98l-39 -27l-73 99q-67 -36 -146 -36zM375 39q65 0 117 27l-83 113l39 27l83 -114q52 41 80 108t28 150 q0 93 -34.5 164t-94.5 109t-135 38q-79 0 -139 -40.5t-92.5 -111t-32.5 -159.5q0 -93 34.5 -164t94.5 -109t135 -38z" />
<glyph unicode="R" horiz-adv-x="602" d="M308 284h-172v-284h-52v700h221q108 0 168 -54t60 -152q0 -80 -45 -134.5t-124 -70.5l188 -289h-62zM136 332h170q81 0 127 43t46 119q0 75 -45.5 116.5t-127.5 41.5h-170v-320z" />
<glyph unicode="S" horiz-adv-x="577" d="M279 -10q-68 0 -123 14t-104 44l18 46q94 -55 207 -55q85 0 134.5 39t49.5 106q0 58 -38.5 91t-133.5 59l-39 11q-96 27 -137 69.5t-41 113.5q0 83 59.5 132.5t160.5 49.5q114 0 200 -51l-16 -43q-84 45 -183 45q-79 0 -123 -35t-44 -97q0 -54 33.5 -84.5t116.5 -53.5 l39 -11q109 -31 154.5 -74.5t45.5 -119.5q0 -89 -64 -142.5t-172 -53.5z" />
<glyph unicode="T" horiz-adv-x="588" d="M268 652h-240v48h532v-48h-240v-652h-52v652z" />
<glyph unicode="U" horiz-adv-x="660" d="M330 -10q-122 0 -186 71t-64 206v433h52v-430q0 -113 50 -172t148 -59q97 0 147.5 59t50.5 172v430h52v-433q0 -134 -64.5 -205.5t-185.5 -71.5z" />
<glyph unicode="V" horiz-adv-x="613" d="M22 700h56l229 -646l231 646h53l-257 -700h-55z" />
<glyph unicode="W" horiz-adv-x="852" d="M215 0l-180 700h55l154 -632l158 572h50l157 -574l156 634h52l-180 -700h-58l-153 562l-154 -562h-57z" />
<glyph unicode="X" horiz-adv-x="580" d="M322 356l232 -356h-62l-202 320l-206 -320h-58l234 358l-227 342h61l199 -306l197 306h59z" />
<glyph unicode="Y" horiz-adv-x="588" d="M268 284l-247 416h58l216 -374l216 374h56l-247 -416v-284h-52v284z" />
<glyph unicode="Z" horiz-adv-x="588" d="M45 0v45l425 607h-415v48h478v-45l-425 -607h435v-48h-498z" />
<glyph unicode="[" horiz-adv-x="347" d="M84 -164v894h218v-45h-167v-804h167v-45h-218z" />
<glyph unicode="\" horiz-adv-x="464" d="M453 -164h-53l-389 894h53z" />
<glyph unicode="]" horiz-adv-x="347" d="M263 730v-894h-218v45h167v804h-167v45h218z" />
<glyph unicode="^" horiz-adv-x="600" d="M467 324l-167 319l-168 -319h-53l198 366h46l198 -366h-54z" />
<glyph unicode="_" horiz-adv-x="500" d="M0 -90h500v-42h-500v42z" />
<glyph unicode="`" horiz-adv-x="569" d="M304 611l-110 139h68l96 -139h-54z" />
<glyph unicode="a" horiz-adv-x="528" d="M218 -10q-75 0 -118 39.5t-43 107.5q0 76 45 115.5t133 39.5h168v25q0 164 -141 164q-42 0 -80.5 -11t-81.5 -35l-18 38q49 28 92.5 40.5t94.5 12.5q184 0 184 -204v-322h-41l-7 64q-39 -34 -89 -54t-98 -20zM223 35q46 0 94.5 21t85.5 56v138h-161q-134 0 -134 -112 q0 -46 32 -74.5t83 -28.5z" />
<glyph unicode="b" horiz-adv-x="575" d="M80 0v750h50v-294q48 39 87.5 54.5t90.5 15.5q65 0 114 -35t75 -95.5t26 -137.5q0 -81 -30 -142t-82 -93.5t-118 -32.5q-91 0 -166 61l-6 -51h-41zM300 481q-47 0 -87 -17t-83 -55v-309q33 -31 73.5 -48t84.5 -17q83 0 133.5 61.5t50.5 161.5q0 99 -47.5 161t-124.5 62z " />
<glyph unicode="c" horiz-adv-x="499" d="M304 -10q-76 0 -133 35t-88 96t-31 137q0 80 33 141t90 94t129 33q42 0 76.5 -10t71.5 -34l-17 -38q-35 20 -64 28.5t-67 8.5q-60 0 -105.5 -29.5t-70.5 -80t-25 -113.5q0 -66 26.5 -117t72 -78.5t102.5 -27.5q39 0 72.5 9t66.5 28l17 -38q-65 -44 -156 -44z" />
<glyph unicode="d" horiz-adv-x="575" d="M495 750v-750h-41l-7 60q-46 -38 -88 -54t-92 -16q-65 0 -114 35t-75 95.5t-26 137.5q0 81 30 142t82 93.5t118 32.5q42 0 84 -15t79 -44v283h50zM275 35q46 0 86 17t84 55v308q-33 32 -74 49t-84 17q-83 0 -133.5 -61.5t-50.5 -161.5q0 -99 47.5 -161t124.5 -62z" />
<glyph unicode="e" horiz-adv-x="550" d="M304 -10q-77 0 -134 35t-87.5 95.5t-30.5 137.5q0 79 32 140.5t85 94.5t116 33q65 0 113.5 -31t74.5 -85t26 -122q0 -22 -2 -44h-394q3 -63 30 -110.5t71.5 -73t99.5 -25.5q51 0 87 9.5t76 32.5l18 -38q-41 -26 -83.5 -37.5t-97.5 -11.5zM285 481q-49 0 -88.5 -25.5 t-63.5 -70t-29 -99.5h344v8q0 54 -21 98t-57.5 66.5t-84.5 22.5z" />
<glyph unicode="f" horiz-adv-x="344" d="M113 0v474h-99v42h99v55q0 89 42 139t118 50q45 0 87 -20l-11 -40q-40 15 -74 15q-53 0 -82.5 -37t-29.5 -105v-57h167v-42h-167v-474h-50z" />
<glyph unicode="g" horiz-adv-x="575" d="M273 -226q-105 0 -185 46l17 41q35 -20 79 -31t86 -11q91 0 133 44t42 138v67q-45 -36 -86 -52t-92 -16q-64 0 -113 34t-75.5 94t-26.5 135q0 79 30 139t82 92t118 32q44 0 87.5 -16t78.5 -46l6 52h41v-512q0 -230 -222 -230zM275 45q46 0 86 17t84 55v298q-33 32 -74 49 t-84 17q-83 0 -133.5 -60.5t-50.5 -157.5q0 -65 22.5 -115t61.5 -76.5t88 -26.5z" />
<glyph unicode="h" horiz-adv-x="569" d="M80 0v750h50v-299q48 39 93 57t96 18q86 0 130.5 -51.5t44.5 -152.5v-322h-50v317q0 162 -137 162q-93 0 -177 -73v-406h-50z" />
<glyph unicode="i" horiz-adv-x="210" d="M80 516h50v-516h-50v516zM67 681q0 16 10.5 26t27.5 10t27.5 -10t10.5 -26t-10.5 -26t-27.5 -10t-27.5 10t-10.5 26z" />
<glyph unicode="j" horiz-adv-x="210" d="M67 681q0 16 10.5 26t27.5 10t27.5 -10t10.5 -26t-10.5 -26t-27.5 -10t-27.5 10t-10.5 26zM130 516v-581q0 -78 -31 -119.5t-88 -41.5q-41 0 -73 17l11 39q28 -11 55 -11q76 0 76 114v583h50z" />
<glyph unicode="k" horiz-adv-x="513" d="M80 0v750h50v-480l295 246h68l-246 -207l256 -309h-62l-231 280l-80 -67v-213h-50z" />
<glyph unicode="l" horiz-adv-x="210" d="M80 750h50v-750h-50v750z" />
<glyph unicode="m" horiz-adv-x="901" d="M80 0v516h41l7 -64q93 74 183 74q53 0 90 -22.5t56 -65.5q102 88 202 88q82 0 124.5 -52t42.5 -152v-322h-50v317q0 81 -33 121.5t-96 40.5q-42 0 -87.5 -21t-89.5 -60q8 -37 8 -76v-322h-50v317q0 81 -33 121.5t-96 40.5q-41 0 -84.5 -19t-84.5 -54v-406h-50z" />
<glyph unicode="n" horiz-adv-x="569" d="M80 0v516h41l7 -64q93 74 191 74q86 0 130.5 -51.5t44.5 -152.5v-322h-50v317q0 162 -137 162q-93 0 -177 -73v-406h-50z" />
<glyph unicode="o" horiz-adv-x="592" d="M540 258q0 -80 -32.5 -141t-87.5 -94t-124 -33q-72 0 -128 35.5t-86 96t-30 136.5q0 80 32.5 141t87.5 94t124 33q72 0 128 -35.5t86 -96t30 -136.5zM489 258q0 98 -54 160.5t-139 62.5t-139 -62.5t-54 -160.5t54 -160.5t139 -62.5t139 62.5t54 160.5z" />
<glyph unicode="p" horiz-adv-x="575" d="M80 -216v732h41l7 -60q46 38 88 54t92 16q65 0 114 -35t75 -95.5t26 -137.5q0 -81 -30 -142t-82 -93.5t-118 -32.5q-43 0 -85.5 15t-77.5 43v-264h-50zM300 481q-47 0 -87 -17t-83 -55v-309q33 -31 73.5 -48t84.5 -17q83 0 133.5 61.5t50.5 161.5q0 99 -47.5 161 t-124.5 62z" />
<glyph unicode="q" horiz-adv-x="575" d="M495 516v-732h-50v274q-45 -36 -86 -52t-92 -16q-65 0 -114 35t-75 95.5t-26 137.5q0 81 30 142t82 93.5t118 32.5q44 0 87.5 -16t78.5 -46l6 52h41zM275 35q46 0 86 17t84 55v308q-33 32 -74 49t-84 17q-83 0 -133.5 -61.5t-50.5 -161.5q0 -99 47.5 -161t124.5 -62z" />
<glyph unicode="r" horiz-adv-x="369" d="M343 472q-24 4 -45 4q-42 0 -86 -19t-82 -54v-403h-50v516h41l7 -66q39 37 85 56.5t93 19.5q22 0 44 -5z" />
<glyph unicode="s" horiz-adv-x="457" d="M226 -10q-52 0 -94.5 11.5t-83.5 36.5l17 41q82 -44 158 -44q65 0 100 25.5t35 72.5q0 39 -27.5 62.5t-97.5 44.5l-27 8q-78 23 -110.5 55.5t-32.5 86.5q0 60 46.5 98t119.5 38q87 0 164 -43l-16 -40q-72 38 -149 38q-52 0 -83 -24t-31 -64q0 -25 10.5 -42.5t34 -31.5 t64.5 -26l27 -8q87 -25 123 -58.5t36 -90.5q0 -67 -49.5 -106.5t-133.5 -39.5z" />
<glyph unicode="t" horiz-adv-x="386" d="M252 -10q-77 0 -114 45t-37 138v301h-96v42h98l9 151h39v-151h192v-42h-192v-297q0 -142 106 -142q49 0 93 25l13 -39q-22 -14 -52.5 -22.5t-58.5 -8.5z" />
<glyph unicode="u" horiz-adv-x="566" d="M486 516v-516h-41l-8 64q-91 -74 -188 -74q-86 0 -130 51.5t-44 152.5v322h50v-317q0 -162 136 -162q89 0 175 73v406h50z" />
<glyph unicode="v" horiz-adv-x="495" d="M223 0l-204 516h56l173 -465l174 465h54l-204 -516h-49z" />
<glyph unicode="w" horiz-adv-x="748" d="M23 516h53l141 -457l134 438h48l134 -438l141 457h51l-169 -516h-49l-133 435l-133 -435h-49z" />
<glyph unicode="x" horiz-adv-x="489" d="M214 267l-187 249h60l158 -214l158 214h56l-186 -249l202 -267h-60l-173 233l-172 -233h-56z" />
<glyph unicode="y" horiz-adv-x="496" d="M87 -226q-41 0 -79 19l13 40q35 -14 63 -14q40 0 68.5 33t58.5 116l14 38l-205 510h56l174 -458l173 458h54l-208 -522q-35 -88 -60.5 -134t-53 -66t-68.5 -20z" />
<glyph unicode="z" horiz-adv-x="478" d="M45 38l323 436h-311v42h369v-38l-323 -436h330v-42h-388v38z" />
<glyph unicode="{" horiz-adv-x="370" d="M41 305h21q43 0 63.5 17t20.5 54q0 22 -2.5 43t-8.5 65q-11 74 -11 109q0 67 35 102.5t102 35.5q37 0 77 -8v-45q-37 7 -68 7q-49 0 -72.5 -23.5t-23.5 -72.5q0 -31 11 -106q11 -80 11 -108q0 -76 -70 -92q70 -16 70 -92q0 -28 -11 -108q-11 -75 -11 -106 q0 -49 23.5 -72.5t72.5 -23.5q31 0 68 7v-45q-40 -8 -77 -8q-67 0 -102 35.5t-35 102.5q0 35 11 109q6 44 8.5 65t2.5 43q0 37 -20.5 54t-63.5 17h-21v44z" />
<glyph unicode="|" horiz-adv-x="218" d="M84 730h50v-946h-50v946z" />
<glyph unicode="}" horiz-adv-x="370" d="M329 261h-21q-43 0 -63.5 -17t-20.5 -54q0 -22 2.5 -43t8.5 -65q11 -74 11 -109q0 -67 -35 -102.5t-102 -35.5q-37 0 -77 8v45q37 -7 68 -7q49 0 72.5 23.5t23.5 72.5q0 31 -11 106q-11 80 -11 108q0 76 70 92q-70 16 -70 92q0 28 11 108q11 75 11 106q0 49 -23.5 72.5 t-72.5 23.5q-31 0 -68 -7v45q40 8 77 8q67 0 102 -35.5t35 -102.5q0 -35 -11 -109q-6 -44 -8.5 -65t-2.5 -43q0 -37 20.5 -54t63.5 -17h21v-44z" />
<glyph unicode="~" horiz-adv-x="600" d="M425 246q-31 0 -61 16.5t-76 61.5q-50 48 -70.5 60.5t-40.5 12.5q-67 0 -67 -114v-34h-47v36q0 75 29.5 116.5t82.5 41.5q31 0 61 -16.5t76 -61.5q50 -48 70.5 -60.5t40.5 -12.5q67 0 67 114v34h47v-36q0 -75 -29.5 -116.5t-82.5 -41.5z" />
<glyph unicode="&#xa1;" horiz-adv-x="226" d="M92 322h42l7 -506h-56zM71 486q0 17 12 28.5t30 11.5t30 -11.5t12 -28.5t-12 -28.5t-30 -11.5t-30 11.5t-12 28.5z" />
<glyph unicode="&#xa2;" horiz-adv-x="600" d="M313 -113v106q-91 13 -146.5 84.5t-55.5 175.5q0 70 26 126.5t72 91t104 42.5v107h43v-104q40 -1 74 -11t71 -33l-17 -38q-36 20 -64.5 28t-63.5 9v-436q74 0 136 37l17 -38q-64 -43 -153 -44v-103h-43zM162 253q0 -82 41.5 -141t109.5 -73v428q-68 -13 -109.5 -71.5 t-41.5 -142.5z" />
<glyph unicode="&#xa3;" horiz-adv-x="600" d="M446 325h-201q3 -21 3 -46q0 -65 -25 -131.5t-62 -100.5h384v-47h-442v47q42 36 69 99t27 131q0 29 -4 48h-82v45h73q-22 57 -29 85.5t-7 60.5q0 56 27 97.5t74 64t105 22.5q49 0 91 -12t83 -38l-19 -40q-70 44 -149 44q-73 0 -116 -36.5t-43 -99.5q0 -27 7 -58t27 -90 h209v-45z" />
<glyph unicode="&#xa5;" horiz-adv-x="600" d="M275 0v132h-183v45h183v107h-183v45h156l-214 361h58l209 -362l210 362h56l-215 -361h165v-45h-191v-107h191v-45h-191v-132h-51z" />
<glyph unicode="&#xa7;" horiz-adv-x="523" d="M391 18q0 37 -29 60.5t-96 40.5l-31 8q-97 25 -140.5 64t-43.5 101q0 59 34 102.5t90 60.5q-49 21 -71.5 49t-22.5 69q0 63 47.5 100t128.5 37q92 0 169 -43l-16 -40q-73 38 -154 38q-59 0 -91.5 -23t-32.5 -66q0 -37 29 -60.5t96 -40.5l31 -8q97 -25 140.5 -64 t43.5 -101q0 -59 -34 -102.5t-91 -60.5q49 -21 72 -49.5t23 -68.5q0 -69 -51.5 -108t-143.5 -39q-101 0 -181 48l17 41q82 -44 168 -44q68 0 104 25.5t36 73.5zM235 435q-62 -13 -97.5 -50t-35.5 -90q0 -47 33 -75.5t111 -49.5l41 -11q62 12 98 49.5t36 90.5 q0 48 -33.5 76.5t-110.5 48.5z" />
<glyph unicode="&#xa8;" horiz-adv-x="569" d="M170 681q0 16 10.5 26t27.5 10t27.5 -10t10.5 -26t-10.5 -26t-27.5 -10t-27.5 10t-10.5 26zM322 681q0 16 10.5 26t27.5 10t27.5 -10t10.5 -26t-10.5 -26t-27.5 -10t-27.5 10t-10.5 26z" />
<glyph unicode="&#xa9;" horiz-adv-x="598" d="M307 336q-69 0 -110 43t-41 115q0 70 42.5 114t108.5 44q51 0 85 -20l-12 -38q-33 13 -67 13q-50 0 -78.5 -30t-28.5 -84q0 -53 28 -82.5t79 -29.5q38 0 69 18l14 -39q-36 -24 -89 -24zM299 224q-79 0 -139.5 36t-93 97t-32.5 137q0 81 35.5 142.5t95.5 94.5t134 33 q79 0 139.5 -36t93 -97t32.5 -137q0 -81 -35.5 -142.5t-95.5 -94.5t-134 -33zM299 266q100 0 158.5 62t58.5 166t-58.5 166t-158.5 62t-158.5 -62t-58.5 -166t58.5 -166t158.5 -62z" />
<glyph unicode="&#xaa;" horiz-adv-x="361" d="M138 344q-46 0 -73.5 28t-27.5 74q0 51 31 78.5t89 27.5h106v6q0 49 -23 74.5t-67 25.5q-43 0 -102 -32l-16 36q63 38 128 38q62 0 94.5 -35.5t32.5 -102.5v-211h-41l-6 40q-26 -22 -58.5 -34.5t-66.5 -12.5zM144 386q29 0 61.5 13t57.5 35v79h-103q-36 0 -55.5 -17.5 t-19.5 -48.5q0 -25 17 -43t42 -18zM47 250v43h263v-43h-263z" />
<glyph unicode="&#xab;" horiz-adv-x="424" d="M92 280l131 -173h-55l-131 173l131 173h55zM247 280l131 -173h-55l-131 173l131 173h55z" />
<glyph unicode="&#xac;" horiz-adv-x="600" d="M466 111v210h-400v46h448v-256h-48z" />
<glyph unicode="&#xae;" horiz-adv-x="598" d="M299 224q-79 0 -139.5 36t-93 97t-32.5 137q0 81 35.5 142.5t95.5 94.5t134 33q79 0 139.5 -36t93 -97t32.5 -137q0 -81 -35.5 -142.5t-95.5 -94.5t-134 -33zM299 266q100 0 158.5 62t58.5 166t-58.5 166t-158.5 62t-158.5 -62t-58.5 -166t58.5 -166t158.5 -62zM201 643 h114q49 0 76 -24t27 -67q0 -31 -16.5 -54t-46.5 -32l72 -114h-56l-67 107h-56v-107h-47v291zM248 501h66q54 0 54 51q0 24 -14 36.5t-40 12.5h-66v-100z" />
<glyph unicode="&#xb0;" horiz-adv-x="352" d="M176 410q-61 0 -102.5 42t-41.5 103t41.5 103t102.5 42t102.5 -42t41.5 -103t-41.5 -103t-102.5 -42zM176 450q42 0 70.5 30t28.5 75t-28.5 75t-70.5 30t-70.5 -30t-28.5 -75t28.5 -75t70.5 -30z" />
<glyph unicode="&#xb2;" d="M81 420v20q0 71 27.5 112t94.5 73q50 25 69.5 37t27 24t7.5 32q0 26 -23.5 42.5t-61.5 16.5q-65 0 -117 -40l-19 36q60 47 139 47q55 0 92 -28t37 -72q0 -26 -9.5 -44.5t-35 -37t-83.5 -48.5q-54 -28 -74 -54t-23 -72h228v-44h-276z" />
<glyph unicode="&#xb3;" d="M207 410q-72 0 -135 35l15 37q55 -29 115 -29q50 0 78 19t28 54t-28 56t-76 21h-69v41h69q43 0 68.5 18t25.5 49q0 30 -26 48t-69 18q-58 0 -109 -30l-16 36q64 37 130 37q61 0 99 -29.5t38 -77.5q0 -30 -19 -52.5t-52 -34.5q39 -13 60 -39t21 -63q0 -52 -41 -83 t-107 -31z" />
<glyph unicode="&#xb4;" horiz-adv-x="569" d="M211 611l96 139h68l-110 -139h-54z" />
<glyph unicode="&#xb6;" horiz-adv-x="553" d="M279 -110v416q-108 0 -168 52.5t-60 144.5t60 144.5t168 52.5h190v-810h-49v762h-91v-762h-50z" />
<glyph unicode="&#xb7;" horiz-adv-x="172" d="M128 288q0 -17 -12 -28.5t-30 -11.5t-30 11.5t-12 28.5t12 28.5t30 11.5t30 -11.5t12 -28.5z" />
<glyph unicode="&#xb8;" horiz-adv-x="569" d="M187 -165q38 -19 76 -19q27 0 42 11.5t15 33.5q0 20 -21 31.5t-58 11.5h-33l39 98h50l-26 -60q95 -8 95 -81q0 -38 -27.5 -61.5t-72.5 -23.5q-55 0 -92 23z" />
<glyph unicode="&#xb9;" d="M96 700l146 110h42v-390h-46v335l-118 -88z" />
<glyph unicode="&#xba;" horiz-adv-x="430" d="M384 522q0 -52 -22.5 -92.5t-61 -63t-85.5 -22.5q-49 0 -88 24t-60 64.5t-21 89.5q0 52 22.5 92.5t61 63t85.5 22.5q49 0 88 -24t60 -64.5t21 -89.5zM336 522q0 61 -34 98.5t-87 37.5t-87 -37.5t-34 -98.5t34 -98.5t87 -37.5t87 37.5t34 98.5zM77 250v43h276v-43h-276z " />
<glyph unicode="&#xbb;" horiz-adv-x="424" d="M177 280l-131 173h55l131 -173l-131 -173h-55zM332 280l-131 173h55l131 -173l-131 -173h-55z" />
<glyph unicode="&#xbc;" horiz-adv-x="940" d="M271 0l390 690h52l-390 -690h-52zM781 0v89h-229v39l232 262h40v-260h56v-41h-56v-89h-43zM781 130v199l-177 -199h177zM96 580l146 110h42v-390h-46v335l-118 -88z" />
<glyph unicode="&#xbd;" horiz-adv-x="940" d="M240 0l390 690h52l-390 -690h-52zM583 0v20q0 71 27.5 112t94.5 73q50 25 69.5 37t27 24t7.5 32q0 26 -23.5 42.5t-61.5 16.5q-65 0 -117 -40l-19 36q60 47 139 47q55 0 92 -28t37 -72q0 -26 -9.5 -44.5t-35 -37t-83.5 -48.5q-54 -28 -74 -54t-23 -72h228v-44h-276z M96 580l146 110h42v-390h-46v335l-118 -88z" />
<glyph unicode="&#xbe;" horiz-adv-x="940" d="M282 0l390 690h52l-390 -690h-52zM781 0v89h-229v39l232 262h40v-260h56v-41h-56v-89h-43zM781 130v199l-177 -199h177zM207 290q-72 0 -135 35l15 37q55 -29 115 -29q50 0 78 19t28 54t-28 56t-76 21h-69v41h69q43 0 68.5 18t25.5 49q0 30 -26 48t-69 18q-58 0 -109 -30 l-16 36q64 37 130 37q61 0 99 -29.5t38 -77.5q0 -30 -19 -52.5t-52 -34.5q39 -13 60 -39t21 -63q0 -52 -41 -83t-107 -31z" />
<glyph unicode="&#xbf;" horiz-adv-x="446" d="M281 322v-39q0 -53 -19.5 -89.5t-71.5 -77.5l-16 -13q-43 -33 -62.5 -65.5t-19.5 -70.5q0 -51 39 -83t103 -32q89 0 171 76l23 -34q-41 -41 -93 -64t-107 -23q-86 0 -137 43t-51 115q0 47 23 85.5t74 78.5l16 13q45 36 62.5 66t17.5 75v39h48zM299 486q0 -17 -12 -28.5 t-30 -11.5t-30 11.5t-12 28.5t12 28.5t30 11.5t30 -11.5t12 -28.5z" />
<glyph unicode="&#xc0;" horiz-adv-x="627" d="M286 700h55l269 -700h-56l-80 213h-324l-80 -213h-53zM167 260h290l-144 386zM289 770l-114 109h76l96 -109h-58z" />
<glyph unicode="&#xc1;" horiz-adv-x="627" d="M286 700h55l269 -700h-56l-80 213h-324l-80 -213h-53zM167 260h290l-144 386zM279 770l96 109h76l-114 -109h-58z" />
<glyph unicode="&#xc2;" horiz-adv-x="627" d="M286 700h55l269 -700h-56l-80 213h-324l-80 -213h-53zM167 260h290l-144 386zM165 770l117 109h62l117 -109h-60l-88 70l-88 -70h-60z" />
<glyph unicode="&#xc3;" horiz-adv-x="627" d="M286 700h55l269 -700h-56l-80 213h-324l-80 -213h-53zM167 260h290l-144 386zM468 876q-4 -50 -27.5 -80.5t-59.5 -30.5q-21 0 -39 9t-45 32q-19 16 -30.5 22.5t-22.5 6.5q-18 0 -27.5 -16t-13.5 -49h-45q4 50 27.5 80.5t59.5 30.5q21 0 39 -9t45 -32q19 -16 30.5 -22.5 t22.5 -6.5q18 0 27.5 16t13.5 49h45z" />
<glyph unicode="&#xc4;" horiz-adv-x="627" d="M286 700h55l269 -700h-56l-80 213h-324l-80 -213h-53zM167 260h290l-144 386zM191 824q0 17 11.5 28t28.5 11t28.5 -11t11.5 -28t-11.5 -28t-28.5 -11t-28.5 11t-11.5 28zM355 824q0 17 11.5 28t28.5 11t28.5 -11t11.5 -28t-11.5 -28t-28.5 -11t-28.5 11t-11.5 28z" />
<glyph unicode="&#xc5;" horiz-adv-x="627" d="M286 700h55l269 -700h-56l-80 213h-324l-80 -213h-53zM167 260h290l-144 386zM313 795q24 0 40.5 17.5t16.5 42.5t-16.5 42.5t-40.5 17.5t-40.5 -17.5t-16.5 -42.5t16.5 -42.5t40.5 -17.5zM313 756q-45 0 -73 27.5t-28 71.5t28 71.5t73 27.5t73 -27.5t28 -71.5t-28 -71.5 t-73 -27.5z" />
<glyph unicode="&#xc6;" horiz-adv-x="935" d="M483 233h-277l-146 -233h-55l439 700h444v-48h-353v-274h295v-48h-295v-282h363v-48h-415v233zM235 280h248v372h-14z" />
<glyph unicode="&#xc7;" horiz-adv-x="638" d="M384 -10q-98 0 -172.5 47.5t-114.5 129t-40 183.5q0 106 43.5 188.5t117.5 127t166 44.5q53 0 105 -14.5t93 -40.5l-17 -42q-87 48 -178 48q-84 0 -146.5 -40t-96 -110.5t-33.5 -160.5q0 -94 35.5 -165t98 -108.5t142.5 -37.5q48 0 91.5 13t90.5 42l18 -42 q-43 -30 -96.5 -46t-106.5 -16zM290 -163q38 -19 76 -19q56 0 56 43q0 20 -20.5 31t-57.5 11h-34l39 99h52l-26 -60q95 -8 95 -81q0 -38 -28 -61.5t-73 -23.5q-56 0 -93 23z" />
<glyph unicode="&#xc8;" horiz-adv-x="541" d="M84 700h410v-48h-358v-274h300v-48h-300v-282h368v-48h-420v700zM265 770l-114 109h76l96 -109h-58z" />
<glyph unicode="&#xc9;" horiz-adv-x="541" d="M84 700h410v-48h-358v-274h300v-48h-300v-282h368v-48h-420v700zM255 770l96 109h76l-114 -109h-58z" />
<glyph unicode="&#xca;" horiz-adv-x="541" d="M84 700h410v-48h-358v-274h300v-48h-300v-282h368v-48h-420v700zM141 770l117 109h62l117 -109h-60l-88 70l-88 -70h-60z" />
<glyph unicode="&#xcb;" horiz-adv-x="541" d="M84 700h410v-48h-358v-274h300v-48h-300v-282h368v-48h-420v700zM167 824q0 17 11.5 28t28.5 11t28.5 -11t11.5 -28t-11.5 -28t-28.5 -11t-28.5 11t-11.5 28zM331 824q0 17 11.5 28t28.5 11t28.5 -11t11.5 -28t-11.5 -28t-28.5 -11t-28.5 11t-11.5 28z" />
<glyph unicode="&#xcc;" horiz-adv-x="220" d="M84 700h52v-700h-52v700zM86 770l-114 109h76l96 -109h-58z" />
<glyph unicode="&#xcd;" horiz-adv-x="220" d="M84 700h52v-700h-52v700zM76 770l96 109h76l-114 -109h-58z" />
<glyph unicode="&#xce;" horiz-adv-x="220" d="M84 700h52v-700h-52v700zM-38 770l117 109h62l117 -109h-60l-88 70l-88 -70h-60z" />
<glyph unicode="&#xcf;" horiz-adv-x="220" d="M84 700h52v-700h-52v700zM-12 824q0 17 11.5 28t28.5 11t28.5 -11t11.5 -28t-11.5 -28t-28.5 -11t-28.5 11t-11.5 28zM152 824q0 17 11.5 28t28.5 11t28.5 -11t11.5 -28t-11.5 -28t-28.5 -11t-28.5 11t-11.5 28z" />
<glyph unicode="&#xd0;" horiz-adv-x="716" d="M659 350q0 -108 -42.5 -187.5t-119.5 -121t-180 -41.5h-208v339h-90v43h90v318h208q107 0 184 -44t117.5 -123t40.5 -183zM605 350q0 141 -76.5 221.5t-212.5 80.5h-155v-270h151v-43h-151v-291h155q136 0 212.5 80.5t76.5 221.5z" />
<glyph unicode="&#xd1;" horiz-adv-x="680" d="M84 0v700h53l407 -611v611h52v-700h-53l-407 611v-611h-52zM495 876q-4 -50 -27.5 -80.5t-59.5 -30.5q-21 0 -39 9t-45 32q-19 16 -30.5 22.5t-22.5 6.5q-18 0 -27.5 -16t-13.5 -49h-45q4 50 27.5 80.5t59.5 30.5q21 0 39 -9t45 -32q19 -16 30.5 -22.5t22.5 -6.5 q18 0 27.5 16t13.5 49h45z" />
<glyph unicode="&#xd2;" horiz-adv-x="750" d="M375 661q-79 0 -139 -40.5t-92.5 -111t-32.5 -159.5q0 -93 34.5 -164t94.5 -109t135 -38q79 0 139 40.5t92.5 111t32.5 159.5q0 93 -34.5 164t-94.5 109t-135 38zM375 710q94 0 166.5 -48t112 -129.5t39.5 -182.5q0 -106 -42.5 -188.5t-114.5 -127t-161 -44.5 q-94 0 -166.5 48t-112 129.5t-39.5 182.5q0 106 42.5 188.5t114.5 127t161 44.5zM351 770l-114 109h76l96 -109h-58z" />
<glyph unicode="&#xd3;" horiz-adv-x="750" d="M375 661q-79 0 -139 -40.5t-92.5 -111t-32.5 -159.5q0 -93 34.5 -164t94.5 -109t135 -38q79 0 139 40.5t92.5 111t32.5 159.5q0 93 -34.5 164t-94.5 109t-135 38zM375 710q94 0 166.5 -48t112 -129.5t39.5 -182.5q0 -106 -42.5 -188.5t-114.5 -127t-161 -44.5 q-94 0 -166.5 48t-112 129.5t-39.5 182.5q0 106 42.5 188.5t114.5 127t161 44.5zM341 770l96 109h76l-114 -109h-58z" />
<glyph unicode="&#xd4;" horiz-adv-x="750" d="M375 661q-79 0 -139 -40.5t-92.5 -111t-32.5 -159.5q0 -93 34.5 -164t94.5 -109t135 -38q79 0 139 40.5t92.5 111t32.5 159.5q0 93 -34.5 164t-94.5 109t-135 38zM375 710q94 0 166.5 -48t112 -129.5t39.5 -182.5q0 -106 -42.5 -188.5t-114.5 -127t-161 -44.5 q-94 0 -166.5 48t-112 129.5t-39.5 182.5q0 106 42.5 188.5t114.5 127t161 44.5zM227 770l117 109h62l117 -109h-60l-88 70l-88 -70h-60z" />
<glyph unicode="&#xd5;" horiz-adv-x="750" d="M375 661q-79 0 -139 -40.5t-92.5 -111t-32.5 -159.5q0 -93 34.5 -164t94.5 -109t135 -38q79 0 139 40.5t92.5 111t32.5 159.5q0 93 -34.5 164t-94.5 109t-135 38zM375 710q94 0 166.5 -48t112 -129.5t39.5 -182.5q0 -106 -42.5 -188.5t-114.5 -127t-161 -44.5 q-94 0 -166.5 48t-112 129.5t-39.5 182.5q0 106 42.5 188.5t114.5 127t161 44.5zM530 876q-4 -50 -27.5 -80.5t-59.5 -30.5q-21 0 -39 9t-45 32q-19 16 -30.5 22.5t-22.5 6.5q-18 0 -27.5 -16t-13.5 -49h-45q4 50 27.5 80.5t59.5 30.5q21 0 39 -9t45 -32q19 -16 30.5 -22.5 t22.5 -6.5q18 0 27.5 16t13.5 49h45z" />
<glyph unicode="&#xd6;" horiz-adv-x="750" d="M375 661q-79 0 -139 -40.5t-92.5 -111t-32.5 -159.5q0 -93 34.5 -164t94.5 -109t135 -38q79 0 139 40.5t92.5 111t32.5 159.5q0 93 -34.5 164t-94.5 109t-135 38zM375 710q94 0 166.5 -48t112 -129.5t39.5 -182.5q0 -106 -42.5 -188.5t-114.5 -127t-161 -44.5 q-94 0 -166.5 48t-112 129.5t-39.5 182.5q0 106 42.5 188.5t114.5 127t161 44.5zM253 824q0 17 11.5 28t28.5 11t28.5 -11t11.5 -28t-11.5 -28t-28.5 -11t-28.5 11t-11.5 28zM417 824q0 17 11.5 28t28.5 11t28.5 -11t11.5 -28t-11.5 -28t-28.5 -11t-28.5 11t-11.5 28z" />
<glyph unicode="&#xd7;" horiz-adv-x="600" d="M300 312l-167 -167l-32 32l167 167l-167 168l32 32l167 -167l167 167l32 -32l-167 -168l167 -167l-32 -32z" />
<glyph unicode="&#xd8;" horiz-adv-x="750" d="M375 710q60 0 114 -21.5t96 -61.5l76 87l36 -33l-79 -90q37 -48 56 -110t19 -131q0 -106 -42.5 -188.5t-114.5 -127t-161 -44.5q-61 0 -114.5 21.5t-95.5 61.5l-76 -87l-36 33l79 90q-37 48 -56 109.5t-19 131.5q0 106 42.5 188.5t114.5 127t161 44.5zM639 350 q0 118 -55 201l-386 -441q71 -71 177 -71q79 0 139 40.5t92.5 111t32.5 159.5zM375 661q-79 0 -139 -40.5t-92.5 -111t-32.5 -159.5q0 -118 55 -201l386 441q-71 71 -177 71z" />
<glyph unicode="&#xd9;" horiz-adv-x="660" d="M330 -10q-122 0 -186 71t-64 206v433h52v-430q0 -113 50 -172t148 -59q97 0 147.5 59t50.5 172v430h52v-433q0 -134 -64.5 -205.5t-185.5 -71.5zM306 770l-114 109h76l96 -109h-58z" />
<glyph unicode="&#xda;" horiz-adv-x="660" d="M330 -10q-122 0 -186 71t-64 206v433h52v-430q0 -113 50 -172t148 -59q97 0 147.5 59t50.5 172v430h52v-433q0 -134 -64.5 -205.5t-185.5 -71.5zM296 770l96 109h76l-114 -109h-58z" />
<glyph unicode="&#xdb;" horiz-adv-x="660" d="M330 -10q-122 0 -186 71t-64 206v433h52v-430q0 -113 50 -172t148 -59q97 0 147.5 59t50.5 172v430h52v-433q0 -134 -64.5 -205.5t-185.5 -71.5zM182 770l117 109h62l117 -109h-60l-88 70l-88 -70h-60z" />
<glyph unicode="&#xdc;" horiz-adv-x="660" d="M330 -10q-122 0 -186 71t-64 206v433h52v-430q0 -113 50 -172t148 -59q97 0 147.5 59t50.5 172v430h52v-433q0 -134 -64.5 -205.5t-185.5 -71.5zM208 824q0 17 11.5 28t28.5 11t28.5 -11t11.5 -28t-11.5 -28t-28.5 -11t-28.5 11t-11.5 28zM372 824q0 17 11.5 28t28.5 11 t28.5 -11t11.5 -28t-11.5 -28t-28.5 -11t-28.5 11t-11.5 28z" />
<glyph unicode="&#xdd;" horiz-adv-x="588" d="M268 284l-247 416h58l216 -374l216 374h56l-247 -416v-284h-52v284zM260 770l96 109h76l-114 -109h-58z" />
<glyph unicode="&#xde;" horiz-adv-x="583" d="M136 700v-132h156q113 0 177 -56t64 -155q0 -100 -64 -158t-177 -58h-156v-141h-52v700h52zM136 520v-331h155q89 0 138.5 44.5t49.5 123.5q0 78 -49 120.5t-139 42.5h-155z" />
<glyph unicode="&#xdf;" horiz-adv-x="602" d="M311 760q60 0 107.5 -24t73 -65t25.5 -92q0 -66 -39 -117t-101 -68q78 -12 125.5 -65.5t47.5 -129.5q0 -63 -28 -110.5t-77 -73t-111 -25.5q-36 0 -71 9t-56 23l17 40q19 -12 49.5 -19.5t60.5 -7.5q73 0 119 45.5t46 118.5q0 83 -54.5 125.5t-160.5 42.5h-46v42h43 q57 0 98.5 21.5t64 60t22.5 86.5q0 61 -42.5 99.5t-113.5 38.5q-87 0 -133.5 -63t-46.5 -180v-472h-50v476q0 132 61 208t170 76z" />
<glyph unicode="&#xe0;" horiz-adv-x="528" d="M218 -10q-75 0 -118 39.5t-43 107.5q0 76 45 115.5t133 39.5h168v25q0 164 -141 164q-42 0 -80.5 -11t-81.5 -35l-18 38q49 28 92.5 40.5t94.5 12.5q184 0 184 -204v-322h-41l-7 64q-39 -34 -89 -54t-98 -20zM223 35q46 0 94.5 21t85.5 56v138h-161q-134 0 -134 -112 q0 -46 32 -74.5t83 -28.5zM247 611l-110 139h68l96 -139h-54z" />
<glyph unicode="&#xe1;" horiz-adv-x="528" d="M218 -10q-75 0 -118 39.5t-43 107.5q0 76 45 115.5t133 39.5h168v25q0 164 -141 164q-42 0 -80.5 -11t-81.5 -35l-18 38q49 28 92.5 40.5t94.5 12.5q184 0 184 -204v-322h-41l-7 64q-39 -34 -89 -54t-98 -20zM223 35q46 0 94.5 21t85.5 56v138h-161q-134 0 -134 -112 q0 -46 32 -74.5t83 -28.5zM237 611l96 139h68l-110 -139h-54z" />
<glyph unicode="&#xe2;" horiz-adv-x="528" d="M218 -10q-75 0 -118 39.5t-43 107.5q0 76 45 115.5t133 39.5h168v25q0 164 -141 164q-42 0 -80.5 -11t-81.5 -35l-18 38q49 28 92.5 40.5t94.5 12.5q184 0 184 -204v-322h-41l-7 64q-39 -34 -89 -54t-98 -20zM223 35q46 0 94.5 21t85.5 56v138h-161q-134 0 -134 -112 q0 -46 32 -74.5t83 -28.5zM131 611l110 139h56l110 -139h-52l-86 96l-86 -96h-52z" />
<glyph unicode="&#xe3;" horiz-adv-x="528" d="M218 -10q-75 0 -118 39.5t-43 107.5q0 76 45 115.5t133 39.5h168v25q0 164 -141 164q-42 0 -80.5 -11t-81.5 -35l-18 38q49 28 92.5 40.5t94.5 12.5q184 0 184 -204v-322h-41l-7 64q-39 -34 -89 -54t-98 -20zM223 35q46 0 94.5 21t85.5 56v138h-161q-134 0 -134 -112 q0 -46 32 -74.5t83 -28.5zM414 729q-4 -51 -25.5 -80.5t-56.5 -29.5q-19 0 -36.5 9t-38.5 30q-20 20 -30 26t-20 6q-17 0 -26.5 -15.5t-13.5 -50.5h-43q4 51 25.5 80.5t56.5 29.5q19 0 36.5 -9t38.5 -30q20 -20 30 -26t20 -6q17 0 26.5 15.5t13.5 50.5h43z" />
<glyph unicode="&#xe4;" horiz-adv-x="528" d="M218 -10q-75 0 -118 39.5t-43 107.5q0 76 45 115.5t133 39.5h168v25q0 164 -141 164q-42 0 -80.5 -11t-81.5 -35l-18 38q49 28 92.5 40.5t94.5 12.5q184 0 184 -204v-322h-41l-7 64q-39 -34 -89 -54t-98 -20zM223 35q46 0 94.5 21t85.5 56v138h-161q-134 0 -134 -112 q0 -46 32 -74.5t83 -28.5zM155 681q0 16 10.5 26t27.5 10t27.5 -10t10.5 -26t-10.5 -26t-27.5 -10t-27.5 10t-10.5 26zM307 681q0 16 10.5 26t27.5 10t27.5 -10t10.5 -26t-10.5 -26t-27.5 -10t-27.5 10t-10.5 26z" />
<glyph unicode="&#xe5;" horiz-adv-x="528" d="M218 -10q-75 0 -118 39.5t-43 107.5q0 76 45 115.5t133 39.5h168v25q0 164 -141 164q-42 0 -80.5 -11t-81.5 -35l-18 38q49 28 92.5 40.5t94.5 12.5q184 0 184 -204v-322h-41l-7 64q-39 -34 -89 -54t-98 -20zM223 35q46 0 94.5 21t85.5 56v138h-161q-134 0 -134 -112 q0 -46 32 -74.5t83 -28.5zM269 625q25 0 41.5 17.5t16.5 43.5t-16.5 43.5t-41.5 17.5t-41.5 -17.5t-16.5 -43.5t16.5 -43.5t41.5 -17.5zM269 588q-44 0 -72 27.5t-28 70.5t28 70.5t72 27.5t72 -27.5t28 -70.5t-28 -70.5t-72 -27.5z" />
<glyph unicode="&#xe6;" horiz-adv-x="901" d="M636 526q65 0 113.5 -31t74.5 -85t26 -122q0 -22 -2 -44h-394q3 -63 30 -110.5t71.5 -73t99.5 -25.5q51 0 87 9.5t76 32.5l18 -38q-41 -26 -83.5 -37.5t-97.5 -11.5q-64 0 -116.5 25.5t-86.5 74.5q-47 -49 -103.5 -74.5t-117.5 -25.5q-83 0 -128.5 38.5t-45.5 108.5 q0 76 45 115.5t133 39.5h168v25q0 164 -141 164q-42 0 -80.5 -11t-81.5 -35l-18 38q49 28 92.5 40.5t94.5 12.5q137 0 172 -115q31 54 82.5 84.5t112.5 30.5zM235 35q54 0 105.5 24.5t89.5 67.5q-25 52 -27 123h-161q-134 0 -134 -112q0 -48 34 -75.5t93 -27.5zM636 481 q-49 0 -88.5 -25.5t-63.5 -70t-29 -99.5h344v8q0 54 -21 98t-57.5 66.5t-84.5 22.5z" />
<glyph unicode="&#xe7;" horiz-adv-x="499" d="M304 -10q-76 0 -133 35t-88 96t-31 137q0 80 33 141t90 94t129 33q42 0 76.5 -10t71.5 -34l-17 -38q-35 20 -64 28.5t-67 8.5q-60 0 -105.5 -29.5t-70.5 -80t-25 -113.5q0 -66 26.5 -117t72 -78.5t102.5 -27.5q39 0 72.5 9t66.5 28l17 -38q-65 -44 -156 -44zM215 -165 q38 -19 76 -19q27 0 42 11.5t15 33.5q0 20 -21 31.5t-58 11.5h-33l39 98h50l-26 -60q95 -8 95 -81q0 -38 -27.5 -61.5t-72.5 -23.5q-55 0 -92 23z" />
<glyph unicode="&#xe8;" horiz-adv-x="550" d="M304 -10q-77 0 -134 35t-87.5 95.5t-30.5 137.5q0 79 32 140.5t85 94.5t116 33q65 0 113.5 -31t74.5 -85t26 -122q0 -22 -2 -44h-394q3 -63 30 -110.5t71.5 -73t99.5 -25.5q51 0 87 9.5t76 32.5l18 -38q-41 -26 -83.5 -37.5t-97.5 -11.5zM285 481q-49 0 -88.5 -25.5 t-63.5 -70t-29 -99.5h344v8q0 54 -21 98t-57.5 66.5t-84.5 22.5zM261 611l-110 139h68l96 -139h-54z" />
<glyph unicode="&#xe9;" horiz-adv-x="550" d="M304 -10q-77 0 -134 35t-87.5 95.5t-30.5 137.5q0 79 32 140.5t85 94.5t116 33q65 0 113.5 -31t74.5 -85t26 -122q0 -22 -2 -44h-394q3 -63 30 -110.5t71.5 -73t99.5 -25.5q51 0 87 9.5t76 32.5l18 -38q-41 -26 -83.5 -37.5t-97.5 -11.5zM285 481q-49 0 -88.5 -25.5 t-63.5 -70t-29 -99.5h344v8q0 54 -21 98t-57.5 66.5t-84.5 22.5zM251 611l96 139h68l-110 -139h-54z" />
<glyph unicode="&#xea;" horiz-adv-x="550" d="M304 -10q-77 0 -134 35t-87.5 95.5t-30.5 137.5q0 79 32 140.5t85 94.5t116 33q65 0 113.5 -31t74.5 -85t26 -122q0 -22 -2 -44h-394q3 -63 30 -110.5t71.5 -73t99.5 -25.5q51 0 87 9.5t76 32.5l18 -38q-41 -26 -83.5 -37.5t-97.5 -11.5zM285 481q-49 0 -88.5 -25.5 t-63.5 -70t-29 -99.5h344v8q0 54 -21 98t-57.5 66.5t-84.5 22.5zM145 611l110 139h56l110 -139h-52l-86 96l-86 -96h-52z" />
<glyph unicode="&#xeb;" horiz-adv-x="550" d="M304 -10q-77 0 -134 35t-87.5 95.5t-30.5 137.5q0 79 32 140.5t85 94.5t116 33q65 0 113.5 -31t74.5 -85t26 -122q0 -22 -2 -44h-394q3 -63 30 -110.5t71.5 -73t99.5 -25.5q51 0 87 9.5t76 32.5l18 -38q-41 -26 -83.5 -37.5t-97.5 -11.5zM285 481q-49 0 -88.5 -25.5 t-63.5 -70t-29 -99.5h344v8q0 54 -21 98t-57.5 66.5t-84.5 22.5zM169 681q0 16 10.5 26t27.5 10t27.5 -10t10.5 -26t-10.5 -26t-27.5 -10t-27.5 10t-10.5 26zM321 681q0 16 10.5 26t27.5 10t27.5 -10t10.5 -26t-10.5 -26t-27.5 -10t-27.5 10t-10.5 26z" />
<glyph unicode="&#xec;" horiz-adv-x="210" d="M80 516h50v-516h-50v516zM83 611l-110 139h68l96 -139h-54z" />
<glyph unicode="&#xed;" horiz-adv-x="210" d="M80 516h50v-516h-50v516zM73 611l96 139h68l-110 -139h-54z" />
<glyph unicode="&#xee;" horiz-adv-x="210" d="M80 516h50v-516h-50v516zM-33 611l110 139h56l110 -139h-52l-86 96l-86 -96h-52z" />
<glyph unicode="&#xef;" horiz-adv-x="210" d="M80 516h50v-516h-50v516zM-9 681q0 16 10.5 26t27.5 10t27.5 -10t10.5 -26t-10.5 -26t-27.5 -10t-27.5 10t-10.5 26zM143 681q0 16 10.5 26t27.5 10t27.5 -10t10.5 -26t-10.5 -26t-27.5 -10t-27.5 10t-10.5 26z" />
<glyph unicode="&#xf0;" horiz-adv-x="591" d="M472 740l-107 -76q174 -144 174 -394q0 -85 -31 -148.5t-86 -97.5t-125 -34q-72 0 -128 34.5t-86.5 93t-30.5 130.5q0 75 33 134t87.5 91.5t117.5 32.5q57 0 109 -28t80 -74q-34 140 -151 233l-135 -96l-24 33l124 89q-53 35 -118 64l19 37q77 -31 137 -74l117 83z M298 35q55 0 98.5 29.5t67.5 78t24 105.5q0 62 -26 111t-70 75.5t-99 26.5t-98.5 -29t-67.5 -77.5t-24 -106.5q0 -62 26 -111t70 -75.5t99 -26.5z" />
<glyph unicode="&#xf1;" horiz-adv-x="569" d="M80 0v516h41l7 -64q93 74 191 74q86 0 130.5 -51.5t44.5 -152.5v-322h-50v317q0 162 -137 162q-93 0 -177 -73v-406h-50zM432 729q-4 -51 -25.5 -80.5t-56.5 -29.5q-19 0 -36.5 9t-38.5 30q-20 20 -30 26t-20 6q-17 0 -26.5 -15.5t-13.5 -50.5h-43q4 51 25.5 80.5 t56.5 29.5q19 0 36.5 -9t38.5 -30q20 -20 30 -26t20 -6q17 0 26.5 15.5t13.5 50.5h43z" />
<glyph unicode="&#xf2;" horiz-adv-x="592" d="M540 258q0 -80 -32.5 -141t-87.5 -94t-124 -33q-72 0 -128 35.5t-86 96t-30 136.5q0 80 32.5 141t87.5 94t124 33q72 0 128 -35.5t86 -96t30 -136.5zM489 258q0 98 -54 160.5t-139 62.5t-139 -62.5t-54 -160.5t54 -160.5t139 -62.5t139 62.5t54 160.5zM274 611l-110 139 h68l96 -139h-54z" />
<glyph unicode="&#xf3;" horiz-adv-x="592" d="M540 258q0 -80 -32.5 -141t-87.5 -94t-124 -33q-72 0 -128 35.5t-86 96t-30 136.5q0 80 32.5 141t87.5 94t124 33q72 0 128 -35.5t86 -96t30 -136.5zM489 258q0 98 -54 160.5t-139 62.5t-139 -62.5t-54 -160.5t54 -160.5t139 -62.5t139 62.5t54 160.5zM264 611l96 139h68 l-110 -139h-54z" />
<glyph unicode="&#xf4;" horiz-adv-x="592" d="M540 258q0 -80 -32.5 -141t-87.5 -94t-124 -33q-72 0 -128 35.5t-86 96t-30 136.5q0 80 32.5 141t87.5 94t124 33q72 0 128 -35.5t86 -96t30 -136.5zM489 258q0 98 -54 160.5t-139 62.5t-139 -62.5t-54 -160.5t54 -160.5t139 -62.5t139 62.5t54 160.5zM158 611l110 139 h56l110 -139h-52l-86 96l-86 -96h-52z" />
<glyph unicode="&#xf5;" horiz-adv-x="592" d="M540 258q0 -80 -32.5 -141t-87.5 -94t-124 -33q-72 0 -128 35.5t-86 96t-30 136.5q0 80 32.5 141t87.5 94t124 33q72 0 128 -35.5t86 -96t30 -136.5zM489 258q0 98 -54 160.5t-139 62.5t-139 -62.5t-54 -160.5t54 -160.5t139 -62.5t139 62.5t54 160.5zM441 729 q-4 -51 -25.5 -80.5t-56.5 -29.5q-19 0 -36.5 9t-38.5 30q-20 20 -30 26t-20 6q-17 0 -26.5 -15.5t-13.5 -50.5h-43q4 51 25.5 80.5t56.5 29.5q19 0 36.5 -9t38.5 -30q20 -20 30 -26t20 -6q17 0 26.5 15.5t13.5 50.5h43z" />
<glyph unicode="&#xf6;" horiz-adv-x="592" d="M540 258q0 -80 -32.5 -141t-87.5 -94t-124 -33q-72 0 -128 35.5t-86 96t-30 136.5q0 80 32.5 141t87.5 94t124 33q72 0 128 -35.5t86 -96t30 -136.5zM489 258q0 98 -54 160.5t-139 62.5t-139 -62.5t-54 -160.5t54 -160.5t139 -62.5t139 62.5t54 160.5zM182 681 q0 16 10.5 26t27.5 10t27.5 -10t10.5 -26t-10.5 -26t-27.5 -10t-27.5 10t-10.5 26zM334 681q0 16 10.5 26t27.5 10t27.5 -10t10.5 -26t-10.5 -26t-27.5 -10t-27.5 10t-10.5 26z" />
<glyph unicode="&#xf7;" horiz-adv-x="600" d="M300 131q-18 0 -30 11.5t-12 28.5t12 28.5t30 11.5t30 -11.5t12 -28.5t-12 -28.5t-30 -11.5zM76 321v46h448v-46h-448zM300 477q-18 0 -30 11.5t-12 28.5t12 28.5t30 11.5t30 -11.5t12 -28.5t-12 -28.5t-30 -11.5z" />
<glyph unicode="&#xf8;" horiz-adv-x="592" d="M540 258q0 -80 -32.5 -141t-87.5 -94t-124 -33q-92 0 -157 57l-54 -60l-35 31l57 63q-55 72 -55 177q0 80 32.5 141t87.5 94t124 33q92 0 157 -57l54 60l35 -31l-57 -63q27 -35 41 -80.5t14 -96.5zM103 258q0 -82 37 -139l282 314q-51 48 -126 48q-85 0 -139 -62.5 t-54 -160.5zM489 258q0 82 -37 139l-282 -314q51 -48 126 -48q85 0 139 62.5t54 160.5z" />
<glyph unicode="&#xf9;" horiz-adv-x="566" d="M486 516v-516h-41l-8 64q-91 -74 -188 -74q-86 0 -130 51.5t-44 152.5v322h50v-317q0 -162 136 -162q89 0 175 73v406h50zM258 611l-110 139h68l96 -139h-54z" />
<glyph unicode="&#xfa;" horiz-adv-x="566" d="M486 516v-516h-41l-8 64q-91 -74 -188 -74q-86 0 -130 51.5t-44 152.5v322h50v-317q0 -162 136 -162q89 0 175 73v406h50zM248 611l96 139h68l-110 -139h-54z" />
<glyph unicode="&#xfb;" horiz-adv-x="566" d="M486 516v-516h-41l-8 64q-91 -74 -188 -74q-86 0 -130 51.5t-44 152.5v322h50v-317q0 -162 136 -162q89 0 175 73v406h50zM142 611l110 139h56l110 -139h-52l-86 96l-86 -96h-52z" />
<glyph unicode="&#xfc;" horiz-adv-x="566" d="M486 516v-516h-41l-8 64q-91 -74 -188 -74q-86 0 -130 51.5t-44 152.5v322h50v-317q0 -162 136 -162q89 0 175 73v406h50zM166 681q0 16 10.5 26t27.5 10t27.5 -10t10.5 -26t-10.5 -26t-27.5 -10t-27.5 10t-10.5 26zM318 681q0 16 10.5 26t27.5 10t27.5 -10t10.5 -26 t-10.5 -26t-27.5 -10t-27.5 10t-10.5 26z" />
<glyph unicode="&#xfd;" horiz-adv-x="496" d="M87 -226q-41 0 -79 19l13 40q35 -14 63 -14q40 0 68.5 33t58.5 116l14 38l-205 510h56l174 -458l173 458h54l-208 -522q-35 -88 -60.5 -134t-53 -66t-68.5 -20zM216 611l96 139h68l-110 -139h-54z" />
<glyph unicode="&#xfe;" horiz-adv-x="575" d="M80 -216v966h50v-294q48 39 87.5 54.5t90.5 15.5q65 0 114 -35t75 -95.5t26 -137.5q0 -81 -30 -142t-82 -93.5t-118 -32.5q-43 0 -85.5 15t-77.5 43v-264h-50zM300 481q-47 0 -87 -17t-83 -55v-309q33 -31 73.5 -48t84.5 -17q83 0 133.5 61.5t50.5 161.5q0 99 -47.5 161 t-124.5 62z" />
<glyph unicode="&#xff;" horiz-adv-x="496" d="M87 -226q-41 0 -79 19l13 40q35 -14 63 -14q40 0 68.5 33t58.5 116l14 38l-205 510h56l174 -458l173 458h54l-208 -522q-35 -88 -60.5 -134t-53 -66t-68.5 -20zM134 681q0 16 10.5 26t27.5 10t27.5 -10t10.5 -26t-10.5 -26t-27.5 -10t-27.5 10t-10.5 26zM286 681 q0 16 10.5 26t27.5 10t27.5 -10t10.5 -26t-10.5 -26t-27.5 -10t-27.5 10t-10.5 26z" />
<glyph unicode="&#x102;" horiz-adv-x="627" d="M286 700h55l269 -700h-56l-80 213h-324l-80 -213h-53zM167 260h290l-144 386zM313 765q-55 0 -90.5 31.5t-38.5 81.5h44q8 -34 30 -51.5t55 -17.5t55 17.5t30 51.5h44q-3 -50 -38.5 -81.5t-90.5 -31.5z" />
<glyph unicode="&#x103;" horiz-adv-x="528" d="M218 -10q-75 0 -118 39.5t-43 107.5q0 76 45 115.5t133 39.5h168v25q0 164 -141 164q-42 0 -80.5 -11t-81.5 -35l-18 38q49 28 92.5 40.5t94.5 12.5q184 0 184 -204v-322h-41l-7 64q-39 -34 -89 -54t-98 -20zM223 35q46 0 94.5 21t85.5 56v138h-161q-134 0 -134 -112 q0 -46 32 -74.5t83 -28.5zM269 608q-53 0 -87 31.5t-37 81.5h43q14 -69 81 -69t81 69h43q-3 -50 -37 -81.5t-87 -31.5z" />
<glyph unicode="&#x131;" horiz-adv-x="210" d="M80 516h50v-516h-50v516z" />
<glyph unicode="&#x132;" horiz-adv-x="654" d="M84 700h52v-700h-52v700zM393 -10q-76 0 -137 35l17 45q55 -31 116 -31q69 0 101 41t32 130v490h52v-496q0 -214 -181 -214z" />
<glyph unicode="&#x133;" horiz-adv-x="434" d="M80 516h50v-516h-50v516zM67 681q0 16 10.5 26t27.5 10t27.5 -10t10.5 -26t-10.5 -26t-27.5 -10t-27.5 10t-10.5 26zM291 681q0 16 10.5 26t27.5 10t27.5 -10t10.5 -26t-10.5 -26t-27.5 -10t-27.5 10t-10.5 26zM354 516v-581q0 -78 -31 -119.5t-88 -41.5q-41 0 -73 17 l11 39q28 -11 55 -11q76 0 76 114v583h50z" />
<glyph unicode="&#x152;" horiz-adv-x="1090" d="M1043 652h-353v-274h295v-48h-295v-282h363v-48h-415v157q-37 -77 -108 -122t-155 -45q-94 0 -166.5 48t-112 129.5t-39.5 182.5q0 106 42.5 188.5t114.5 127t161 44.5q85 0 155.5 -44.5t107.5 -120.5v155h405v-48zM375 661q-79 0 -139 -40.5t-92.5 -111t-32.5 -159.5 q0 -93 34.5 -164t94.5 -109t135 -38q79 0 139 40.5t92.5 111t32.5 159.5q0 93 -34.5 164t-94.5 109t-135 38z" />
<glyph unicode="&#x153;" horiz-adv-x="987" d="M722 526q65 0 113.5 -31t74.5 -85t26 -122q0 -22 -2 -44h-394q3 -63 30 -110.5t71.5 -73t99.5 -25.5q51 0 87 9.5t76 32.5l18 -38q-42 -26 -84.5 -37.5t-96.5 -11.5q-83 0 -141 40t-86 115q-28 -74 -85 -114.5t-133 -40.5q-72 0 -128 35.5t-86 96t-30 136.5 q0 80 32.5 141t87.5 94t124 33q52 0 95.5 -19t75 -54t47.5 -82q24 71 80 113t128 42zM296 481q-85 0 -139 -62.5t-54 -160.5t54 -160.5t139 -62.5t139 62.5t54 160.5t-54 160.5t-139 62.5zM722 481q-49 0 -88.5 -25.5t-63.5 -70t-29 -99.5h344v8q0 54 -21 98t-57.5 66.5 t-84.5 22.5z" />
<glyph unicode="&#x15e;" horiz-adv-x="577" d="M279 -10q-68 0 -123 14t-104 44l18 46q94 -55 207 -55q85 0 134.5 39t49.5 106q0 58 -38.5 91t-133.5 59l-39 11q-96 27 -137 69.5t-41 113.5q0 83 59.5 132.5t160.5 49.5q114 0 200 -51l-16 -43q-84 45 -183 45q-79 0 -123 -35t-44 -97q0 -54 33.5 -84.5t116.5 -53.5 l39 -11q109 -31 154.5 -74.5t45.5 -119.5q0 -89 -64 -142.5t-172 -53.5zM203 -163q38 -19 76 -19q56 0 56 43q0 20 -20.5 31t-57.5 11h-34l39 99h52l-26 -60q95 -8 95 -81q0 -38 -28 -61.5t-73 -23.5q-56 0 -93 23z" />
<glyph unicode="&#x15f;" horiz-adv-x="457" d="M226 -10q-52 0 -94.5 11.5t-83.5 36.5l17 41q82 -44 158 -44q65 0 100 25.5t35 72.5q0 39 -27.5 62.5t-97.5 44.5l-27 8q-78 23 -110.5 55.5t-32.5 86.5q0 60 46.5 98t119.5 38q87 0 164 -43l-16 -40q-72 38 -149 38q-52 0 -83 -24t-31 -64q0 -25 10.5 -42.5t34 -31.5 t64.5 -26l27 -8q87 -25 123 -58.5t36 -90.5q0 -67 -49.5 -106.5t-133.5 -39.5zM150 -165q38 -19 76 -19q27 0 42 11.5t15 33.5q0 20 -21 31.5t-58 11.5h-33l39 98h50l-26 -60q95 -8 95 -81q0 -38 -27.5 -61.5t-72.5 -23.5q-55 0 -92 23z" />
<glyph unicode="&#x160;" horiz-adv-x="577" d="M279 -10q-68 0 -123 14t-104 44l18 46q94 -55 207 -55q85 0 134.5 39t49.5 106q0 58 -38.5 91t-133.5 59l-39 11q-96 27 -137 69.5t-41 113.5q0 83 59.5 132.5t160.5 49.5q114 0 200 -51l-16 -43q-84 45 -183 45q-79 0 -123 -35t-44 -97q0 -54 33.5 -84.5t116.5 -53.5 l39 -11q109 -31 154.5 -74.5t45.5 -119.5q0 -89 -64 -142.5t-172 -53.5zM446 879l-117 -109h-62l-117 109h60l88 -70l88 70h60z" />
<glyph unicode="&#x161;" horiz-adv-x="457" d="M226 -10q-52 0 -94.5 11.5t-83.5 36.5l17 41q82 -44 158 -44q65 0 100 25.5t35 72.5q0 39 -27.5 62.5t-97.5 44.5l-27 8q-78 23 -110.5 55.5t-32.5 86.5q0 60 46.5 98t119.5 38q87 0 164 -43l-16 -40q-72 38 -149 38q-52 0 -83 -24t-31 -64q0 -25 10.5 -42.5t34 -31.5 t64.5 -26l27 -8q87 -25 123 -58.5t36 -90.5q0 -67 -49.5 -106.5t-133.5 -39.5zM373 750l-110 -139h-56l-110 139h52l86 -96l86 96h52z" />
<glyph unicode="&#x162;" horiz-adv-x="588" d="M268 652h-240v48h532v-48h-240v-652h-52v652zM209 -163q38 -19 76 -19q56 0 56 43q0 20 -20.5 31t-57.5 11h-34l39 99h52l-26 -60q95 -8 95 -81q0 -38 -28 -61.5t-73 -23.5q-56 0 -93 23z" />
<glyph unicode="&#x163;" horiz-adv-x="386" d="M252 -10q-77 0 -114 45t-37 138v301h-96v42h98l9 151h39v-151h192v-42h-192v-297q0 -142 106 -142q49 0 93 25l13 -39q-22 -14 -52.5 -22.5t-58.5 -8.5zM151 -165q38 -19 76 -19q27 0 42 11.5t15 33.5q0 20 -21 31.5t-58 11.5h-33l39 98h50l-26 -60q95 -8 95 -81 q0 -38 -27.5 -61.5t-72.5 -23.5q-55 0 -92 23z" />
<glyph unicode="&#x174;" horiz-adv-x="852" d="M215 0l-180 700h55l154 -632l158 572h50l157 -574l156 634h52l-180 -700h-58l-153 562l-154 -562h-57zM278 770l117 109h62l117 -109h-60l-88 70l-88 -70h-60z" />
<glyph unicode="&#x175;" horiz-adv-x="748" d="M23 516h53l141 -457l134 438h48l134 -438l141 457h51l-169 -516h-49l-133 435l-133 -435h-49zM236 611l110 139h56l110 -139h-52l-86 96l-86 -96h-52z" />
<glyph unicode="&#x176;" horiz-adv-x="588" d="M268 284l-247 416h58l216 -374l216 374h56l-247 -416v-284h-52v284zM146 770l117 109h62l117 -109h-60l-88 70l-88 -70h-60z" />
<glyph unicode="&#x177;" horiz-adv-x="496" d="M87 -226q-41 0 -79 19l13 40q35 -14 63 -14q40 0 68.5 33t58.5 116l14 38l-205 510h56l174 -458l173 458h54l-208 -522q-35 -88 -60.5 -134t-53 -66t-68.5 -20zM110 611l110 139h56l110 -139h-52l-86 96l-86 -96h-52z" />
<glyph unicode="&#x178;" horiz-adv-x="588" d="M268 284l-247 416h58l216 -374l216 374h56l-247 -416v-284h-52v284zM172 824q0 17 11.5 28t28.5 11t28.5 -11t11.5 -28t-11.5 -28t-28.5 -11t-28.5 11t-11.5 28zM336 824q0 17 11.5 28t28.5 11t28.5 -11t11.5 -28t-11.5 -28t-28.5 -11t-28.5 11t-11.5 28z" />
<glyph unicode="&#x17d;" horiz-adv-x="588" d="M45 0v45l425 607h-415v48h478v-45l-425 -607h435v-48h-498zM452 879l-117 -109h-62l-117 109h60l88 -70l88 70h60z" />
<glyph unicode="&#x17e;" horiz-adv-x="478" d="M45 38l323 436h-311v42h369v-38l-323 -436h330v-42h-388v38zM384 750l-110 -139h-56l-110 139h52l86 -96l86 96h52z" />
<glyph unicode="&#x218;" horiz-adv-x="577" d="M279 -10q-68 0 -123 14t-104 44l18 46q94 -55 207 -55q85 0 134.5 39t49.5 106q0 58 -38.5 91t-133.5 59l-39 11q-96 27 -137 69.5t-41 113.5q0 83 59.5 132.5t160.5 49.5q114 0 200 -51l-16 -43q-84 45 -183 45q-79 0 -123 -35t-44 -97q0 -54 33.5 -84.5t116.5 -53.5 l39 -11q109 -31 154.5 -74.5t45.5 -119.5q0 -89 -64 -142.5t-172 -53.5zM242 -218q34 42 40 76q-32 5 -32 36q0 15 10.5 25t27.5 10q18 0 30 -13t12 -34q0 -27 -17 -60t-46 -62z" />
<glyph unicode="&#x219;" horiz-adv-x="457" d="M226 -10q-52 0 -94.5 11.5t-83.5 36.5l17 41q82 -44 158 -44q65 0 100 25.5t35 72.5q0 39 -27.5 62.5t-97.5 44.5l-27 8q-78 23 -110.5 55.5t-32.5 86.5q0 60 46.5 98t119.5 38q87 0 164 -43l-16 -40q-72 38 -149 38q-52 0 -83 -24t-31 -64q0 -25 10.5 -42.5t34 -31.5 t64.5 -26l27 -8q87 -25 123 -58.5t36 -90.5q0 -67 -49.5 -106.5t-133.5 -39.5zM190 -218q35 43 41 78q-15 2 -24 11t-9 23q0 15 10 25t27 10q18 0 29.5 -13t11.5 -34q0 -27 -17 -60t-45 -61z" />
<glyph unicode="&#x21a;" horiz-adv-x="588" d="M268 652h-240v48h532v-48h-240v-652h-52v652zM248 -218q34 42 40 76q-32 5 -32 36q0 15 10.5 25t27.5 10q18 0 30 -13t12 -34q0 -27 -17 -60t-46 -62z" />
<glyph unicode="&#x21b;" horiz-adv-x="386" d="M252 -10q-77 0 -114 45t-37 138v301h-96v42h98l9 151h39v-151h192v-42h-192v-297q0 -142 106 -142q49 0 93 25l13 -39q-22 -14 -52.5 -22.5t-58.5 -8.5zM191 -218q35 43 41 78q-15 2 -24 11t-9 23q0 15 10 25t27 10q18 0 29.5 -13t11.5 -34q0 -27 -17 -60t-45 -61z" />
<glyph unicode="&#x237;" horiz-adv-x="210" d="M130 516v-581q0 -78 -31 -119.5t-88 -41.5q-41 0 -73 17l11 39q28 -11 55 -11q76 0 76 114v583h50z" />
<glyph unicode="&#x2c6;" horiz-adv-x="569" d="M146 611l110 139h56l110 -139h-52l-86 96l-86 -96h-52z" />
<glyph unicode="&#x2c7;" horiz-adv-x="569" d="M422 750l-110 -139h-56l-110 139h52l86 -96l86 96h52z" />
<glyph unicode="&#x2cb;" horiz-adv-x="569" d="M304 611l-110 139h68l96 -139h-54z" />
<glyph unicode="&#x2d8;" horiz-adv-x="569" d="M284 608q-53 0 -87 31.5t-37 81.5h43q14 -69 81 -69t81 69h43q-3 -50 -37 -81.5t-87 -31.5z" />
<glyph unicode="&#x2da;" horiz-adv-x="569" d="M284 625q25 0 41.5 17.5t16.5 43.5t-16.5 43.5t-41.5 17.5t-41.5 -17.5t-16.5 -43.5t16.5 -43.5t41.5 -17.5zM284 588q-44 0 -72 27.5t-28 70.5t28 70.5t72 27.5t72 -27.5t28 -70.5t-28 -70.5t-72 -27.5z" />
<glyph unicode="&#x2dc;" horiz-adv-x="569" d="M429 729q-4 -51 -25.5 -80.5t-56.5 -29.5q-19 0 -36.5 9t-38.5 30q-20 20 -30 26t-20 6q-17 0 -26.5 -15.5t-13.5 -50.5h-43q4 51 25.5 80.5t56.5 29.5q19 0 36.5 -9t38.5 -30q20 -20 30 -26t20 -6q17 0 26.5 15.5t13.5 50.5h43z" />
<glyph unicode="&#x300;" horiz-adv-x="0" d="M-22 611l-110 139h68l96 -139h-54z" />
<glyph unicode="&#x301;" horiz-adv-x="0" d="M-32 611l96 139h68l-110 -139h-54z" />
<glyph unicode="&#x302;" horiz-adv-x="0" d="M-138 611l110 139h56l110 -139h-52l-86 96l-86 -96h-52z" />
<glyph unicode="&#x303;" horiz-adv-x="0" d="M145 729q-4 -51 -25.5 -80.5t-56.5 -29.5q-19 0 -36.5 9t-38.5 30q-20 20 -30 26t-20 6q-17 0 -26.5 -15.5t-13.5 -50.5h-43q4 51 25.5 80.5t56.5 29.5q19 0 36.5 -9t38.5 -30q20 -20 30 -26t20 -6q17 0 26.5 15.5t13.5 50.5h43z" />
<glyph unicode="&#x306;" horiz-adv-x="0" d="M0 608q-53 0 -87 31.5t-37 81.5h43q14 -69 81 -69t81 69h43q-3 -50 -37 -81.5t-87 -31.5z" />
<glyph unicode="&#x308;" horiz-adv-x="0" d="M-114 681q0 16 10.5 26t27.5 10t27.5 -10t10.5 -26t-10.5 -26t-27.5 -10t-27.5 10t-10.5 26zM38 681q0 16 10.5 26t27.5 10t27.5 -10t10.5 -26t-10.5 -26t-27.5 -10t-27.5 10t-10.5 26z" />
<glyph unicode="&#x30a;" horiz-adv-x="0" d="M0 625q25 0 41.5 17.5t16.5 43.5t-16.5 43.5t-41.5 17.5t-41.5 -17.5t-16.5 -43.5t16.5 -43.5t41.5 -17.5zM0 588q-44 0 -72 27.5t-28 70.5t28 70.5t72 27.5t72 -27.5t28 -70.5t-28 -70.5t-72 -27.5z" />
<glyph unicode="&#x30c;" horiz-adv-x="0" d="M138 750l-110 -139h-56l-110 139h52l86 -96l86 96h52z" />
<glyph unicode="&#x326;" horiz-adv-x="0" d="M-45 -218q35 43 41 78q-15 2 -24 11t-9 23q0 15 10 25t27 10q18 0 29.5 -13t11.5 -34q0 -27 -17 -60t-45 -61z" />
<glyph unicode="&#x327;" horiz-adv-x="0" d="M-85 -165q38 -19 76 -19q27 0 42 11.5t15 33.5q0 20 -21 31.5t-58 11.5h-33l39 98h50l-26 -60q95 -8 95 -81q0 -38 -27.5 -61.5t-72.5 -23.5q-55 0 -92 23z" />
<glyph unicode="&#x1e80;" horiz-adv-x="852" d="M215 0l-180 700h55l154 -632l158 572h50l157 -574l156 634h52l-180 -700h-58l-153 562l-154 -562h-57zM402 770l-114 109h76l96 -109h-58z" />
<glyph unicode="&#x1e81;" horiz-adv-x="748" d="M23 516h53l141 -457l134 438h48l134 -438l141 457h51l-169 -516h-49l-133 435l-133 -435h-49zM352 611l-110 139h68l96 -139h-54z" />
<glyph unicode="&#x1e82;" horiz-adv-x="852" d="M215 0l-180 700h55l154 -632l158 572h50l157 -574l156 634h52l-180 -700h-58l-153 562l-154 -562h-57zM392 770l96 109h76l-114 -109h-58z" />
<glyph unicode="&#x1e83;" horiz-adv-x="748" d="M23 516h53l141 -457l134 438h48l134 -438l141 457h51l-169 -516h-49l-133 435l-133 -435h-49zM342 611l96 139h68l-110 -139h-54z" />
<glyph unicode="&#x1e84;" horiz-adv-x="852" d="M215 0l-180 700h55l154 -632l158 572h50l157 -574l156 634h52l-180 -700h-58l-153 562l-154 -562h-57zM304 824q0 17 11.5 28t28.5 11t28.5 -11t11.5 -28t-11.5 -28t-28.5 -11t-28.5 11t-11.5 28zM468 824q0 17 11.5 28t28.5 11t28.5 -11t11.5 -28t-11.5 -28t-28.5 -11 t-28.5 11t-11.5 28z" />
<glyph unicode="&#x1e85;" horiz-adv-x="748" d="M23 516h53l141 -457l134 438h48l134 -438l141 457h51l-169 -516h-49l-133 435l-133 -435h-49zM260 681q0 16 10.5 26t27.5 10t27.5 -10t10.5 -26t-10.5 -26t-27.5 -10t-27.5 10t-10.5 26zM412 681q0 16 10.5 26t27.5 10t27.5 -10t10.5 -26t-10.5 -26t-27.5 -10t-27.5 10 t-10.5 26z" />
<glyph unicode="&#x1e9e;" horiz-adv-x="683" d="M424 -10q-38 0 -77 9.5t-69 25.5l15 45q27 -14 62 -22.5t68 -8.5q54 0 92.5 21t60 57t21.5 78q0 75 -49 113.5t-144 38.5q-37 0 -53 -2v45l206 229q-34 19 -81.5 30.5t-95.5 11.5q-122 0 -185 -68.5t-63 -200.5v-392h-52v397q0 149 79 231t222 82q63 0 125 -18.5 t98 -46.5v-45l-190 -206h4q71 0 124.5 -24t81 -68t27.5 -104q0 -63 -29.5 -110t-81 -72.5t-116.5 -25.5z" />
<glyph unicode="&#x1ef2;" horiz-adv-x="588" d="M268 284l-247 416h58l216 -374l216 374h56l-247 -416v-284h-52v284zM270 770l-114 109h76l96 -109h-58z" />
<glyph unicode="&#x1ef3;" horiz-adv-x="496" d="M87 -226q-41 0 -79 19l13 40q35 -14 63 -14q40 0 68.5 33t58.5 116l14 38l-205 510h56l174 -458l173 458h54l-208 -522q-35 -88 -60.5 -134t-53 -66t-68.5 -20zM226 611l-110 139h68l96 -139h-54z" />
<glyph unicode="&#x2000;" horiz-adv-x="500" />
<glyph unicode="&#x2001;" horiz-adv-x="1000" />
<glyph unicode="&#x2002;" horiz-adv-x="500" />
<glyph unicode="&#x2003;" horiz-adv-x="1000" />
<glyph unicode="&#x2004;" horiz-adv-x="333" />
<glyph unicode="&#x2005;" horiz-adv-x="250" />
<glyph unicode="&#x2006;" horiz-adv-x="166" />
<glyph unicode="&#x2007;" horiz-adv-x="600" />
<glyph unicode="&#x2008;" horiz-adv-x="172" />
<glyph unicode="&#x2009;" horiz-adv-x="200" />
<glyph unicode="&#x200a;" horiz-adv-x="55" />
<glyph unicode="&#x200b;" horiz-adv-x="0" />
<glyph unicode="&#x2013;" horiz-adv-x="500" d="M0 294h500v-42h-500v42z" />
<glyph unicode="&#x2014;" horiz-adv-x="1000" d="M0 294h1000v-42h-1000v42z" />
<glyph unicode="&#x2018;" horiz-adv-x="171" d="M150 698q-53 -47 -62 -101q17 -1 27 -11.5t10 -26.5t-11 -27t-27 -11q-19 0 -31 13.5t-12 33.5q0 38 23 79.5t63 72.5z" />
<glyph unicode="&#x2019;" horiz-adv-x="171" d="M21 533q53 47 62 101q-17 1 -27 11.5t-10 26.5t11 27t27 11q19 0 31 -13.5t12 -33.5q0 -38 -23 -79.5t-63 -72.5z" />
<glyph unicode="&#x201a;" horiz-adv-x="171" d="M21 -109q53 47 62 101q-17 1 -27 11.5t-10 26.5t11 27t27 11q19 0 31 -13.5t12 -33.5q0 -38 -23 -79.5t-63 -72.5z" />
<glyph unicode="&#x201c;" horiz-adv-x="313" d="M150 698q-53 -47 -62 -101q17 -1 27 -11.5t10 -26.5t-11 -27t-27 -11q-19 0 -31 13.5t-12 33.5q0 38 23 79.5t63 72.5zM292 698q-53 -47 -62 -101q17 -1 27 -11.5t10 -26.5t-11 -27t-27 -11q-19 0 -31 13.5t-12 33.5q0 38 23 79.5t63 72.5z" />
<glyph unicode="&#x201d;" horiz-adv-x="313" d="M21 533q53 47 62 101q-17 1 -27 11.5t-10 26.5t11 27t27 11q19 0 31 -13.5t12 -33.5q0 -38 -23 -79.5t-63 -72.5zM163 533q53 47 62 101q-17 1 -27 11.5t-10 26.5t11 27t27 11q19 0 31 -13.5t12 -33.5q0 -38 -23 -79.5t-63 -72.5z" />
<glyph unicode="&#x201e;" horiz-adv-x="313" d="M21 -109q53 47 62 101q-17 1 -27 11.5t-10 26.5t11 27t27 11q19 0 31 -13.5t12 -33.5q0 -38 -23 -79.5t-63 -72.5zM163 -109q53 47 62 101q-17 1 -27 11.5t-10 26.5t11 27t27 11q19 0 31 -13.5t12 -33.5q0 -38 -23 -79.5t-63 -72.5z" />
<glyph unicode="&#x2020;" horiz-adv-x="472" d="M51 485h160v245h50v-245h160v-44h-160v-557h-50v557h-160v44z" />
<glyph unicode="&#x2021;" horiz-adv-x="472" d="M421 129h-160v-245h-50v245h-160v44h160v268h-160v44h160v245h50v-245h160v-44h-160v-268h160v-44z" />
<glyph unicode="&#x2022;" horiz-adv-x="256" d="M46 288q0 33 24 56t58 23t58 -23t24 -56t-24 -56t-58 -23t-58 23t-24 56z" />
<glyph unicode="&#x2026;" horiz-adv-x="1000" d="M209 30q0 -17 -12 -28.5t-30 -11.5t-30 11.5t-12 28.5t12 28.5t30 11.5t30 -11.5t12 -28.5zM542 30q0 -17 -12 -28.5t-30 -11.5t-30 11.5t-12 28.5t12 28.5t30 11.5t30 -11.5t12 -28.5zM875 30q0 -17 -12 -28.5t-30 -11.5t-30 11.5t-12 28.5t12 28.5t30 11.5t30 -11.5 t12 -28.5z" />
<glyph unicode="&#x2032;" horiz-adv-x="191" d="M90 700h63l-54 -195h-43z" />
<glyph unicode="&#x2033;" horiz-adv-x="348" d="M90 700h63l-54 -195h-43zM247 700h63l-54 -195h-43z" />
<glyph unicode="&#x2039;" horiz-adv-x="269" d="M92 280l131 -173h-55l-131 173l131 173h55z" />
<glyph unicode="&#x203a;" horiz-adv-x="269" d="M177 280l-131 173h55l131 -173l-131 -173h-55z" />
<glyph unicode="&#x2044;" horiz-adv-x="106" d="M-168 0l390 690h52l-390 -690h-52z" />
<glyph unicode="&#x2070;" d="M219 453q51 0 78.5 40t27.5 114v16q0 75 -27.5 114.5t-78.5 39.5t-78.5 -40t-27.5 -114v-16q0 -75 27.5 -114.5t78.5 -39.5zM219 410q-71 0 -112.5 53t-41.5 144v16q0 91 41.5 144t112.5 53t112.5 -53t41.5 -144v-16q0 -91 -41.5 -144t-112.5 -53z" />
<glyph unicode="&#x2074;" d="M279 420v89h-229v39l232 262h40v-260h56v-41h-56v-89h-43zM279 550v199l-177 -199h177z" />
<glyph unicode="&#x2075;" d="M212 410q-76 0 -137 36l14 38q55 -31 118 -31q53 0 81.5 21.5t28.5 60.5q0 79 -124 79h-24t-31 -0.5t-28.5 -0.5h-15.5l13 197h234v-44h-197l-8 -113q38 2 67 2q75 0 118 -32.5t43 -88.5t-42 -90t-110 -34z" />
<glyph unicode="&#x2076;" d="M223 410q-73 0 -115 48.5t-42 133.5v14q0 101 47 157.5t130 56.5q64 0 111 -23l-12 -39q-45 19 -95 19q-118 0 -132 -128q53 9 103 9q74 0 114 -31t40 -86q0 -38 -19 -68.5t-52.5 -46.5t-77.5 -16zM211 617q-56 0 -98 -9v-18q0 -65 29 -101t82 -36q47 0 74 23.5t27 62.5 q0 38 -29 58t-85 20z" />
<glyph unicode="&#x2077;" d="M142 420v5q0 45 12.5 83t42 87t79.5 114l44 57h-239v44h289v-40l-62 -84q-43 -58 -69.5 -102t-38.5 -80t-12 -79v-5h-46z" />
<glyph unicode="&#x2078;" d="M219 410q-71 0 -114 30t-43 80q0 32 20.5 59t57.5 43q-32 13 -49 36t-17 53q0 48 40.5 78.5t105.5 30.5q62 0 102 -29.5t40 -75.5q0 -29 -16 -52.5t-47 -37.5q36 -14 56.5 -40.5t20.5 -60.5q0 -51 -43 -82.5t-114 -31.5zM187 610q-37 -12 -58 -34.5t-21 -49.5 q0 -35 30 -55t81 -20q50 0 80.5 20.5t30.5 55.5q0 29 -21 47.5t-59 24.5zM119 709q0 -48 72 -61l65 -12q29 11 45 30.5t16 43.5q0 31 -27 50t-71 19q-45 0 -72.5 -19.5t-27.5 -50.5z" />
<glyph unicode="&#x2079;" d="M211 820q74 0 117.5 -49.5t43.5 -132.5v-14q0 -105 -42.5 -159.5t-124.5 -54.5q-64 0 -111 23l12 39q45 -19 95 -19q57 0 86.5 30.5t35.5 97.5q-45 -9 -103 -9q-76 0 -115 29.5t-39 87.5q0 59 39 95t106 36zM227 613q53 0 98 8v19q0 64 -30.5 100.5t-84.5 36.5 q-46 0 -71.5 -23t-25.5 -63t27.5 -59t86.5 -19z" />
<glyph unicode="&#x2080;" d="M219 -87q51 0 78.5 40t27.5 114v16q0 75 -27.5 114.5t-78.5 39.5t-78.5 -40t-27.5 -114v-16q0 -75 27.5 -114.5t78.5 -39.5zM219 -130q-71 0 -112.5 53t-41.5 144v16q0 91 41.5 144t112.5 53t112.5 -53t41.5 -144v-16q0 -91 -41.5 -144t-112.5 -53z" />
<glyph unicode="&#x2081;" d="M96 160l146 110h42v-390h-46v335l-118 -88z" />
<glyph unicode="&#x2082;" d="M81 -120v20q0 71 27.5 112t94.5 73q50 25 69.5 37t27 24t7.5 32q0 26 -23.5 42.5t-61.5 16.5q-65 0 -117 -40l-19 36q60 47 139 47q55 0 92 -28t37 -72q0 -26 -9.5 -44.5t-35 -37t-83.5 -48.5q-54 -28 -74 -54t-23 -72h228v-44h-276z" />
<glyph unicode="&#x2083;" d="M207 -130q-72 0 -135 35l15 37q55 -29 115 -29q50 0 78 19t28 54t-28 56t-76 21h-69v41h69q43 0 68.5 18t25.5 49q0 30 -26 48t-69 18q-58 0 -109 -30l-16 36q64 37 130 37q61 0 99 -29.5t38 -77.5q0 -30 -19 -52.5t-52 -34.5q39 -13 60 -39t21 -63q0 -52 -41 -83 t-107 -31z" />
<glyph unicode="&#x2084;" d="M279 -120v89h-229v39l232 262h40v-260h56v-41h-56v-89h-43zM279 10v199l-177 -199h177z" />
<glyph unicode="&#x2085;" d="M212 -130q-76 0 -137 36l14 38q55 -31 118 -31q53 0 81.5 21.5t28.5 60.5q0 79 -124 79h-24t-31 -0.5t-28.5 -0.5h-15.5l13 197h234v-44h-197l-8 -113q38 2 67 2q75 0 118 -32.5t43 -88.5t-42 -90t-110 -34z" />
<glyph unicode="&#x2086;" d="M223 -130q-73 0 -115 48.5t-42 133.5v14q0 101 47 157.5t130 56.5q64 0 111 -23l-12 -39q-45 19 -95 19q-118 0 -132 -128q53 9 103 9q74 0 114 -31t40 -86q0 -38 -19 -68.5t-52.5 -46.5t-77.5 -16zM211 77q-56 0 -98 -9v-18q0 -65 29 -101t82 -36q47 0 74 23.5t27 62.5 q0 38 -29 58t-85 20z" />
<glyph unicode="&#x2087;" d="M142 -120v5q0 45 12.5 83t42 87t79.5 114l44 57h-239v44h289v-40l-62 -84q-43 -58 -69.5 -102t-38.5 -80t-12 -79v-5h-46z" />
<glyph unicode="&#x2088;" d="M219 -130q-71 0 -114 30t-43 80q0 32 20.5 59t57.5 43q-32 13 -49 36t-17 53q0 48 40.5 78.5t105.5 30.5q62 0 102 -29.5t40 -75.5q0 -29 -16 -52.5t-47 -37.5q36 -14 56.5 -40.5t20.5 -60.5q0 -51 -43 -82.5t-114 -31.5zM187 70q-37 -12 -58 -34.5t-21 -49.5 q0 -35 30 -55t81 -20q50 0 80.5 20.5t30.5 55.5q0 29 -21 47.5t-59 24.5zM119 169q0 -48 72 -61l65 -12q29 11 45 30.5t16 43.5q0 31 -27 50t-71 19q-45 0 -72.5 -19.5t-27.5 -50.5z" />
<glyph unicode="&#x2089;" d="M211 280q74 0 117.5 -49.5t43.5 -132.5v-14q0 -105 -42.5 -159.5t-124.5 -54.5q-64 0 -111 23l12 39q45 -19 95 -19q57 0 86.5 30.5t35.5 97.5q-45 -9 -103 -9q-76 0 -115 29.5t-39 87.5q0 59 39 95t106 36zM227 73q53 0 98 8v19q0 64 -30.5 100.5t-84.5 36.5 q-46 0 -71.5 -23t-25.5 -63t27.5 -59t86.5 -19z" />
<glyph unicode="&#x20ac;" horiz-adv-x="600" d="M400 -10q-108 0 -185 69t-102 188h-90l7 45h77q-3 26 -3 53q0 14 1 27.5t2 26.5h-84l7 45h84q25 118 101.5 187t184.5 69q47 0 92.5 -14.5t82.5 -40.5l-17 -39q-78 48 -155 48q-90 0 -152 -55.5t-84 -154.5h314l-7 -45h-314q-1 -13 -2 -26.5t-1 -27.5q0 -27 3 -53h297 l-7 -45h-283q22 -99 84.5 -155t151.5 -56q47 0 83.5 11t75.5 37l18 -39q-41 -29 -84 -42t-96 -13z" />
<glyph unicode="&#x20ba;" horiz-adv-x="600" d="M184 251v-204h59q131 0 192.5 56.5t61.5 177.5h51q0 -146 -74 -213.5t-231 -67.5h-110v226l-97 -47v48l97 47v107l-97 -47v48l97 47v261h51v-236l200 97v-48l-200 -97v-107l200 97v-48z" />
<glyph unicode="&#x20bd;" horiz-adv-x="600" d="M143 0v132h-120v45h120v107h-120v45h120v361h169q111 0 170 -52.5t59 -148.5t-59.5 -150.5t-169.5 -54.5h-118v-107h215v-45h-215v-132h-51zM194 329h120q85 0 129.5 41.5t44.5 118.5q0 75 -45 115.5t-129 40.5h-120v-316z" />
<glyph unicode="&#x2122;" horiz-adv-x="781" d="M378 316v384h53l129 -279l129 279h55v-384h-50v284l-111 -235h-46l-111 235v-284h-48zM139 655h-125v45h299v-45h-125v-339h-49v339z" />
<glyph unicode="&#x2212;" horiz-adv-x="600" d="M76 321v46h448v-46h-448z" />
<glyph unicode="&#x25fc;" horiz-adv-x="515" d="M0 515h515v-515h-515v515z" />
<glyph unicode="&#xfeff;" horiz-adv-x="0" />
<glyph horiz-adv-x="600" d="M300 36q84 0 128 74t44 216v38q0 142 -44 216t-128 74t-128 -74t-44 -216v-38q0 -142 44 -216t128 -74zM300 -10q-108 0 -166.5 87.5t-58.5 248.5v38q0 161 58.5 248.5t166.5 87.5t166.5 -87.5t58.5 -248.5v-38q0 -161 -58.5 -248.5t-166.5 -87.5z" />
<glyph horiz-adv-x="600" d="M88 0v47h205v584l-174 -133l-26 36l203 156h48v-643h189v-47h-445z" />
<glyph horiz-adv-x="600" d="M105 0v37q0 79 16 133.5t54 96t110 80.5q96 52 129 88t33 87q0 60 -39.5 96t-106.5 36q-41 0 -83.5 -18.5t-79.5 -52.5l-25 36q86 81 194 81q58 0 102 -23t67.5 -63t23.5 -90q0 -43 -17.5 -78t-58.5 -68.5t-114 -71.5q-59 -31 -91.5 -63t-46.5 -77t-14 -119h349v-47h-402 z" />
<glyph horiz-adv-x="600" d="M273 -10q-111 0 -195 63l21 39q79 -56 169 -56q82 0 128 40t46 110t-47 111.5t-125 41.5h-83v45h83q72 0 113.5 35t41.5 97q0 63 -42.5 100.5t-114.5 37.5q-75 0 -157 -56l-23 38q88 64 186 64q91 0 147 -50t56 -134q0 -53 -30 -93.5t-84 -59.5q62 -19 96.5 -65.5 t34.5 -113.5q0 -88 -60.5 -141t-160.5 -53z" />
<glyph horiz-adv-x="600" d="M404 0v178h-356v44l358 468h48v-467h101v-45h-101v-178h-50zM404 223v391l-300 -391h300z" />
<glyph horiz-adv-x="600" d="M291 -10q-111 0 -195 63l21 39q79 -56 169 -56q84 0 130.5 44t46.5 123q0 77 -52 117.5t-150 40.5q-10 0 -30.5 -0.5t-43 -0.5t-39.5 -0.5t-19 -0.5l23 331h324v-47h-281l-17 -239q57 3 95 3q114 0 178 -54t64 -150t-61 -154.5t-163 -58.5z" />
<glyph horiz-adv-x="600" d="M341 700q88 0 151 -39l-17 -41q-33 18 -64 26t-68 8q-94 0 -148 -64t-66 -189q92 12 168 12q229 0 229 -212q0 -60 -29 -109t-78 -75.5t-113 -26.5q-110 0 -170.5 82.5t-60.5 232.5v21q0 178 69.5 276t196.5 98zM294 369q-79 0 -168 -12v-53q0 -129 47 -198.5t135 -69.5 q77 0 121.5 45.5t44.5 118.5q0 87 -44 128t-136 41z" />
<glyph horiz-adv-x="600" d="M198 0v7q0 65 11.5 120t39.5 121.5t81 161.5l130 233h-373v47h425v-45l-142 -261q-47 -86 -72.5 -146t-37 -112.5t-11.5 -118.5v-7h-51z" />
<glyph horiz-adv-x="600" d="M70 179q0 62 35 109t101 72q-57 20 -87.5 59.5t-30.5 96.5q0 81 59 132.5t153 51.5q64 0 111.5 -24t73.5 -64.5t26 -91.5q0 -54 -28.5 -95t-84.5 -65q63 -24 97 -69.5t34 -107.5q0 -86 -63 -139.5t-166 -53.5t-166.5 52t-63.5 137zM300 35q81 0 129 40.5t48 110.5 q0 62 -42 102t-121 51l-51 7q-69 -23 -105 -64.5t-36 -97.5q0 -68 48 -108.5t130 -40.5zM345 375q115 45 115 140q0 63 -43.5 101.5t-116.5 38.5t-117 -38.5t-44 -101.5q0 -111 149 -132z" />
<glyph horiz-adv-x="600" d="M259 -10q-43 0 -82 10t-69 29l17 41q33 -18 64 -26t68 -8q100 0 152 62.5t62 193.5q-84 -12 -170 -12q-227 0 -227 211q0 47 17 86.5t47.5 66.5t70 41.5t85.5 14.5q110 0 170.5 -82.5t60.5 -232.5v-21q0 -186 -67 -280t-199 -94zM304 324q86 0 170 12v50q0 129 -47 198.5 t-135 69.5q-76 0 -121 -44.5t-45 -118.5q0 -85 43.5 -126t134.5 -41z" />
<glyph d="M219 33q51 0 78.5 40t27.5 114v16q0 75 -27.5 114.5t-78.5 39.5t-78.5 -40t-27.5 -114v-16q0 -75 27.5 -114.5t78.5 -39.5zM219 -10q-71 0 -112.5 53t-41.5 144v16q0 91 41.5 144t112.5 53t112.5 -53t41.5 -144v-16q0 -91 -41.5 -144t-112.5 -53z" />
<glyph d="M96 280l146 110h42v-390h-46v335l-118 -88z" />
<glyph d="M81 0v20q0 71 27.5 112t94.5 73q50 25 69.5 37t27 24t7.5 32q0 26 -23.5 42.5t-61.5 16.5q-65 0 -117 -40l-19 36q60 47 139 47q55 0 92 -28t37 -72q0 -26 -9.5 -44.5t-35 -37t-83.5 -48.5q-54 -28 -74 -54t-23 -72h228v-44h-276z" />
<glyph d="M207 -10q-72 0 -135 35l15 37q55 -29 115 -29q50 0 78 19t28 54t-28 56t-76 21h-69v41h69q43 0 68.5 18t25.5 49q0 30 -26 48t-69 18q-58 0 -109 -30l-16 36q64 37 130 37q61 0 99 -29.5t38 -77.5q0 -30 -19 -52.5t-52 -34.5q39 -13 60 -39t21 -63q0 -52 -41 -83 t-107 -31z" />
<glyph d="M279 0v89h-229v39l232 262h40v-260h56v-41h-56v-89h-43zM279 130v199l-177 -199h177z" />
<glyph d="M212 -10q-76 0 -137 36l14 38q55 -31 118 -31q53 0 81.5 21.5t28.5 60.5q0 79 -124 79h-24t-31 -0.5t-28.5 -0.5h-15.5l13 197h234v-44h-197l-8 -113q38 2 67 2q75 0 118 -32.5t43 -88.5t-42 -90t-110 -34z" />
<glyph d="M223 -10q-73 0 -115 48.5t-42 133.5v14q0 101 47 157.5t130 56.5q64 0 111 -23l-12 -39q-45 19 -95 19q-118 0 -132 -128q53 9 103 9q74 0 114 -31t40 -86q0 -38 -19 -68.5t-52.5 -46.5t-77.5 -16zM211 197q-56 0 -98 -9v-18q0 -65 29 -101t82 -36q47 0 74 23.5t27 62.5 q0 38 -29 58t-85 20z" />
<glyph d="M142 0v5q0 45 12.5 83t42 87t79.5 114l44 57h-239v44h289v-40l-62 -84q-43 -58 -69.5 -102t-38.5 -80t-12 -79v-5h-46z" />
<glyph d="M219 -10q-71 0 -114 30t-43 80q0 32 20.5 59t57.5 43q-32 13 -49 36t-17 53q0 48 40.5 78.5t105.5 30.5q62 0 102 -29.5t40 -75.5q0 -29 -16 -52.5t-47 -37.5q36 -14 56.5 -40.5t20.5 -60.5q0 -51 -43 -82.5t-114 -31.5zM187 190q-37 -12 -58 -34.5t-21 -49.5 q0 -35 30 -55t81 -20q50 0 80.5 20.5t30.5 55.5q0 29 -21 47.5t-59 24.5zM119 289q0 -48 72 -61l65 -12q29 11 45 30.5t16 43.5q0 31 -27 50t-71 19q-45 0 -72.5 -19.5t-27.5 -50.5z" />
<glyph d="M211 400q74 0 117.5 -49.5t43.5 -132.5v-14q0 -105 -42.5 -159.5t-124.5 -54.5q-64 0 -111 23l12 39q45 -19 95 -19q57 0 86.5 30.5t35.5 97.5q-45 -9 -103 -9q-76 0 -115 29.5t-39 87.5q0 59 39 95t106 36zM227 193q53 0 98 8v19q0 64 -30.5 100.5t-84.5 36.5 q-46 0 -71.5 -23t-25.5 -63t27.5 -59t86.5 -19z" />
<glyph d="M219 333q51 0 78.5 40t27.5 114v16q0 75 -27.5 114.5t-78.5 39.5t-78.5 -40t-27.5 -114v-16q0 -75 27.5 -114.5t78.5 -39.5zM219 290q-71 0 -112.5 53t-41.5 144v16q0 91 41.5 144t112.5 53t112.5 -53t41.5 -144v-16q0 -91 -41.5 -144t-112.5 -53z" />
<glyph d="M96 580l146 110h42v-390h-46v335l-118 -88z" />
<glyph d="M81 300v20q0 71 27.5 112t94.5 73q50 25 69.5 37t27 24t7.5 32q0 26 -23.5 42.5t-61.5 16.5q-65 0 -117 -40l-19 36q60 47 139 47q55 0 92 -28t37 -72q0 -26 -9.5 -44.5t-35 -37t-83.5 -48.5q-54 -28 -74 -54t-23 -72h228v-44h-276z" />
<glyph d="M207 290q-72 0 -135 35l15 37q55 -29 115 -29q50 0 78 19t28 54t-28 56t-76 21h-69v41h69q43 0 68.5 18t25.5 49q0 30 -26 48t-69 18q-58 0 -109 -30l-16 36q64 37 130 37q61 0 99 -29.5t38 -77.5q0 -30 -19 -52.5t-52 -34.5q39 -13 60 -39t21 -63q0 -52 -41 -83 t-107 -31z" />
<glyph d="M279 300v89h-229v39l232 262h40v-260h56v-41h-56v-89h-43zM279 430v199l-177 -199h177z" />
<glyph d="M212 290q-76 0 -137 36l14 38q55 -31 118 -31q53 0 81.5 21.5t28.5 60.5q0 79 -124 79h-24t-31 -0.5t-28.5 -0.5h-15.5l13 197h234v-44h-197l-8 -113q38 2 67 2q75 0 118 -32.5t43 -88.5t-42 -90t-110 -34z" />
<glyph d="M223 290q-73 0 -115 48.5t-42 133.5v14q0 101 47 157.5t130 56.5q64 0 111 -23l-12 -39q-45 19 -95 19q-118 0 -132 -128q53 9 103 9q74 0 114 -31t40 -86q0 -38 -19 -68.5t-52.5 -46.5t-77.5 -16zM211 497q-56 0 -98 -9v-18q0 -65 29 -101t82 -36q47 0 74 23.5t27 62.5 q0 38 -29 58t-85 20z" />
<glyph d="M142 300v5q0 45 12.5 83t42 87t79.5 114l44 57h-239v44h289v-40l-62 -84q-43 -58 -69.5 -102t-38.5 -80t-12 -79v-5h-46z" />
<glyph d="M219 290q-71 0 -114 30t-43 80q0 32 20.5 59t57.5 43q-32 13 -49 36t-17 53q0 48 40.5 78.5t105.5 30.5q62 0 102 -29.5t40 -75.5q0 -29 -16 -52.5t-47 -37.5q36 -14 56.5 -40.5t20.5 -60.5q0 -51 -43 -82.5t-114 -31.5zM187 490q-37 -12 -58 -34.5t-21 -49.5 q0 -35 30 -55t81 -20q50 0 80.5 20.5t30.5 55.5q0 29 -21 47.5t-59 24.5zM119 589q0 -48 72 -61l65 -12q29 11 45 30.5t16 43.5q0 31 -27 50t-71 19q-45 0 -72.5 -19.5t-27.5 -50.5z" />
<glyph d="M211 700q74 0 117.5 -49.5t43.5 -132.5v-14q0 -105 -42.5 -159.5t-124.5 -54.5q-64 0 -111 23l12 39q45 -19 95 -19q57 0 86.5 30.5t35.5 97.5q-45 -9 -103 -9q-76 0 -115 29.5t-39 87.5q0 59 39 95t106 36zM227 493q53 0 98 8v19q0 64 -30.5 100.5t-84.5 36.5 q-46 0 -71.5 -23t-25.5 -63t27.5 -59t86.5 -19z" />
<glyph d="M203 -190v60q-36 1 -74 10.5t-65 25.5l13 38q69 -33 126 -34v154l-16 4q-65 16 -90 40t-25 67q0 46 35.5 73.5t96.5 30.5v61h38v-61q63 -5 114 -30l-13 -37q-53 24 -101 27v-141l8 -2q68 -17 95.5 -42.5t27.5 -71.5q0 -47 -34.5 -75.5t-97.5 -34.5v-62h-38zM328 -20 q0 31 -18.5 46.5t-68.5 28.5v-144q41 5 64 23t23 46zM117 177q0 -29 18 -43.5t69 -26.5v132q-41 -2 -64 -18.5t-23 -43.5z" />
<glyph d="M216 -190v61q-59 6 -95 47.5t-36 103.5t36 103t95 47v61h38v-61q49 -5 87 -28l-15 -35q-39 20 -72 23v-222q47 5 77 24l15 -33q-35 -25 -92 -30v-61h-38zM130 22q0 -45 23 -74.5t63 -36.5v220q-41 -6 -63.5 -34.5t-22.5 -74.5z" />
<glyph horiz-adv-x="633" d="M169 -120l247 390h48l-247 -390h-48zM462 -95q28 0 44.5 21t16.5 58v9q0 37 -16.5 58t-44.5 21q-27 0 -44 -21.5t-17 -57.5v-9q0 -36 17 -57.5t44 -21.5zM462 -130q-46 0 -74.5 31.5t-28.5 82.5v9q0 51 28.5 82.5t74.5 31.5t74.5 -31.5t28.5 -82.5v-9q0 -51 -28.5 -82.5 t-74.5 -31.5zM171 78q27 0 44 21.5t17 57.5v9q0 36 -17 57.5t-44 21.5q-28 0 -44.5 -21t-16.5 -58v-9q0 -37 16.5 -58t44.5 -21zM171 43q-46 0 -74.5 31.5t-28.5 82.5v9q0 51 28.5 82.5t74.5 31.5t74.5 -31.5t28.5 -82.5v-9q0 -51 -28.5 -82.5t-74.5 -31.5z" />
<glyph horiz-adv-x="404" d="M78 -120l17 113h-68v36h73l14 92h-74v36h79l17 113h40l-17 -113h110l17 113h40l-17 -113h68v-36h-73l-14 -92h74v-36h-79l-17 -113h-40l17 113h-110l-17 -113h-40zM140 29h110l14 92h-110z" />
<glyph d="M203 350v60q-36 1 -74 10.5t-65 25.5l13 38q69 -33 126 -34v154l-16 4q-65 16 -90 40t-25 67q0 46 35.5 73.5t96.5 30.5v61h38v-61q63 -5 114 -30l-13 -37q-53 24 -101 27v-141l8 -2q68 -17 95.5 -42.5t27.5 -71.5q0 -47 -34.5 -75.5t-97.5 -34.5v-62h-38zM328 520 q0 31 -18.5 46.5t-68.5 28.5v-144q41 5 64 23t23 46zM117 717q0 -29 18 -43.5t69 -26.5v132q-41 -2 -64 -18.5t-23 -43.5z" />
<glyph d="M216 350v61q-59 6 -95 47.5t-36 103.5t36 103t95 47v61h38v-61q49 -5 87 -28l-15 -35q-39 20 -72 23v-222q47 5 77 24l15 -33q-35 -25 -92 -30v-61h-38zM130 562q0 -45 23 -74.5t63 -36.5v220q-41 -6 -63.5 -34.5t-22.5 -74.5z" />
<glyph horiz-adv-x="633" d="M169 420l247 390h48l-247 -390h-48zM462 445q28 0 44.5 21t16.5 58v9q0 37 -16.5 58t-44.5 21q-27 0 -44 -21.5t-17 -57.5v-9q0 -36 17 -57.5t44 -21.5zM462 410q-46 0 -74.5 31.5t-28.5 82.5v9q0 51 28.5 82.5t74.5 31.5t74.5 -31.5t28.5 -82.5v-9q0 -51 -28.5 -82.5 t-74.5 -31.5zM171 618q27 0 44 21.5t17 57.5v9q0 36 -17 57.5t-44 21.5q-28 0 -44.5 -21t-16.5 -58v-9q0 -37 16.5 -58t44.5 -21zM171 583q-46 0 -74.5 31.5t-28.5 82.5v9q0 51 28.5 82.5t74.5 31.5t74.5 -31.5t28.5 -82.5v-9q0 -51 -28.5 -82.5t-74.5 -31.5z" />
<glyph horiz-adv-x="404" d="M78 420l17 113h-68v36h73l14 92h-74v36h79l17 113h40l-17 -113h110l17 113h40l-17 -113h68v-36h-73l-14 -92h74v-36h-79l-17 -113h-40l17 113h-110l-17 -113h-40zM140 569h110l14 92h-110z" />
<glyph d="M203 -70v60q-36 1 -74 10.5t-65 25.5l13 38q69 -33 126 -34v154l-16 4q-65 16 -90 40t-25 67q0 46 35.5 73.5t96.5 30.5v61h38v-61q63 -5 114 -30l-13 -37q-53 24 -101 27v-141l8 -2q68 -17 95.5 -42.5t27.5 -71.5q0 -47 -34.5 -75.5t-97.5 -34.5v-62h-38zM328 100 q0 31 -18.5 46.5t-68.5 28.5v-144q41 5 64 23t23 46zM117 297q0 -29 18 -43.5t69 -26.5v132q-41 -2 -64 -18.5t-23 -43.5z" />
<glyph d="M216 -70v61q-59 6 -95 47.5t-36 103.5t36 103t95 47v61h38v-61q49 -5 87 -28l-15 -35q-39 20 -72 23v-222q47 5 77 24l15 -33q-35 -25 -92 -30v-61h-38zM130 142q0 -45 23 -74.5t63 -36.5v220q-41 -6 -63.5 -34.5t-22.5 -74.5z" />
<glyph horiz-adv-x="633" d="M169 0l247 390h48l-247 -390h-48zM462 25q28 0 44.5 21t16.5 58v9q0 37 -16.5 58t-44.5 21q-27 0 -44 -21.5t-17 -57.5v-9q0 -36 17 -57.5t44 -21.5zM462 -10q-46 0 -74.5 31.5t-28.5 82.5v9q0 51 28.5 82.5t74.5 31.5t74.5 -31.5t28.5 -82.5v-9q0 -51 -28.5 -82.5 t-74.5 -31.5zM171 198q27 0 44 21.5t17 57.5v9q0 36 -17 57.5t-44 21.5q-28 0 -44.5 -21t-16.5 -58v-9q0 -37 16.5 -58t44.5 -21zM171 163q-46 0 -74.5 31.5t-28.5 82.5v9q0 51 28.5 82.5t74.5 31.5t74.5 -31.5t28.5 -82.5v-9q0 -51 -28.5 -82.5t-74.5 -31.5z" />
<glyph horiz-adv-x="404" d="M78 0l17 113h-68v36h73l14 92h-74v36h79l17 113h40l-17 -113h110l17 113h40l-17 -113h68v-36h-73l-14 -92h74v-36h-79l-17 -113h-40l17 113h-110l-17 -113h-40zM140 149h110l14 92h-110z" />
<glyph d="M203 230v60q-36 1 -74 10.5t-65 25.5l13 38q69 -33 126 -34v154l-16 4q-65 16 -90 40t-25 67q0 46 35.5 73.5t96.5 30.5v61h38v-61q63 -5 114 -30l-13 -37q-53 24 -101 27v-141l8 -2q68 -17 95.5 -42.5t27.5 -71.5q0 -47 -34.5 -75.5t-97.5 -34.5v-62h-38zM328 400 q0 31 -18.5 46.5t-68.5 28.5v-144q41 5 64 23t23 46zM117 597q0 -29 18 -43.5t69 -26.5v132q-41 -2 -64 -18.5t-23 -43.5z" />
<glyph d="M216 230v61q-59 6 -95 47.5t-36 103.5t36 103t95 47v61h38v-61q49 -5 87 -28l-15 -35q-39 20 -72 23v-222q47 5 77 24l15 -33q-35 -25 -92 -30v-61h-38zM130 442q0 -45 23 -74.5t63 -36.5v220q-41 -6 -63.5 -34.5t-22.5 -74.5z" />
<glyph horiz-adv-x="633" d="M169 300l247 390h48l-247 -390h-48zM462 325q28 0 44.5 21t16.5 58v9q0 37 -16.5 58t-44.5 21q-27 0 -44 -21.5t-17 -57.5v-9q0 -36 17 -57.5t44 -21.5zM462 290q-46 0 -74.5 31.5t-28.5 82.5v9q0 51 28.5 82.5t74.5 31.5t74.5 -31.5t28.5 -82.5v-9q0 -51 -28.5 -82.5 t-74.5 -31.5zM171 498q27 0 44 21.5t17 57.5v9q0 36 -17 57.5t-44 21.5q-28 0 -44.5 -21t-16.5 -58v-9q0 -37 16.5 -58t44.5 -21zM171 463q-46 0 -74.5 31.5t-28.5 82.5v9q0 51 28.5 82.5t74.5 31.5t74.5 -31.5t28.5 -82.5v-9q0 -51 -28.5 -82.5t-74.5 -31.5z" />
<glyph horiz-adv-x="404" d="M78 300l17 113h-68v36h73l14 92h-74v36h79l17 113h40l-17 -113h110l17 113h40l-17 -113h68v-36h-73l-14 -92h74v-36h-79l-17 -113h-40l17 113h-110l-17 -113h-40zM140 449h110l14 92h-110z" />
<glyph horiz-adv-x="176" d="M128 370q0 -16 -11 -27t-29 -11t-29 11t-11 27t11 27t29 11t29 -11t11 -27z" />
<glyph horiz-adv-x="176" d="M128 390q0 -16 -11 -27t-29 -11t-29 11t-11 27t11 27t29 11t29 -11t11 -27z" />
<glyph horiz-adv-x="654" d="M84 700h52v-700h-52v700zM393 -10q-76 0 -137 35l17 45q55 -31 116 -31q69 0 101 41t32 130v490h52v-496q0 -214 -181 -214zM76 770l96 109h76l-114 -109h-58zM514 770l96 109h76l-114 -109h-58z" />
<glyph horiz-adv-x="434" d="M80 516h50v-516h-50v516zM354 516v-581q0 -78 -31 -119.5t-88 -41.5q-41 0 -73 17l11 39q28 -11 55 -11q76 0 76 114v583h50zM73 611l96 139h68l-110 -139h-54zM297 611l96 139h68l-110 -139h-54z" />
<glyph horiz-adv-x="335" d="M113 0v474h-99v42h99v55q0 89 42 139t118 50q43 0 77 -16l-11 -40q-35 11 -64 11q-53 0 -82.5 -37t-29.5 -105v-57h167v-42h-167v-474h-50z" />
<glyph horiz-adv-x="335" d="M163 516h285v-42h-285v-474h-50v474h-99v42h99v55q0 89 42 139t118 50q43 0 77 -16l-11 -40q-35 11 -64 11q-53 0 -82.5 -37t-29.5 -105v-57z" />
<glyph horiz-adv-x="0" d="M-85 -163q38 -19 76 -19q56 0 56 43q0 20 -20.5 31t-57.5 11h-34l39 99h52l-26 -60q95 -8 95 -81q0 -38 -28 -61.5t-73 -23.5q-56 0 -93 23z" />
<glyph horiz-adv-x="0" d="M-46 -218q34 42 40 76q-32 5 -32 36q0 15 10.5 25t27.5 10q18 0 30 -13t12 -34q0 -27 -17 -60t-46 -62z" />
<glyph horiz-adv-x="0" d="M-34 760l96 109h76l-114 -109h-58z" />
<glyph horiz-adv-x="0" d="M-24 760l-114 109h76l96 -109h-58z" />
<glyph horiz-adv-x="0" d="M-148 760l117 109h62l117 -109h-60l-88 70l-88 -70h-60z" />
<glyph horiz-adv-x="0" d="M155 866q-4 -50 -27.5 -80.5t-59.5 -30.5q-21 0 -39 9t-45 32q-19 16 -30.5 22.5t-22.5 6.5q-18 0 -27.5 -16t-13.5 -49h-45q4 50 27.5 80.5t59.5 30.5q21 0 39 -9t45 -32q19 -16 30.5 -22.5t22.5 -6.5q18 0 27.5 16t13.5 49h45z" />
<glyph horiz-adv-x="0" d="M148 869l-117 -109h-62l-117 109h60l88 -70l88 70h60z" />
<glyph horiz-adv-x="0" d="M-122 814q0 17 11.5 28t28.5 11t28.5 -11t11.5 -28t-11.5 -28t-28.5 -11t-28.5 11t-11.5 28zM42 814q0 17 11.5 28t28.5 11t28.5 -11t11.5 -28t-11.5 -28t-28.5 -11t-28.5 11t-11.5 28z" />
<glyph horiz-adv-x="0" d="M0 755q-55 0 -90.5 31.5t-38.5 81.5h44q8 -34 30 -51.5t55 -17.5t55 17.5t30 51.5h44q-3 -50 -38.5 -81.5t-90.5 -31.5z" />
<glyph horiz-adv-x="0" d="M0 785q24 0 40.5 17.5t16.5 42.5t-16.5 42.5t-40.5 17.5t-40.5 -17.5t-16.5 -42.5t16.5 -42.5t40.5 -17.5zM0 746q-45 0 -73 27.5t-28 71.5t28 71.5t73 27.5t73 -27.5t28 -71.5t-28 -71.5t-73 -27.5z" />
<glyph horiz-adv-x="638" d="M432 -10q-21 0 -39 6q-50 15 -74 15t-74 -15q-18 -6 -39 -6q-66 0 -85 76q-19 77 -19 94q0 19 8 39q3 9 3 23q0 21 -5 48.5t-12.5 56.5t-14.5 54t-11 42q-10 40 -10 55q0 43 40 75q7 6 10 9.5t5.5 8t5.5 13.5q21 60 72 93t126 33t126 -33t72 -93q3 -8 5 -12.5t5 -8 t11 -10.5q40 -32 40 -75q0 -15 -10 -55q-4 -17 -11 -42t-14.5 -54t-12.5 -56.5t-5 -48.5q0 -14 3 -23q8 -20 8 -39q0 -17 -19 -94q-19 -76 -85 -76zM213 238q5 0 14 7.5t14 16.5q7 12 15.5 35.5t8.5 28.5t-5 5q-1 0 -2.5 -0.5t-3.5 -2.5q-4 -4 -10 -7t-10 -3q-3 0 -5.5 1.5 t-2.5 2.5q0 4 8 10q10 7 10 11q0 5 -7 5q-3 0 -9 -7q-5 -5 -12 -5q-11 0 -16 8q-3 6 -7 6q-7 0 -7 -5q0 -2 0.5 -4t0.5 -4q0 -8 -7 -8q-4 0 -9 4q-3 2 -11 2q-3 0 -5.5 2t-2.5 5q0 7 13 14q4 3 27 8q4 1 4 7t-7 6q-19 0 -32 -5q-13 -4 -18 -11t-5 -18q0 -18 10 -41t27 -40 q12 -13 22 -18.5t20 -5.5zM318 53q22 0 41 8t27 21q12 17 12 37v19q0 13 2 25q1 4 1.5 7.5t0.5 5.5q0 4 -5 4t-24.5 -3.5t-54.5 -3.5q-34 0 -53 3.5t-24 3.5q-7 0 -7 -4q0 -2 2 -9.5t4 -11.5q3 -5 18 -7q25 -2 44 -2q23 0 35 1t18 1q16 0 16 -12q0 -11 -14 -13 q-25 -3 -53 -3q-17 0 -29.5 1t-21.5 1q-13 0 -13 -10q0 -13 12 -30q9 -13 27 -21t39 -8zM449 204q15 0 25 37q9 35 20 49q8 9 15 21t7 18q0 8 -4 8q-1 0 -5 -1.5t-8 -3.5t-5 -2q-7 0 -7 9q0 8 6 29.5t15 45.5q13 33 13 48q0 11 -8 25q-10 15 -15 15t-13 -8q-17 -17 -42 -17 q-29 0 -45 28q-7 12 -7 19q0 6 5 6q3 0 10 -5t11 -5q6 0 11 8q5 10 5 26q0 17 -6.5 29.5t-14.5 12.5q-3 0 -17 -4t-34.5 -8.5t-42.5 -4.5q-11 0 -32 3t-28 5q-15 5 -22 7t-10 2q-7 0 -18 -7q-12 -7 -28.5 -20.5t-25.5 -24.5q-29 -31 -29 -49q1 -10 4.5 -20t4.5 -25 q0 -12 -1.5 -20t-1.5 -15q0 -8 2.5 -10t13.5 -2q17 0 36.5 3t36 6t22.5 3q12 0 20.5 -4t18.5 -14q13 -13 13 -32q0 -6 -1 -17t-2 -20l-8 -79q2 -32 35 -32q17 0 26.5 8.5t9.5 23.5q0 4 -0.5 7.5t-0.5 6.5q0 11 8 11q5 0 20 -15l37 -38q16 -17 31 -17zM345 373q-4 0 -6.5 2.5 t-2.5 5.5q0 5 6 8q12 7 44.5 21t42.5 17q9 3 13 3q9 0 18 -8q7 -6 14.5 -15t7.5 -12q0 -5 -3 -9t-7 -4q-5 0 -9 2.5t-11 7.5t-16 5q-12 0 -47 -11q-7 -2 -16 -5t-17 -5.5t-11 -2.5zM431 338q-12 1 -24 4.5t-21 3.5q-11 0 -16.5 -0.5t-12.5 -0.5q-9 0 -9 5q0 7 6 8 q9 3 37.5 6t37.5 3q6 0 8.5 -1.5t4.5 -6.5q3 -6 10 -6q3 0 5.5 1t6.5 1q5 0 5 -5q0 -4 -13.5 -8t-24.5 -4z" />
</font>
</defs>
</svg>
