<?xml version="1.0" standalone="no"?>
<!DOCTYPE svg PUBLIC "-//W3C//DTD SVG 1.1//EN" "http://www.w3.org/Graphics/SVG/1.1/DTD/svg11.dtd" >
<svg xmlns="http://www.w3.org/2000/svg">
<metadata></metadata>
<defs>
<font id="att_aleck_sanslight_italic" horiz-adv-x="438" >
<font-face units-per-em="1000" ascent="750" descent="-250" />
<missing-glyph horiz-adv-x="230" />
<glyph unicode="fb" horiz-adv-x="884" d="M66 516h95l13 57q19 89 67 138t116 49q19 0 38 -4.5t29 -10.5l-16 -40q-22 10 -52 10q-101 0 -133 -147l-12 -52h155l-9 -42h-154l-128 -599h-50l128 599h-96zM566 750l-64 -298q80 74 171 74q79 0 124.5 -55t45.5 -152q0 -93 -40 -169t-104.5 -118t-141.5 -42 q-41 0 -78 15.5t-65 44.5l-16 -50h-42l160 750h50zM661 481q-90 0 -170 -83l-65 -305q24 -27 60 -42.5t74 -15.5q67 0 120 39t82.5 102.5t29.5 137.5q0 82 -33.5 124.5t-97.5 42.5z" />
<glyph unicode="fj" horiz-adv-x="543" d="M66 516h95l13 57q19 89 67 138t116 49q19 0 38 -4.5t29 -10.5l-16 -40q-22 10 -52 10q-100 0 -133 -147l-12 -52h274l-9 -42h-273l-128 -599h-50l128 599h-96zM516 516l-125 -586q-17 -80 -51.5 -118t-92.5 -38q-18 0 -37 5t-30 12l16 41q25 -13 53 -13q35 0 57.5 28 t35.5 87l124 582h50zM482 677q0 18 13 29t32 11q14 0 23 -9t9 -22q0 -18 -13 -29t-32 -11q-14 0 -23 9t-9 22z" />
<glyph unicode="fk" horiz-adv-x="834" d="M66 516h95l13 57q19 89 67 138t116 49q19 0 38 -4.5t29 -10.5l-16 -40q-22 10 -52 10q-101 0 -133 -147l-12 -52h155l-9 -42h-154l-128 -599h-50l128 599h-96zM516 750h50l-101 -475l326 241h72l-278 -207l179 -309h-56l-163 282l-94 -70l-45 -212h-50z" />
<glyph unicode="ft" horiz-adv-x="690" d="M66 516h95l13 57q19 89 67 138t116 49q19 0 38 -4.5t29 -10.5l-16 -40q-22 10 -52 10q-100 0 -133 -147l-12 -52h274l-9 -42h-273l-128 -599h-50l128 599h-96zM492 -10q-55 0 -83.5 29t-28.5 85q0 31 8 69l64 301h-93l9 42h93l43 151h39l-32 -151h179l-9 -42h-179 l-63 -296q-8 -38 -8 -64q0 -79 73 -79q24 0 52 11.5t53 31.5l13 -40q-27 -22 -62 -35t-68 -13z" />
<glyph unicode="fh" horiz-adv-x="885" d="M66 516h95l13 57q19 89 67 138t116 49q19 0 38 -4.5t29 -10.5l-16 -40q-22 10 -52 10q-101 0 -133 -147l-12 -52h155l-9 -42h-154l-128 -599h-50l128 599h-96zM501 446q91 80 194 80q66 0 101 -33.5t35 -97.5q0 -20 -3.5 -42.5t-12.5 -66.5l-61 -286h-50l62 291 q13 62 13 95q0 48 -24.5 70.5t-78.5 22.5q-45 0 -93 -22t-93 -63l-84 -394h-50l160 750h50z" />
<glyph unicode="ff" horiz-adv-x="622" d="M66 516h95l13 57q19 89 67 138t116 49q19 0 38 -4.5t29 -10.5l-16 -40q-22 10 -52 10q-100 0 -133 -147l-12 -52h274l-9 -42h-273l-128 -599h-50l128 599h-96zM370 516h95l13 57q19 91 69 139t124 48q18 0 37 -5t30 -12l-16 -40q-25 12 -53 12q-56 0 -90.5 -36.5 t-51.5 -110.5l-12 -52h155l-9 -42h-154l-128 -599h-50l128 599h-96z" />
<glyph unicode="fi" horiz-adv-x="543" d="M66 516h95l13 57q19 89 67 138t116 49q19 0 38 -4.5t29 -10.5l-16 -40q-22 10 -52 10q-100 0 -133 -147l-12 -52h274l-9 -42h-273l-128 -599h-50l128 599h-96zM466 516h50l-110 -516h-50zM482 677q0 18 13 29t32 11q14 0 23 -9t9 -22q0 -18 -13 -29t-32 -11q-14 0 -23 9 t-9 22z" />
<glyph unicode="fl" horiz-adv-x="543" d="M66 516h95l13 57q19 89 67 138t116 49q19 0 38 -4.5t29 -10.5l-16 -40q-22 10 -52 10q-101 0 -133 -147l-12 -52h155l-9 -42h-154l-128 -599h-50l128 599h-96zM516 750h50l-160 -750h-50z" />
<glyph unicode="ffi" horiz-adv-x="847" d="M66 516h95l13 57q19 89 67 138t116 49q19 0 38 -4.5t29 -10.5l-16 -40q-22 10 -52 10q-100 0 -133 -147l-12 -52h274l-9 -42h-273l-128 -599h-50l128 599h-96zM370 516h95l13 57q19 89 67 138t116 49q19 0 38 -4.5t29 -10.5l-16 -40q-22 10 -52 10q-100 0 -133 -147 l-12 -52h274l-9 -42h-273l-128 -599h-50l128 599h-96zM770 516h50l-110 -516h-50zM786 677q0 18 13 29t32 11q14 0 23 -9t9 -22q0 -18 -13 -29t-32 -11q-14 0 -23 9t-9 22z" />
<glyph unicode="ffl" horiz-adv-x="847" d="M66 516h95l13 57q19 89 67 138t116 49q19 0 38 -4.5t29 -10.5l-16 -40q-22 10 -52 10q-100 0 -133 -147l-12 -52h274l-9 -42h-273l-128 -599h-50l128 599h-96zM370 516h95l13 57q19 89 67 138t116 49q19 0 38 -4.5t29 -10.5l-16 -40q-22 10 -52 10q-101 0 -133 -147 l-12 -52h155l-9 -42h-154l-128 -599h-50l128 599h-96zM820 750h50l-160 -750h-50z" />
<glyph unicode="ffb" horiz-adv-x="1188" d="M66 516h95l13 57q19 89 67 138t116 49q19 0 38 -4.5t29 -10.5l-16 -40q-22 10 -52 10q-100 0 -133 -147l-12 -52h274l-9 -42h-273l-128 -599h-50l128 599h-96zM370 516h95l13 57q19 89 67 138t116 49q19 0 38 -4.5t29 -10.5l-16 -40q-22 10 -52 10q-101 0 -133 -147 l-12 -52h155l-9 -42h-154l-128 -599h-50l128 599h-96zM870 750l-64 -298q80 74 171 74q79 0 124.5 -55t45.5 -152q0 -93 -40 -169t-104.5 -118t-141.5 -42q-41 0 -78 15.5t-65 44.5l-16 -50h-42l160 750h50zM965 481q-90 0 -170 -83l-65 -305q24 -27 60 -42.5t74 -15.5 q67 0 120 39t82.5 102.5t29.5 137.5q0 82 -33.5 124.5t-97.5 42.5z" />
<glyph unicode="ffh" horiz-adv-x="1189" d="M66 516h95l13 57q19 89 67 138t116 49q19 0 38 -4.5t29 -10.5l-16 -40q-22 10 -52 10q-100 0 -133 -147l-12 -52h274l-9 -42h-273l-128 -599h-50l128 599h-96zM370 516h95l13 57q19 89 67 138t116 49q19 0 38 -4.5t29 -10.5l-16 -40q-22 10 -52 10q-101 0 -133 -147 l-12 -52h155l-9 -42h-154l-128 -599h-50l128 599h-96zM805 446q91 80 194 80q66 0 101 -33.5t35 -97.5q0 -20 -3.5 -42.5t-12.5 -66.5l-61 -286h-50l62 291q13 62 13 95q0 48 -24.5 70.5t-78.5 22.5q-45 0 -93 -22t-93 -63l-84 -394h-50l160 750h50z" />
<glyph unicode="ffj" horiz-adv-x="846" d="M66 516h95l13 57q19 89 67 138t116 49q19 0 38 -4.5t29 -10.5l-16 -40q-22 10 -52 10q-100 0 -133 -147l-12 -52h274l-9 -42h-273l-128 -599h-50l128 599h-96zM370 516h95l13 57q19 89 67 138t116 49q19 0 38 -4.5t29 -10.5l-16 -40q-22 10 -52 10q-100 0 -133 -147 l-12 -52h274l-9 -42h-273l-128 -599h-50l128 599h-96zM819 516l-125 -586q-17 -80 -51.5 -118t-92.5 -38q-18 0 -37 5t-30 12l16 41q25 -13 53 -13q35 0 57.5 28t35.5 87l124 582h50zM785 677q0 18 13 29t32 11q14 0 23 -9t9 -22q0 -18 -13 -29t-32 -11q-14 0 -23 9t-9 22z " />
<glyph unicode="ffk" horiz-adv-x="1138" d="M66 516h95l13 57q19 89 67 138t116 49q19 0 38 -4.5t29 -10.5l-16 -40q-22 10 -52 10q-100 0 -133 -147l-12 -52h274l-9 -42h-273l-128 -599h-50l128 599h-96zM370 516h95l13 57q19 89 67 138t116 49q19 0 38 -4.5t29 -10.5l-16 -40q-22 10 -52 10q-101 0 -133 -147 l-12 -52h155l-9 -42h-154l-128 -599h-50l128 599h-96zM820 750h50l-101 -475l326 241h72l-278 -207l179 -309h-56l-163 282l-94 -70l-45 -212h-50z" />
<glyph unicode="fft" horiz-adv-x="993" d="M66 516h95l13 57q19 89 67 138t116 49q19 0 38 -4.5t29 -10.5l-16 -40q-22 10 -52 10q-100 0 -133 -147l-12 -52h274l-9 -42h-273l-128 -599h-50l128 599h-96zM370 516h95l13 57q19 89 67 138t116 49q19 0 38 -4.5t29 -10.5l-16 -40q-22 10 -52 10q-100 0 -133 -147 l-12 -52h274l-9 -42h-273l-128 -599h-50l128 599h-96zM795 -10q-55 0 -83.5 29t-28.5 85q0 31 8 69l64 301h-93l9 42h93l43 151h39l-32 -151h179l-9 -42h-179l-63 -296q-8 -38 -8 -64q0 -79 73 -79q24 0 52 11.5t53 31.5l13 -40q-27 -22 -62 -35t-68 -13z" />
<glyph unicode=" "  horiz-adv-x="230" />
<glyph unicode="&#x09;" horiz-adv-x="230" />
<glyph unicode="&#xa0;" horiz-adv-x="230" />
<glyph unicode="!" horiz-adv-x="229" d="M180 700h54l-114 -506h-41zM110 34q0 -18 -13.5 -31t-32.5 -13q-16 0 -26 9.5t-10 25.5q0 19 13.5 32t32.5 13q16 0 26 -9.5t10 -26.5z" />
<glyph unicode="&#x22;" horiz-adv-x="292" d="M128 700h54l-58 -245h-42zM288 700h54l-58 -245h-42z" />
<glyph unicode="#" horiz-adv-x="600" d="M114 479h111l72 211h46l-72 -211h187l72 211h46l-72 -211h101l-9 -42h-107l-63 -184h105l-9 -42h-111l-72 -211h-46l72 211h-187l-72 -211h-46l72 211h-101l9 42h107l63 184h-105zM193 253h187l63 184h-187z" />
<glyph unicode="$" horiz-adv-x="600" d="M197 -113l22 104q-52 4 -104 23t-88 46l20 39q39 -27 85.5 -43.5t95.5 -20.5l66 306l-21 10q-50 24 -79 46.5t-42.5 50.5t-13.5 64q0 56 30 99t81 66t113 23h9l20 91h43l-20 -95q83 -11 149 -52l-16 -41q-66 38 -143 49l-60 -283q90 -44 123.5 -81.5t33.5 -98.5 q0 -56 -30.5 -100.5t-84.5 -70t-124 -28.5l-22 -103h-43zM451 185q0 32 -9.5 53t-33.5 40t-75 44l-61 -287q82 5 130.5 46t48.5 104zM187 513q0 -26 9 -46t32.5 -37.5t76.5 -42.5l57 268q-82 -1 -128.5 -39t-46.5 -103z" />
<glyph unicode="%" horiz-adv-x="913" d="M189 0l519 690h54l-519 -690h-54zM655 33q45 0 81 40t50 106q8 40 8 75q0 48 -22.5 75.5t-62.5 27.5q-45 0 -81 -40t-50 -106q-8 -40 -8 -75q0 -48 22.5 -75.5t62.5 -27.5zM651 -10q-59 0 -93.5 39.5t-34.5 106.5q0 36 9 78q19 86 67.5 136t113.5 50q59 0 93.5 -39.5 t34.5 -106.5q0 -36 -9 -78q-19 -86 -67.5 -136t-113.5 -50zM242 333q45 0 81 40t50 106q8 40 8 75q0 48 -22.5 75.5t-62.5 27.5q-45 0 -81 -40t-50 -106q-8 -40 -8 -75q0 -48 22.5 -75.5t62.5 -27.5zM238 290q-59 0 -93.5 39.5t-34.5 106.5q0 36 9 78q19 86 67.5 136 t113.5 50q59 0 93.5 -39.5t34.5 -106.5q0 -36 -9 -78q-19 -86 -67.5 -136t-113.5 -50z" />
<glyph unicode="&#x26;" horiz-adv-x="665" d="M200 -10q-74 0 -119 42t-45 110q0 71 51 130t158 111q-37 51 -52.5 88.5t-15.5 76.5q0 71 54 116.5t139 45.5q69 0 111.5 -36t42.5 -94q0 -56 -49 -106.5t-158 -105.5l133 -173q28 36 74 104l51 76h56l-66 -98q-41 -61 -86 -118l121 -159h-60l-93 122 q-62 -69 -120.5 -100.5t-126.5 -31.5zM205 35q106 0 213 124l-147 191q-100 -52 -142 -99.5t-42 -108.5q0 -49 32.5 -78t85.5 -29zM228 548q0 -31 14.5 -64t47.5 -81q70 35 109 62t56.5 54t17.5 61q0 38 -29 61.5t-77 23.5q-65 0 -102 -31t-37 -86z" />
<glyph unicode="'" horiz-adv-x="132" d="M128 700h54l-58 -245h-42z" />
<glyph unicode="(" horiz-adv-x="304" d="M139 -164q-29 59 -47 146.5t-18 167.5q0 160 65.5 311t184.5 269h59q-126 -125 -191.5 -271.5t-65.5 -305.5q0 -82 18.5 -171t48.5 -146h-54z" />
<glyph unicode=")" horiz-adv-x="304" d="M165 730q29 -59 47 -146.5t18 -167.5q0 -160 -65.5 -311t-184.5 -269h-59q126 125 191.5 271.5t65.5 305.5q0 82 -18.5 171t-48.5 146h54z" />
<glyph unicode="*" horiz-adv-x="385" d="M89 400l115 118l-129 38l21 42l124 -52l18 150h48l-33 -150l138 54l10 -45l-141 -39l83 -125l-41 -25l-72 135l-104 -130z" />
<glyph unicode="+" horiz-adv-x="600" d="M244 111l45 210h-192l10 46h191l45 210h48l-45 -210h192l-10 -46h-191l-45 -210h-48z" />
<glyph unicode="," horiz-adv-x="163" d="M-57 -107q34 23 55 46.5t33 52.5q-14 1 -22 10t-8 24q0 18 13 31t32 13q17 0 27 -10.5t10 -28.5q0 -43 -34 -87.5t-91 -75.5z" />
<glyph unicode="-" horiz-adv-x="368" d="M46 295h292l-9 -44h-292z" />
<glyph unicode="." horiz-adv-x="163" d="M1 25q0 19 13.5 32t32.5 13q16 0 26 -9.5t10 -26.5q0 -18 -13.5 -31t-32.5 -13q-16 0 -26 9.5t-10 25.5z" />
<glyph unicode="/" horiz-adv-x="432" d="M469 730h56l-562 -893h-56z" />
<glyph unicode="0" horiz-adv-x="545" d="M231 36q74 0 128.5 70.5t86.5 209.5q21 95 21 174q0 81 -33 122.5t-96 41.5q-74 0 -128.5 -70.5t-86.5 -209.5q-21 -95 -21 -174q0 -81 33 -122.5t96 -41.5zM226 -10q-84 0 -129.5 55t-45.5 154q0 85 21 179q34 156 103.5 239t167.5 83q84 0 129.5 -55t45.5 -154 q0 -85 -21 -179q-34 -156 -103.5 -239t-167.5 -83z" />
<glyph unicode="1" horiz-adv-x="379" d="M72 530l233 160h49l-147 -690h-51l133 627l-196 -134z" />
<glyph unicode="2" horiz-adv-x="507" d="M7 0l11 52q15 73 41.5 125.5t71 92.5t118.5 77l20 10q99 49 138 89t39 93q0 55 -33 85t-92 30q-88 0 -178 -69l-20 34q44 39 96.5 60t106.5 21q78 0 125.5 -42.5t47.5 -112.5q0 -67 -48 -120t-160 -109l-20 -10q-64 -32 -101 -64t-61 -77.5t-40 -117.5h334l-10 -47h-386z " />
<glyph unicode="3" horiz-adv-x="481" d="M167 -10q-48 0 -93.5 13t-82.5 36l18 42q34 -21 77 -33t85 -12q83 0 133 47t50 127q0 57 -32.5 93t-89.5 36h-101l9 45h95q46 0 83.5 20.5t58 55t20.5 76.5q0 57 -34 87.5t-98 30.5q-38 0 -79.5 -13t-77.5 -37l-18 35q37 28 87 44.5t99 16.5q79 0 126 -42.5t47 -117.5 q0 -62 -37 -111t-98 -68q44 -19 68 -57t24 -88q0 -67 -31.5 -118.5t-85.5 -79.5t-122 -28z" />
<glyph unicode="4" horiz-adv-x="560" d="M328 0l38 178h-347l9 44l448 468h49l-100 -467h96l-9 -45h-96l-38 -178h-50zM375 223l82 385l-367 -385h285z" />
<glyph unicode="5" horiz-adv-x="493" d="M178 -10q-48 0 -95.5 15.5t-85.5 43.5l18 41q35 -25 79 -39.5t87 -14.5q90 0 145.5 53.5t55.5 139.5q0 62 -40.5 97t-113.5 35q-48 0 -139 -2l92 331h312l-10 -47h-270l-66 -238q60 2 86 2q94 0 147.5 -46.5t53.5 -126.5q0 -72 -34 -127.5t-92 -86t-130 -30.5z" />
<glyph unicode="6" horiz-adv-x="521" d="M378 700q76 0 148 -44l-18 -39q-40 21 -71 29t-63 8q-85 0 -147.5 -65.5t-96.5 -186.5q79 11 142 11q102 0 156 -48.5t54 -137.5q0 -70 -31 -124t-83.5 -83.5t-117.5 -29.5q-94 0 -144.5 59.5t-50.5 172.5q0 94 26.5 187t70.5 158.5t101 99t125 33.5zM257 369 q-50 0 -138 -11q-14 -69 -14 -137q0 -95 36.5 -140t113.5 -45q79 0 127 51t48 135q0 75 -42.5 111t-130.5 36z" />
<glyph unicode="7" horiz-adv-x="456" d="M69 0l9 42q22 104 67 189t145 214l154 198h-360l10 47h418l-10 -46l-174 -226q-63 -82 -98.5 -138t-57.5 -110t-38 -132l-8 -38h-57z" />
<glyph unicode="8" horiz-adv-x="549" d="M37 159q0 75 50 133.5t128 78.5q-45 24 -68 61t-23 82q0 40 18.5 75t50 60t71 38t82.5 13q53 0 97.5 -21.5t68 -57t23.5 -81.5q0 -62 -39.5 -113t-105.5 -75q45 -24 69.5 -63t24.5 -88q0 -61 -33.5 -109.5t-89 -75t-120.5 -26.5q-58 0 -105.5 22t-73 60t-25.5 87zM89 165 q0 -58 44 -94t113 -36q54 0 97 22t66 59.5t23 83.5t-33.5 82.5t-93.5 55.5l-42 13q-50 -10 -90.5 -38t-62 -66t-21.5 -82zM175 515q0 -45 29 -77t85 -50l53 -17q63 16 102.5 60.5t39.5 102.5q0 54 -40 87.5t-100 33.5q-49 0 -88 -19t-60 -50.5t-21 -70.5z" />
<glyph unicode="9" horiz-adv-x="522" d="M187 -10q-94 0 -165 50l19 40q37 -23 73 -33.5t77 -10.5q85 0 145.5 65.5t90.5 186.5q-80 -11 -144 -11q-101 0 -155.5 46.5t-54.5 133.5q0 68 33 124.5t85.5 87.5t113.5 31q94 0 144.5 -59.5t50.5 -172.5q0 -96 -25 -189t-67 -158t-98 -98t-123 -33zM298 321 q64 0 139 11q13 71 13 137q0 95 -36.5 140t-113.5 45q-50 0 -90.5 -26.5t-62.5 -70t-22 -95.5q0 -72 42 -106.5t131 -34.5z" />
<glyph unicode=":" horiz-adv-x="163" d="M1 25q0 19 13.5 32t32.5 13q16 0 26 -9.5t10 -26.5q0 -18 -13.5 -31t-32.5 -13q-16 0 -26 9.5t-10 25.5zM96 471q0 19 13.5 32t32.5 13q16 0 26 -9.5t10 -26.5q0 -18 -13.5 -31t-32.5 -13q-16 0 -26 9.5t-10 25.5z" />
<glyph unicode=";" horiz-adv-x="163" d="M-57 -107q34 23 55 46.5t33 52.5q-14 1 -22 10t-8 24q0 18 13 31t32 13q17 0 27 -10.5t10 -28.5q0 -43 -34 -87.5t-91 -75.5zM106 471q0 19 13.5 32t32.5 13q16 0 26 -9.5t10 -26.5q0 -18 -13.5 -31t-32.5 -13q-16 0 -26 9.5t-10 25.5z" />
<glyph unicode="&#x3c;" horiz-adv-x="600" d="M549 489l-388 -146l327 -149l-10 -46l-372 177l9 43l445 175z" />
<glyph unicode="=" horiz-adv-x="600" d="M73 211l10 46h428l-10 -46h-428zM120 432l10 46h428l-10 -46h-428z" />
<glyph unicode="&#x3e;" horiz-adv-x="600" d="M102 204l388 146l-327 149l10 46l372 -177l-9 -43l-445 -175z" />
<glyph unicode="?" horiz-adv-x="420" d="M126 194l8 38q12 56 38.5 93.5t82.5 77.5l18 13q59 42 85.5 78t26.5 75q0 44 -30.5 69.5t-83.5 25.5q-89 0 -178 -74l-22 34q45 41 97.5 63t106.5 22q76 0 119 -36.5t43 -100.5q0 -49 -31.5 -93t-99.5 -92l-18 -13q-53 -38 -75 -67.5t-32 -74.5l-8 -38h-47zM170 34 q0 -18 -13.5 -31t-32.5 -13q-16 0 -26 9.5t-10 25.5q0 19 13.5 32t32.5 13q16 0 26 -9.5t10 -26.5z" />
<glyph unicode="@" horiz-adv-x="988" d="M694 -25q-53 0 -83 27t-31 75q-33 -32 -75.5 -50.5t-84.5 -18.5q-63 0 -99 42t-36 113q0 76 35 140.5t92 99.5t126 35q35 0 67.5 -12.5t54.5 -34.5l14 38h42l-80 -290q-8 -26 -8 -52q0 -34 16 -50.5t50 -16.5q54 0 97.5 36.5t67.5 97t24 133.5q0 100 -42.5 173.5 t-118 113t-174.5 39.5q-127 0 -229 -61.5t-158 -161.5t-56 -218q0 -110 45 -189.5t127 -121.5t193 -42q51 0 105 11t102 31l11 -42q-96 -45 -220 -45q-129 0 -222.5 49t-142.5 138.5t-49 209.5q0 141 68 252.5t180.5 173t246.5 61.5q117 0 204.5 -47.5t134 -131.5t46.5 -192 q0 -92 -32.5 -163t-87 -110t-120.5 -39zM430 52q36 0 78 21t77 58l61 220q-21 20 -51.5 31.5t-61.5 11.5q-56 0 -101.5 -31.5t-71 -82.5t-25.5 -111q0 -55 25 -86t70 -31z" />
<glyph unicode="A" horiz-adv-x="588" d="M474 0l-31 213h-310l-122 -213h-55l406 700h56l110 -700h-54zM160 260h276l-56 385z" />
<glyph unicode="B" horiz-adv-x="602" d="M581 537q0 -63 -43 -113.5t-111 -68.5q53 -13 83 -51.5t30 -94.5q0 -64 -32.5 -111.5t-90.5 -72.5t-136 -25h-251l149 700h196q102 0 154 -41.5t52 -121.5zM152 329l-60 -281h194q93 0 146.5 43t53.5 116q0 122 -161 122h-173zM220 652l-58 -275h155q96 0 153 43.5 t57 114.5q0 60 -38.5 88.5t-119.5 28.5h-149z" />
<glyph unicode="C" horiz-adv-x="603" d="M335 -10q-85 0 -146.5 36t-94 102t-32.5 153q0 122 53.5 221t140 153.5t186.5 54.5q45 0 90 -12t82 -34l-19 -43q-80 40 -157 40q-93 0 -167 -52t-114.5 -137.5t-40.5 -186.5q0 -116 58.5 -181t164.5 -65q47 0 93 15.5t84 44.5l18 -40q-36 -31 -90 -50t-109 -19z" />
<glyph unicode="D" horiz-adv-x="678" d="M179 700h137q165 0 248.5 -73t83.5 -218q0 -119 -56.5 -214t-153.5 -145t-225 -50h-183zM220 652l-128 -604h125q118 0 202 46.5t129.5 129t45.5 183.5q0 124 -70 184.5t-214 60.5h-90z" />
<glyph unicode="E" horiz-adv-x="524" d="M30 0l149 700h395l-10 -48h-344l-58 -274h292l-10 -48h-292l-60 -282h357l-10 -48h-409z" />
<glyph unicode="F" horiz-adv-x="505" d="M30 0l149 700h385l-10 -48h-334l-61 -289h281l-10 -48h-281l-67 -315h-52z" />
<glyph unicode="G" horiz-adv-x="659" d="M335 -10q-85 0 -146.5 36t-94 102t-32.5 153q0 122 53.5 221t140 153.5t186.5 54.5q109 0 187 -46l-19 -43q-43 22 -82.5 31t-89.5 9q-93 0 -167 -52t-114.5 -137.5t-40.5 -186.5q0 -116 58.5 -181t163.5 -65q100 0 171 38l52 241h-228l10 48h280l-68 -320 q-41 -27 -98 -41.5t-122 -14.5z" />
<glyph unicode="H" horiz-adv-x="672" d="M474 0l70 330h-392l-70 -330h-52l149 700h52l-69 -322h392l69 322h52l-149 -700h-52z" />
<glyph unicode="I" horiz-adv-x="228" d="M30 0l149 700h52l-149 -700h-52z" />
<glyph unicode="J" horiz-adv-x="412" d="M110 -10q-34 0 -69.5 12t-61.5 31l21 42q55 -36 112 -36q64 0 100 41.5t56 135.5l103 484h52l-105 -493q-24 -113 -73.5 -165t-134.5 -52z" />
<glyph unicode="K" horiz-adv-x="580" d="M285 382l-151 -135l-52 -247h-52l149 700h52l-81 -381l426 381h71l-321 -285l198 -415h-57z" />
<glyph unicode="L" horiz-adv-x="486" d="M30 0l149 700h52l-139 -652h338l-10 -48h-390z" />
<glyph unicode="M" horiz-adv-x="801" d="M603 0l126 590l-336 -467h-46l-139 472l-126 -595h-52l149 700h52l150 -516l371 516h52l-149 -700h-52z" />
<glyph unicode="N" horiz-adv-x="668" d="M30 0l149 700h51l259 -615l131 615h51l-149 -700h-51l-259 615l-131 -615h-51z" />
<glyph unicode="O" horiz-adv-x="723" d="M421 661q-85 0 -155.5 -53t-110 -138.5t-39.5 -184.5q0 -111 59.5 -178.5t158.5 -67.5q85 0 155.5 53t110 138.5t39.5 184.5q0 111 -59.5 178.5t-158.5 67.5zM425 710q81 0 142 -38t93.5 -104t32.5 -149q0 -121 -51.5 -220t-134 -154t-177.5 -55q-81 0 -142 38t-93.5 104 t-32.5 149q0 121 51.5 220t134 154t177.5 55z" />
<glyph unicode="P" horiz-adv-x="577" d="M140 273l-58 -273h-52l149 700h187q101 0 154 -47t53 -136q0 -71 -35 -127.5t-95.5 -86.5t-140.5 -30h-162zM150 321h159q66 0 113 24.5t72 68.5t25 99q0 139 -156 139h-142z" />
<glyph unicode="Q" horiz-adv-x="723" d="M425 710q81 0 142 -38t93.5 -104t32.5 -149q0 -120 -53.5 -223t-143.5 -158l52 -110l-44 -19l-50 107q-63 -26 -124 -26q-81 0 -142 38t-93.5 104t-32.5 149q0 121 51.5 220t134 154t177.5 55zM421 661q-85 0 -155.5 -53t-110 -138.5t-39.5 -184.5q0 -111 59.5 -178.5 t158.5 -67.5q52 0 100 21l-55 118l44 19l53 -115q75 49 119 138.5t44 194.5q0 111 -59.5 178.5t-158.5 67.5z" />
<glyph unicode="R" horiz-adv-x="592" d="M442 0l-128 284h-172l-60 -284h-52l149 700h179q106 0 160.5 -45t54.5 -132q0 -89 -55.5 -152.5t-150.5 -80.5l133 -290h-58zM519 519q0 133 -164 133h-134l-69 -320h154q100 0 156.5 51t56.5 136z" />
<glyph unicode="S" horiz-adv-x="569" d="M233 -10q-57 0 -116.5 20t-101.5 53l21 43q44 -32 95.5 -49.5t103.5 -17.5q61 0 105 19.5t68 54t24 75.5q0 48 -27.5 78.5t-115.5 71.5l-34 16q-73 34 -103 73t-30 94q0 56 30 99t82.5 66.5t118.5 23.5q52 0 104.5 -15.5t93.5 -43.5l-19 -43q-94 53 -180 53 q-80 0 -128 -38t-48 -100q0 -42 24 -69.5t82 -55.5l34 -16q98 -46 134 -88.5t36 -103.5q0 -58 -33.5 -104.5t-90 -71t-129.5 -24.5z" />
<glyph unicode="T" horiz-adv-x="547" d="M188 0l139 652h-235l10 48h518l-10 -48h-231l-139 -652h-52z" />
<glyph unicode="U" horiz-adv-x="642" d="M562 267q-30 -141 -98.5 -209t-181.5 -68q-99 0 -155 53t-56 143q0 52 18 139l80 375h52l-80 -376q-17 -78 -17 -135q0 -70 41.5 -110t118.5 -40q89 0 145.5 57.5t81.5 176.5l91 427h52z" />
<glyph unicode="V" horiz-adv-x="564" d="M150 700l82 -644l357 644h55l-394 -700h-56l-98 700h54z" />
<glyph unicode="W" horiz-adv-x="801" d="M134 0l-24 700h53l15 -625l270 565h53l25 -571l284 631h54l-321 -700h-61l-24 562l-268 -562h-56z" />
<glyph unicode="X" horiz-adv-x="564" d="M275 360l-143 340h56l124 -308l254 308h62l-295 -352l150 -348h-56l-131 316l-258 -316h-62z" />
<glyph unicode="Y" horiz-adv-x="537" d="M242 289l-146 411h55l126 -367l282 367h62l-327 -412l-61 -288h-52z" />
<glyph unicode="Z" horiz-adv-x="576" d="M-4 0l10 47l523 605h-389l10 48h454l-10 -47l-523 -605h413l-10 -48h-478z" />
<glyph unicode="[" horiz-adv-x="347" d="M10 -164l190 894h206l-10 -45h-156l-171 -804h172l-9 -45h-222z" />
<glyph unicode="\" horiz-adv-x="422" d="M335 -163h-48l-200 893h48z" />
<glyph unicode="]" horiz-adv-x="347" d="M358 730l-190 -894h-206l10 45h156l171 804h-172l9 45h222z" />
<glyph unicode="^" horiz-adv-x="600" d="M476 324l-93 321l-229 -321h-54l268 366h46l112 -366h-50z" />
<glyph unicode="_" horiz-adv-x="500" d="M-53 -90h500l-9 -42h-500z" />
<glyph unicode="`" horiz-adv-x="557" d="M351 611l-76 139h64l63 -139h-51z" />
<glyph unicode="a" horiz-adv-x="555" d="M376 0l8 68q-81 -78 -173 -78q-79 0 -124.5 55t-45.5 152q0 92 40.5 168.5t105.5 118.5t140 42q41 0 78 -16t64 -45l17 51h42l-110 -516h-42zM223 35q41 0 86.5 23.5t84.5 64.5l64 300q-25 27 -60.5 42.5t-73.5 15.5q-67 0 -120 -39t-82.5 -102.5t-29.5 -137.5 q0 -82 33.5 -124.5t97.5 -42.5z" />
<glyph unicode="b" horiz-adv-x="555" d="M237 750l-64 -298q80 74 171 74q79 0 124.5 -55t45.5 -152q0 -93 -40 -169t-104.5 -118t-141.5 -42q-41 0 -78 15.5t-65 44.5l-16 -50h-42l160 750h50zM332 481q-90 0 -170 -83l-65 -305q24 -27 60 -42.5t74 -15.5q67 0 120 39t82.5 102.5t29.5 137.5q0 82 -33.5 124.5 t-97.5 42.5z" />
<glyph unicode="c" horiz-adv-x="483" d="M238 -10q-96 0 -146.5 55t-50.5 160q0 89 43.5 163.5t111 116t142.5 41.5q76 0 132 -38l-20 -39q-50 32 -118 32q-66 0 -121.5 -40t-87 -102.5t-31.5 -132.5q0 -82 39.5 -126.5t112.5 -44.5q71 0 146 57l13 -40q-32 -29 -76 -45.5t-89 -16.5z" />
<glyph unicode="d" horiz-adv-x="555" d="M376 0l7 63q-81 -73 -172 -73q-79 0 -124.5 55t-45.5 152q0 92 40.5 168.5t105.5 118.5t140 42q40 0 76.5 -15.5t63.5 -43.5l61 283h50l-160 -750h-42zM223 35q44 0 87.5 21t82.5 61l65 306q-25 27 -60.5 42.5t-73.5 15.5q-67 0 -120 -39t-82.5 -102.5t-29.5 -137.5 q0 -82 33.5 -124.5t97.5 -42.5z" />
<glyph unicode="e" horiz-adv-x="514" d="M241 -10q-95 0 -147.5 56t-52.5 159q0 88 44 162.5t113 116.5t145 42q64 0 101.5 -33.5t37.5 -90.5q0 -83 -90.5 -132.5t-243.5 -49.5q-24 0 -55 3q-1 -10 -1 -17q0 -80 41.5 -125.5t113.5 -45.5q83 0 158 57l13 -40q-75 -62 -177 -62zM338 481q-58 0 -109 -29.5 t-85 -78.5t-46 -109q22 -2 44 -2q87 0 153 17.5t101 48t35 69.5t-25 61.5t-68 22.5z" />
<glyph unicode="f" horiz-adv-x="318" d="M66 516h95l13 57q19 91 69 139t124 48q18 0 37 -5t30 -12l-16 -40q-25 12 -53 12q-56 0 -90.5 -36.5t-51.5 -110.5l-12 -52h155l-9 -42h-154l-128 -599h-50l128 599h-96z" />
<glyph unicode="g" horiz-adv-x="557" d="M153 -226q-45 0 -88.5 11.5t-72.5 31.5l17 42q68 -40 146 -40q89 0 141 43.5t72 136.5l16 74q-81 -73 -173 -73q-79 0 -124.5 54.5t-45.5 147.5q0 91 41 166t106 116.5t139 41.5q41 0 78 -16t64 -45l17 51h42l-112 -526q-23 -107 -89 -161.5t-174 -54.5zM223 45 q90 0 172 85l63 293q-25 27 -60.5 42.5t-73.5 15.5q-67 0 -120 -39t-82.5 -101.5t-29.5 -133.5q0 -79 34 -120.5t97 -41.5z" />
<glyph unicode="h" horiz-adv-x="557" d="M172 446q91 80 194 80q66 0 101 -33.5t35 -97.5q0 -20 -3.5 -42.5t-12.5 -66.5l-61 -286h-50l62 291q13 62 13 95q0 48 -24.5 70.5t-78.5 22.5q-45 0 -93 -22t-93 -63l-84 -394h-50l160 750h50z" />
<glyph unicode="i" horiz-adv-x="214" d="M137 516h50l-110 -516h-50zM153 677q0 18 13 29t32 11q14 0 23 -9t9 -22q0 -18 -13 -29t-32 -11q-14 0 -23 9t-9 22z" />
<glyph unicode="j" horiz-adv-x="214" d="M187 516l-125 -586q-17 -80 -51.5 -118t-92.5 -38q-18 0 -37 5t-30 12l16 41q25 -13 53 -13q35 0 57.5 28t35.5 87l124 582h50zM153 677q0 18 13 29t32 11q14 0 23 -9t9 -22q0 -18 -13 -29t-32 -11q-14 0 -23 9t-9 22z" />
<glyph unicode="k" horiz-adv-x="505" d="M187 750h50l-101 -475l326 241h72l-278 -207l179 -309h-56l-163 282l-94 -70l-45 -212h-50z" />
<glyph unicode="l" horiz-adv-x="214" d="M187 750h50l-160 -750h-50z" />
<glyph unicode="m" horiz-adv-x="881" d="M170 446q45 39 94 59.5t96 20.5q52 0 84.5 -24t41.5 -69q107 93 210 93q62 0 96 -34t34 -97q0 -20 -3.5 -42.5t-12.5 -66.5l-61 -286h-50l62 291q13 62 13 95q0 47 -23.5 70t-73.5 23q-43 0 -92.5 -24t-94.5 -67q-1 -34 -16 -102l-61 -286h-50l62 291q13 62 13 95 q0 47 -23.5 70t-73.5 23q-42 0 -89.5 -22.5t-90.5 -62.5l-84 -394h-50l110 516h42z" />
<glyph unicode="n" horiz-adv-x="557" d="M170 446q92 80 196 80q66 0 101 -33.5t35 -97.5q0 -20 -3.5 -42.5t-12.5 -66.5l-61 -286h-50l62 291q13 62 13 95q0 48 -24.5 70.5t-78.5 22.5q-45 0 -93 -22t-93 -63l-84 -394h-50l110 516h42z" />
<glyph unicode="o" horiz-adv-x="560" d="M519 311q0 -90 -40.5 -164.5t-104.5 -115.5t-136 -41q-60 0 -105 27t-68.5 75.5t-23.5 112.5q0 90 40.5 164.5t104.5 115.5t136 41q60 0 105 -27t68.5 -75.5t23.5 -112.5zM242 35q63 0 115.5 39t81.5 101t29 135q0 79 -40.5 125t-109.5 46q-63 0 -115.5 -39t-81.5 -101 t-29 -135q0 -79 40.5 -125t109.5 -46z" />
<glyph unicode="p" horiz-adv-x="555" d="M179 516l-8 -63q81 73 173 73q79 0 124.5 -55t45.5 -152q0 -93 -40 -169t-104.5 -118t-141.5 -42q-40 0 -77 15t-64 43l-56 -264h-50l156 732h42zM332 481q-90 0 -170 -83l-65 -305q24 -27 60 -42.5t74 -15.5q67 0 120 39t82.5 102.5t29.5 137.5q0 82 -33.5 124.5 t-97.5 42.5z" />
<glyph unicode="q" horiz-adv-x="555" d="M322 -216l59 277q-79 -71 -170 -71q-79 0 -124.5 55t-45.5 152q0 92 40.5 168.5t105.5 118.5t140 42q41 0 78 -16t64 -45l17 51h42l-156 -732h-50zM223 35q44 0 87.5 21t82.5 61l65 306q-25 27 -60.5 42.5t-73.5 15.5q-67 0 -120 -39t-82.5 -102.5t-29.5 -137.5 q0 -82 33.5 -124.5t97.5 -42.5z" />
<glyph unicode="r" horiz-adv-x="361" d="M170 445q89 81 184 81q20 0 40 -5l-13 -49q-21 4 -41 4q-91 0 -179 -82l-84 -394h-50l110 516h42z" />
<glyph unicode="s" horiz-adv-x="450" d="M188 -10q-47 0 -93 15.5t-81 43.5l18 38q72 -52 157 -52q62 0 99 28t37 74q0 35 -22 57t-82 48l-28 12q-59 25 -84 54.5t-25 72.5q0 42 25.5 75.5t68.5 51.5t96 18q84 0 149 -45l-18 -38q-62 38 -134 38q-61 0 -98.5 -27t-37.5 -71q0 -29 18.5 -49t63.5 -39l28 -12 q74 -32 102.5 -62.5t28.5 -78.5q0 -66 -52.5 -109t-135.5 -43z" />
<glyph unicode="t" horiz-adv-x="374" d="M176 -10q-55 0 -83.5 29t-28.5 85q0 31 8 69l64 301h-93l9 42h93l43 151h39l-32 -151h179l-9 -42h-179l-63 -296q-8 -38 -8 -64q0 -79 73 -79q24 0 52 11.5t53 31.5l13 -40q-27 -22 -62 -35t-68 -13z" />
<glyph unicode="u" horiz-adv-x="553" d="M374 0l8 70q-91 -80 -193 -80q-65 0 -99.5 34t-34.5 97q0 20 3.5 42.5t12.5 66.5l61 286h50l-62 -291q-13 -62 -13 -95q0 -48 24.5 -70.5t76.5 -22.5q44 0 91.5 22t92.5 62l84 395h50l-110 -516h-42z" />
<glyph unicode="v" horiz-adv-x="468" d="M151 0l-86 516h51l70 -456l262 456h56l-306 -516h-47z" />
<glyph unicode="w" horiz-adv-x="714" d="M68 516h51l41 -445l219 426h44l40 -422l226 441h56l-273 -516h-44l-42 420l-219 -420h-44z" />
<glyph unicode="x" horiz-adv-x="480" d="M213 271l-122 245h54l104 -213l200 213h59l-238 -255l132 -261h-54l-114 230l-213 -230h-59z" />
<glyph unicode="y" horiz-adv-x="468" d="M-24 -226q-18 0 -36.5 5.5t-31.5 15.5l18 39q25 -15 50 -15q37 0 71.5 33t86.5 122l19 34l-88 508h51l73 -451l259 451h56l-310 -522q-51 -85 -85.5 -132t-64.5 -67.5t-68 -20.5z" />
<glyph unicode="z" horiz-adv-x="485" d="M10 38l395 436h-293l9 42h355l-8 -38l-395 -436h311l-9 -42h-373z" />
<glyph unicode="{" horiz-adv-x="351" d="M169 -165q-56 0 -87 29t-31 84q0 22 8.5 53.5t31.5 92.5q20 53 26.5 76t6.5 40q0 27 -16 39.5t-51 12.5h-20l9 43h20q41 0 63.5 16.5t30.5 54.5q8 35 16 109q8 73 15 110q13 66 54 101t104 35q36 0 73 -8l-10 -44q-30 7 -57 7q-48 0 -75 -23t-38 -74q-3 -14 -5.5 -30 t-5.5 -37t-6 -50q-6 -52 -15 -103q-14 -72 -83 -87q24 -8 36 -25.5t12 -42.5q0 -16 -7.5 -43t-29.5 -89q-23 -64 -29.5 -89t-6.5 -41q0 -38 19 -55t59 -17q31 0 68 7l-9 -44q-37 -8 -70 -8z" />
<glyph unicode="|" horiz-adv-x="234" d="M193 730h48l-201 -946h-48z" />
<glyph unicode="}" horiz-adv-x="351" d="M201 731q56 0 87 -29t31 -84q0 -22 -8.5 -53.5t-31.5 -92.5q-20 -53 -26.5 -76t-6.5 -40q0 -27 16 -39.5t51 -12.5h20l-9 -43h-20q-41 0 -63.5 -16.5t-30.5 -54.5q-8 -35 -16 -109q-8 -73 -15 -110q-13 -66 -54 -101t-104 -35q-36 0 -73 8l10 44q30 -7 57 -7q48 0 75 23 t38 74q3 14 6 30t5.5 37t5.5 50q6 52 15 103q14 72 83 87q-24 8 -36 25.5t-12 42.5q0 16 7.5 43t29.5 89q23 64 29.5 89t6.5 41q0 38 -19 55t-59 17q-31 0 -68 -7l9 44q37 8 70 8z" />
<glyph unicode="~" horiz-adv-x="600" d="M417 246q-29 0 -53 16t-60 62q-27 35 -40.5 48.5t-25.5 19t-25 5.5q-61 0 -88 -114l-8 -34h-47l8 36q18 81 52.5 119.5t88.5 38.5q29 0 53 -16t60 -62q27 -35 40.5 -48.5t25.5 -19t25 -5.5q61 0 88 114l8 34h47l-8 -36q-18 -81 -52.5 -119.5t-88.5 -38.5z" />
<glyph unicode="&#xa1;" horiz-adv-x="229" d="M49 -184h-54l114 506h41zM119 482q0 18 13.5 31t32.5 13q16 0 26 -9.5t10 -25.5q0 -19 -13.5 -32t-32.5 -13q-16 0 -26 9.5t-10 26.5z" />
<glyph unicode="&#xa2;" horiz-adv-x="600" d="M220 -113l23 108q-67 15 -103.5 67.5t-36.5 132.5q0 82 34 151t91 112.5t125 54.5l23 107h43l-22 -104q76 -2 133 -37l-16 -40q-54 32 -127 32l-93 -436h7q36 0 76 15t75 42l13 -40q-33 -29 -78.5 -45.5t-92.5 -16.5h-9l-22 -103h-43zM154 200q0 -62 25.5 -103.5 t73.5 -55.5l90 425q-55 -13 -98.5 -53t-67 -95.5t-23.5 -117.5z" />
<glyph unicode="&#xa3;" horiz-adv-x="600" d="M444 325h-188q-2 -53 -21 -107.5t-48.5 -98.5t-67.5 -72h384l-10 -47h-447l10 47q43 30 77.5 77t54 99.5t20.5 101.5h-84l10 45h73l-5 36q-7 47 -7 73q0 66 28 116.5t77.5 77.5t113.5 27q91 0 170 -49l-16 -41q-32 20 -74 32t-81 12q-79 0 -122 -47.5t-43 -135.5 q0 -18 4 -57l4 -44h198z" />
<glyph unicode="&#xa5;" horiz-adv-x="600" d="M216 0l28 132h-173l10 45h173l23 107h-174l10 45h150l-129 361h55l122 -361l275 361h60l-282 -361h146l-10 -45h-172l-23 -107h173l-10 -45h-173l-28 -132h-51z" />
<glyph unicode="&#xa7;" horiz-adv-x="507" d="M330 21q0 38 -22.5 60t-78.5 38l-27 8q-75 22 -110.5 60t-35.5 94q0 41 21.5 76.5t58.5 61.5t81 37q-36 19 -53.5 45.5t-17.5 63.5q0 62 52 103.5t133 41.5q50 0 88 -10.5t75 -34.5l-18 -38q-67 38 -144 38q-62 0 -98.5 -26.5t-36.5 -71.5q0 -34 22.5 -55t77.5 -37l27 -8 q147 -43 147 -154q0 -42 -21 -77.5t-57.5 -61t-80.5 -36.5q36 -19 53 -46t17 -66q0 -46 -25.5 -80.5t-72 -53t-109.5 -18.5q-104 0 -179 59l18 38q76 -52 162 -52q72 0 113 27.5t41 74.5zM267 435q-71 -14 -115.5 -54.5t-44.5 -94.5q0 -44 27.5 -71.5t86.5 -44.5l39 -11 q71 14 115.5 54.5t44.5 94.5q0 44 -27.5 71.5t-86.5 44.5z" />
<glyph unicode="&#xa8;" horiz-adv-x="557" d="M245 677q0 18 13 29t32 11q14 0 23 -9t9 -22q0 -18 -13 -29t-32 -11q-14 0 -23 9t-9 22zM396 677q0 18 13 29t32 11q14 0 23 -9t9 -22q0 -18 -13 -29t-32 -11q-14 0 -23 9t-9 22z" />
<glyph unicode="&#xa9;" horiz-adv-x="592" d="M343 336q-69 0 -110 43t-41 115q0 70 42.5 114t108.5 44q51 0 85 -20l-12 -38q-33 13 -67 13q-50 0 -78.5 -30t-28.5 -84q0 -53 28 -82.5t79 -29.5q38 0 69 18l14 -39q-36 -24 -89 -24zM335 224q-79 0 -139.5 36t-93 97t-32.5 137q0 81 35.5 142.5t95.5 94.5t134 33 q79 0 139.5 -36t93 -97t32.5 -137q0 -81 -35.5 -142.5t-95.5 -94.5t-134 -33zM335 266q100 0 158.5 62t58.5 166t-58.5 166t-158.5 62t-158.5 -62t-58.5 -166t58.5 -166t158.5 -62z" />
<glyph unicode="&#xaa;" horiz-adv-x="378" d="M300 351l4 37q-50 -44 -111 -44q-55 0 -86.5 36t-31.5 99q0 62 28 113t72.5 79.5t94.5 28.5q24 0 49.5 -10t43.5 -27l10 30h40l-74 -342h-39zM206 386q24 0 53.5 14t52.5 36l41 189q-16 15 -39 24t-46 9q-40 0 -74 -25t-53 -64.5t-19 -84.5q0 -47 22 -72.5t62 -25.5z M59 250l9 43h258l-9 -43h-258z" />
<glyph unicode="&#xab;" horiz-adv-x="403" d="M86 275l94 -168h-49l-97 173l163 173h57zM230 275l94 -168h-49l-97 173l163 173h57z" />
<glyph unicode="&#xac;" horiz-adv-x="600" d="M426 111l44 210h-383l10 46h431l-54 -256h-48z" />
<glyph unicode="&#xae;" horiz-adv-x="592" d="M335 224q-79 0 -139.5 36t-93 97t-32.5 137q0 81 35.5 142.5t95.5 94.5t134 33q79 0 139.5 -36t93 -97t32.5 -137q0 -81 -35.5 -142.5t-95.5 -94.5t-134 -33zM335 266q100 0 158.5 62t58.5 166t-58.5 166t-158.5 62t-158.5 -62t-58.5 -166t58.5 -166t158.5 -62zM237 643 h114q49 0 76 -24t27 -67q0 -31 -16.5 -54t-46.5 -32l72 -114h-56l-67 107h-56v-107h-47v291zM284 501h66q54 0 54 51q0 24 -14 36.5t-40 12.5h-66v-100z" />
<glyph unicode="&#xb0;" horiz-adv-x="322" d="M199 450q48 0 83 37.5t35 90.5q0 37 -21 59.5t-55 22.5q-48 0 -83 -37.5t-35 -90.5q0 -37 21 -59.5t55 -22.5zM193 410q-51 0 -83 33t-32 85q0 49 24 88.5t62.5 61.5t82.5 22q51 0 83 -33t32 -85q0 -49 -24 -88.5t-62.5 -61.5t-82.5 -22z" />
<glyph unicode="&#xb2;" d="M119 420l4 20q14 72 50 113.5t107 71.5q63 27 83 39t28.5 25.5t8.5 33.5q0 23 -20.5 38.5t-53.5 15.5q-62 0 -121 -40l-16 33q68 50 143 50q52 0 83.5 -26.5t31.5 -69.5q-1 -37 -21.5 -61t-55 -41t-75.5 -33q-36 -15 -59 -31t-37.5 -38t-23.5 -56h218l-9 -44h-265z" />
<glyph unicode="&#xb3;" d="M241 410q-66 0 -121 35l14 38q53 -30 111 -30q53 0 84.5 23t31.5 61q0 31 -23.5 48.5t-65.5 17.5h-62l9 41h66q47 0 76.5 21t29.5 55q0 27 -21.5 42t-58.5 15q-54 0 -108 -30l-14 35q29 18 63 28t67 10q53 0 86 -26.5t33 -68.5q0 -38 -23.5 -64.5t-66.5 -38.5 q60 -23 60 -85q0 -55 -47.5 -91t-119.5 -36z" />
<glyph unicode="&#xb4;" horiz-adv-x="557" d="M265 611l122 139h73l-136 -139h-59z" />
<glyph unicode="&#xb6;" horiz-adv-x="534" d="M180 -110l88 416q-87 2 -134 45.5t-47 122.5q0 64 33 117t89 81t128 28h200l-172 -810h-49l162 762h-86l-162 -762h-50z" />
<glyph unicode="&#xb7;" horiz-adv-x="163" d="M46 283q0 19 13.5 32t32.5 13q16 0 26 -9.5t10 -26.5q0 -18 -13.5 -31t-32.5 -13q-16 0 -26 9.5t-10 25.5z" />
<glyph unicode="&#xb8;" horiz-adv-x="557" d="M110 -164q35 -20 72 -20q29 0 47 13.5t18 35.5q0 18 -18 28.5t-49 10.5h-32l58 98h50l-38 -61q36 -4 55.5 -22t19.5 -48q0 -42 -30.5 -68.5t-80.5 -26.5q-54 0 -88 24z" />
<glyph unicode="&#xb9;" d="M193 699l171 111h41l-83 -390h-46l71 334l-136 -87z" />
<glyph unicode="&#xba;" horiz-adv-x="390" d="M55 250l9 43h275l-9 -43h-275zM217 386q40 0 74 24.5t53 63t19 82.5q0 46 -26 74t-69 28q-40 0 -74 -24.5t-53 -63t-19 -82.5q0 -46 26 -74t69 -28zM213 344q-62 0 -100 38.5t-38 102.5q0 60 28.5 109.5t73.5 77.5t95 28q62 0 100 -38.5t38 -102.5q0 -60 -28.5 -109.5 t-73.5 -77.5t-95 -28z" />
<glyph unicode="&#xbb;" horiz-adv-x="403" d="M181 285l-94 168h49l97 -173l-163 -173h-57zM325 285l-94 168h49l97 -173l-163 -173h-57z" />
<glyph unicode="&#xbc;" horiz-adv-x="913" d="M214 0l519 690h54l-519 -690h-54zM703 0l18 89h-218l8 38l279 263h39l-56 -260h54l-8 -41h-54l-19 -89h-43zM730 130l41 193l-205 -193h164zM169 579l171 111h41l-83 -390h-46l71 334l-136 -87z" />
<glyph unicode="&#xbd;" horiz-adv-x="913" d="M166 0l519 690h54l-519 -690h-54zM506 0l4 20q14 72 50 113.5t107 71.5q63 27 83 39t28.5 25.5t8.5 33.5q0 23 -20.5 38.5t-53.5 15.5q-62 0 -121 -40l-16 33q68 50 143 50q52 0 83.5 -26.5t31.5 -69.5q-1 -37 -21.5 -61t-55 -41t-75.5 -33q-36 -15 -59 -31t-37.5 -38 t-23.5 -56h218l-9 -44h-265zM169 579l171 111h41l-83 -390h-46l71 334l-136 -87z" />
<glyph unicode="&#xbe;" horiz-adv-x="913" d="M214 0l519 690h54l-519 -690h-54zM703 0l18 89h-218l8 38l279 263h39l-56 -260h54l-8 -41h-54l-19 -89h-43zM730 130l41 193l-205 -193h164zM217 290q-66 0 -121 35l14 38q53 -30 111 -30q53 0 84.5 23t31.5 61q0 31 -23.5 48.5t-65.5 17.5h-62l9 41h66q47 0 76.5 21 t29.5 55q0 27 -21.5 42t-58.5 15q-54 0 -108 -30l-14 35q29 18 63 28t67 10q53 0 86 -26.5t33 -68.5q0 -38 -23.5 -64.5t-66.5 -38.5q60 -23 60 -85q0 -55 -47.5 -91t-119.5 -36z" />
<glyph unicode="&#xbf;" horiz-adv-x="420" d="M294 322l-8 -38q-12 -56 -38.5 -93.5t-82.5 -77.5l-18 -13q-59 -42 -85.5 -78t-26.5 -75q0 -44 30.5 -69.5t83.5 -25.5q89 0 178 74l22 -34q-45 -41 -97.5 -63t-106.5 -22q-76 0 -119 36.5t-43 100.5q0 49 31.5 93t99.5 92l18 13q53 38 75 67.5t32 74.5l8 38h47zM250 482 q0 18 13.5 31t32.5 13q16 0 26 -9.5t10 -25.5q0 -19 -13.5 -32t-32.5 -13q-16 0 -26 9.5t-10 26.5z" />
<glyph unicode="&#xc0;" horiz-adv-x="588" d="M474 0l-31 213h-310l-122 -213h-55l406 700h56l110 -700h-54zM160 260h276l-56 385zM369 770l-87 109h72l69 -109h-54z" />
<glyph unicode="&#xc1;" horiz-adv-x="588" d="M474 0l-31 213h-310l-122 -213h-55l406 700h56l110 -700h-54zM160 260h276l-56 385zM361 770l115 109h80l-133 -109h-62z" />
<glyph unicode="&#xc2;" horiz-adv-x="588" d="M474 0l-31 213h-310l-122 -213h-55l406 700h56l110 -700h-54zM160 260h276l-56 385zM253 770l136 109h62l89 -109h-55l-69 69l-98 -69h-65z" />
<glyph unicode="&#xc3;" horiz-adv-x="588" d="M474 0l-31 213h-310l-122 -213h-55l406 700h56l110 -700h-54zM160 260h276l-56 385zM253 770q8 51 32.5 81t59.5 30q21 0 37 -8t40 -31q21 -20 30.5 -26t22.5 -6q15 0 27 17.5t18 48.5h44q-8 -51 -32.5 -81t-59.5 -30q-21 0 -37 8t-40 31q-21 20 -30.5 26t-22.5 6 q-15 0 -27 -17.5t-18 -48.5h-44z" />
<glyph unicode="&#xc4;" horiz-adv-x="588" d="M474 0l-31 213h-310l-122 -213h-55l406 700h56l110 -700h-54zM160 260h276l-56 385zM290 819q0 18 12.5 31t30.5 13q16 0 25.5 -9.5t9.5 -24.5q0 -18 -12.5 -31t-30.5 -13q-16 0 -25.5 9.5t-9.5 24.5zM448 819q0 18 12.5 31t30.5 13q16 0 25.5 -9.5t9.5 -24.5 q0 -18 -12.5 -31t-30.5 -13q-16 0 -25.5 9.5t-9.5 24.5z" />
<glyph unicode="&#xc5;" horiz-adv-x="588" d="M474 0l-31 213h-310l-122 -213h-55l406 700h56l110 -700h-54zM160 260h276l-56 385zM315 843q0 47 32.5 79t79.5 32q40 0 64 -23.5t24 -63.5q0 -46 -32.5 -78.5t-79.5 -32.5q-40 0 -64 23.5t-24 63.5zM472 862q0 24 -14 38.5t-36 14.5q-26 0 -45 -19.5t-19 -47.5 q0 -24 14 -38.5t36 -14.5q26 0 45 19.5t19 47.5z" />
<glyph unicode="&#xc6;" horiz-adv-x="893" d="M512 700h431l-10 -48h-339l-58 -274h287l-10 -48h-287l-60 -282h352l-10 -48h-404l49 233h-263l-189 -233h-60zM463 280l80 372h-14l-301 -372h235z" />
<glyph unicode="&#xc7;" horiz-adv-x="603" d="M335 -10q-85 0 -146.5 36t-94 102t-32.5 153q0 122 53.5 221t140 153.5t186.5 54.5q45 0 90 -12t82 -34l-19 -43q-80 40 -157 40q-93 0 -167 -52t-114.5 -137.5t-40.5 -186.5q0 -116 58.5 -181t164.5 -65q47 0 93 15.5t84 44.5l18 -40q-36 -31 -90 -50t-109 -19z M185 -162q32 -20 71 -20q29 0 46.5 13t17.5 34q0 38 -67 38h-32l58 99h51l-37 -60q75 -8 75 -71q0 -42 -31 -68.5t-81 -26.5q-54 0 -88 24z" />
<glyph unicode="&#xc8;" horiz-adv-x="524" d="M30 0l149 700h395l-10 -48h-344l-58 -274h292l-10 -48h-292l-60 -282h357l-10 -48h-409zM360 770l-87 109h72l69 -109h-54z" />
<glyph unicode="&#xc9;" horiz-adv-x="524" d="M30 0l149 700h395l-10 -48h-344l-58 -274h292l-10 -48h-292l-60 -282h357l-10 -48h-409zM352 770l115 109h80l-133 -109h-62z" />
<glyph unicode="&#xca;" horiz-adv-x="524" d="M30 0l149 700h395l-10 -48h-344l-58 -274h292l-10 -48h-292l-60 -282h357l-10 -48h-409zM244 770l136 109h62l89 -109h-55l-69 69l-98 -69h-65z" />
<glyph unicode="&#xcb;" horiz-adv-x="524" d="M30 0l149 700h395l-10 -48h-344l-58 -274h292l-10 -48h-292l-60 -282h357l-10 -48h-409zM281 819q0 18 12.5 31t30.5 13q16 0 25.5 -9.5t9.5 -24.5q0 -18 -12.5 -31t-30.5 -13q-16 0 -25.5 9.5t-9.5 24.5zM439 819q0 18 12.5 31t30.5 13q16 0 25.5 -9.5t9.5 -24.5 q0 -18 -12.5 -31t-30.5 -13q-16 0 -25.5 9.5t-9.5 24.5z" />
<glyph unicode="&#xcc;" horiz-adv-x="228" d="M30 0l149 700h52l-149 -700h-52zM184 770l-87 109h72l69 -109h-54z" />
<glyph unicode="&#xcd;" horiz-adv-x="228" d="M30 0l149 700h52l-149 -700h-52zM176 770l115 109h80l-133 -109h-62z" />
<glyph unicode="&#xce;" horiz-adv-x="228" d="M30 0l149 700h52l-149 -700h-52zM68 770l136 109h62l89 -109h-55l-69 69l-98 -69h-65z" />
<glyph unicode="&#xcf;" horiz-adv-x="228" d="M30 0l149 700h52l-149 -700h-52zM105 819q0 18 12.5 31t30.5 13q16 0 25.5 -9.5t9.5 -24.5q0 -18 -12.5 -31t-30.5 -13q-16 0 -25.5 9.5t-9.5 24.5zM263 819q0 18 12.5 31t30.5 13q16 0 25.5 -9.5t9.5 -24.5q0 -18 -12.5 -31t-30.5 -13q-16 0 -25.5 9.5t-9.5 24.5z" />
<glyph unicode="&#xd0;" horiz-adv-x="698" d="M122 339h-90l9 43h90l68 318h137q165 0 248.5 -73t83.5 -218q0 -119 -56.5 -214t-153.5 -145t-225 -50h-183zM240 652l-57 -270h140l-9 -43h-140l-62 -291h125q118 0 202 46.5t129.5 129t45.5 183.5q0 124 -70 184.5t-214 60.5h-90z" />
<glyph unicode="&#xd1;" horiz-adv-x="668" d="M30 0l149 700h51l259 -615l131 615h51l-149 -700h-51l-259 615l-131 -615h-51zM288 770q8 51 32.5 81t59.5 30q21 0 37 -8t40 -31q21 -20 30.5 -26t22.5 -6q15 0 27 17.5t18 48.5h44q-8 -51 -32.5 -81t-59.5 -30q-21 0 -37 8t-40 31q-21 20 -30.5 26t-22.5 6 q-15 0 -27 -17.5t-18 -48.5h-44z" />
<glyph unicode="&#xd2;" horiz-adv-x="723" d="M421 661q-85 0 -155.5 -53t-110 -138.5t-39.5 -184.5q0 -111 59.5 -178.5t158.5 -67.5q85 0 155.5 53t110 138.5t39.5 184.5q0 111 -59.5 178.5t-158.5 67.5zM425 710q81 0 142 -38t93.5 -104t32.5 -149q0 -121 -51.5 -220t-134 -154t-177.5 -55q-81 0 -142 38t-93.5 104 t-32.5 149q0 121 51.5 220t134 154t177.5 55zM426 770l-87 109h72l69 -109h-54z" />
<glyph unicode="&#xd3;" horiz-adv-x="723" d="M421 661q-85 0 -155.5 -53t-110 -138.5t-39.5 -184.5q0 -111 59.5 -178.5t158.5 -67.5q85 0 155.5 53t110 138.5t39.5 184.5q0 111 -59.5 178.5t-158.5 67.5zM425 710q81 0 142 -38t93.5 -104t32.5 -149q0 -121 -51.5 -220t-134 -154t-177.5 -55q-81 0 -142 38t-93.5 104 t-32.5 149q0 121 51.5 220t134 154t177.5 55zM418 770l115 109h80l-133 -109h-62z" />
<glyph unicode="&#xd4;" horiz-adv-x="723" d="M421 661q-85 0 -155.5 -53t-110 -138.5t-39.5 -184.5q0 -111 59.5 -178.5t158.5 -67.5q85 0 155.5 53t110 138.5t39.5 184.5q0 111 -59.5 178.5t-158.5 67.5zM425 710q81 0 142 -38t93.5 -104t32.5 -149q0 -121 -51.5 -220t-134 -154t-177.5 -55q-81 0 -142 38t-93.5 104 t-32.5 149q0 121 51.5 220t134 154t177.5 55zM310 770l136 109h62l89 -109h-55l-69 69l-98 -69h-65z" />
<glyph unicode="&#xd5;" horiz-adv-x="723" d="M421 661q-85 0 -155.5 -53t-110 -138.5t-39.5 -184.5q0 -111 59.5 -178.5t158.5 -67.5q85 0 155.5 53t110 138.5t39.5 184.5q0 111 -59.5 178.5t-158.5 67.5zM425 710q81 0 142 -38t93.5 -104t32.5 -149q0 -121 -51.5 -220t-134 -154t-177.5 -55q-81 0 -142 38t-93.5 104 t-32.5 149q0 121 51.5 220t134 154t177.5 55zM310 770q8 51 32.5 81t59.5 30q21 0 37 -8t40 -31q21 -20 30.5 -26t22.5 -6q15 0 27 17.5t18 48.5h44q-8 -51 -32.5 -81t-59.5 -30q-21 0 -37 8t-40 31q-21 20 -30.5 26t-22.5 6q-15 0 -27 -17.5t-18 -48.5h-44z" />
<glyph unicode="&#xd6;" horiz-adv-x="723" d="M421 661q-85 0 -155.5 -53t-110 -138.5t-39.5 -184.5q0 -111 59.5 -178.5t158.5 -67.5q85 0 155.5 53t110 138.5t39.5 184.5q0 111 -59.5 178.5t-158.5 67.5zM425 710q81 0 142 -38t93.5 -104t32.5 -149q0 -121 -51.5 -220t-134 -154t-177.5 -55q-81 0 -142 38t-93.5 104 t-32.5 149q0 121 51.5 220t134 154t177.5 55zM347 819q0 18 12.5 31t30.5 13q16 0 25.5 -9.5t9.5 -24.5q0 -18 -12.5 -31t-30.5 -13q-16 0 -25.5 9.5t-9.5 24.5zM505 819q0 18 12.5 31t30.5 13q16 0 25.5 -9.5t9.5 -24.5q0 -18 -12.5 -31t-30.5 -13q-16 0 -25.5 9.5 t-9.5 24.5z" />
<glyph unicode="&#xd7;" horiz-adv-x="600" d="M308 310l-197 -169l-28 35l198 170l-132 179l35 29l131 -179l197 169l28 -35l-198 -170l132 -179l-35 -29z" />
<glyph unicode="&#xd8;" horiz-adv-x="723" d="M0 21l101 97q-39 72 -39 163q0 121 51.5 220t134 154t177.5 55q61 0 112.5 -22.5t88.5 -65.5l97 93l32 -36l-101 -97q39 -72 39 -163q0 -121 -51.5 -220t-134 -154t-177.5 -55q-61 0 -112.5 22.5t-88.5 65.5l-97 -93zM116 285q0 -72 26 -127l445 426q-30 38 -72.5 57.5 t-93.5 19.5q-85 0 -155.5 -53t-110 -138.5t-39.5 -184.5zM334 39q85 0 155.5 53t110 138.5t39.5 184.5q0 72 -26 127l-445 -426q30 -38 72.5 -57.5t93.5 -19.5z" />
<glyph unicode="&#xd9;" horiz-adv-x="642" d="M562 267q-30 -141 -98.5 -209t-181.5 -68q-99 0 -155 53t-56 143q0 52 18 139l80 375h52l-80 -376q-17 -78 -17 -135q0 -70 41.5 -110t118.5 -40q89 0 145.5 57.5t81.5 176.5l91 427h52zM390 770l-87 109h72l69 -109h-54z" />
<glyph unicode="&#xda;" horiz-adv-x="642" d="M562 267q-30 -141 -98.5 -209t-181.5 -68q-99 0 -155 53t-56 143q0 52 18 139l80 375h52l-80 -376q-17 -78 -17 -135q0 -70 41.5 -110t118.5 -40q89 0 145.5 57.5t81.5 176.5l91 427h52zM382 770l115 109h80l-133 -109h-62z" />
<glyph unicode="&#xdb;" horiz-adv-x="642" d="M562 267q-30 -141 -98.5 -209t-181.5 -68q-99 0 -155 53t-56 143q0 52 18 139l80 375h52l-80 -376q-17 -78 -17 -135q0 -70 41.5 -110t118.5 -40q89 0 145.5 57.5t81.5 176.5l91 427h52zM274 770l136 109h62l89 -109h-55l-69 69l-98 -69h-65z" />
<glyph unicode="&#xdc;" horiz-adv-x="642" d="M562 267q-30 -141 -98.5 -209t-181.5 -68q-99 0 -155 53t-56 143q0 52 18 139l80 375h52l-80 -376q-17 -78 -17 -135q0 -70 41.5 -110t118.5 -40q89 0 145.5 57.5t81.5 176.5l91 427h52zM311 819q0 18 12.5 31t30.5 13q16 0 25.5 -9.5t9.5 -24.5q0 -18 -12.5 -31 t-30.5 -13q-16 0 -25.5 9.5t-9.5 24.5zM469 819q0 18 12.5 31t30.5 13q16 0 25.5 -9.5t9.5 -24.5q0 -18 -12.5 -31t-30.5 -13q-16 0 -25.5 9.5t-9.5 24.5z" />
<glyph unicode="&#xdd;" horiz-adv-x="537" d="M242 289l-146 411h55l126 -367l282 367h62l-327 -412l-61 -288h-52zM326 770l115 109h80l-133 -109h-62z" />
<glyph unicode="&#xde;" horiz-adv-x="572" d="M231 700l-28 -132h135q101 0 154 -47t53 -136q0 -71 -35 -127.5t-95.5 -86.5t-140.5 -30h-162l-30 -141h-52l149 700h52zM192 520l-70 -331h159q66 0 113 24.5t72 68.5t25 99q0 139 -156 139h-143z" />
<glyph unicode="&#xdf;" horiz-adv-x="584" d="M575 596q0 -79 -50 -136.5t-130 -72.5q62 -16 96.5 -61t34.5 -109q0 -66 -33 -118t-88 -80.5t-122 -28.5q-70 0 -130 40l18 38q55 -33 114 -33q55 0 98.5 24.5t67.5 66t24 91.5q0 70 -47.5 110t-130.5 40h-40l9 42h41q98 0 157.5 50.5t59.5 133.5q0 56 -36.5 89t-97.5 33 q-78 0 -133 -63t-80 -180l-100 -472h-50l101 476q19 90 57.5 154t92.5 97t119 33q79 0 128.5 -45.5t49.5 -118.5z" />
<glyph unicode="&#xe0;" horiz-adv-x="555" d="M376 0l8 68q-81 -78 -173 -78q-79 0 -124.5 55t-45.5 152q0 92 40.5 168.5t105.5 118.5t140 42q41 0 78 -16t64 -45l17 51h42l-110 -516h-42zM223 35q41 0 86.5 23.5t84.5 64.5l64 300q-25 27 -60.5 42.5t-73.5 15.5q-67 0 -120 -39t-82.5 -102.5t-29.5 -137.5 q0 -82 33.5 -124.5t97.5 -42.5zM311 611l-76 139h64l63 -139h-51z" />
<glyph unicode="&#xe1;" horiz-adv-x="555" d="M376 0l8 68q-81 -78 -173 -78q-79 0 -124.5 55t-45.5 152q0 92 40.5 168.5t105.5 118.5t140 42q41 0 78 -16t64 -45l17 51h42l-110 -516h-42zM223 35q41 0 86.5 23.5t84.5 64.5l64 300q-25 27 -60.5 42.5t-73.5 15.5q-67 0 -120 -39t-82.5 -102.5t-29.5 -137.5 q0 -82 33.5 -124.5t97.5 -42.5zM302 611l122 139h73l-136 -139h-59z" />
<glyph unicode="&#xe2;" horiz-adv-x="555" d="M376 0l8 68q-81 -78 -173 -78q-79 0 -124.5 55t-45.5 152q0 92 40.5 168.5t105.5 118.5t140 42q41 0 78 -16t64 -45l17 51h42l-110 -516h-42zM223 35q41 0 86.5 23.5t84.5 64.5l64 300q-25 27 -60.5 42.5t-73.5 15.5q-67 0 -120 -39t-82.5 -102.5t-29.5 -137.5 q0 -82 33.5 -124.5t97.5 -42.5zM202 611l135 139h56l77 -139h-49l-61 94l-101 -94h-57z" />
<glyph unicode="&#xe3;" horiz-adv-x="555" d="M376 0l8 68q-81 -78 -173 -78q-79 0 -124.5 55t-45.5 152q0 92 40.5 168.5t105.5 118.5t140 42q41 0 78 -16t64 -45l17 51h42l-110 -516h-42zM223 35q41 0 86.5 23.5t84.5 64.5l64 300q-25 27 -60.5 42.5t-73.5 15.5q-67 0 -120 -39t-82.5 -102.5t-29.5 -137.5 q0 -82 33.5 -124.5t97.5 -42.5zM201 624q9 52 33.5 81t58.5 29q19 0 34.5 -8t37.5 -31q20 -21 28.5 -26.5t19.5 -5.5q16 0 29 18t18 48h42q-9 -52 -33.5 -81t-58.5 -29q-19 0 -34.5 8t-37.5 31q-20 21 -28.5 26.5t-19.5 5.5q-16 0 -29 -18t-18 -48h-42z" />
<glyph unicode="&#xe4;" horiz-adv-x="555" d="M376 0l8 68q-81 -78 -173 -78q-79 0 -124.5 55t-45.5 152q0 92 40.5 168.5t105.5 118.5t140 42q41 0 78 -16t64 -45l17 51h42l-110 -516h-42zM223 35q41 0 86.5 23.5t84.5 64.5l64 300q-25 27 -60.5 42.5t-73.5 15.5q-67 0 -120 -39t-82.5 -102.5t-29.5 -137.5 q0 -82 33.5 -124.5t97.5 -42.5zM238 677q0 18 13 29t32 11q14 0 23 -9t9 -22q0 -18 -13 -29t-32 -11q-14 0 -23 9t-9 22zM389 677q0 18 13 29t32 11q14 0 23 -9t9 -22q0 -18 -13 -29t-32 -11q-14 0 -23 9t-9 22z" />
<glyph unicode="&#xe5;" horiz-adv-x="555" d="M376 0l8 68q-81 -78 -173 -78q-79 0 -124.5 55t-45.5 152q0 92 40.5 168.5t105.5 118.5t140 42q41 0 78 -16t64 -45l17 51h42l-110 -516h-42zM223 35q41 0 86.5 23.5t84.5 64.5l64 300q-25 27 -60.5 42.5t-73.5 15.5q-67 0 -120 -39t-82.5 -102.5t-29.5 -137.5 q0 -82 33.5 -124.5t97.5 -42.5zM254 674q0 46 32.5 78t78.5 32q39 0 63 -23.5t24 -62.5q0 -46 -32.5 -78t-78.5 -32q-39 0 -63 23.5t-24 62.5zM410 693q0 24 -13.5 39t-36.5 15q-27 0 -45.5 -19.5t-18.5 -48.5q0 -24 13.5 -39t36.5 -15q27 0 45.5 19.5t18.5 48.5z" />
<glyph unicode="&#xe6;" horiz-adv-x="887" d="M384 68q-81 -78 -173 -78q-79 0 -124.5 55t-45.5 152q0 92 40.5 168.5t105.5 118.5t140 42q41 0 78 -16t64 -45l17 51h42l-19 -90q39 47 93.5 73.5t113.5 26.5q64 0 101.5 -33.5t37.5 -90.5q0 -83 -90.5 -132.5t-243.5 -49.5q-24 0 -55 3q-1 -10 -1 -17 q0 -80 41.5 -125.5t113.5 -45.5q83 0 158 57l13 -40q-75 -62 -177 -62q-63 0 -108.5 29.5t-65.5 83.5l-22 -103h-42zM223 35q41 0 86.5 23.5t84.5 64.5l64 300q-25 27 -60.5 42.5t-73.5 15.5q-67 0 -120 -39t-82.5 -102.5t-29.5 -137.5q0 -82 33.5 -124.5t97.5 -42.5z M711 481q-58 0 -109 -29.5t-85 -78.5t-46 -109q22 -2 44 -2q87 0 153 17.5t101 48t35 69.5t-25 61.5t-68 22.5z" />
<glyph unicode="&#xe7;" horiz-adv-x="483" d="M238 -10q-96 0 -146.5 55t-50.5 160q0 89 43.5 163.5t111 116t142.5 41.5q76 0 132 -38l-20 -39q-50 32 -118 32q-66 0 -121.5 -40t-87 -102.5t-31.5 -132.5q0 -82 39.5 -126.5t112.5 -44.5q71 0 146 57l13 -40q-32 -29 -76 -45.5t-89 -16.5zM103 -164q35 -20 72 -20 q29 0 47 13.5t18 35.5q0 18 -18 28.5t-49 10.5h-32l58 98h50l-38 -61q36 -4 55.5 -22t19.5 -48q0 -42 -30.5 -68.5t-80.5 -26.5q-54 0 -88 24z" />
<glyph unicode="&#xe8;" horiz-adv-x="514" d="M241 -10q-95 0 -147.5 56t-52.5 159q0 88 44 162.5t113 116.5t145 42q64 0 101.5 -33.5t37.5 -90.5q0 -83 -90.5 -132.5t-243.5 -49.5q-24 0 -55 3q-1 -10 -1 -17q0 -80 41.5 -125.5t113.5 -45.5q83 0 158 57l13 -40q-75 -62 -177 -62zM338 481q-58 0 -109 -29.5 t-85 -78.5t-46 -109q22 -2 44 -2q87 0 153 17.5t101 48t35 69.5t-25 61.5t-68 22.5zM310 611l-76 139h64l63 -139h-51z" />
<glyph unicode="&#xe9;" horiz-adv-x="514" d="M241 -10q-95 0 -147.5 56t-52.5 159q0 88 44 162.5t113 116.5t145 42q64 0 101.5 -33.5t37.5 -90.5q0 -83 -90.5 -132.5t-243.5 -49.5q-24 0 -55 3q-1 -10 -1 -17q0 -80 41.5 -125.5t113.5 -45.5q83 0 158 57l13 -40q-75 -62 -177 -62zM338 481q-58 0 -109 -29.5 t-85 -78.5t-46 -109q22 -2 44 -2q87 0 153 17.5t101 48t35 69.5t-25 61.5t-68 22.5zM301 611l122 139h73l-136 -139h-59z" />
<glyph unicode="&#xea;" horiz-adv-x="514" d="M241 -10q-95 0 -147.5 56t-52.5 159q0 88 44 162.5t113 116.5t145 42q64 0 101.5 -33.5t37.5 -90.5q0 -83 -90.5 -132.5t-243.5 -49.5q-24 0 -55 3q-1 -10 -1 -17q0 -80 41.5 -125.5t113.5 -45.5q83 0 158 57l13 -40q-75 -62 -177 -62zM338 481q-58 0 -109 -29.5 t-85 -78.5t-46 -109q22 -2 44 -2q87 0 153 17.5t101 48t35 69.5t-25 61.5t-68 22.5zM201 611l135 139h56l77 -139h-49l-61 94l-101 -94h-57z" />
<glyph unicode="&#xeb;" horiz-adv-x="514" d="M241 -10q-95 0 -147.5 56t-52.5 159q0 88 44 162.5t113 116.5t145 42q64 0 101.5 -33.5t37.5 -90.5q0 -83 -90.5 -132.5t-243.5 -49.5q-24 0 -55 3q-1 -10 -1 -17q0 -80 41.5 -125.5t113.5 -45.5q83 0 158 57l13 -40q-75 -62 -177 -62zM338 481q-58 0 -109 -29.5 t-85 -78.5t-46 -109q22 -2 44 -2q87 0 153 17.5t101 48t35 69.5t-25 61.5t-68 22.5zM237 677q0 18 13 29t32 11q14 0 23 -9t9 -22q0 -18 -13 -29t-32 -11q-14 0 -23 9t-9 22zM388 677q0 18 13 29t32 11q14 0 23 -9t9 -22q0 -18 -13 -29t-32 -11q-14 0 -23 9t-9 22z" />
<glyph unicode="&#xec;" horiz-adv-x="214" d="M137 516h50l-110 -516h-50zM148 611l-76 139h64l63 -139h-51z" />
<glyph unicode="&#xed;" horiz-adv-x="214" d="M137 516h50l-110 -516h-50zM139 611l122 139h73l-136 -139h-59z" />
<glyph unicode="&#xee;" horiz-adv-x="214" d="M137 516h50l-110 -516h-50zM39 611l135 139h56l77 -139h-49l-61 94l-101 -94h-57z" />
<glyph unicode="&#xef;" horiz-adv-x="214" d="M137 516h50l-110 -516h-50zM75 677q0 18 13 29t32 11q14 0 23 -9t9 -22q0 -18 -13 -29t-32 -11q-14 0 -23 9t-9 22zM226 677q0 18 13 29t32 11q14 0 23 -9t9 -22q0 -18 -13 -29t-32 -11q-14 0 -23 9t-9 22z" />
<glyph unicode="&#xf0;" horiz-adv-x="559" d="M533 739l-114 -78q107 -107 107 -282q0 -117 -38.5 -204.5t-104 -136t-144.5 -48.5q-61 0 -106 26.5t-69.5 73t-24.5 105.5q0 88 39 159.5t101.5 111.5t131.5 40q59 0 105 -29t65 -79q-3 145 -99 238l-139 -95l-22 34l129 88q-53 39 -115 64l18 37q78 -30 135 -75l123 84 zM242 35q61 0 113 38.5t81 99t29 128.5q0 71 -43 115.5t-115 44.5q-60 0 -110.5 -37.5t-78.5 -97.5t-28 -130q0 -47 19.5 -84t54 -57t78.5 -20z" />
<glyph unicode="&#xf1;" horiz-adv-x="557" d="M170 446q92 80 196 80q66 0 101 -33.5t35 -97.5q0 -20 -3.5 -42.5t-12.5 -66.5l-61 -286h-50l62 291q13 62 13 95q0 48 -24.5 70.5t-78.5 22.5q-45 0 -93 -22t-93 -63l-84 -394h-50l110 516h42zM212 624q9 52 33.5 81t58.5 29q19 0 34.5 -8t37.5 -31q20 -21 28.5 -26.5 t19.5 -5.5q16 0 29 18t18 48h42q-9 -52 -33.5 -81t-58.5 -29q-19 0 -34.5 8t-37.5 31q-20 21 -28.5 26.5t-19.5 5.5q-16 0 -29 -18t-18 -48h-42z" />
<glyph unicode="&#xf2;" horiz-adv-x="560" d="M519 311q0 -90 -40.5 -164.5t-104.5 -115.5t-136 -41q-60 0 -105 27t-68.5 75.5t-23.5 112.5q0 90 40.5 164.5t104.5 115.5t136 41q60 0 105 -27t68.5 -75.5t23.5 -112.5zM242 35q63 0 115.5 39t81.5 101t29 135q0 79 -40.5 125t-109.5 46q-63 0 -115.5 -39t-81.5 -101 t-29 -135q0 -79 40.5 -125t109.5 -46zM321 611l-76 139h64l63 -139h-51z" />
<glyph unicode="&#xf3;" horiz-adv-x="560" d="M519 311q0 -90 -40.5 -164.5t-104.5 -115.5t-136 -41q-60 0 -105 27t-68.5 75.5t-23.5 112.5q0 90 40.5 164.5t104.5 115.5t136 41q60 0 105 -27t68.5 -75.5t23.5 -112.5zM242 35q63 0 115.5 39t81.5 101t29 135q0 79 -40.5 125t-109.5 46q-63 0 -115.5 -39t-81.5 -101 t-29 -135q0 -79 40.5 -125t109.5 -46zM312 611l122 139h73l-136 -139h-59z" />
<glyph unicode="&#xf4;" horiz-adv-x="560" d="M519 311q0 -90 -40.5 -164.5t-104.5 -115.5t-136 -41q-60 0 -105 27t-68.5 75.5t-23.5 112.5q0 90 40.5 164.5t104.5 115.5t136 41q60 0 105 -27t68.5 -75.5t23.5 -112.5zM242 35q63 0 115.5 39t81.5 101t29 135q0 79 -40.5 125t-109.5 46q-63 0 -115.5 -39t-81.5 -101 t-29 -135q0 -79 40.5 -125t109.5 -46zM212 611l135 139h56l77 -139h-49l-61 94l-101 -94h-57z" />
<glyph unicode="&#xf5;" horiz-adv-x="560" d="M519 311q0 -90 -40.5 -164.5t-104.5 -115.5t-136 -41q-60 0 -105 27t-68.5 75.5t-23.5 112.5q0 90 40.5 164.5t104.5 115.5t136 41q60 0 105 -27t68.5 -75.5t23.5 -112.5zM242 35q63 0 115.5 39t81.5 101t29 135q0 79 -40.5 125t-109.5 46q-63 0 -115.5 -39t-81.5 -101 t-29 -135q0 -79 40.5 -125t109.5 -46zM211 624q9 52 33.5 81t58.5 29q19 0 34.5 -8t37.5 -31q20 -21 28.5 -26.5t19.5 -5.5q16 0 29 18t18 48h42q-9 -52 -33.5 -81t-58.5 -29q-19 0 -34.5 8t-37.5 31q-20 21 -28.5 26.5t-19.5 5.5q-16 0 -29 -18t-18 -48h-42z" />
<glyph unicode="&#xf6;" horiz-adv-x="560" d="M519 311q0 -90 -40.5 -164.5t-104.5 -115.5t-136 -41q-60 0 -105 27t-68.5 75.5t-23.5 112.5q0 90 40.5 164.5t104.5 115.5t136 41q60 0 105 -27t68.5 -75.5t23.5 -112.5zM242 35q63 0 115.5 39t81.5 101t29 135q0 79 -40.5 125t-109.5 46q-63 0 -115.5 -39t-81.5 -101 t-29 -135q0 -79 40.5 -125t109.5 -46zM248 677q0 18 13 29t32 11q14 0 23 -9t9 -22q0 -18 -13 -29t-32 -11q-14 0 -23 9t-9 22zM399 677q0 18 13 29t32 11q14 0 23 -9t9 -22q0 -18 -13 -29t-32 -11q-14 0 -23 9t-9 22z" />
<glyph unicode="&#xf7;" horiz-adv-x="600" d="M275 131q-16 0 -26 9.5t-10 25.5q0 19 13.5 32t32.5 13q16 0 26 -9.5t10 -26.5q0 -18 -13.5 -31t-32.5 -13zM528 321h-431l10 46h431zM350 477q-16 0 -26 9.5t-10 26.5q0 18 13.5 31t32.5 13q16 0 26 -9.5t10 -25.5q0 -19 -13.5 -32t-32.5 -13z" />
<glyph unicode="&#xf8;" horiz-adv-x="560" d="M564 499l-72 -69q27 -48 27 -119q0 -90 -40.5 -164.5t-104.5 -115.5t-136 -41q-88 0 -143 58l-66 -63l-33 32l72 69q-27 48 -27 119q0 90 40.5 164.5t104.5 115.5t136 41q88 0 143 -58l66 63zM242 35q63 0 115.5 39t81.5 101t29 135q0 47 -15 83l-322 -310 q20 -23 48.5 -35.5t62.5 -12.5zM92 206q0 -47 15 -83l322 310q-40 48 -111 48q-63 0 -115.5 -39t-81.5 -101t-29 -135z" />
<glyph unicode="&#xf9;" horiz-adv-x="553" d="M374 0l8 70q-91 -80 -193 -80q-65 0 -99.5 34t-34.5 97q0 20 3.5 42.5t12.5 66.5l61 286h50l-62 -291q-13 -62 -13 -95q0 -48 24.5 -70.5t76.5 -22.5q44 0 91.5 22t92.5 62l84 395h50l-110 -516h-42zM315 611l-76 139h64l63 -139h-51z" />
<glyph unicode="&#xfa;" horiz-adv-x="553" d="M374 0l8 70q-91 -80 -193 -80q-65 0 -99.5 34t-34.5 97q0 20 3.5 42.5t12.5 66.5l61 286h50l-62 -291q-13 -62 -13 -95q0 -48 24.5 -70.5t76.5 -22.5q44 0 91.5 22t92.5 62l84 395h50l-110 -516h-42zM306 611l122 139h73l-136 -139h-59z" />
<glyph unicode="&#xfb;" horiz-adv-x="553" d="M374 0l8 70q-91 -80 -193 -80q-65 0 -99.5 34t-34.5 97q0 20 3.5 42.5t12.5 66.5l61 286h50l-62 -291q-13 -62 -13 -95q0 -48 24.5 -70.5t76.5 -22.5q44 0 91.5 22t92.5 62l84 395h50l-110 -516h-42zM206 611l135 139h56l77 -139h-49l-61 94l-101 -94h-57z" />
<glyph unicode="&#xfc;" horiz-adv-x="553" d="M374 0l8 70q-91 -80 -193 -80q-65 0 -99.5 34t-34.5 97q0 20 3.5 42.5t12.5 66.5l61 286h50l-62 -291q-13 -62 -13 -95q0 -48 24.5 -70.5t76.5 -22.5q44 0 91.5 22t92.5 62l84 395h50l-110 -516h-42zM242 677q0 18 13 29t32 11q14 0 23 -9t9 -22q0 -18 -13 -29t-32 -11 q-14 0 -23 9t-9 22zM393 677q0 18 13 29t32 11q14 0 23 -9t9 -22q0 -18 -13 -29t-32 -11q-14 0 -23 9t-9 22z" />
<glyph unicode="&#xfd;" horiz-adv-x="468" d="M-24 -226q-18 0 -36.5 5.5t-31.5 15.5l18 39q25 -15 50 -15q37 0 71.5 33t86.5 122l19 34l-88 508h51l73 -451l259 451h56l-310 -522q-51 -85 -85.5 -132t-64.5 -67.5t-68 -20.5zM259 611l122 139h73l-136 -139h-59z" />
<glyph unicode="&#xfe;" horiz-adv-x="555" d="M344 526q79 0 124.5 -55t45.5 -152q0 -93 -40 -169t-104.5 -118t-141.5 -42q-40 0 -77 15t-64 43l-56 -264h-50l206 966h50l-64 -298q80 74 171 74zM332 481q-90 0 -170 -83l-65 -305q24 -27 60 -42.5t74 -15.5q67 0 120 39t82.5 102.5t29.5 137.5q0 82 -33.5 124.5 t-97.5 42.5z" />
<glyph unicode="&#xff;" horiz-adv-x="468" d="M-24 -226q-18 0 -36.5 5.5t-31.5 15.5l18 39q25 -15 50 -15q37 0 71.5 33t86.5 122l19 34l-88 508h51l73 -451l259 451h56l-310 -522q-51 -85 -85.5 -132t-64.5 -67.5t-68 -20.5zM195 677q0 18 13 29t32 11q14 0 23 -9t9 -22q0 -18 -13 -29t-32 -11q-14 0 -23 9t-9 22z M346 677q0 18 13 29t32 11q14 0 23 -9t9 -22q0 -18 -13 -29t-32 -11q-14 0 -23 9t-9 22z" />
<glyph unicode="&#x102;" horiz-adv-x="588" d="M474 0l-31 213h-310l-122 -213h-55l406 700h56l110 -700h-54zM160 260h276l-56 385zM400 765q-52 0 -81.5 25t-29.5 68q0 5 0.5 10t1.5 10h42v-4q0 -33 17 -49t54 -16q36 0 61 18.5t33 50.5h42q-9 -50 -48.5 -81.5t-91.5 -31.5z" />
<glyph unicode="&#x103;" horiz-adv-x="555" d="M376 0l8 68q-81 -78 -173 -78q-79 0 -124.5 55t-45.5 152q0 92 40.5 168.5t105.5 118.5t140 42q41 0 78 -16t64 -45l17 51h42l-110 -516h-42zM223 35q41 0 86.5 23.5t84.5 64.5l64 300q-25 27 -60.5 42.5t-73.5 15.5q-67 0 -120 -39t-82.5 -102.5t-29.5 -137.5 q0 -82 33.5 -124.5t97.5 -42.5zM339 608q-48 0 -76.5 26.5t-28.5 69.5q0 10 1 17h42v-8q0 -61 66 -61q33 0 57 18.5t32 50.5h42q-9 -49 -47 -81t-88 -32z" />
<glyph unicode="&#x131;" horiz-adv-x="214" d="M137 516h50l-110 -516h-50z" />
<glyph unicode="&#x132;" horiz-adv-x="643" d="M30 0l149 700h52l-149 -700h-52zM341 -10q-34 0 -69.5 12t-61.5 31l21 42q55 -36 112 -36q64 0 100 41.5t56 135.5l103 484h52l-105 -493q-24 -113 -73.5 -165t-134.5 -52z" />
<glyph unicode="&#x133;" d="M137 516h50l-110 -516h-50zM153 677q0 18 13 29t32 11q14 0 23 -9t9 -22q0 -18 -13 -29t-32 -11q-14 0 -23 9t-9 22zM411 516l-125 -586q-17 -80 -51.5 -118t-92.5 -38q-18 0 -37 5t-30 12l16 41q25 -13 53 -13q35 0 57.5 28t35.5 87l124 582h50zM377 677q0 18 13 29 t32 11q14 0 23 -9t9 -22q0 -18 -13 -29t-32 -11q-14 0 -23 9t-9 22z" />
<glyph unicode="&#x152;" horiz-adv-x="1048" d="M425 710q90 0 157.5 -55t85.5 -142l40 187h390l-10 -48h-339l-58 -274h287l-10 -48h-287l-60 -282h352l-10 -48h-404l29 135q-46 -67 -114 -106t-144 -39q-81 0 -142 38t-93.5 104t-32.5 149q0 121 51.5 220t134 154t177.5 55zM421 661q-85 0 -155.5 -53t-110 -138.5 t-39.5 -184.5q0 -111 59.5 -178.5t158.5 -67.5q85 0 155.5 53t110 138.5t39.5 184.5q0 111 -59.5 178.5t-158.5 67.5z" />
<glyph unicode="&#x153;" horiz-adv-x="932" d="M659 -10q-75 0 -123.5 37.5t-66.5 109.5q-38 -69 -99.5 -108t-131.5 -39q-60 0 -105 27t-68.5 75.5t-23.5 112.5q0 90 40.5 164.5t104.5 115.5t136 41q75 0 123.5 -42t61.5 -118q40 74 108.5 117t145.5 43q64 0 101.5 -33.5t37.5 -90.5q0 -83 -90.5 -132.5t-243.5 -49.5 q-24 0 -55 3q-1 -10 -1 -17q0 -80 41.5 -125.5t113.5 -45.5q83 0 158 57l13 -40q-75 -62 -177 -62zM242 35q63 0 115.5 39t81.5 101t29 135q0 79 -40.5 125t-109.5 46q-63 0 -115.5 -39t-81.5 -101t-29 -135q0 -79 40.5 -125t109.5 -46zM756 481q-58 0 -109 -29.5t-85 -78.5 t-46 -109q22 -2 44 -2q87 0 153 17.5t101 48t35 69.5t-25 61.5t-68 22.5z" />
<glyph unicode="&#x15e;" horiz-adv-x="569" d="M233 -10q-57 0 -116.5 20t-101.5 53l21 43q44 -32 95.5 -49.5t103.5 -17.5q61 0 105 19.5t68 54t24 75.5q0 48 -27.5 78.5t-115.5 71.5l-34 16q-73 34 -103 73t-30 94q0 56 30 99t82.5 66.5t118.5 23.5q52 0 104.5 -15.5t93.5 -43.5l-19 -43q-94 53 -180 53 q-80 0 -128 -38t-48 -100q0 -42 24 -69.5t82 -55.5l34 -16q98 -46 134 -88.5t36 -103.5q0 -58 -33.5 -104.5t-90 -71t-129.5 -24.5zM104 -162q32 -20 71 -20q29 0 46.5 13t17.5 34q0 38 -67 38h-32l58 99h51l-37 -60q75 -8 75 -71q0 -42 -31 -68.5t-81 -26.5q-54 0 -88 24z " />
<glyph unicode="&#x15f;" horiz-adv-x="450" d="M188 -10q-47 0 -93 15.5t-81 43.5l18 38q72 -52 157 -52q62 0 99 28t37 74q0 35 -22 57t-82 48l-28 12q-59 25 -84 54.5t-25 72.5q0 42 25.5 75.5t68.5 51.5t96 18q84 0 149 -45l-18 -38q-62 38 -134 38q-61 0 -98.5 -27t-37.5 -71q0 -29 18.5 -49t63.5 -39l28 -12 q74 -32 102.5 -62.5t28.5 -78.5q0 -66 -52.5 -109t-135.5 -43zM57 -164q35 -20 72 -20q29 0 47 13.5t18 35.5q0 18 -18 28.5t-49 10.5h-32l58 98h50l-38 -61q36 -4 55.5 -22t19.5 -48q0 -42 -30.5 -68.5t-80.5 -26.5q-54 0 -88 24z" />
<glyph unicode="&#x160;" horiz-adv-x="569" d="M233 -10q-57 0 -116.5 20t-101.5 53l21 43q44 -32 95.5 -49.5t103.5 -17.5q61 0 105 19.5t68 54t24 75.5q0 48 -27.5 78.5t-115.5 71.5l-34 16q-73 34 -103 73t-30 94q0 56 30 99t82.5 66.5t118.5 23.5q52 0 104.5 -15.5t93.5 -43.5l-19 -43q-94 53 -180 53 q-80 0 -128 -38t-48 -100q0 -42 24 -69.5t82 -55.5l34 -16q98 -46 134 -88.5t36 -103.5q0 -58 -33.5 -104.5t-90 -71t-129.5 -24.5zM544 879l-136 -109h-62l-89 109h55l69 -69l98 69h65z" />
<glyph unicode="&#x161;" horiz-adv-x="450" d="M188 -10q-47 0 -93 15.5t-81 43.5l18 38q72 -52 157 -52q62 0 99 28t37 74q0 35 -22 57t-82 48l-28 12q-59 25 -84 54.5t-25 72.5q0 42 25.5 75.5t68.5 51.5t96 18q84 0 149 -45l-18 -38q-62 38 -134 38q-61 0 -98.5 -27t-37.5 -71q0 -29 18.5 -49t63.5 -39l28 -12 q74 -32 102.5 -62.5t28.5 -78.5q0 -66 -52.5 -109t-135.5 -43zM459 750l-135 -139h-56l-77 139h49l61 -94l101 94h57z" />
<glyph unicode="&#x162;" horiz-adv-x="547" d="M188 0l139 652h-235l10 48h518l-10 -48h-231l-139 -652h-52zM94 -162q32 -20 71 -20q29 0 46.5 13t17.5 34q0 38 -67 38h-32l58 99h51l-37 -60q75 -8 75 -71q0 -42 -31 -68.5t-81 -26.5q-54 0 -88 24z" />
<glyph unicode="&#x163;" horiz-adv-x="374" d="M176 -10q-55 0 -83.5 29t-28.5 85q0 31 8 69l64 301h-93l9 42h93l43 151h39l-32 -151h179l-9 -42h-179l-63 -296q-8 -38 -8 -64q0 -79 73 -79q24 0 52 11.5t53 31.5l13 -40q-27 -22 -62 -35t-68 -13zM48 -164q35 -20 72 -20q29 0 47 13.5t18 35.5q0 18 -18 28.5t-49 10.5 h-32l58 98h50l-38 -61q36 -4 55.5 -22t19.5 -48q0 -42 -30.5 -68.5t-80.5 -26.5q-54 0 -88 24z" />
<glyph unicode="&#x174;" horiz-adv-x="801" d="M134 0l-24 700h53l15 -625l270 565h53l25 -571l284 631h54l-321 -700h-61l-24 562l-268 -562h-56zM350 770l136 109h62l89 -109h-55l-69 69l-98 -69h-65z" />
<glyph unicode="&#x175;" horiz-adv-x="714" d="M68 516h51l41 -445l219 426h44l40 -422l226 441h56l-273 -516h-44l-42 420l-219 -420h-44zM281 611l135 139h56l77 -139h-49l-61 94l-101 -94h-57z" />
<glyph unicode="&#x176;" horiz-adv-x="537" d="M242 289l-146 411h55l126 -367l282 367h62l-327 -412l-61 -288h-52zM218 770l136 109h62l89 -109h-55l-69 69l-98 -69h-65z" />
<glyph unicode="&#x177;" horiz-adv-x="468" d="M-24 -226q-18 0 -36.5 5.5t-31.5 15.5l18 39q25 -15 50 -15q37 0 71.5 33t86.5 122l19 34l-88 508h51l73 -451l259 451h56l-310 -522q-51 -85 -85.5 -132t-64.5 -67.5t-68 -20.5zM159 611l135 139h56l77 -139h-49l-61 94l-101 -94h-57z" />
<glyph unicode="&#x178;" horiz-adv-x="537" d="M242 289l-146 411h55l126 -367l282 367h62l-327 -412l-61 -288h-52zM255 819q0 18 12.5 31t30.5 13q16 0 25.5 -9.5t9.5 -24.5q0 -18 -12.5 -31t-30.5 -13q-16 0 -25.5 9.5t-9.5 24.5zM413 819q0 18 12.5 31t30.5 13q16 0 25.5 -9.5t9.5 -24.5q0 -18 -12.5 -31t-30.5 -13 q-16 0 -25.5 9.5t-9.5 24.5z" />
<glyph unicode="&#x17d;" horiz-adv-x="576" d="M-4 0l10 47l523 605h-389l10 48h454l-10 -47l-523 -605h413l-10 -48h-478zM560 879l-136 -109h-62l-89 109h55l69 -69l98 69h65z" />
<glyph unicode="&#x17e;" horiz-adv-x="485" d="M10 38l395 436h-293l9 42h355l-8 -38l-395 -436h311l-9 -42h-373zM473 750l-135 -139h-56l-77 139h49l61 -94l101 94h57z" />
<glyph unicode="&#x218;" horiz-adv-x="569" d="M233 -10q-57 0 -116.5 20t-101.5 53l21 43q44 -32 95.5 -49.5t103.5 -17.5q61 0 105 19.5t68 54t24 75.5q0 48 -27.5 78.5t-115.5 71.5l-34 16q-73 34 -103 73t-30 94q0 56 30 99t82.5 66.5t118.5 23.5q52 0 104.5 -15.5t93.5 -43.5l-19 -43q-94 53 -180 53 q-80 0 -128 -38t-48 -100q0 -42 24 -69.5t82 -55.5l34 -16q98 -46 134 -88.5t36 -103.5q0 -58 -33.5 -104.5t-90 -71t-129.5 -24.5zM139 -213q39 34 52 71q-12 2 -19 10.5t-7 20.5q0 17 12.5 28.5t31.5 11.5q16 0 25 -9.5t9 -25.5q0 -34 -21.5 -67.5t-62.5 -63.5z" />
<glyph unicode="&#x219;" horiz-adv-x="450" d="M188 -10q-47 0 -93 15.5t-81 43.5l18 38q72 -52 157 -52q62 0 99 28t37 74q0 35 -22 57t-82 48l-28 12q-59 25 -84 54.5t-25 72.5q0 42 25.5 75.5t68.5 51.5t96 18q84 0 149 -45l-18 -38q-62 38 -134 38q-61 0 -98.5 -27t-37.5 -71q0 -29 18.5 -49t63.5 -39l28 -12 q74 -32 102.5 -62.5t28.5 -78.5q0 -66 -52.5 -109t-135.5 -43zM92 -213q24 22 35.5 38t17.5 34q-12 1 -19.5 9t-7.5 21q0 17 12.5 28.5t30.5 11.5q16 0 24.5 -9.5t8.5 -25.5q0 -33 -21.5 -66.5t-61.5 -63.5z" />
<glyph unicode="&#x21a;" horiz-adv-x="547" d="M188 0l139 652h-235l10 48h518l-10 -48h-231l-139 -652h-52zM129 -213q39 34 52 71q-12 2 -19 10.5t-7 20.5q0 17 12.5 28.5t31.5 11.5q16 0 25 -9.5t9 -25.5q0 -34 -21.5 -67.5t-62.5 -63.5z" />
<glyph unicode="&#x21b;" horiz-adv-x="374" d="M176 -10q-55 0 -83.5 29t-28.5 85q0 31 8 69l64 301h-93l9 42h93l43 151h39l-32 -151h179l-9 -42h-179l-63 -296q-8 -38 -8 -64q0 -79 73 -79q24 0 52 11.5t53 31.5l13 -40q-27 -22 -62 -35t-68 -13zM83 -213q24 22 35.5 38t17.5 34q-12 1 -19.5 9t-7.5 21 q0 17 12.5 28.5t30.5 11.5q16 0 24.5 -9.5t8.5 -25.5q0 -33 -21.5 -66.5t-61.5 -63.5z" />
<glyph unicode="&#x237;" horiz-adv-x="214" d="M187 516l-125 -586q-17 -80 -51.5 -118t-92.5 -38q-18 0 -37 5t-30 12l16 41q25 -13 53 -13q35 0 57.5 28t35.5 87l124 582h50z" />
<glyph unicode="&#x2c6;" horiz-adv-x="557" d="M204 611l135 139h56l77 -139h-49l-61 94l-101 -94h-57z" />
<glyph unicode="&#x2c7;" horiz-adv-x="557" d="M508 750l-135 -139h-56l-77 139h49l61 -94l101 94h57z" />
<glyph unicode="&#x2cb;" horiz-adv-x="557" d="M351 611l-76 139h64l63 -139h-51z" />
<glyph unicode="&#x2d8;" horiz-adv-x="557" d="M348 608q-48 0 -76.5 26.5t-28.5 69.5q0 10 1 17h42v-8q0 -61 66 -61q33 0 57 18.5t32 50.5h42q-9 -49 -47 -81t-88 -32z" />
<glyph unicode="&#x2da;" horiz-adv-x="557" d="M259 674q0 46 32.5 78t78.5 32q39 0 63 -23.5t24 -62.5q0 -46 -32.5 -78t-78.5 -32q-39 0 -63 23.5t-24 62.5zM415 693q0 24 -13.5 39t-36.5 15q-27 0 -45.5 -19.5t-18.5 -48.5q0 -24 13.5 -39t36.5 -15q27 0 45.5 19.5t18.5 48.5z" />
<glyph unicode="&#x2dc;" horiz-adv-x="557" d="M206 624q9 52 33.5 81t58.5 29q19 0 34.5 -8t37.5 -31q20 -21 28.5 -26.5t19.5 -5.5q16 0 29 18t18 48h42q-9 -52 -33.5 -81t-58.5 -29q-19 0 -34.5 8t-37.5 31q-20 21 -28.5 26.5t-19.5 5.5q-16 0 -29 -18t-18 -48h-42z" />
<glyph unicode="&#x300;" horiz-adv-x="0" d="M-13 611l-76 139h64l63 -139h-51z" />
<glyph unicode="&#x301;" horiz-adv-x="0" d="M-22 611l122 139h73l-136 -139h-59z" />
<glyph unicode="&#x302;" horiz-adv-x="0" d="M-122 611l135 139h56l77 -139h-49l-61 94l-101 -94h-57z" />
<glyph unicode="&#x303;" horiz-adv-x="0" d="M-123 624q9 52 33.5 81t58.5 29q19 0 34.5 -8t37.5 -31q20 -21 28.5 -26.5t19.5 -5.5q16 0 29 18t18 48h42q-9 -52 -33.5 -81t-58.5 -29q-19 0 -34.5 8t-37.5 31q-20 21 -28.5 26.5t-19.5 5.5q-16 0 -29 -18t-18 -48h-42z" />
<glyph unicode="&#x306;" horiz-adv-x="0" d="M15 608q-48 0 -76.5 26.5t-28.5 69.5q0 10 1 17h42v-8q0 -61 66 -61q33 0 57 18.5t32 50.5h42q-9 -49 -47 -81t-88 -32z" />
<glyph unicode="&#x308;" horiz-adv-x="0" d="M-86 677q0 18 13 29t32 11q14 0 23 -9t9 -22q0 -18 -13 -29t-32 -11q-14 0 -23 9t-9 22zM65 677q0 18 13 29t32 11q14 0 23 -9t9 -22q0 -18 -13 -29t-32 -11q-14 0 -23 9t-9 22z" />
<glyph unicode="&#x30a;" horiz-adv-x="0" d="M-70 674q0 46 32.5 78t78.5 32q39 0 63 -23.5t24 -62.5q0 -46 -32.5 -78t-78.5 -32q-39 0 -63 23.5t-24 62.5zM86 693q0 24 -13.5 39t-36.5 15q-27 0 -45.5 -19.5t-18.5 -48.5q0 -24 13.5 -39t36.5 -15q27 0 45.5 19.5t18.5 48.5z" />
<glyph unicode="&#x30c;" horiz-adv-x="0" d="M176 750l-135 -139h-56l-77 139h49l61 -94l101 94h57z" />
<glyph unicode="&#x326;" horiz-adv-x="0" d="M-76 -213q24 22 35.5 38t17.5 34q-12 1 -19.5 9t-7.5 21q0 17 12.5 28.5t30.5 11.5q16 0 24.5 -9.5t8.5 -25.5q0 -33 -21.5 -66.5t-61.5 -63.5z" />
<glyph unicode="&#x327;" horiz-adv-x="0" d="M-113 -164q35 -20 72 -20q29 0 47 13.5t18 35.5q0 18 -18 28.5t-49 10.5h-32l58 98h50l-38 -61q36 -4 55.5 -22t19.5 -48q0 -42 -30.5 -68.5t-80.5 -26.5q-54 0 -88 24z" />
<glyph unicode="&#x1e80;" horiz-adv-x="801" d="M134 0l-24 700h53l15 -625l270 565h53l25 -571l284 631h54l-321 -700h-61l-24 562l-268 -562h-56zM466 770l-87 109h72l69 -109h-54z" />
<glyph unicode="&#x1e81;" horiz-adv-x="714" d="M68 516h51l41 -445l219 426h44l40 -422l226 441h56l-273 -516h-44l-42 420l-219 -420h-44zM390 611l-76 139h64l63 -139h-51z" />
<glyph unicode="&#x1e82;" horiz-adv-x="801" d="M134 0l-24 700h53l15 -625l270 565h53l25 -571l284 631h54l-321 -700h-61l-24 562l-268 -562h-56zM458 770l115 109h80l-133 -109h-62z" />
<glyph unicode="&#x1e83;" horiz-adv-x="714" d="M68 516h51l41 -445l219 426h44l40 -422l226 441h56l-273 -516h-44l-42 420l-219 -420h-44zM381 611l122 139h73l-136 -139h-59z" />
<glyph unicode="&#x1e84;" horiz-adv-x="801" d="M134 0l-24 700h53l15 -625l270 565h53l25 -571l284 631h54l-321 -700h-61l-24 562l-268 -562h-56zM387 819q0 18 12.5 31t30.5 13q16 0 25.5 -9.5t9.5 -24.5q0 -18 -12.5 -31t-30.5 -13q-16 0 -25.5 9.5t-9.5 24.5zM545 819q0 18 12.5 31t30.5 13q16 0 25.5 -9.5 t9.5 -24.5q0 -18 -12.5 -31t-30.5 -13q-16 0 -25.5 9.5t-9.5 24.5z" />
<glyph unicode="&#x1e85;" horiz-adv-x="714" d="M68 516h51l41 -445l219 426h44l40 -422l226 441h56l-273 -516h-44l-42 420l-219 -420h-44zM317 677q0 18 13 29t32 11q14 0 23 -9t9 -22q0 -18 -13 -29t-32 -11q-14 0 -23 9t-9 22zM468 677q0 18 13 29t32 11q14 0 23 -9t9 -22q0 -18 -13 -29t-32 -11q-14 0 -23 9t-9 22z " />
<glyph unicode="&#x1e9e;" horiz-adv-x="674" d="M387 -10q-88 0 -156 44l21 44q65 -39 140 -39q78 0 129 49t51 123q0 67 -43.5 101.5t-128.5 34.5q-20 0 -36 -2l9 47l245 231q-34 17 -84.5 28t-91.5 11q-115 0 -181.5 -64.5t-95.5 -205.5l-83 -392h-52l84 397q34 159 115 236t215 77q58 0 124 -19t103 -46l-10 -45 l-221 -207q86 -4 136 -52t50 -128q0 -66 -31.5 -117t-85.5 -78.5t-122 -27.5z" />
<glyph unicode="&#x1ef2;" horiz-adv-x="537" d="M242 289l-146 411h55l126 -367l282 367h62l-327 -412l-61 -288h-52zM334 770l-87 109h72l69 -109h-54z" />
<glyph unicode="&#x1ef3;" horiz-adv-x="468" d="M-24 -226q-18 0 -36.5 5.5t-31.5 15.5l18 39q25 -15 50 -15q37 0 71.5 33t86.5 122l19 34l-88 508h51l73 -451l259 451h56l-310 -522q-51 -85 -85.5 -132t-64.5 -67.5t-68 -20.5zM268 611l-76 139h64l63 -139h-51z" />
<glyph unicode="&#x2000;" horiz-adv-x="500" />
<glyph unicode="&#x2001;" horiz-adv-x="1000" />
<glyph unicode="&#x2002;" horiz-adv-x="500" />
<glyph unicode="&#x2003;" horiz-adv-x="1000" />
<glyph unicode="&#x2004;" horiz-adv-x="333" />
<glyph unicode="&#x2005;" horiz-adv-x="250" />
<glyph unicode="&#x2006;" horiz-adv-x="166" />
<glyph unicode="&#x2007;" horiz-adv-x="600" />
<glyph unicode="&#x2008;" horiz-adv-x="163" />
<glyph unicode="&#x2009;" horiz-adv-x="200" />
<glyph unicode="&#x200a;" horiz-adv-x="55" />
<glyph unicode="&#x200b;" horiz-adv-x="0" />
<glyph unicode="&#x2013;" horiz-adv-x="500" d="M8 294h500l-9 -42h-500z" />
<glyph unicode="&#x2014;" horiz-adv-x="1000" d="M8 294h1000l-9 -42h-1000z" />
<glyph unicode="&#x2018;" horiz-adv-x="151" d="M227 696q-34 -23 -54 -46t-33 -53q14 -2 22 -11t8 -23q0 -17 -12.5 -29.5t-31.5 -12.5q-17 0 -26 11t-9 30q0 39 33.5 82.5t87.5 74.5z" />
<glyph unicode="&#x2019;" horiz-adv-x="151" d="M64 535q34 23 54 46t33 53q-14 2 -22 11t-8 23q0 17 12.5 29.5t31.5 12.5q17 0 26 -11t9 -30q0 -39 -33.5 -82.5t-87.5 -74.5z" />
<glyph unicode="&#x201a;" horiz-adv-x="151" d="M-69 -107q34 23 54 46t33 53q-14 2 -22 11t-8 23q0 17 12.5 29.5t31.5 12.5q17 0 26 -11t9 -30q0 -39 -33.5 -82.5t-87.5 -74.5z" />
<glyph unicode="&#x201c;" horiz-adv-x="288" d="M227 696q-34 -23 -54 -46t-33 -53q14 -2 22 -11t8 -23q0 -17 -12.5 -29.5t-31.5 -12.5q-17 0 -26 11t-9 30q0 39 33.5 82.5t87.5 74.5zM364 696q-34 -23 -54 -46t-33 -53q14 -2 22 -11t8 -23q0 -17 -12.5 -29.5t-31.5 -12.5q-17 0 -26 11t-9 30q0 39 33.5 82.5t87.5 74.5 z" />
<glyph unicode="&#x201d;" horiz-adv-x="288" d="M64 535q34 23 54 46t33 53q-14 2 -22 11t-8 23q0 17 12.5 29.5t31.5 12.5q17 0 26 -11t9 -30q0 -39 -33.5 -82.5t-87.5 -74.5zM201 535q34 23 54 46t33 53q-14 2 -22 11t-8 23q0 17 12.5 29.5t31.5 12.5q17 0 26 -11t9 -30q0 -39 -33.5 -82.5t-87.5 -74.5z" />
<glyph unicode="&#x201e;" horiz-adv-x="288" d="M-69 -107q34 23 54 46t33 53q-14 2 -22 11t-8 23q0 17 12.5 29.5t31.5 12.5q17 0 26 -11t9 -30q0 -39 -33.5 -82.5t-87.5 -74.5zM68 -107q34 23 54 46t33 53q-14 2 -22 11t-8 23q0 17 12.5 29.5t31.5 12.5q17 0 26 -11t9 -30q0 -39 -33.5 -82.5t-87.5 -74.5z" />
<glyph unicode="&#x2020;" horiz-adv-x="463" d="M86 485h160l52 245h50l-52 -245h160l-9 -44h-160l-118 -557h-50l118 557h-160z" />
<glyph unicode="&#x2021;" horiz-adv-x="463" d="M381 129h-160l-52 -245h-50l52 245h-160l9 44h160l57 268h-160l9 44h160l52 245h50l-52 -245h160l-9 -44h-160l-57 -268h160z" />
<glyph unicode="&#x2022;" horiz-adv-x="231" d="M110 209q-29 0 -47.5 18.5t-18.5 46.5q0 39 29.5 66t68.5 27q29 0 47.5 -18.5t18.5 -46.5q0 -39 -29.5 -66t-68.5 -27z" />
<glyph unicode="&#x2026;" horiz-adv-x="1000" d="M76 25q0 19 13.5 32t32.5 13q16 0 26 -9.5t10 -26.5q0 -18 -13.5 -31t-32.5 -13q-16 0 -26 9.5t-10 25.5zM410 25q0 19 13.5 32t32.5 13q16 0 26 -9.5t10 -26.5q0 -18 -13.5 -31t-32.5 -13q-16 0 -26 9.5t-10 25.5zM744 25q0 19 13.5 32t32.5 13q16 0 26 -9.5t10 -26.5 q0 -18 -13.5 -31t-32.5 -13q-16 0 -26 9.5t-10 25.5z" />
<glyph unicode="&#x2032;" horiz-adv-x="163" d="M166 700h61l-92 -195h-44z" />
<glyph unicode="&#x2033;" horiz-adv-x="314" d="M166 700h61l-92 -195h-44zM317 700h61l-92 -195h-44z" />
<glyph unicode="&#x2039;" horiz-adv-x="259" d="M86 275l94 -168h-49l-97 173l163 173h57z" />
<glyph unicode="&#x203a;" horiz-adv-x="259" d="M181 285l-94 168h49l97 -173l-163 -173h-57z" />
<glyph unicode="&#x2044;" horiz-adv-x="102" d="M-215 0l519 690h54l-519 -690h-54z" />
<glyph unicode="&#x2070;" d="M267 453q45 0 81 40t50 106q8 40 8 75q0 48 -22.5 75.5t-62.5 27.5q-45 0 -81 -40t-50 -106q-8 -40 -8 -75q0 -48 22.5 -75.5t62.5 -27.5zM263 410q-59 0 -93.5 39.5t-34.5 106.5q0 36 9 78q19 86 67.5 136t113.5 50q59 0 93.5 -39.5t34.5 -106.5q0 -36 -9 -78 q-19 -86 -67.5 -136t-113.5 -50z" />
<glyph unicode="&#x2074;" d="M315 420l18 89h-218l8 38l279 263h39l-56 -260h54l-8 -41h-54l-19 -89h-43zM342 550l41 193l-205 -193h164z" />
<glyph unicode="&#x2075;" d="M248 410q-74 0 -128 38l14 37q49 -32 118 -32q53 0 84.5 24t31.5 62q0 37 -30.5 56t-89.5 19h-19t-25 -0.5t-22.5 -0.5h-12.5l54 197h225l-9 -44h-189l-30 -112q13 1 42 1q73 0 112.5 -29t39.5 -83q0 -59 -46 -96t-120 -37z" />
<glyph unicode="&#x2076;" d="M349 820q58 0 106 -25l-14 -38q-49 20 -98 20q-50 0 -89.5 -33.5t-58.5 -92.5q46 7 91 7q67 0 104 -28t37 -80q0 -40 -21.5 -72.5t-57 -50t-78.5 -17.5q-64 0 -99.5 38.5t-35.5 109.5q0 76 28.5 136.5t77 93t108.5 32.5zM274 617q-41 0 -89 -8q-3 -24 -3 -49 q0 -52 24 -79.5t68 -27.5t75 27.5t31 66.5q0 34 -27 52t-79 18z" />
<glyph unicode="&#x2077;" d="M182 420l1 5q10 53 28.5 95t51.5 87t88 102l54 57h-224l9 44h277l-8 -40l-78 -84q-72 -78 -104 -133t-47 -128l-1 -5h-47z" />
<glyph unicode="&#x2078;" d="M266 410q-63 0 -103.5 28.5t-40.5 74.5q0 36 26 67.5t71 49.5q-22 11 -34.5 30t-12.5 43q0 49 45 83t111 34q59 0 97 -27.5t38 -70.5q0 -31 -22 -59t-60 -45q27 -14 41.5 -36t14.5 -48q0 -52 -49.5 -88t-121.5 -36zM267 612q-45 -12 -71.5 -37t-26.5 -56q0 -30 27 -49 t72 -19q51 0 86.5 24t35.5 58q0 47 -64 64zM219 706q0 -40 58 -56l58 -16q37 11 59 33t22 48q0 28 -26 45.5t-67 17.5q-43 0 -73.5 -21t-30.5 -51z" />
<glyph unicode="&#x2079;" d="M231 410q-61 0 -104 24l14 38q45 -19 96 -19q50 0 90 33.5t58 92.5q-40 -7 -92 -7q-69 0 -106.5 28t-37.5 79q0 41 22 73.5t57.5 50t79.5 17.5q63 0 100 -39t37 -109q0 -76 -28.5 -136.5t-77 -93t-108.5 -32.5zM304 613q44 0 90 8q4 21 4 49q0 53 -24.5 80t-69.5 27 q-46 0 -77 -27.5t-31 -66.5q0 -34 27.5 -52t80.5 -18z" />
<glyph unicode="&#x2080;" d="M154 -87q45 0 81 40t50 106q8 40 8 75q0 48 -22.5 75.5t-62.5 27.5q-45 0 -81 -40t-50 -106q-8 -40 -8 -75q0 -48 22.5 -75.5t62.5 -27.5zM150 -130q-59 0 -93.5 39.5t-34.5 106.5q0 36 9 78q19 86 67.5 136t113.5 50q59 0 93.5 -39.5t34.5 -106.5q0 -36 -9 -78 q-19 -86 -67.5 -136t-113.5 -50z" />
<glyph unicode="&#x2081;" d="M80 159l171 111h41l-83 -390h-46l71 334l-136 -87z" />
<glyph unicode="&#x2082;" d="M6 -120l4 20q14 72 50 113.5t107 71.5q63 27 83 39t28.5 25.5t8.5 33.5q0 23 -20.5 38.5t-53.5 15.5q-62 0 -121 -40l-16 33q68 50 143 50q52 0 83.5 -26.5t31.5 -69.5q-1 -37 -21.5 -61t-55 -41t-75.5 -33q-36 -15 -59 -31t-37.5 -38t-23.5 -56h218l-9 -44h-265z" />
<glyph unicode="&#x2083;" d="M128 -130q-66 0 -121 35l14 38q53 -30 111 -30q53 0 84.5 23t31.5 61q0 31 -23.5 48.5t-65.5 17.5h-62l9 41h66q47 0 76.5 21t29.5 55q0 27 -21.5 42t-58.5 15q-54 0 -108 -30l-14 35q29 18 63 28t67 10q53 0 86 -26.5t33 -68.5q0 -38 -23.5 -64.5t-66.5 -38.5 q60 -23 60 -85q0 -55 -47.5 -91t-119.5 -36z" />
<glyph unicode="&#x2084;" d="M202 -120l18 89h-218l8 38l279 263h39l-56 -260h54l-8 -41h-54l-19 -89h-43zM229 10l41 193l-205 -193h164z" />
<glyph unicode="&#x2085;" d="M135 -130q-74 0 -128 38l14 37q49 -32 118 -32q53 0 84.5 24t31.5 62q0 37 -30.5 56t-89.5 19h-19t-25 -0.5t-22.5 -0.5h-12.5l54 197h225l-9 -44h-189l-30 -112q13 1 42 1q73 0 112.5 -29t39.5 -83q0 -59 -46 -96t-120 -37z" />
<glyph unicode="&#x2086;" d="M236 280q58 0 106 -25l-14 -38q-49 20 -98 20q-50 0 -89.5 -33.5t-58.5 -92.5q46 7 91 7q67 0 104 -28t37 -80q0 -40 -21.5 -72.5t-57 -50t-78.5 -17.5q-64 0 -99.5 38.5t-35.5 109.5q0 76 28.5 136.5t77 93t108.5 32.5zM161 77q-41 0 -89 -8q-3 -24 -3 -49 q0 -52 24 -79.5t68 -27.5t75 27.5t31 66.5q0 34 -27 52t-79 18z" />
<glyph unicode="&#x2087;" d="M69 -120l1 5q10 53 28.5 95t51.5 87t88 102l54 57h-224l9 44h277l-8 -40l-78 -84q-72 -78 -104 -133t-47 -128l-1 -5h-47z" />
<glyph unicode="&#x2088;" d="M153 -130q-63 0 -103.5 28.5t-40.5 74.5q0 36 26 67.5t71 49.5q-22 11 -34.5 30t-12.5 43q0 49 45 83t111 34q59 0 97 -27.5t38 -70.5q0 -31 -22 -59t-60 -45q27 -14 41.5 -36t14.5 -48q0 -52 -49.5 -88t-121.5 -36zM154 72q-45 -12 -71.5 -37t-26.5 -56q0 -30 27 -49 t72 -19q51 0 86.5 24t35.5 58q0 47 -64 64zM106 166q0 -40 58 -56l58 -16q37 11 59 33t22 48q0 28 -26 45.5t-67 17.5q-43 0 -73.5 -21t-30.5 -51z" />
<glyph unicode="&#x2089;" d="M118 -130q-61 0 -104 24l14 38q45 -19 96 -19q50 0 90 33.5t58 92.5q-40 -7 -92 -7q-69 0 -106.5 28t-37.5 79q0 41 22 73.5t57.5 50t79.5 17.5q63 0 100 -39t37 -109q0 -76 -28.5 -136.5t-77 -93t-108.5 -32.5zM191 73q44 0 90 8q4 21 4 49q0 53 -24.5 80t-69.5 27 q-46 0 -77 -27.5t-31 -66.5q0 -34 27.5 -52t80.5 -18z" />
<glyph unicode="&#x20ac;" horiz-adv-x="600" d="M169 247q9 -101 62 -156t142 -55q77 0 141 41l17 -37q-33 -23 -75.5 -36.5t-86.5 -13.5q-110 0 -176.5 68.5t-75.5 188.5h-88l17 45h70q1 54 14 107h-78l17 45h75q43 116 133 186t199 70q42 0 83.5 -11.5t75.5 -32.5l-18 -40q-76 38 -145 38q-62 0 -116 -26t-95 -73.5 t-65 -110.5h315l-17 -45h-312q-14 -53 -14 -107h300l-17 -45h-282z" />
<glyph unicode="&#x20ba;" horiz-adv-x="600" d="M214 47q120 0 183 55t84 179h51q-17 -97 -55 -159t-103 -92t-162 -30h-113l47 224l-102 -47l10 50l103 47l22 105l-102 -47l10 50l103 47l56 261h51l-50 -235l210 96l-10 -50l-211 -96l-22 -105l210 96l-10 -50l-210 -96l-43 -203h53z" />
<glyph unicode="&#x20bd;" horiz-adv-x="600" d="M180 132l-28 -132h-51l28 132h-115l10 45h114l23 107h-115l10 45h115l77 361h139q101 0 153.5 -46.5t52.5 -136.5q0 -65 -34 -117t-94 -79t-140 -27h-113l-23 -107h205l-10 -45h-204zM221 329h111q66 0 112.5 21.5t71 61.5t24.5 91q0 72 -38 107t-118 35h-95z" />
<glyph unicode="&#x2122;" horiz-adv-x="776" d="M410 316v384h53l129 -279l129 279h55v-384h-50v284l-111 -235h-46l-111 235v-284h-48zM171 655h-125v45h299v-45h-125v-339h-49v339z" />
<glyph unicode="&#x2212;" horiz-adv-x="600" d="M97 321l10 46h431l-10 -46h-431z" />
<glyph unicode="&#x25fc;" horiz-adv-x="515" d="M0 515h515v-515h-515v515z" />
<glyph unicode="&#xfeff;" horiz-adv-x="0" />
<glyph horiz-adv-x="600" d="M263 36q74 0 128.5 70.5t86.5 209.5q21 95 21 174q0 81 -33 122.5t-96 41.5q-74 0 -128.5 -70.5t-86.5 -209.5q-21 -95 -21 -174q0 -81 33 -122.5t96 -41.5zM258 -10q-84 0 -129.5 55t-45.5 154q0 85 21 179q34 156 103.5 239t167.5 83q84 0 129.5 -55t45.5 -154 q0 -85 -21 -179q-34 -156 -103.5 -239t-167.5 -83z" />
<glyph horiz-adv-x="600" d="M139 530l233 160h49l-137 -643h189l-10 -47h-433l10 47h193l123 580l-196 -134z" />
<glyph horiz-adv-x="600" d="M55 0l11 52q15 73 41.5 125.5t71 92.5t118.5 77l20 10q99 49 138 89t39 93q0 55 -33 85t-92 30q-88 0 -178 -69l-20 34q44 39 96.5 60t106.5 21q78 0 125.5 -42.5t47.5 -112.5q0 -67 -48 -120t-160 -109l-20 -10q-64 -32 -101 -64t-61 -77.5t-40 -117.5h334l-10 -47h-386 z" />
<glyph horiz-adv-x="600" d="M242 -10q-48 0 -93.5 13t-82.5 36l18 42q34 -21 77 -33t85 -12q83 0 133 47t50 127q0 57 -32.5 93t-89.5 36h-101l9 45h95q46 0 83.5 20.5t58 55t20.5 76.5q0 57 -34 87.5t-98 30.5q-38 0 -79.5 -13t-77.5 -37l-18 35q37 28 87 44.5t99 16.5q79 0 126 -42.5t47 -117.5 q0 -62 -37 -111t-98 -68q44 -19 68 -57t24 -88q0 -67 -31.5 -118.5t-85.5 -79.5t-122 -28z" />
<glyph horiz-adv-x="600" d="M347 0l38 178h-347l9 44l448 468h49l-100 -467h96l-9 -45h-96l-38 -178h-50zM394 223l82 385l-367 -385h285z" />
<glyph horiz-adv-x="600" d="M243 -10q-48 0 -95.5 15.5t-85.5 43.5l18 41q35 -25 79 -39.5t87 -14.5q90 0 145.5 53.5t55.5 139.5q0 62 -40.5 97t-113.5 35q-48 0 -139 -2l92 331h312l-10 -47h-270l-66 -238q60 2 86 2q94 0 147.5 -46.5t53.5 -126.5q0 -72 -34 -127.5t-92 -86t-130 -30.5z" />
<glyph horiz-adv-x="600" d="M421 700q76 0 148 -44l-18 -39q-40 21 -71 29t-63 8q-85 0 -147.5 -65.5t-96.5 -186.5q79 11 142 11q102 0 156 -48.5t54 -137.5q0 -70 -31 -124t-83.5 -83.5t-117.5 -29.5q-94 0 -144.5 59.5t-50.5 172.5q0 94 26.5 187t70.5 158.5t101 99t125 33.5zM300 369 q-50 0 -138 -11q-14 -69 -14 -137q0 -95 36.5 -140t113.5 -45q79 0 127 51t48 135q0 75 -42.5 111t-130.5 36z" />
<glyph horiz-adv-x="600" d="M156 0l9 42q22 104 67 189t145 214l154 198h-360l10 47h418l-10 -46l-174 -226q-63 -82 -98.5 -138t-57.5 -110t-38 -132l-8 -38h-57z" />
<glyph horiz-adv-x="600" d="M64 159q0 75 50 133.5t128 78.5q-45 24 -68 61t-23 82q0 40 18.5 75t50 60t71 38t82.5 13q53 0 97.5 -21.5t68 -57t23.5 -81.5q0 -62 -39.5 -113t-105.5 -75q45 -24 69.5 -63t24.5 -88q0 -61 -33.5 -109.5t-89 -75t-120.5 -26.5q-58 0 -105.5 22t-73 60t-25.5 87z M116 165q0 -58 44 -94t113 -36q54 0 97 22t66 59.5t23 83.5t-33.5 82.5t-93.5 55.5l-42 13q-50 -10 -90.5 -38t-62 -66t-21.5 -82zM202 515q0 -45 29 -77t85 -50l53 -17q63 16 102.5 60.5t39.5 102.5q0 54 -40 87.5t-100 33.5q-49 0 -88 -19t-60 -50.5t-21 -70.5z" />
<glyph horiz-adv-x="600" d="M227 -10q-94 0 -165 50l19 40q37 -23 73 -33.5t77 -10.5q85 0 145.5 65.5t90.5 186.5q-80 -11 -144 -11q-101 0 -155.5 46.5t-54.5 133.5q0 68 33 124.5t85.5 87.5t113.5 31q94 0 144.5 -59.5t50.5 -172.5q0 -96 -25 -189t-67 -158t-98 -98t-123 -33zM338 321 q64 0 139 11q13 71 13 137q0 95 -36.5 140t-113.5 45q-50 0 -90.5 -26.5t-62.5 -70t-22 -95.5q0 -72 42 -106.5t131 -34.5z" />
<glyph d="M180 33q45 0 81 40t50 106q8 40 8 75q0 48 -22.5 75.5t-62.5 27.5q-45 0 -81 -40t-50 -106q-8 -40 -8 -75q0 -48 22.5 -75.5t62.5 -27.5zM176 -10q-59 0 -93.5 39.5t-34.5 106.5q0 36 9 78q19 86 67.5 136t113.5 50q59 0 93.5 -39.5t34.5 -106.5q0 -36 -9 -78 q-19 -86 -67.5 -136t-113.5 -50z" />
<glyph d="M106 279l171 111h41l-83 -390h-46l71 334l-136 -87z" />
<glyph d="M31 0l4 20q14 72 50 113.5t107 71.5q63 27 83 39t28.5 25.5t8.5 33.5q0 23 -20.5 38.5t-53.5 15.5q-62 0 -121 -40l-16 33q68 50 143 50q52 0 83.5 -26.5t31.5 -69.5q-1 -37 -21.5 -61t-55 -41t-75.5 -33q-36 -15 -59 -31t-37.5 -38t-23.5 -56h218l-9 -44h-265z" />
<glyph d="M154 -10q-66 0 -121 35l14 38q53 -30 111 -30q53 0 84.5 23t31.5 61q0 31 -23.5 48.5t-65.5 17.5h-62l9 41h66q47 0 76.5 21t29.5 55q0 27 -21.5 42t-58.5 15q-54 0 -108 -30l-14 35q29 18 63 28t67 10q53 0 86 -26.5t33 -68.5q0 -38 -23.5 -64.5t-66.5 -38.5 q60 -23 60 -85q0 -55 -47.5 -91t-119.5 -36z" />
<glyph d="M228 0l18 89h-218l8 38l279 263h39l-56 -260h54l-8 -41h-54l-19 -89h-43zM255 130l41 193l-205 -193h164z" />
<glyph d="M161 -10q-74 0 -128 38l14 37q49 -32 118 -32q53 0 84.5 24t31.5 62q0 37 -30.5 56t-89.5 19h-19t-25 -0.5t-22.5 -0.5h-12.5l54 197h225l-9 -44h-189l-30 -112q13 1 42 1q73 0 112.5 -29t39.5 -83q0 -59 -46 -96t-120 -37z" />
<glyph d="M262 400q58 0 106 -25l-14 -38q-49 20 -98 20q-50 0 -89.5 -33.5t-58.5 -92.5q46 7 91 7q67 0 104 -28t37 -80q0 -40 -21.5 -72.5t-57 -50t-78.5 -17.5q-64 0 -99.5 38.5t-35.5 109.5q0 76 28.5 136.5t77 93t108.5 32.5zM187 197q-41 0 -89 -8q-3 -24 -3 -49 q0 -52 24 -79.5t68 -27.5t75 27.5t31 66.5q0 34 -27 52t-79 18z" />
<glyph d="M95 0l1 5q10 53 28.5 95t51.5 87t88 102l54 57h-224l9 44h277l-8 -40l-78 -84q-72 -78 -104 -133t-47 -128l-1 -5h-47z" />
<glyph d="M179 -10q-63 0 -103.5 28.5t-40.5 74.5q0 36 26 67.5t71 49.5q-22 11 -34.5 30t-12.5 43q0 49 45 83t111 34q59 0 97 -27.5t38 -70.5q0 -31 -22 -59t-60 -45q27 -14 41.5 -36t14.5 -48q0 -52 -49.5 -88t-121.5 -36zM180 192q-45 -12 -71.5 -37t-26.5 -56q0 -30 27 -49 t72 -19q51 0 86.5 24t35.5 58q0 47 -64 64zM132 286q0 -40 58 -56l58 -16q37 11 59 33t22 48q0 28 -26 45.5t-67 17.5q-43 0 -73.5 -21t-30.5 -51z" />
<glyph d="M152 -10q-61 0 -104 24l14 38q45 -19 96 -19q50 0 90 33.5t58 92.5q-40 -7 -92 -7q-69 0 -106.5 28t-37.5 79q0 41 22 73.5t57.5 50t79.5 17.5q63 0 100 -39t37 -109q0 -76 -28.5 -136.5t-77 -93t-108.5 -32.5zM225 193q44 0 90 8q4 21 4 49q0 53 -24.5 80t-69.5 27 q-46 0 -77 -27.5t-31 -66.5q0 -34 27.5 -52t80.5 -18z" />
<glyph d="M242 333q45 0 81 40t50 106q8 40 8 75q0 48 -22.5 75.5t-62.5 27.5q-45 0 -81 -40t-50 -106q-8 -40 -8 -75q0 -48 22.5 -75.5t62.5 -27.5zM238 290q-59 0 -93.5 39.5t-34.5 106.5q0 36 9 78q19 86 67.5 136t113.5 50q59 0 93.5 -39.5t34.5 -106.5q0 -36 -9 -78 q-19 -86 -67.5 -136t-113.5 -50z" />
<glyph d="M169 579l171 111h41l-83 -390h-46l71 334l-136 -87z" />
<glyph d="M94 300l4 20q14 72 50 113.5t107 71.5q63 27 83 39t28.5 25.5t8.5 33.5q0 23 -20.5 38.5t-53.5 15.5q-62 0 -121 -40l-16 33q68 50 143 50q52 0 83.5 -26.5t31.5 -69.5q-1 -37 -21.5 -61t-55 -41t-75.5 -33q-36 -15 -59 -31t-37.5 -38t-23.5 -56h218l-9 -44h-265z" />
<glyph d="M217 290q-66 0 -121 35l14 38q53 -30 111 -30q53 0 84.5 23t31.5 61q0 31 -23.5 48.5t-65.5 17.5h-62l9 41h66q47 0 76.5 21t29.5 55q0 27 -21.5 42t-58.5 15q-54 0 -108 -30l-14 35q29 18 63 28t67 10q53 0 86 -26.5t33 -68.5q0 -38 -23.5 -64.5t-66.5 -38.5 q60 -23 60 -85q0 -55 -47.5 -91t-119.5 -36z" />
<glyph d="M290 300l18 89h-218l8 38l279 263h39l-56 -260h54l-8 -41h-54l-19 -89h-43zM317 430l41 193l-205 -193h164z" />
<glyph d="M223 290q-74 0 -128 38l14 37q49 -32 118 -32q53 0 84.5 24t31.5 62q0 37 -30.5 56t-89.5 19h-19t-25 -0.5t-22.5 -0.5h-12.5l54 197h225l-9 -44h-189l-30 -112q13 1 42 1q73 0 112.5 -29t39.5 -83q0 -59 -46 -96t-120 -37z" />
<glyph d="M324 700q58 0 106 -25l-14 -38q-49 20 -98 20q-50 0 -89.5 -33.5t-58.5 -92.5q46 7 91 7q67 0 104 -28t37 -80q0 -40 -21.5 -72.5t-57 -50t-78.5 -17.5q-64 0 -99.5 38.5t-35.5 109.5q0 76 28.5 136.5t77 93t108.5 32.5zM249 497q-41 0 -89 -8q-3 -24 -3 -49 q0 -52 24 -79.5t68 -27.5t75 27.5t31 66.5q0 34 -27 52t-79 18z" />
<glyph d="M157 300l1 5q10 53 28.5 95t51.5 87t88 102l54 57h-224l9 44h277l-8 -40l-78 -84q-72 -78 -104 -133t-47 -128l-1 -5h-47z" />
<glyph d="M241 290q-63 0 -103.5 28.5t-40.5 74.5q0 36 26 67.5t71 49.5q-22 11 -34.5 30t-12.5 43q0 49 45 83t111 34q59 0 97 -27.5t38 -70.5q0 -31 -22 -59t-60 -45q27 -14 41.5 -36t14.5 -48q0 -52 -49.5 -88t-121.5 -36zM242 492q-45 -12 -71.5 -37t-26.5 -56q0 -30 27 -49 t72 -19q51 0 86.5 24t35.5 58q0 47 -64 64zM194 586q0 -40 58 -56l58 -16q37 11 59 33t22 48q0 28 -26 45.5t-67 17.5q-43 0 -73.5 -21t-30.5 -51z" />
<glyph d="M214 290q-61 0 -104 24l14 38q45 -19 96 -19q50 0 90 33.5t58 92.5q-40 -7 -92 -7q-69 0 -106.5 28t-37.5 79q0 41 22 73.5t57.5 50t79.5 17.5q63 0 100 -39t37 -109q0 -76 -28.5 -136.5t-77 -93t-108.5 -32.5zM287 493q44 0 90 8q4 21 4 49q0 53 -24.5 80t-69.5 27 q-46 0 -77 -27.5t-31 -66.5q0 -34 27.5 -52t80.5 -18z" />
<glyph d="M110 -190l13 62q-66 9 -116 41l15 38q54 -32 109 -39l33 156l-8 3q-55 21 -76 41.5t-21 53.5q0 34 19.5 59.5t52 40t69.5 14.5h11l13 60h38l-14 -64q47 -7 94 -33l-15 -37q-48 24 -87 30l-30 -140l9 -3q50 -19 72.5 -42.5t22.5 -56.5q0 -56 -42 -89t-110 -35l-13 -60h-39 zM269 -9q0 20 -15 34t-53 29l-31 -144q46 2 72.5 23t26.5 58zM104 168q0 -19 13.5 -30.5t57.5 -28.5l28 131h-7q-40 0 -66 -19.5t-26 -52.5z" />
<glyph d="M131 -190l13 62q-46 6 -70.5 36t-24.5 80q0 70 46 123t113 61l13 61h38l-13 -61q36 -4 68 -25l-14 -36q-29 18 -63 21l-47 -221q33 3 72 29l12 -35q-18 -15 -41.5 -23.5t-50.5 -10.5l-13 -61h-38zM94 -8q0 -33 15 -53.5t43 -26.5l47 218q-44 -9 -74.5 -48.5t-30.5 -89.5z " />
<glyph horiz-adv-x="608" d="M122 78q26 0 46.5 21.5t28.5 55.5q4 19 4 33q0 27 -13 42t-37 15q-26 0 -46.5 -21.5t-28.5 -55.5q-4 -19 -4 -33q0 -27 13 -42t37 -15zM120 43q-39 0 -64 25t-25 64q0 20 4 39q10 48 43 78.5t75 30.5q39 0 64 -25t25 -64q0 -20 -4 -39q-10 -48 -43 -78.5t-75 -30.5z M75 -120l329 390h51l-329 -390h-51zM379 -95q26 0 46.5 21.5t28.5 55.5q4 19 4 33q0 27 -13 42t-37 15q-26 0 -46.5 -21.5t-28.5 -55.5q-4 -19 -4 -33q0 -27 13 -42t37 -15zM377 -130q-39 0 -64 25t-25 64q0 20 4 39q10 48 43 78.5t75 30.5q39 0 64 -25t25 -64q0 -20 -4 -39 q-10 -48 -43 -78.5t-75 -30.5z" />
<glyph horiz-adv-x="388" d="M-4 -120l41 113h-68l8 36h73l33 92h-74l8 36h79l41 113h40l-41 -113h100l41 113h40l-41 -113h68l-8 -36h-73l-33 -92h74l-8 -36h-79l-41 -113h-40l41 113h-100l-41 -113h-40zM90 29h100l33 92h-100z" />
<glyph d="M223 350l13 62q-66 9 -116 41l15 38q54 -32 109 -39l33 156l-8 3q-55 21 -76 41.5t-21 53.5q0 34 19.5 59.5t52 40t69.5 14.5h11l13 60h38l-14 -64q47 -7 94 -33l-15 -37q-48 24 -87 30l-30 -140l9 -3q50 -19 72.5 -42.5t22.5 -56.5q0 -56 -42 -89t-110 -35l-13 -60h-39z M382 531q0 20 -15 34t-53 29l-31 -144q46 2 72.5 23t26.5 58zM217 708q0 -19 13.5 -30.5t57.5 -28.5l28 131h-7q-40 0 -66 -19.5t-26 -52.5z" />
<glyph d="M244 350l13 62q-46 6 -70.5 36t-24.5 80q0 70 46 123t113 61l13 61h38l-13 -61q36 -4 68 -25l-14 -36q-29 18 -63 21l-47 -221q33 3 72 29l12 -35q-18 -15 -41.5 -23.5t-50.5 -10.5l-13 -61h-38zM207 532q0 -33 15 -53.5t43 -26.5l47 218q-44 -9 -74.5 -48.5t-30.5 -89.5 z" />
<glyph horiz-adv-x="608" d="M235 618q26 0 46.5 21.5t28.5 55.5q4 19 4 33q0 27 -13 42t-37 15q-26 0 -46.5 -21.5t-28.5 -55.5q-4 -19 -4 -33q0 -27 13 -42t37 -15zM233 583q-39 0 -64 25t-25 64q0 20 4 39q10 48 43 78.5t75 30.5q39 0 64 -25t25 -64q0 -20 -4 -39q-10 -48 -43 -78.5t-75 -30.5z M188 420l329 390h51l-329 -390h-51zM492 445q26 0 46.5 21.5t28.5 55.5q4 19 4 33q0 27 -13 42t-37 15q-26 0 -46.5 -21.5t-28.5 -55.5q-4 -19 -4 -33q0 -27 13 -42t37 -15zM490 410q-39 0 -64 25t-25 64q0 20 4 39q10 48 43 78.5t75 30.5q39 0 64 -25t25 -64q0 -20 -4 -39 q-10 -48 -43 -78.5t-75 -30.5z" />
<glyph horiz-adv-x="388" d="M109 420l41 113h-68l8 36h73l33 92h-74l8 36h79l41 113h40l-41 -113h100l41 113h40l-41 -113h68l-8 -36h-73l-33 -92h74l-8 -36h-79l-41 -113h-40l41 113h-100l-41 -113h-40zM203 569h100l33 92h-100z" />
<glyph d="M136 -70l13 62q-66 9 -116 41l15 38q54 -32 109 -39l33 156l-8 3q-55 21 -76 41.5t-21 53.5q0 34 19.5 59.5t52 40t69.5 14.5h11l13 60h38l-14 -64q47 -7 94 -33l-15 -37q-48 24 -87 30l-30 -140l9 -3q50 -19 72.5 -42.5t22.5 -56.5q0 -56 -42 -89t-110 -35l-13 -60h-39z M295 111q0 20 -15 34t-53 29l-31 -144q46 2 72.5 23t26.5 58zM130 288q0 -19 13.5 -30.5t57.5 -28.5l28 131h-7q-40 0 -66 -19.5t-26 -52.5z" />
<glyph d="M157 -70l13 62q-46 6 -70.5 36t-24.5 80q0 70 46 123t113 61l13 61h38l-13 -61q36 -4 68 -25l-14 -36q-29 18 -63 21l-47 -221q33 3 72 29l12 -35q-18 -15 -41.5 -23.5t-50.5 -10.5l-13 -61h-38zM120 112q0 -33 15 -53.5t43 -26.5l47 218q-44 -9 -74.5 -48.5t-30.5 -89.5 z" />
<glyph horiz-adv-x="608" d="M148 198q26 0 46.5 21.5t28.5 55.5q4 19 4 33q0 27 -13 42t-37 15q-26 0 -46.5 -21.5t-28.5 -55.5q-4 -19 -4 -33q0 -27 13 -42t37 -15zM146 163q-39 0 -64 25t-25 64q0 20 4 39q10 48 43 78.5t75 30.5q39 0 64 -25t25 -64q0 -20 -4 -39q-10 -48 -43 -78.5t-75 -30.5z M101 0l329 390h51l-329 -390h-51zM405 25q26 0 46.5 21.5t28.5 55.5q4 19 4 33q0 27 -13 42t-37 15q-26 0 -46.5 -21.5t-28.5 -55.5q-4 -19 -4 -33q0 -27 13 -42t37 -15zM403 -10q-39 0 -64 25t-25 64q0 20 4 39q10 48 43 78.5t75 30.5q39 0 64 -25t25 -64q0 -20 -4 -39 q-10 -48 -43 -78.5t-75 -30.5z" />
<glyph horiz-adv-x="388" d="M22 0l41 113h-68l8 36h73l33 92h-74l8 36h79l41 113h40l-41 -113h100l41 113h40l-41 -113h68l-8 -36h-73l-33 -92h74l-8 -36h-79l-41 -113h-40l41 113h-100l-41 -113h-40zM116 149h100l33 92h-100z" />
<glyph d="M198 230l13 62q-66 9 -116 41l15 38q54 -32 109 -39l33 156l-8 3q-55 21 -76 41.5t-21 53.5q0 34 19.5 59.5t52 40t69.5 14.5h11l13 60h38l-14 -64q47 -7 94 -33l-15 -37q-48 24 -87 30l-30 -140l9 -3q50 -19 72.5 -42.5t22.5 -56.5q0 -56 -42 -89t-110 -35l-13 -60h-39z M357 411q0 20 -15 34t-53 29l-31 -144q46 2 72.5 23t26.5 58zM192 588q0 -19 13.5 -30.5t57.5 -28.5l28 131h-7q-40 0 -66 -19.5t-26 -52.5z" />
<glyph d="M219 230l13 62q-46 6 -70.5 36t-24.5 80q0 70 46 123t113 61l13 61h38l-13 -61q36 -4 68 -25l-14 -36q-29 18 -63 21l-47 -221q33 3 72 29l12 -35q-18 -15 -41.5 -23.5t-50.5 -10.5l-13 -61h-38zM182 412q0 -33 15 -53.5t43 -26.5l47 218q-44 -9 -74.5 -48.5t-30.5 -89.5 z" />
<glyph horiz-adv-x="608" d="M210 498q26 0 46.5 21.5t28.5 55.5q4 19 4 33q0 27 -13 42t-37 15q-26 0 -46.5 -21.5t-28.5 -55.5q-4 -19 -4 -33q0 -27 13 -42t37 -15zM208 463q-39 0 -64 25t-25 64q0 20 4 39q10 48 43 78.5t75 30.5q39 0 64 -25t25 -64q0 -20 -4 -39q-10 -48 -43 -78.5t-75 -30.5z M163 300l329 390h51l-329 -390h-51zM467 325q26 0 46.5 21.5t28.5 55.5q4 19 4 33q0 27 -13 42t-37 15q-26 0 -46.5 -21.5t-28.5 -55.5q-4 -19 -4 -33q0 -27 13 -42t37 -15zM465 290q-39 0 -64 25t-25 64q0 20 4 39q10 48 43 78.5t75 30.5q39 0 64 -25t25 -64q0 -20 -4 -39 q-10 -48 -43 -78.5t-75 -30.5z" />
<glyph horiz-adv-x="388" d="M84 300l41 113h-68l8 36h73l33 92h-74l8 36h79l41 113h40l-41 -113h100l41 113h40l-41 -113h68l-8 -36h-73l-33 -92h74l-8 -36h-79l-41 -113h-40l41 113h-100l-41 -113h-40zM178 449h100l33 92h-100z" />
<glyph horiz-adv-x="153" d="M56 365q0 19 12.5 31t31.5 12q16 0 26 -9.5t10 -24.5q0 -18 -12.5 -30t-31.5 -12q-16 0 -26 9t-10 24z" />
<glyph horiz-adv-x="153" d="M50 385q0 19 12.5 31t31.5 12q16 0 26 -9.5t10 -24.5q0 -18 -12.5 -30t-31.5 -12q-16 0 -26 9t-10 24z" />
<glyph horiz-adv-x="643" d="M30 0l149 700h52l-149 -700h-52zM341 -10q-34 0 -69.5 12t-61.5 31l21 42q55 -36 112 -36q64 0 100 41.5t56 135.5l103 484h52l-105 -493q-24 -113 -73.5 -165t-134.5 -52zM176 770l115 109h80l-133 -109h-62zM599 770l115 109h80l-133 -109h-62z" />
<glyph d="M137 516h50l-110 -516h-50zM411 516l-125 -586q-17 -80 -51.5 -118t-92.5 -38q-18 0 -37 5t-30 12l16 41q25 -13 53 -13q35 0 57.5 28t35.5 87l124 582h50zM139 611l122 139h73l-136 -139h-59zM363 611l122 139h73l-136 -139h-59z" />
<glyph horiz-adv-x="319" d="M66 516h95l13 57q19 89 67 138t116 49q19 0 38 -4.5t29 -10.5l-16 -40q-22 10 -52 10q-101 0 -133 -147l-12 -52h155l-9 -42h-154l-128 -599h-50l128 599h-96z" />
<glyph horiz-adv-x="308" d="M66 516h95l13 57q19 89 67 138t116 49q19 0 38 -4.5t29 -10.5l-16 -40q-22 10 -52 10q-100 0 -133 -147l-12 -52h274l-9 -42h-273l-128 -599h-50l128 599h-96z" />
<glyph horiz-adv-x="0" d="M-114 -162q32 -20 71 -20q29 0 46.5 13t17.5 34q0 38 -67 38h-32l58 99h51l-37 -60q75 -8 75 -71q0 -42 -31 -68.5t-81 -26.5q-54 0 -88 24z" />
<glyph horiz-adv-x="0" d="M-77 -213q39 34 52 71q-12 2 -19 10.5t-7 20.5q0 17 12.5 28.5t31.5 11.5q16 0 25 -9.5t9 -25.5q0 -34 -21.5 -67.5t-62.5 -63.5z" />
<glyph horiz-adv-x="0" d="M-27 760l115 109h80l-133 -109h-62z" />
<glyph horiz-adv-x="0" d="M-19 760l-87 109h72l69 -109h-54z" />
<glyph horiz-adv-x="0" d="M-135 760l136 109h62l89 -109h-55l-69 69l-98 -69h-65z" />
<glyph horiz-adv-x="0" d="M-135 760q8 51 32.5 81t59.5 30q21 0 37 -8t40 -31q21 -20 30.5 -26t22.5 -6q15 0 27 17.5t18 48.5h44q-8 -51 -32.5 -81t-59.5 -30q-21 0 -37 8t-40 31q-21 20 -30.5 26t-22.5 6q-15 0 -27 -17.5t-18 -48.5h-44z" />
<glyph horiz-adv-x="0" d="M175 869l-136 -109h-62l-89 109h55l69 -69l98 69h65z" />
<glyph horiz-adv-x="0" d="M-98 809q0 18 12.5 31t30.5 13q16 0 25.5 -9.5t9.5 -24.5q0 -18 -12.5 -31t-30.5 -13q-16 0 -25.5 9.5t-9.5 24.5zM60 809q0 18 12.5 31t30.5 13q16 0 25.5 -9.5t9.5 -24.5q0 -18 -12.5 -31t-30.5 -13q-16 0 -25.5 9.5t-9.5 24.5z" />
<glyph horiz-adv-x="0" d="M12 755q-52 0 -81.5 25t-29.5 68q0 5 0.5 10t1.5 10h42v-4q0 -33 17 -49t54 -16q36 0 61 18.5t33 50.5h42q-9 -50 -48.5 -81.5t-91.5 -31.5z" />
<glyph horiz-adv-x="0" d="M-73 833q0 47 32.5 79t79.5 32q40 0 64 -23.5t24 -63.5q0 -46 -32.5 -78.5t-79.5 -32.5q-40 0 -64 23.5t-24 63.5zM84 852q0 24 -14 38.5t-36 14.5q-26 0 -45 -19.5t-19 -47.5q0 -24 14 -38.5t36 -14.5q26 0 45 19.5t19 47.5z" />
<glyph horiz-adv-x="638" d="M452 -10q-21 0 -39 6q-50 15 -74 15t-74 -15q-18 -6 -39 -6q-66 0 -85 76q-19 77 -19 94q0 19 8 39q3 9 3 23q0 21 -5 48.5t-12.5 56.5t-14.5 54t-11 42q-10 40 -10 55q0 43 40 75q7 6 10 9.5t5.5 8t5.5 13.5q21 60 72 93t126 33t126 -33t72 -93q3 -8 5 -12.5t5 -8 t11 -10.5q40 -32 40 -75q0 -15 -10 -55q-4 -17 -11 -42t-14.5 -54t-12.5 -56.5t-5 -48.5q0 -14 3 -23q8 -20 8 -39q0 -17 -19 -94q-19 -76 -85 -76zM233 238q5 0 14 7.5t14 16.5q7 12 15.5 35.5t8.5 28.5t-5 5q-1 0 -2.5 -0.5t-3.5 -2.5q-4 -4 -10 -7t-10 -3q-3 0 -5.5 1.5 t-2.5 2.5q0 4 8 10q10 7 10 11q0 5 -7 5q-3 0 -9 -7q-5 -5 -12 -5q-11 0 -16 8q-3 6 -7 6q-7 0 -7 -5q0 -2 0.5 -4t0.5 -4q0 -8 -7 -8q-4 0 -9 4q-3 2 -11 2q-3 0 -5.5 2t-2.5 5q0 7 13 14q4 3 27 8q4 1 4 7t-7 6q-19 0 -32 -5q-13 -4 -18 -11t-5 -18q0 -18 10 -41t27 -40 q12 -13 22 -18.5t20 -5.5zM338 53q22 0 41 8t27 21q12 17 12 37v19q0 13 2 25q1 4 1.5 7.5t0.5 5.5q0 4 -5 4t-24.5 -3.5t-54.5 -3.5q-34 0 -53 3.5t-24 3.5q-7 0 -7 -4q0 -2 2 -9.5t4 -11.5q3 -5 18 -7q25 -2 44 -2q23 0 35 1t18 1q16 0 16 -12q0 -11 -14 -13 q-25 -3 -53 -3q-17 0 -29.5 1t-21.5 1q-13 0 -13 -10q0 -13 12 -30q9 -13 27 -21t39 -8zM469 204q15 0 25 37q9 35 20 49q8 9 15 21t7 18q0 8 -4 8q-1 0 -5 -1.5t-8 -3.5t-5 -2q-7 0 -7 9q0 8 6 29.5t15 45.5q13 33 13 48q0 11 -8 25q-10 15 -15 15t-13 -8q-17 -17 -42 -17 q-29 0 -45 28q-7 12 -7 19q0 6 5 6q3 0 10 -5t11 -5q6 0 11 8q5 10 5 26q0 17 -6.5 29.5t-14.5 12.5q-3 0 -17 -4t-34.5 -8.5t-42.5 -4.5q-11 0 -32 3t-28 5q-15 5 -22 7t-10 2q-7 0 -18 -7q-12 -7 -28.5 -20.5t-25.5 -24.5q-29 -31 -29 -49q1 -10 4.5 -20t4.5 -25 q0 -12 -1.5 -20t-1.5 -15q0 -8 2.5 -10t13.5 -2q17 0 36.5 3t36 6t22.5 3q12 0 20.5 -4t18.5 -14q13 -13 13 -32q0 -6 -1 -17t-2 -20l-8 -79q2 -32 35 -32q17 0 26.5 8.5t9.5 23.5q0 4 -0.5 7.5t-0.5 6.5q0 11 8 11q5 0 20 -15l37 -38q16 -17 31 -17zM365 373q-4 0 -6.5 2.5 t-2.5 5.5q0 5 6 8q12 7 44.5 21t42.5 17q9 3 13 3q9 0 18 -8q7 -6 14.5 -15t7.5 -12q0 -5 -3 -9t-7 -4q-5 0 -9 2.5t-11 7.5t-16 5q-12 0 -47 -11q-7 -2 -16 -5t-17 -5.5t-11 -2.5zM451 338q-12 1 -24 4.5t-21 3.5q-11 0 -16.5 -0.5t-12.5 -0.5q-9 0 -9 5q0 7 6 8 q9 3 37.5 6t37.5 3q6 0 8.5 -1.5t4.5 -6.5q3 -6 10 -6q3 0 5.5 1t6.5 1q5 0 5 -5q0 -4 -13.5 -8t-24.5 -4z" />
</font>
</defs>
</svg>
