<?xml version="1.0" standalone="no"?>
<!DOCTYPE svg PUBLIC "-//W3C//DTD SVG 1.1//EN" "http://www.w3.org/Graphics/SVG/1.1/DTD/svg11.dtd" >
<svg xmlns="http://www.w3.org/2000/svg">
<metadata></metadata>
<defs>
<font id="att_aleck_sansthin_italic" horiz-adv-x="438" >
<font-face units-per-em="1000" ascent="750" descent="-250" />
<missing-glyph horiz-adv-x="230" />
<glyph unicode="fb" horiz-adv-x="857" d="M65 513h95l12 57q19 94 63 142t110 48q17 0 34 -4t27 -10l-8 -20q-24 11 -53 11q-114 0 -149 -167l-12 -57h160l-5 -22h-160l-130 -616h-24l130 616h-95zM531 -10q-42 0 -82.5 17t-68.5 46l-15 -53h-20l161 750h24l-67 -310q37 39 84.5 60.5t95.5 21.5q81 0 126 -54.5 t45 -152.5q0 -92 -39.5 -167t-104 -116.5t-139.5 -41.5zM640 499q-49 0 -96 -24t-88 -70l-71 -329q27 -29 66.5 -46t80.5 -17q74 0 133 42t91.5 111t32.5 148q0 88 -39 136.5t-110 48.5z" />
<glyph unicode="fj" horiz-adv-x="506" d="M65 513h95l12 57q19 94 63 142t110 48q17 0 34 -4t27 -10l-8 -20q-24 11 -53 11q-114 0 -149 -167l-12 -57h281l-5 -22h-281l-130 -616h-24l130 616h-95zM521 687q0 -9 -6.5 -15.5t-16.5 -6.5t-15.5 5.5t-5.5 14.5t6.5 15.5t16.5 6.5t15.5 -5.5t5.5 -14.5zM479 513 l-127 -593q-16 -76 -45.5 -111t-78.5 -35q-17 0 -33.5 5t-26.5 12l9 19q25 -13 52 -13q38 0 61.5 29t37.5 94l127 593h24z" />
<glyph unicode="fk" horiz-adv-x="800" d="M65 513h95l12 57q19 94 63 142t110 48q17 0 34 -4t27 -10l-8 -20q-24 11 -53 11q-114 0 -149 -167l-12 -57h160l-5 -22h-160l-130 -616h-24l130 616h-95zM424 256l355 257h39l-280 -203l189 -310h-29l-179 297l-102 -73l-48 -224h-24l161 750h24z" />
<glyph unicode="ft" horiz-adv-x="657" d="M65 513h95l12 57q19 94 63 142t110 48q17 0 34 -4t27 -10l-8 -20q-24 11 -53 11q-114 0 -149 -167l-12 -57h281l-5 -22h-281l-130 -616h-24l130 616h-95zM588 35q-25 -21 -57.5 -33t-65.5 -12q-51 0 -76.5 28.5t-25.5 82.5q0 25 9 68l69 322h-96l5 22h96l37 154h20 l-33 -154h188l-5 -22h-188l-69 -322q-9 -41 -9 -67q0 -89 82 -89q28 0 58.5 12t53.5 32z" />
<glyph unicode="fh" horiz-adv-x="860" d="M65 513h95l12 57q19 94 63 142t110 48q17 0 34 -4t27 -10l-8 -20q-24 11 -53 11q-114 0 -149 -167l-12 -57h160l-5 -22h-160l-130 -616h-24l130 616h-95zM667 499q-51 0 -107 -26t-105 -73l-86 -400h-24l161 750h24l-68 -317q47 42 102 65.5t106 23.5q65 0 99 -33t34 -94 q0 -35 -16 -112l-61 -283h-24l61 283q15 72 15 110q0 106 -111 106z" />
<glyph unicode="ff" horiz-adv-x="586" d="M65 513h95l12 57q19 94 63 142t110 48q17 0 34 -4t27 -10l-8 -20q-24 11 -53 11q-114 0 -149 -167l-12 -57h281l-5 -22h-281l-130 -616h-24l130 616h-95zM360 513h95l12 57q39 190 175 190q18 0 36 -4.5t29 -11.5l-8 -20q-28 13 -57 13q-59 0 -96 -40.5t-55 -126.5 l-12 -57h160l-5 -22h-160l-130 -616h-24l130 616h-95z" />
<glyph unicode="fi" horiz-adv-x="506" d="M65 513h95l12 57q19 94 63 142t110 48q17 0 34 -4t27 -10l-8 -20q-24 11 -53 11q-114 0 -149 -167l-12 -57h281l-5 -22h-281l-130 -616h-24l130 616h-95zM455 513h24l-110 -513h-24zM521 687q0 -9 -6.5 -15.5t-16.5 -6.5t-15.5 5.5t-5.5 14.5t6.5 15.5t16.5 6.5 t15.5 -5.5t5.5 -14.5z" />
<glyph unicode="fl" horiz-adv-x="506" d="M65 513h95l12 57q19 94 63 142t110 48q17 0 34 -4t27 -10l-8 -20q-24 11 -53 11q-114 0 -149 -167l-12 -57h160l-5 -22h-160l-130 -616h-24l130 616h-95zM506 750h24l-161 -750h-24z" />
<glyph unicode="ffi" horiz-adv-x="801" d="M65 513h95l12 57q19 94 63 142t110 48q17 0 34 -4t27 -10l-8 -20q-24 11 -53 11q-114 0 -149 -167l-12 -57h281l-5 -22h-281l-130 -616h-24l130 616h-95zM360 513h95l12 57q19 94 63 142t110 48q17 0 34 -4t27 -10l-8 -20q-24 11 -53 11q-114 0 -149 -167l-12 -57h281 l-5 -22h-281l-130 -616h-24l130 616h-95zM750 513h24l-110 -513h-24zM816 687q0 -9 -6.5 -15.5t-16.5 -6.5t-15.5 5.5t-5.5 14.5t6.5 15.5t16.5 6.5t15.5 -5.5t5.5 -14.5z" />
<glyph unicode="ffl" horiz-adv-x="801" d="M65 513h95l12 57q19 94 63 142t110 48q17 0 34 -4t27 -10l-8 -20q-24 11 -53 11q-114 0 -149 -167l-12 -57h281l-5 -22h-281l-130 -616h-24l130 616h-95zM360 513h95l12 57q19 94 63 142t110 48q17 0 34 -4t27 -10l-8 -20q-24 11 -53 11q-114 0 -149 -167l-12 -57h160 l-5 -22h-160l-130 -616h-24l130 616h-95zM801 750h24l-161 -750h-24z" />
<glyph unicode="ffb" horiz-adv-x="1152" d="M65 513h95l12 57q19 94 63 142t110 48q17 0 34 -4t27 -10l-8 -20q-24 11 -53 11q-114 0 -149 -167l-12 -57h281l-5 -22h-281l-130 -616h-24l130 616h-95zM360 513h95l12 57q19 94 63 142t110 48q17 0 34 -4t27 -10l-8 -20q-24 11 -53 11q-114 0 -149 -167l-12 -57h160 l-5 -22h-160l-130 -616h-24l130 616h-95zM826 -10q-42 0 -82.5 17t-68.5 46l-15 -53h-20l161 750h24l-67 -310q37 39 84.5 60.5t95.5 21.5q81 0 126 -54.5t45 -152.5q0 -92 -39.5 -167t-104 -116.5t-139.5 -41.5zM935 499q-49 0 -96 -24t-88 -70l-71 -329q27 -29 66.5 -46 t80.5 -17q74 0 133 42t91.5 111t32.5 148q0 88 -39 136.5t-110 48.5z" />
<glyph unicode="ffh" horiz-adv-x="1155" d="M65 513h95l12 57q19 94 63 142t110 48q17 0 34 -4t27 -10l-8 -20q-24 11 -53 11q-114 0 -149 -167l-12 -57h281l-5 -22h-281l-130 -616h-24l130 616h-95zM360 513h95l12 57q19 94 63 142t110 48q17 0 34 -4t27 -10l-8 -20q-24 11 -53 11q-114 0 -149 -167l-12 -57h160 l-5 -22h-160l-130 -616h-24l130 616h-95zM962 499q-51 0 -107 -26t-105 -73l-86 -400h-24l161 750h24l-68 -317q47 42 102 65.5t106 23.5q65 0 99 -33t34 -94q0 -35 -16 -112l-61 -283h-24l61 283q15 72 15 110q0 106 -111 106z" />
<glyph unicode="ffj" horiz-adv-x="801" d="M65 513h95l12 57q19 94 63 142t110 48q17 0 34 -4t27 -10l-8 -20q-24 11 -53 11q-114 0 -149 -167l-12 -57h281l-5 -22h-281l-130 -616h-24l130 616h-95zM360 513h95l12 57q19 94 63 142t110 48q17 0 34 -4t27 -10l-8 -20q-24 11 -53 11q-114 0 -149 -167l-12 -57h281 l-5 -22h-281l-130 -616h-24l130 616h-95zM816 687q0 -9 -6.5 -15.5t-16.5 -6.5t-15.5 5.5t-5.5 14.5t6.5 15.5t16.5 6.5t15.5 -5.5t5.5 -14.5zM774 513l-127 -593q-16 -76 -45.5 -111t-78.5 -35q-17 0 -33.5 5t-26.5 12l9 19q25 -13 52 -13q38 0 61.5 29t37.5 94l127 593h24 z" />
<glyph unicode="ffk" horiz-adv-x="1095" d="M65 513h95l12 57q19 94 63 142t110 48q17 0 34 -4t27 -10l-8 -20q-24 11 -53 11q-114 0 -149 -167l-12 -57h281l-5 -22h-281l-130 -616h-24l130 616h-95zM360 513h95l12 57q19 94 63 142t110 48q17 0 34 -4t27 -10l-8 -20q-24 11 -53 11q-114 0 -149 -167l-12 -57h160 l-5 -22h-160l-130 -616h-24l130 616h-95zM719 256l355 257h39l-280 -203l189 -310h-29l-179 297l-102 -73l-48 -224h-24l161 750h24z" />
<glyph unicode="fft" horiz-adv-x="952" d="M65 513h95l12 57q19 94 63 142t110 48q17 0 34 -4t27 -10l-8 -20q-24 11 -53 11q-114 0 -149 -167l-12 -57h281l-5 -22h-281l-130 -616h-24l130 616h-95zM360 513h95l12 57q19 94 63 142t110 48q17 0 34 -4t27 -10l-8 -20q-24 11 -53 11q-114 0 -149 -167l-12 -57h281 l-5 -22h-281l-130 -616h-24l130 616h-95zM883 35q-25 -21 -57.5 -33t-65.5 -12q-51 0 -76.5 28.5t-25.5 82.5q0 25 9 68l69 322h-96l5 22h96l37 154h20l-33 -154h188l-5 -22h-188l-69 -322q-9 -41 -9 -67q0 -89 82 -89q28 0 58.5 12t53.5 32z" />
<glyph unicode=" "  horiz-adv-x="230" />
<glyph unicode="&#x09;" horiz-adv-x="230" />
<glyph unicode="&#xa0;" horiz-adv-x="230" />
<glyph unicode="!" horiz-adv-x="202" d="M97 184h-23l106 516h29zM74 17q0 -11 -8.5 -19t-19.5 -8q-10 0 -16 6t-6 15q0 11 8.5 19t19.5 8q10 0 16 -6t6 -15z" />
<glyph unicode="&#x22;" horiz-adv-x="272" d="M128 700h28l-52 -230h-22zM272 700h28l-52 -230h-22z" />
<glyph unicode="#" horiz-adv-x="600" d="M593 443h-110l-67 -196h109l-5 -22h-112l-77 -225h-25l77 225h-212l-77 -225h-25l77 225h-107l5 22h110l67 196h-109l5 22h112l77 225h25l-77 -225h212l77 225h25l-77 -225h107zM179 247h212l67 196h-212z" />
<glyph unicode="$" horiz-adv-x="600" d="M215 -113l22 103q-53 2 -107 21t-92 48l10 21q39 -29 90 -47t104 -20l73 338l-30 15q-50 25 -77 47t-39.5 49t-12.5 63q0 79 61.5 127t163.5 48h9l19 90h24l-20 -92q41 -4 81 -18t71 -34l-8 -21q-32 20 -70.5 33t-78.5 17l-66 -310q61 -31 94.5 -56t48 -53.5t14.5 -71.5 q0 -56 -30 -100t-83.5 -68t-124.5 -26l-22 -103h-24zM474 183q0 34 -11 58t-39.5 46.5t-87.5 52.5l-70 -327q65 2 111.5 24t71.5 60t25 86zM181 525q0 -43 24.5 -73.5t94.5 -65.5l20 -10l65 301h-9q-89 0 -142 -41.5t-53 -110.5z" />
<glyph unicode="%" horiz-adv-x="915" d="M207 0l511 690h27l-511 -690h-27zM711 379q-53 0 -93.5 -45.5t-55.5 -121.5q-8 -42 -8 -77q0 -58 26.5 -91t73.5 -33q53 0 93.5 45.5t55.5 121.5q8 42 8 77q0 58 -26.5 91t-73.5 33zM713 400q57 0 89.5 -39t32.5 -105q0 -43 -8 -81q-18 -87 -64.5 -136t-110.5 -49 q-57 0 -89.5 39t-32.5 105q0 43 8 81q18 87 64.5 136t110.5 49zM298 679q-53 0 -93.5 -45.5t-55.5 -121.5q-8 -42 -8 -77q0 -58 26.5 -91t73.5 -33q53 0 93.5 45.5t55.5 121.5q8 42 8 77q0 58 -26.5 91t-73.5 33zM300 700q57 0 89.5 -39t32.5 -105q0 -43 -8 -81 q-18 -87 -64.5 -136t-110.5 -49q-57 0 -89.5 39t-32.5 105q0 43 8 81q18 87 64.5 136t110.5 49z" />
<glyph unicode="&#x26;" horiz-adv-x="654" d="M582 375h27l-57 -85q-45 -67 -97 -132l125 -158h-30l-110 139q-69 -79 -128 -114t-123 -35q-69 0 -113 40t-44 102q0 74 49 129.5t169 117.5q-42 55 -59.5 95t-17.5 84q0 67 50 109.5t128 42.5q66 0 108.5 -35t42.5 -90t-50.5 -104t-166.5 -109l156 -195q22 27 41.5 53 t42.5 60zM190 13q113 0 235 145l-162 204q-113 -58 -160 -110t-47 -120q0 -52 37.5 -85.5t96.5 -33.5zM197 558q0 -38 17.5 -77.5t57.5 -91.5q76 40 120.5 71.5t65 61t20.5 63.5q0 45 -35.5 73.5t-93.5 28.5q-68 0 -110 -35.5t-42 -93.5z" />
<glyph unicode="'" horiz-adv-x="108" d="M128 700h28l-52 -230h-22z" />
<glyph unicode="(" horiz-adv-x="285" d="M138 -164q-29 59 -47.5 147.5t-18.5 166.5q0 163 64.5 310.5t188.5 269.5h29q-256 -253 -256 -579q0 -77 18.5 -167t47.5 -148h-26z" />
<glyph unicode=")" horiz-adv-x="285" d="M159 730q29 -59 47.5 -147.5t18.5 -166.5q0 -163 -64.5 -310.5t-188.5 -269.5h-29q256 253 256 579q0 77 -18.5 167t-47.5 148h26z" />
<glyph unicode="*" horiz-adv-x="371" d="M250 539l141 49l7 -23l-145 -45l81 -131l-20 -13l-79 135l-113 -129l-19 15l116 126l-131 40l7 23l134 -46l21 153h26z" />
<glyph unicode="+" horiz-adv-x="600" d="M328 333l-47 -219h-24l47 219h-202l5 22h201l47 219h24l-47 -219h202l-5 -22h-201z" />
<glyph unicode="," horiz-adv-x="150" d="M-67 -109q33 22 53 46t29 53q-22 2 -22 23q0 11 7.5 18t17.5 7q12 0 18.5 -7.5t6.5 -20.5q0 -33 -28.5 -70.5t-72.5 -61.5z" />
<glyph unicode="-" horiz-adv-x="361" d="M43 284h287l-5 -22h-287z" />
<glyph unicode="." horiz-adv-x="150" d="M48 17q0 -11 -8.5 -19t-19.5 -8q-10 0 -16 6t-6 15q0 11 8.5 19t19.5 8q10 0 16 -6t6 -15z" />
<glyph unicode="/" horiz-adv-x="412" d="M488 730h30l-560 -893h-30z" />
<glyph unicode="0" horiz-adv-x="545" d="M66 193q0 87 22 183q21 100 60 174.5t90.5 112t113.5 37.5q78 0 121 -53.5t43 -149.5q0 -87 -22 -183q-21 -100 -60 -174.5t-90.5 -112t-113.5 -37.5q-78 0 -121 53.5t-43 149.5zM91 194q0 -88 36 -134.5t104 -46.5q84 0 145.5 80t92.5 223q22 98 22 180q0 88 -36 134.5 t-104 46.5q-84 0 -145.5 -80t-92.5 -223q-22 -98 -22 -180z" />
<glyph unicode="1" horiz-adv-x="353" d="M332 690l-147 -690h-24l140 659l-213 -148l-12 19l232 160h24z" />
<glyph unicode="2" horiz-adv-x="500" d="M390 22l-5 -22h-373l5 24q18 83 43.5 139t68.5 96.5t122 80.5l20 10q108 54 150 99t42 104q0 57 -38 90.5t-102 33.5q-46 0 -93 -19.5t-88 -56.5l-12 20q41 38 92 58.5t103 20.5q73 0 118 -40t45 -105q0 -66 -47 -118t-159 -108l-20 -10q-53 -27 -86.5 -51.5t-57.5 -56 t-42.5 -76.5t-33.5 -113h348z" />
<glyph unicode="3" horiz-adv-x="475" d="M177 -10q-48 0 -95 13.5t-80 37.5l10 21q34 -23 78.5 -36t87.5 -13q89 0 143 51.5t54 138.5q0 68 -43.5 109t-116.5 41h-72l6 22h75q86 0 140.5 47t54.5 121q0 63 -40 98.5t-107 35.5q-40 0 -83.5 -16t-79.5 -43l-10 19q37 30 83.5 46.5t92.5 16.5q50 0 89 -20t59.5 -55 t20.5 -81q0 -68 -44 -118t-116 -63q35 -10 61.5 -33.5t40.5 -55.5t14 -70q0 -97 -61 -155.5t-162 -58.5z" />
<glyph unicode="4" horiz-adv-x="550" d="M341 0l41 191h-361l5 21l462 478h24l-102 -477h99l-5 -22h-98l-41 -191h-24zM386 213l93 437l-422 -437h329z" />
<glyph unicode="5" horiz-adv-x="486" d="M187 -10q-49 0 -96 16t-82 43l10 23q36 -28 80.5 -43.5t88.5 -15.5q95 0 157 60.5t62 154.5q0 72 -47 111t-132 39q-55 0 -123 -2l91 314h296l-5 -22h-274l-78 -269q42 2 94 2q95 0 149 -46t54 -126q0 -71 -33 -125.5t-89 -84t-123 -29.5z" />
<glyph unicode="6" horiz-adv-x="506" d="M370 700q39 0 77.5 -12t67.5 -32l-10 -21q-66 42 -136 42q-96 0 -165 -75t-102 -212q33 6 75.5 10.5t73.5 4.5q107 0 160.5 -46t53.5 -136q0 -68 -29.5 -121.5t-79 -82.5t-110.5 -29q-92 0 -141 59t-49 172q0 94 25.5 188t68 159.5t98 98.5t122.5 33zM247 382 q-32 0 -75 -4.5t-75 -10.5q-16 -77 -16 -146q0 -103 43 -155.5t124 -52.5q83 0 137.5 59.5t54.5 148.5q0 81 -47.5 121t-145.5 40z" />
<glyph unicode="7" horiz-adv-x="448" d="M90 34q14 70 38 130t66 127.5t114 159.5l168 216h-377l5 23h407l-5 -23l-181 -233q-63 -81 -103 -144.5t-65 -123.5t-40 -132l-7 -34h-27z" />
<glyph unicode="8" horiz-adv-x="545" d="M40 159q0 78 52 135t141 80q-50 23 -77 61.5t-27 85.5q0 52 29 93t77.5 63.5t105.5 22.5q52 0 94.5 -21t65 -56.5t22.5 -81.5q0 -64 -45.5 -117t-116.5 -74q109 -51 109 -153q0 -61 -32 -108t-85.5 -73t-116.5 -26q-56 0 -101.5 22.5t-70 60t-24.5 86.5zM262 363 q-90 -21 -143.5 -74.5t-53.5 -127.5q0 -44 23.5 -77.5t63 -52t86.5 -18.5q60 0 107.5 25t73.5 66t26 92t-32 88.5t-93 58.5zM334 361q72 18 118 66.5t46 112.5q0 42 -20.5 72.5t-57 47.5t-80.5 17q-53 0 -96 -21t-66.5 -56t-23.5 -78q0 -49 31.5 -85.5t91.5 -56.5z" />
<glyph unicode="9" horiz-adv-x="509" d="M172 -10q-90 0 -152 47l10 21q62 -45 143 -45q97 0 165.5 75t101.5 213q-74 -12 -148 -12q-107 0 -161.5 44.5t-54.5 132.5q0 66 30 120.5t79.5 84t108.5 29.5q91 0 141.5 -59.5t50.5 -168.5q0 -97 -25 -191t-67 -159t-98 -98.5t-124 -33.5zM296 312q72 0 150 13 q15 80 15 146q0 100 -44 153t-125 53q-55 0 -99 -29.5t-68 -77.5t-24 -103q0 -79 48 -117t147 -38z" />
<glyph unicode=":" horiz-adv-x="150" d="M150 492q0 -11 -8.5 -19t-19.5 -8q-10 0 -16 6t-6 15q0 11 8.5 19t19.5 8q10 0 16 -6t6 -15zM48 17q0 -11 -8.5 -19t-19.5 -8q-10 0 -16 6t-6 15q0 11 8.5 19t19.5 8q10 0 16 -6t6 -15z" />
<glyph unicode=";" horiz-adv-x="150" d="M-67 -109q33 22 53 46t29 53q-22 2 -22 23q0 11 7.5 18t17.5 7q12 0 18.5 -7.5t6.5 -20.5q0 -33 -28.5 -70.5t-72.5 -61.5zM150 492q0 -11 -8.5 -19t-19.5 -8q-10 0 -16 6t-6 15q0 11 8.5 19t19.5 8q10 0 16 -6t6 -15z" />
<glyph unicode="&#x3c;" horiz-adv-x="600" d="M119 355l436 170l-5 -26l-403 -155l338 -159l-5 -24l-365 174z" />
<glyph unicode="=" horiz-adv-x="600" d="M127 440l5 22h424l-5 -22h-424zM81 225l5 22h424l-5 -22h-424z" />
<glyph unicode="&#x3e;" horiz-adv-x="600" d="M522 331l-436 -170l5 26l403 155l-338 159l5 24l365 -174z" />
<glyph unicode="?" horiz-adv-x="402" d="M274 410q63 47 90.5 85.5t27.5 78.5q0 50 -34.5 79.5t-95.5 29.5q-45 0 -91 -21t-87 -60l-13 18q44 41 93.5 63t98.5 22q73 0 113.5 -34.5t40.5 -95.5q0 -48 -29 -89.5t-99 -93.5l-20 -15q-40 -30 -61.5 -51t-33 -43t-17.5 -56l-8 -43h-24l8 43q6 34 18 59.5t35.5 50.5 t67.5 58zM143 17q0 -11 -8.5 -19t-19.5 -8q-10 0 -16 6t-6 15q0 11 8.5 19t19.5 8q10 0 16 -6t6 -15z" />
<glyph unicode="@" horiz-adv-x="970" d="M455 -226q-127 0 -218.5 49t-139.5 138t-48 208q0 137 67.5 247.5t177.5 171t240 60.5q114 0 199.5 -46.5t131.5 -128.5t46 -187q0 -89 -32.5 -160.5t-85.5 -110.5t-115 -39q-48 0 -75 24.5t-27 67.5v10.5t1 10.5q-34 -38 -77.5 -59t-84.5 -21q-64 0 -101 40.5t-37 110.5 q0 76 34.5 139t90 98t120.5 35q38 0 71.5 -14.5t59.5 -41.5l16 47h20l-81 -297q-8 -30 -8 -58q0 -34 20 -52t58 -18q59 0 107 40.5t74.5 106t26.5 141.5q0 104 -45 180.5t-124.5 117.5t-182.5 41q-131 0 -237 -63.5t-164.5 -167t-58.5 -225.5q0 -117 47 -201t132.5 -127.5 t201.5 -43.5q54 0 109 11.5t96 31.5l6 -22q-46 -21 -101 -32.5t-110 -11.5zM647 355q-26 26 -58.5 40t-67.5 14q-62 0 -112.5 -35t-78.5 -91t-28 -121q0 -61 30.5 -95.5t84.5 -34.5q40 0 84.5 23.5t81.5 64.5z" />
<glyph unicode="A" horiz-adv-x="586" d="M449 232h-323l-134 -232h-29l409 700h28l113 -700h-28zM140 256h305l-64 415z" />
<glyph unicode="B" horiz-adv-x="589" d="M567 541q0 -69 -49 -120.5t-126 -65.5q64 -12 99 -51t35 -101q0 -93 -67.5 -148t-182.5 -55h-244l149 700h185q100 0 150.5 -40t50.5 -119zM131 342l-68 -318h214q102 0 162 48.5t60 130.5q0 139 -189 139h-179zM202 676l-66 -310h172q71 0 123.5 22.5t80.5 62t28 90.5 q0 135 -176 135h-162z" />
<glyph unicode="C" horiz-adv-x="603" d="M336 -10q-120 0 -190.5 77.5t-70.5 209.5q0 123 52.5 223t137 155t182.5 55q45 0 88.5 -11.5t79.5 -32.5l-10 -21q-80 41 -159 41q-98 0 -177.5 -56.5t-123 -149.5t-43.5 -202q0 -123 62.5 -193.5t172.5 -70.5q49 0 98 17t91 49l10 -21q-42 -33 -94 -51t-106 -18z" />
<glyph unicode="D" horiz-adv-x="670" d="M181 700h120q334 0 334 -292q0 -92 -34 -169t-93.5 -130.5t-137.5 -81t-169 -27.5h-169zM202 676l-139 -652h139q122 0 214.5 50t142 137t49.5 196q0 136 -76 202.5t-232 66.5h-98z" />
<glyph unicode="E" horiz-adv-x="510" d="M202 676l-66 -309h306l-5 -24h-306l-68 -319h371l-5 -24h-397l149 700h384l-5 -24h-358z" />
<glyph unicode="F" horiz-adv-x="496" d="M202 676l-69 -324h294l-5 -24h-294l-70 -328h-26l149 700h373l-5 -24h-347z" />
<glyph unicode="G" horiz-adv-x="656" d="M340 -10q-122 0 -193.5 77.5t-71.5 209.5q0 123 52.5 223t138 155t185.5 55q101 0 176 -46l-10 -21q-77 43 -167 43q-76 0 -141.5 -34t-111.5 -91.5t-70.5 -130t-24.5 -152.5q0 -123 63.5 -193.5t175.5 -70.5q107 0 189 46l57 272h-256l5 24h282l-65 -311 q-92 -55 -213 -55z" />
<glyph unicode="H" horiz-adv-x="653" d="M485 0l73 343h-427l-73 -343h-26l149 700h26l-71 -333h427l71 333h26l-149 -700h-26z" />
<glyph unicode="I" horiz-adv-x="200" d="M207 700l-149 -700h-26l149 700h26z" />
<glyph unicode="J" horiz-adv-x="391" d="M108 -10q-33 0 -68 11.5t-62 31.5l11 20q59 -39 119 -39q64 0 103 44.5t60 144.5l106 497h26l-107 -502q-23 -109 -68 -158.5t-120 -49.5z" />
<glyph unicode="K" horiz-adv-x="553" d="M122 301l462 399h36l-328 -283l207 -417h-29l-198 400l-158 -135l-56 -265h-26l149 700h26z" />
<glyph unicode="L" horiz-adv-x="486" d="M181 700h26l-144 -676h350l-5 -24h-376z" />
<glyph unicode="M" horiz-adv-x="782" d="M32 0l149 700h27l162 -542l393 542h26l-149 -700h-26l136 641l-375 -518h-22l-157 526l-138 -649h-26z" />
<glyph unicode="N" horiz-adv-x="651" d="M32 0l149 700h28l283 -659l140 659h26l-149 -700h-28l-283 659l-140 -659h-26z" />
<glyph unicode="O" horiz-adv-x="730" d="M75 277q0 121 51 221t132.5 156t175.5 56q79 0 138.5 -37t91 -102t31.5 -148q0 -121 -51 -221t-132.5 -156t-175.5 -56q-79 0 -138.5 37t-91 102t-31.5 148zM102 278q0 -80 30 -140t83 -92t122 -32q93 0 169.5 58t119 151t42.5 199q0 80 -30 140t-83 92t-122 32 q-93 0 -169.5 -58t-119 -151t-42.5 -199z" />
<glyph unicode="P" horiz-adv-x="560" d="M119 288l-61 -288h-26l149 700h180q95 0 145 -45.5t50 -132.5q0 -70 -33 -123.5t-90.5 -82t-131.5 -28.5h-182zM202 676l-78 -364h179q70 0 121 27t78 74.5t27 107.5q0 76 -43 115.5t-126 39.5h-158z" />
<glyph unicode="Q" horiz-adv-x="730" d="M75 277q0 121 51 221t132.5 156t175.5 56q79 0 138.5 -37t91 -102t31.5 -148t-25.5 -159t-71.5 -135.5t-106 -95.5l54 -113l-22 -10l-53 112q-64 -32 -135 -32q-79 0 -138.5 37t-91 102t-31.5 148zM101 278q0 -80 30 -140t83.5 -92t122.5 -32q62 0 124 30l-57 121l22 10 l56 -119q85 51 136 150t51 216q0 80 -30 140t-83.5 92t-122.5 32q-72 0 -134 -35t-106.5 -93t-68 -130t-23.5 -150z" />
<glyph unicode="R" horiz-adv-x="575" d="M32 0l149 700h168q102 0 154.5 -43t52.5 -127q0 -94 -59 -156t-160 -75l141 -299h-30l-138 296h-189l-63 -296h-26zM291 320q74 0 127.5 26.5t82 73.5t28.5 109q0 147 -180 147h-147l-76 -356h165z" />
<glyph unicode="S" horiz-adv-x="560" d="M231 -10q-55 0 -113.5 20t-101.5 53l10 21q42 -32 97.5 -51t108.5 -19q65 0 113.5 22t74.5 59.5t26 84.5q0 38 -12 63t-43 48.5t-98 56.5l-37 18q-73 36 -102.5 72.5t-29.5 89.5q0 55 29 96.5t79.5 63.5t114.5 22q47 0 98.5 -15.5t94.5 -43.5l-10 -21q-95 56 -183 56 q-89 0 -142.5 -43t-53.5 -114q0 -46 26 -77t89 -61l37 -18q66 -32 102 -58.5t52 -57.5t16 -77q0 -56 -32 -99.5t-86.5 -67t-123.5 -23.5z" />
<glyph unicode="T" horiz-adv-x="524" d="M364 676l-144 -676h-26l144 676h-243l5 24h512l-5 -24h-243z" />
<glyph unicode="U" horiz-adv-x="632" d="M553 268q-30 -142 -96.5 -210t-176.5 -68q-94 0 -149 52t-55 141q0 44 20 138l81 379h26l-80 -377q-21 -97 -21 -139q0 -79 48 -124.5t131 -45.5q97 0 158 62.5t88 191.5l92 432h26z" />
<glyph unicode="V" horiz-adv-x="578" d="M147 700l94 -671l379 671h29l-399 -700h-28l-103 700h28z" />
<glyph unicode="W" horiz-adv-x="806" d="M160 0l-28 700h27l23 -661l290 601h29l31 -604l304 664h28l-325 -700h-29l-31 602l-290 -602h-29z" />
<glyph unicode="X" horiz-adv-x="546" d="M299 375l275 325h32l-297 -348l153 -352h-29l-143 336l-280 -336h-32l302 358l-148 342h29z" />
<glyph unicode="Y" horiz-adv-x="545" d="M292 295l-62 -295h-26l63 299l-151 401h28l140 -381l304 381h31z" />
<glyph unicode="Z" horiz-adv-x="561" d="M-9 0l5 22l555 654h-411l5 24h445l-5 -22l-555 -654h435l-5 -24h-469z" />
<glyph unicode="[" horiz-adv-x="343" d="M5 -164l192 894h189l-5 -23h-164l-182 -848h178l-5 -23h-203z" />
<glyph unicode="\" horiz-adv-x="399" d="M308 -163h-27l-201 893h26z" />
<glyph unicode="]" horiz-adv-x="343" d="M350 730l-192 -894h-189l5 23h164l182 848h-178l5 23h203z" />
<glyph unicode="^" horiz-adv-x="600" d="M497 334l-108 330l-249 -330h-28l271 356h21l118 -356h-25z" />
<glyph unicode="_" horiz-adv-x="500" d="M-76 -100h500l-5 -22h-500z" />
<glyph unicode="`" horiz-adv-x="542" d="M383 613l-67 134h31l60 -134h-24z" />
<glyph unicode="a" horiz-adv-x="539" d="M326 522q42 0 82 -17t69 -47l15 55h20l-110 -513h-20l12 72q-37 -38 -85 -60t-95 -22q-80 0 -125.5 54t-45.5 152q0 93 39.5 168t104 116.5t139.5 41.5zM68 198q0 -88 39 -136.5t110 -48.5q49 0 96.5 24.5t87.5 69.5l70 328q-26 30 -65.5 47t-80.5 17q-74 0 -133 -42 t-91.5 -111t-32.5 -148z" />
<glyph unicode="b" horiz-adv-x="539" d="M213 -10q-42 0 -82.5 17t-68.5 46l-15 -53h-20l161 750h24l-67 -310q37 39 84.5 60.5t95.5 21.5q81 0 126 -54.5t45 -152.5q0 -92 -39.5 -167t-104 -116.5t-139.5 -41.5zM322 499q-49 0 -96 -24t-88 -70l-71 -329q27 -29 66.5 -46t80.5 -17q74 0 133 42t91.5 111 t32.5 148q0 88 -39 136.5t-110 48.5z" />
<glyph unicode="c" horiz-adv-x="477" d="M230 -10q-88 0 -137.5 56t-49.5 156q0 88 41 162.5t105.5 116t135.5 41.5q74 0 135 -39l-9 -20q-27 17 -60.5 26.5t-66.5 9.5q-70 0 -129.5 -43t-93 -110.5t-33.5 -143.5q0 -90 44 -139.5t120 -49.5q92 0 157 59l8 -22q-32 -29 -75.5 -44.5t-91.5 -15.5z" />
<glyph unicode="d" horiz-adv-x="538" d="M326 522q43 0 83 -16.5t67 -45.5l62 290h24l-161 -750h-20l12 71q-37 -38 -84.5 -59.5t-94.5 -21.5q-80 0 -125.5 54t-45.5 152q0 93 39.5 168t104 116.5t139.5 41.5zM68 198q0 -88 39 -136.5t110 -48.5q49 0 96 24t86 68l72 331q-26 29 -65.5 46t-80.5 17 q-74 0 -133 -42t-91.5 -111t-32.5 -148z" />
<glyph unicode="e" horiz-adv-x="505" d="M68 203q0 -92 44.5 -141t126.5 -49q44 0 86.5 16.5t72.5 44.5l8 -23q-31 -28 -76 -44.5t-93 -16.5q-92 0 -143 55t-51 157q0 87 43 161.5t109 116.5t139 42q63 0 100 -32t37 -85q0 -81 -90 -129.5t-241 -48.5q-35 0 -71 4q-1 -13 -1 -28zM332 499q-64 0 -120 -34t-93 -90 t-47 -123q29 -3 67 -3q142 0 224.5 42t82.5 113q0 43 -31 69t-83 26z" />
<glyph unicode="f" horiz-adv-x="291" d="M65 513h95l12 57q39 190 175 190q18 0 36 -4.5t29 -11.5l-8 -20q-28 13 -57 13q-59 0 -96 -40.5t-55 -126.5l-12 -57h160l-5 -22h-160l-130 -616h-24l130 616h-95z" />
<glyph unicode="g" horiz-adv-x="538" d="M154 -203q91 0 145 46.5t75 143.5l21 97q-37 -38 -85.5 -61t-95.5 -23q-80 0 -126 53.5t-46 145.5q0 91 39.5 165.5t104 116t139.5 41.5q42 0 82 -17t69 -47l15 55h20l-113 -527q-46 -212 -244 -212q-46 0 -88.5 11.5t-75.5 32.5l9 22q32 -21 72 -32t83 -11zM217 23 q49 0 97 25t89 72l67 315q-26 30 -65.5 47t-80.5 17q-74 0 -133 -42t-91.5 -110t-32.5 -146q0 -84 39.5 -131t110.5 -47z" />
<glyph unicode="h" horiz-adv-x="542" d="M349 499q-51 0 -107 -26t-105 -73l-86 -400h-24l161 750h24l-68 -317q47 42 102 65.5t106 23.5q65 0 99 -33t34 -94q0 -35 -16 -112l-61 -283h-24l61 283q15 72 15 110q0 106 -111 106z" />
<glyph unicode="i" horiz-adv-x="188" d="M137 513h24l-110 -513h-24zM203 687q0 -9 -6.5 -15.5t-16.5 -6.5t-15.5 5.5t-5.5 14.5t6.5 15.5t16.5 6.5t15.5 -5.5t5.5 -14.5z" />
<glyph unicode="j" horiz-adv-x="188" d="M203 687q0 -9 -6.5 -15.5t-16.5 -6.5t-15.5 5.5t-5.5 14.5t6.5 15.5t16.5 6.5t15.5 -5.5t5.5 -14.5zM161 513l-127 -593q-16 -76 -45.5 -111t-78.5 -35q-17 0 -33.5 5t-26.5 12l9 19q25 -13 52 -13q38 0 61.5 29t37.5 94l127 593h24z" />
<glyph unicode="k" horiz-adv-x="482" d="M106 256l355 257h39l-280 -203l189 -310h-29l-179 297l-102 -73l-48 -224h-24l161 750h24z" />
<glyph unicode="l" horiz-adv-x="188" d="M188 750h24l-161 -750h-24z" />
<glyph unicode="m" horiz-adv-x="875" d="M818 394q0 -34 -16 -111l-61 -283h-24l61 283q15 72 15 108q0 55 -27 81.5t-83 26.5q-49 0 -104 -26.5t-106 -74.5v-4q0 -34 -16 -111l-61 -283h-24l61 283q15 72 15 108q0 108 -109 108q-44 0 -99 -26.5t-103 -72.5l-86 -400h-24l110 513h20l-14 -80q47 41 101 65 t100 24q55 0 87.5 -25.5t39.5 -73.5q50 47 107.5 73t109.5 26q64 0 97 -32.5t33 -95.5z" />
<glyph unicode="n" horiz-adv-x="542" d="M143 433q48 42 103.5 65.5t105.5 23.5q65 0 99 -33t34 -94q0 -35 -16 -112l-61 -283h-24l61 283q15 72 15 110q0 106 -111 106q-51 0 -107 -26t-105 -73l-86 -400h-24l110 513h20z" />
<glyph unicode="o" horiz-adv-x="553" d="M43 203q0 90 40 163.5t103 114.5t133 41q87 0 139 -58t52 -155q0 -90 -40 -163.5t-103 -114.5t-133 -41q-87 0 -139 58t-52 155zM68 203q0 -88 45 -139t122 -51q69 0 127.5 42t90.5 109t32 145q0 88 -45 139t-122 51q-69 0 -127.5 -42t-90.5 -109t-32 -145z" />
<glyph unicode="p" horiz-adv-x="539" d="M144 439q37 39 85 61t96 22q81 0 126 -54.5t45 -152.5q0 -92 -39.5 -167t-104 -116.5t-139.5 -41.5q-43 0 -83 16.5t-68 46.5l-57 -269h-24l156 729h20zM322 499q-49 0 -96 -24t-88 -70l-71 -329q27 -29 66.5 -46t80.5 -17q74 0 133 42t91.5 111t32.5 148q0 88 -39 136.5 t-110 48.5z" />
<glyph unicode="q" horiz-adv-x="539" d="M326 522q42 0 82 -17t69 -47l15 55h20l-156 -729h-24l61 287q-37 -38 -84.5 -59.5t-94.5 -21.5q-80 0 -125.5 54t-45.5 152q0 93 39.5 168t104 116.5t139.5 41.5zM68 198q0 -88 39 -136.5t110 -48.5q49 0 96.5 24.5t87.5 69.5l70 328q-26 30 -65.5 47t-80.5 17 q-74 0 -133 -42t-91.5 -111t-32.5 -148z" />
<glyph unicode="r" horiz-adv-x="344" d="M143 432q43 44 92 67t98 23q26 0 41 -5l-5 -23q-16 4 -40 4q-48 0 -97.5 -25t-94.5 -73l-86 -400h-24l110 513h20z" />
<glyph unicode="s" horiz-adv-x="442" d="M395 457q-31 19 -68.5 30.5t-71.5 11.5q-64 0 -104.5 -30t-40.5 -78q0 -34 21.5 -59t68.5 -46l29 -13q74 -33 102 -63t28 -78q0 -62 -50 -102t-128 -40q-42 0 -88 16t-78 43l9 19q30 -25 73.5 -40t84.5 -15q69 0 110.5 32.5t41.5 85.5q0 41 -24 65.5t-93 55.5l-29 13 q-54 24 -78.5 54.5t-24.5 71.5q0 57 49 94t122 37q36 0 77.5 -12.5t70.5 -32.5z" />
<glyph unicode="t" horiz-adv-x="356" d="M287 35q-25 -21 -57.5 -33t-65.5 -12q-51 0 -76.5 28.5t-25.5 82.5q0 25 9 68l69 322h-96l5 22h96l37 154h20l-33 -154h188l-5 -22h-188l-69 -322q-9 -41 -9 -67q0 -89 82 -89q28 0 58.5 12t53.5 32z" />
<glyph unicode="u" horiz-adv-x="538" d="M381 0l13 77q-48 -42 -100 -64.5t-103 -22.5q-66 0 -100 32.5t-34 95.5q0 35 16 111l61 284h24l-61 -284q-15 -70 -15 -108q0 -55 27.5 -81.5t86.5 -26.5q50 0 102.5 24t101.5 70l87 406h24l-110 -513h-20z" />
<glyph unicode="v" horiz-adv-x="451" d="M159 0l-84 513h27l74 -482l281 482h29l-303 -513h-24z" />
<glyph unicode="w" horiz-adv-x="697" d="M411 494l42 -457l248 476h28l-272 -513h-24l-43 454l-232 -454h-26l-54 513h26l47 -479l235 460h25z" />
<glyph unicode="x" horiz-adv-x="453" d="M229 247l-234 -247h-31l254 268l-125 245h28l115 -231l216 231h33l-238 -252l133 -261h-28z" />
<glyph unicode="y" horiz-adv-x="442" d="M-36 -226q-17 0 -32.5 5t-24.5 13l9 21q20 -16 48 -16q37 0 72 36t95 138l18 31l-83 511h27l75 -482l280 482h29l-326 -552q-43 -72 -73 -112t-56 -57.5t-58 -17.5z" />
<glyph unicode="z" horiz-adv-x="452" d="M27 22h329l-5 -22h-360l4 20l420 471h-311l5 22h342l-4 -20z" />
<glyph unicode="{" horiz-adv-x="335" d="M156 -164q-104 0 -104 105q0 25 9.5 60.5t31.5 93.5t29 81.5t7 40.5q0 54 -66 54h-22l5 24h19q42 0 65.5 17.5t31.5 55.5q8 37 17 116q3 32 5.5 52.5t4.5 34.5t4 26q11 63 51 98t101 35q35 0 62 -9l-4 -22q-28 8 -58 8q-51 0 -83.5 -28.5t-43.5 -82.5q-8 -37 -15 -112 q-7 -70 -16 -118q-13 -72 -81 -84q48 -14 48 -64q0 -17 -8 -45t-30 -86q-39 -102 -39 -145t19.5 -63t61.5 -20q36 0 67 7l-5 -23q-31 -7 -64 -7z" />
<glyph unicode="|" horiz-adv-x="199" d="M189 730h25l-203 -946h-25z" />
<glyph unicode="}" horiz-adv-x="335" d="M190 730q104 0 104 -105q0 -25 -9.5 -60.5t-31.5 -93.5t-29 -81.5t-7 -40.5q0 -54 66 -54h22l-5 -24h-19q-42 0 -65.5 -17.5t-31.5 -55.5q-8 -37 -17 -116q-3 -32 -5.5 -52.5t-4.5 -34.5t-4 -26q-11 -63 -51 -98t-101 -35q-35 0 -62 9l4 22q28 -8 58 -8q51 0 83.5 28.5 t43.5 82.5q8 37 15 112q7 70 16 118q14 72 81 84q-48 14 -48 64q0 17 8 45t30 86q39 102 39 145t-19.5 63t-61.5 20q-35 0 -67 -7l5 23q32 7 64 7z" />
<glyph unicode="~" horiz-adv-x="600" d="M311 334q-26 33 -41 48t-28 21.5t-28 6.5q-35 0 -61 -31.5t-39 -92.5l-7 -30h-24l7 30q17 74 47.5 110.5t75.5 36.5q29 0 53 -16.5t60 -61.5q26 -33 41 -48t28 -21.5t28 -6.5q35 0 61 31.5t39 92.5l7 30h24l-7 -30q-34 -147 -123 -147q-29 0 -53 16.5t-60 61.5z" />
<glyph unicode="&#xa1;" horiz-adv-x="202" d="M105 329h23l-106 -516h-29zM128 496q0 11 8.5 19t19.5 8q10 0 16 -6t6 -15q0 -11 -8.5 -19t-19.5 -8q-10 0 -16 6t-6 15z" />
<glyph unicode="&#xa2;" horiz-adv-x="600" d="M229 -113l23 106q-66 11 -104 63.5t-38 134.5q0 85 35.5 157t93 115.5t124.5 50.5l22 104h24l-22 -103q72 0 138 -41l-9 -21q-64 39 -134 39l-102 -479h4q97 0 169 60l7 -21q-70 -62 -176 -62h-9l-22 -103h-24zM135 192q0 -72 32.5 -119t88.5 -58l102 476 q-48 -7 -90 -35.5t-72 -70.5t-45.5 -91.5t-15.5 -101.5z" />
<glyph unicode="&#xa3;" horiz-adv-x="600" d="M442 338h-202v-23q0 -54 -19.5 -108t-54.5 -102t-80 -83h406l-5 -22h-435l5 24q72 55 115 133t43 158v23h-83l5 22h76l-5 35q-6 42 -8 59.5t-2 36.5q0 94 57.5 151.5t154.5 57.5q43 0 89 -13.5t80 -35.5l-9 -22q-33 21 -77 34.5t-83 13.5q-86 0 -136.5 -50.5 t-50.5 -136.5q0 -28 8 -79l7 -51h209z" />
<glyph unicode="&#xa5;" horiz-adv-x="600" d="M115 318h173l-140 372h26l137 -372l297 372h30l-302 -372h171l-5 -22h-184l-28 -132h184l-5 -22h-184l-30 -142h-24l30 142h-184l5 22h184l28 132h-184z" />
<glyph unicode="&#xa7;" horiz-adv-x="504" d="M173 -126q-50 0 -95 15.5t-78 43.5l9 19q31 -26 75.5 -40.5t88.5 -14.5q79 0 125 31.5t46 85.5q0 42 -24.5 67.5t-85.5 44.5l-25 8q-76 24 -111 60.5t-35 91.5q0 44 24 81t64.5 62t90.5 34q-46 20 -66.5 46t-20.5 66q0 59 48 97t123 38q87 0 157 -45l-9 -19 q-68 41 -147 41q-66 0 -106.5 -31t-40.5 -82q0 -38 24.5 -61.5t83.5 -42.5l25 -8q76 -25 111 -61t35 -91q0 -44 -23.5 -81.5t-63.5 -62.5t-89 -34q45 -20 65.5 -47.5t20.5 -69.5q0 -64 -53.5 -102.5t-142.5 -38.5zM272 451q-81 -11 -132.5 -57t-51.5 -107q0 -46 30.5 -77.5 t94.5 -52.5l41 -13q82 13 131 58.5t49 107.5q0 46 -30.5 77.5t-95.5 52.5z" />
<glyph unicode="&#xa8;" horiz-adv-x="542" d="M322 687q0 -9 -6.5 -15.5t-16.5 -6.5t-15.5 5.5t-5.5 14.5t6.5 15.5t16.5 6.5t15.5 -5.5t5.5 -14.5zM448 687q0 -9 -6.5 -15.5t-16.5 -6.5t-15.5 5.5t-5.5 14.5t6.5 15.5t16.5 6.5t15.5 -5.5t5.5 -14.5z" />
<glyph unicode="&#xa9;" horiz-adv-x="586" d="M418 608q-39 21 -80 21q-57 0 -90.5 -37t-33.5 -98q0 -62 33.5 -98.5t90.5 -36.5q47 0 81 21l7 -19q-37 -25 -88 -25q-66 0 -107 43.5t-41 114.5q0 70 41 114t107 44q23 0 46 -6.5t40 -17.5zM67 494q0 80 35 142t95 95t134 33q79 0 139 -35.5t92.5 -96.5t32.5 -138 q0 -80 -35 -142t-95 -95t-134 -33q-79 0 -139 35.5t-92.5 96.5t-32.5 138zM91 494q0 -75 31.5 -131t85.5 -86.5t123 -30.5q72 0 126.5 32.5t84 88.5t29.5 127q0 75 -31.5 131t-85.5 86.5t-123 30.5q-72 0 -126.5 -32.5t-84 -88.5t-29.5 -127z" />
<glyph unicode="&#xaa;" horiz-adv-x="365" d="M192 346q-53 0 -84.5 37t-31.5 97q0 62 26.5 112.5t69 79t90.5 28.5q29 0 57 -13t48 -36l12 41h20l-73 -340h-20l6 47q-23 -25 -55 -39t-65 -14zM196 368q31 0 64.5 16.5t57.5 44.5l43 201q-17 22 -44 35t-56 13q-44 0 -82 -28t-58.5 -72.5t-20.5 -95.5t26 -82.5 t70 -31.5zM65 289h247l-5 -22h-247z" />
<glyph unicode="&#xab;" horiz-adv-x="370" d="M64 278l95 -166h-28l-95 168l160 168h32zM195 278l95 -166h-28l-95 168l160 168h32z" />
<glyph unicode="&#xac;" horiz-adv-x="600" d="M458 113l47 222h-402l5 22h426l-52 -244h-24z" />
<glyph unicode="&#xae;" horiz-adv-x="586" d="M67 494q0 80 35 142t95 95t134 33q79 0 139 -35.5t92.5 -96.5t32.5 -138q0 -80 -35 -142t-95 -95t-134 -33q-79 0 -139 35.5t-92.5 96.5t-32.5 138zM91 494q0 -75 31.5 -131t85.5 -86.5t123 -30.5q72 0 126.5 32.5t84 88.5t29.5 127q0 75 -31.5 131t-85.5 86.5t-123 30.5 q-72 0 -126.5 -32.5t-84 -88.5t-29.5 -127zM439 558q0 -34 -20 -57t-55 -28l82 -121h-28l-80 120h-71v-120h-22v291h101q45 0 69 -22.5t24 -62.5zM267 623v-131h79q33 0 52 17.5t19 48.5t-18.5 48t-52.5 17h-79z" />
<glyph unicode="&#xb0;" horiz-adv-x="315" d="M238 679q-38 0 -69.5 -21.5t-49 -55.5t-17.5 -73q0 -41 25 -66.5t66 -25.5q38 0 69.5 21.5t49 55.5t17.5 73q0 41 -25 66.5t-66 25.5zM240 700q50 0 81 -31t31 -81q0 -49 -22.5 -88.5t-59 -61.5t-79.5 -22q-50 0 -81 31t-31 81q0 49 22.5 88.5t59 61.5t79.5 22z" />
<glyph unicode="&#xb2;" d="M298 598q-66 -27 -99 -62t-45 -95h232l-4 -21h-255l4 21q14 69 49 107.5t110 69.5q55 22 80 37.5t36 33t11 41.5q0 30 -24 49t-64 19q-31 0 -64 -12.5t-59 -33.5l-9 19q25 22 62 35.5t72 13.5q49 0 79.5 -25t30.5 -65q0 -41 -28 -69t-115 -63z" />
<glyph unicode="&#xb3;" d="M247 410q-71 0 -122 38l8 21q24 -18 54 -27.5t61 -9.5q57 0 93.5 29t36.5 75q0 37 -26 57t-75 20h-58l4 21h68q50 0 84 26.5t34 66.5q0 32 -25 51.5t-68 19.5q-27 0 -56.5 -10t-55.5 -27l-8 19q24 18 57 29t65 11q51 0 83 -25.5t32 -65.5q0 -38 -27 -67.5t-70 -39.5 q31 -9 48.5 -31.5t17.5 -54.5q0 -55 -44 -90.5t-111 -35.5z" />
<glyph unicode="&#xb4;" horiz-adv-x="542" d="M285 613l116 134h36l-124 -134h-28z" />
<glyph unicode="&#xb6;" horiz-adv-x="513" d="M179 -110l91 429q-85 2 -131 43.5t-46 117.5q0 63 32.5 114t87 78.5t120.5 27.5h180l-173 -810h-24l168 787h-113l-168 -787h-24z" />
<glyph unicode="&#xb7;" horiz-adv-x="150" d="M107 291q0 -11 -8.5 -19t-19.5 -8q-10 0 -16 6t-6 15q0 11 8.5 19t19.5 8q10 0 16 -6t6 -15z" />
<glyph unicode="&#xb8;" horiz-adv-x="542" d="M94 -174q37 -24 74 -24q35 0 57.5 17.5t22.5 43.5q0 25 -20.5 38t-59.5 13h-15l51 88h24l-40 -69q39 -1 61 -19.5t22 -50.5q0 -36 -28.5 -58.5t-74.5 -22.5t-81 25z" />
<glyph unicode="&#xb9;" d="M398 810l-83 -390h-23l77 362l-152 -101l-11 17l169 112h23z" />
<glyph unicode="&#xba;" horiz-adv-x="382" d="M61 289h267l-5 -22h-267zM402 559q0 -59 -27.5 -108t-70 -77t-89.5 -28q-60 0 -97.5 39t-37.5 102q0 59 27.5 108t70 77t89.5 28q60 0 97.5 -39t37.5 -102zM378 558q0 54 -31 87t-81 33q-44 0 -82 -27.5t-59 -70.5t-21 -92q0 -54 31 -87t81 -33q44 0 82 27.5t59 70.5 t21 92z" />
<glyph unicode="&#xbb;" horiz-adv-x="370" d="M90 448h28l95 -168l-160 -168h-32l164 170zM221 448h28l95 -168l-160 -168h-32l164 170z" />
<glyph unicode="&#xbc;" horiz-adv-x="906" d="M227 0l511 690h27l-511 -690h-27zM706 0l21 99h-228l4 20l283 271h25l-58 -270h60l-5 -21h-59l-21 -99h-22zM731 120l51 238l-249 -238h198zM372 690l-83 -390h-23l77 362l-152 -101l-11 17l169 112h23z" />
<glyph unicode="&#xbd;" horiz-adv-x="906" d="M178 0l511 690h27l-511 -690h-27zM676 178q-66 -27 -99 -62t-45 -95h232l-4 -21h-255l4 21q14 69 49 107.5t110 69.5q55 22 80 37.5t36 33t11 41.5q0 30 -24 49t-64 19q-31 0 -64 -12.5t-59 -33.5l-9 19q25 22 62 35.5t72 13.5q49 0 79.5 -25t30.5 -65q0 -41 -28 -69 t-115 -63zM372 690l-83 -390h-23l77 362l-152 -101l-11 17l169 112h23z" />
<glyph unicode="&#xbe;" horiz-adv-x="906" d="M227 0l511 690h27l-511 -690h-27zM706 0l21 99h-228l4 20l283 271h25l-58 -270h60l-5 -21h-59l-21 -99h-22zM731 120l51 238l-249 -238h198zM221 290q-71 0 -122 38l8 21q24 -18 54 -27.5t61 -9.5q57 0 93.5 29t36.5 75q0 37 -26 57t-75 20h-58l4 21h68q50 0 84 26.5 t34 66.5q0 32 -25 51.5t-68 19.5q-27 0 -56.5 -10t-55.5 -27l-8 19q24 18 57 29t65 11q51 0 83 -25.5t32 -65.5q0 -38 -27 -67.5t-70 -39.5q31 -9 48.5 -31.5t17.5 -54.5q0 -55 -44 -90.5t-111 -35.5z" />
<glyph unicode="&#xbf;" horiz-adv-x="402" d="M128 103q-63 -47 -90.5 -85.5t-27.5 -78.5q0 -50 34.5 -79.5t95.5 -29.5q45 0 91 21t87 60l13 -18q-44 -41 -93.5 -63t-98.5 -22q-73 0 -113.5 34.5t-40.5 95.5q0 48 29 89.5t99 93.5l20 15q40 30 61.5 51t33 43t17.5 56l8 43h24l-8 -43q-6 -34 -18 -59.5t-35.5 -50.5 t-67.5 -58zM259 496q0 11 8.5 19t19.5 8q10 0 16 -6t6 -15q0 -11 -8.5 -19t-19.5 -8q-10 0 -16 6t-6 15z" />
<glyph unicode="&#xc0;" horiz-adv-x="586" d="M449 232h-323l-134 -232h-29l409 700h28l113 -700h-28zM140 256h305l-64 415zM380 772l-75 102h36l65 -102h-26z" />
<glyph unicode="&#xc1;" horiz-adv-x="586" d="M449 232h-323l-134 -232h-29l409 700h28l113 -700h-28zM140 256h305l-64 415zM372 772l107 102h41l-117 -102h-31z" />
<glyph unicode="&#xc2;" horiz-adv-x="586" d="M449 232h-323l-134 -232h-29l409 700h28l113 -700h-28zM140 256h305l-64 415zM276 772l131 102h27l84 -102h-26l-74 82l-112 -82h-30z" />
<glyph unicode="&#xc3;" horiz-adv-x="586" d="M449 232h-323l-134 -232h-29l409 700h28l113 -700h-28zM140 256h305l-64 415zM545 867q-7 -44 -27.5 -69t-50.5 -25q-19 0 -34.5 8.5t-35.5 29.5q-18 20 -30 27.5t-26 7.5q-20 0 -35 -19.5t-20 -52.5h-22q7 44 27.5 69t50.5 25q19 0 34.5 -8.5t35.5 -29.5 q18 -20 30 -27.5t26 -7.5q20 0 35 19.5t20 52.5h22z" />
<glyph unicode="&#xc4;" horiz-adv-x="586" d="M449 232h-323l-134 -232h-29l409 700h28l113 -700h-28zM140 256h305l-64 415zM352 828q0 -10 -7 -17t-18 -7q-9 0 -15 5.5t-6 14.5q0 10 7 17t18 7q9 0 15 -5.5t6 -14.5zM496 828q0 -10 -7 -17t-18 -7q-9 0 -15 5.5t-6 14.5q0 10 7 17t18 7q9 0 15 -5.5t6 -14.5z" />
<glyph unicode="&#xc5;" horiz-adv-x="586" d="M449 232h-323l-134 -232h-29l409 700h28l113 -700h-28zM140 256h305l-64 415zM504 863q0 -45 -30.5 -75t-75.5 -30q-39 0 -62.5 23t-23.5 60q0 45 30.5 75t75.5 30q39 0 62.5 -23t23.5 -60zM481 861q0 29 -18 46.5t-47 17.5q-34 0 -57.5 -24t-23.5 -58q0 -29 18 -46.5 t47 -17.5q34 0 57.5 24t23.5 58z" />
<glyph unicode="&#xc6;" horiz-adv-x="878" d="M928 676h-353l-66 -309h301l-5 -24h-301l-68 -319h366l-5 -24h-392l52 245h-274l-207 -245h-33l597 700h393zM462 269l87 407l-345 -407h258z" />
<glyph unicode="&#xc7;" horiz-adv-x="603" d="M336 -10q-120 0 -190.5 77.5t-70.5 209.5q0 123 52.5 223t137 155t182.5 55q45 0 88.5 -11.5t79.5 -32.5l-10 -21q-80 41 -159 41q-98 0 -177.5 -56.5t-123 -149.5t-43.5 -202q0 -123 62.5 -193.5t172.5 -70.5q49 0 98 17t91 49l10 -21q-42 -33 -94 -51t-106 -18z M187 -173q34 -24 75 -24q34 0 56 17t22 45q0 23 -20.5 35.5t-58.5 12.5h-16l52 89h25l-40 -69q38 -1 60.5 -19t22.5 -48q0 -37 -28.5 -60.5t-74.5 -23.5q-48 0 -82 25z" />
<glyph unicode="&#xc8;" horiz-adv-x="510" d="M202 676l-66 -309h306l-5 -24h-306l-68 -319h371l-5 -24h-397l149 700h384l-5 -24h-358zM370 772l-75 102h36l65 -102h-26z" />
<glyph unicode="&#xc9;" horiz-adv-x="510" d="M202 676l-66 -309h306l-5 -24h-306l-68 -319h371l-5 -24h-397l149 700h384l-5 -24h-358zM362 772l107 102h41l-117 -102h-31z" />
<glyph unicode="&#xca;" horiz-adv-x="510" d="M202 676l-66 -309h306l-5 -24h-306l-68 -319h371l-5 -24h-397l149 700h384l-5 -24h-358zM266 772l131 102h27l84 -102h-26l-74 82l-112 -82h-30z" />
<glyph unicode="&#xcb;" horiz-adv-x="510" d="M202 676l-66 -309h306l-5 -24h-306l-68 -319h371l-5 -24h-397l149 700h384l-5 -24h-358zM342 828q0 -10 -7 -17t-18 -7q-9 0 -15 5.5t-6 14.5q0 10 7 17t18 7q9 0 15 -5.5t6 -14.5zM486 828q0 -10 -7 -17t-18 -7q-9 0 -15 5.5t-6 14.5q0 10 7 17t18 7q9 0 15 -5.5 t6 -14.5z" />
<glyph unicode="&#xcc;" horiz-adv-x="200" d="M207 700l-149 -700h-26l149 700h26zM189 772l-75 102h36l65 -102h-26z" />
<glyph unicode="&#xcd;" horiz-adv-x="200" d="M207 700l-149 -700h-26l149 700h26zM181 772l107 102h41l-117 -102h-31z" />
<glyph unicode="&#xce;" horiz-adv-x="200" d="M207 700l-149 -700h-26l149 700h26zM85 772l131 102h27l84 -102h-26l-74 82l-112 -82h-30z" />
<glyph unicode="&#xcf;" horiz-adv-x="200" d="M207 700l-149 -700h-26l149 700h26zM161 828q0 -10 -7 -17t-18 -7q-9 0 -15 5.5t-6 14.5q0 10 7 17t18 7q9 0 15 -5.5t6 -14.5zM305 828q0 -10 -7 -17t-18 -7q-9 0 -15 5.5t-6 14.5q0 10 7 17t18 7q9 0 15 -5.5t6 -14.5z" />
<glyph unicode="&#xd0;" horiz-adv-x="687" d="M123 349h-94l5 22h94l70 329h120q334 0 334 -292q0 -92 -34 -169t-93.5 -130.5t-137.5 -81t-169 -27.5h-169zM219 676l-65 -305h151l-5 -22h-151l-69 -325h139q122 0 214.5 50t142 137t49.5 196q0 136 -76 202.5t-232 66.5h-98z" />
<glyph unicode="&#xd1;" horiz-adv-x="651" d="M32 0l149 700h28l283 -659l140 659h26l-149 -700h-28l-283 659l-140 -659h-26zM579 867q-7 -44 -27.5 -69t-50.5 -25q-19 0 -34.5 8.5t-35.5 29.5q-18 20 -30 27.5t-26 7.5q-20 0 -35 -19.5t-20 -52.5h-22q7 44 27.5 69t50.5 25q19 0 34.5 -8.5t35.5 -29.5 q18 -20 30 -27.5t26 -7.5q20 0 35 19.5t20 52.5h22z" />
<glyph unicode="&#xd2;" horiz-adv-x="730" d="M75 277q0 121 51 221t132.5 156t175.5 56q79 0 138.5 -37t91 -102t31.5 -148q0 -121 -51 -221t-132.5 -156t-175.5 -56q-79 0 -138.5 37t-91 102t-31.5 148zM102 278q0 -80 30 -140t83 -92t122 -32q93 0 169.5 58t119 151t42.5 199q0 80 -30 140t-83 92t-122 32 q-93 0 -169.5 -58t-119 -151t-42.5 -199zM447 772l-75 102h36l65 -102h-26z" />
<glyph unicode="&#xd3;" horiz-adv-x="730" d="M75 277q0 121 51 221t132.5 156t175.5 56q79 0 138.5 -37t91 -102t31.5 -148q0 -121 -51 -221t-132.5 -156t-175.5 -56q-79 0 -138.5 37t-91 102t-31.5 148zM102 278q0 -80 30 -140t83 -92t122 -32q93 0 169.5 58t119 151t42.5 199q0 80 -30 140t-83 92t-122 32 q-93 0 -169.5 -58t-119 -151t-42.5 -199zM439 772l107 102h41l-117 -102h-31z" />
<glyph unicode="&#xd4;" horiz-adv-x="730" d="M75 277q0 121 51 221t132.5 156t175.5 56q79 0 138.5 -37t91 -102t31.5 -148q0 -121 -51 -221t-132.5 -156t-175.5 -56q-79 0 -138.5 37t-91 102t-31.5 148zM102 278q0 -80 30 -140t83 -92t122 -32q93 0 169.5 58t119 151t42.5 199q0 80 -30 140t-83 92t-122 32 q-93 0 -169.5 -58t-119 -151t-42.5 -199zM343 772l131 102h27l84 -102h-26l-74 82l-112 -82h-30z" />
<glyph unicode="&#xd5;" horiz-adv-x="730" d="M75 277q0 121 51 221t132.5 156t175.5 56q79 0 138.5 -37t91 -102t31.5 -148q0 -121 -51 -221t-132.5 -156t-175.5 -56q-79 0 -138.5 37t-91 102t-31.5 148zM102 278q0 -80 30 -140t83 -92t122 -32q93 0 169.5 58t119 151t42.5 199q0 80 -30 140t-83 92t-122 32 q-93 0 -169.5 -58t-119 -151t-42.5 -199zM612 867q-7 -44 -27.5 -69t-50.5 -25q-19 0 -34.5 8.5t-35.5 29.5q-18 20 -30 27.5t-26 7.5q-20 0 -35 -19.5t-20 -52.5h-22q7 44 27.5 69t50.5 25q19 0 34.5 -8.5t35.5 -29.5q18 -20 30 -27.5t26 -7.5q20 0 35 19.5t20 52.5h22z " />
<glyph unicode="&#xd6;" horiz-adv-x="730" d="M75 277q0 121 51 221t132.5 156t175.5 56q79 0 138.5 -37t91 -102t31.5 -148q0 -121 -51 -221t-132.5 -156t-175.5 -56q-79 0 -138.5 37t-91 102t-31.5 148zM102 278q0 -80 30 -140t83 -92t122 -32q93 0 169.5 58t119 151t42.5 199q0 80 -30 140t-83 92t-122 32 q-93 0 -169.5 -58t-119 -151t-42.5 -199zM419 828q0 -10 -7 -17t-18 -7q-9 0 -15 5.5t-6 14.5q0 10 7 17t18 7q9 0 15 -5.5t6 -14.5zM563 828q0 -10 -7 -17t-18 -7q-9 0 -15 5.5t-6 14.5q0 10 7 17t18 7q9 0 15 -5.5t6 -14.5z" />
<glyph unicode="&#xd7;" horiz-adv-x="600" d="M316 326l-204 -176l-15 18l205 177l-137 187l18 15l137 -187l204 176l15 -18l-205 -177l137 -187l-18 -15z" />
<glyph unicode="&#xd8;" horiz-adv-x="730" d="M75 277q0 121 51 221t132.5 156t175.5 56q65 0 117.5 -25.5t88.5 -73.5l102 98l16 -18l-105 -101q42 -72 42 -167q0 -121 -51 -221t-132.5 -156t-175.5 -56q-65 0 -117.5 25.5t-88.5 73.5l-102 -98l-16 18l105 101q-42 72 -42 167zM102 278q0 -87 35 -149l483 463 q-32 46 -79.5 70t-107.5 24q-93 0 -169.5 -58t-119 -151t-42.5 -199zM668 422q0 87 -35 149l-483 -463q32 -46 79.5 -70t107.5 -24q93 0 169.5 58t119 151t42.5 199z" />
<glyph unicode="&#xd9;" horiz-adv-x="632" d="M553 268q-30 -142 -96.5 -210t-176.5 -68q-94 0 -149 52t-55 141q0 44 20 138l81 379h26l-80 -377q-21 -97 -21 -139q0 -79 48 -124.5t131 -45.5q97 0 158 62.5t88 191.5l92 432h26zM402 772l-75 102h36l65 -102h-26z" />
<glyph unicode="&#xda;" horiz-adv-x="632" d="M553 268q-30 -142 -96.5 -210t-176.5 -68q-94 0 -149 52t-55 141q0 44 20 138l81 379h26l-80 -377q-21 -97 -21 -139q0 -79 48 -124.5t131 -45.5q97 0 158 62.5t88 191.5l92 432h26zM394 772l107 102h41l-117 -102h-31z" />
<glyph unicode="&#xdb;" horiz-adv-x="632" d="M553 268q-30 -142 -96.5 -210t-176.5 -68q-94 0 -149 52t-55 141q0 44 20 138l81 379h26l-80 -377q-21 -97 -21 -139q0 -79 48 -124.5t131 -45.5q97 0 158 62.5t88 191.5l92 432h26zM298 772l131 102h27l84 -102h-26l-74 82l-112 -82h-30z" />
<glyph unicode="&#xdc;" horiz-adv-x="632" d="M553 268q-30 -142 -96.5 -210t-176.5 -68q-94 0 -149 52t-55 141q0 44 20 138l81 379h26l-80 -377q-21 -97 -21 -139q0 -79 48 -124.5t131 -45.5q97 0 158 62.5t88 191.5l92 432h26zM374 828q0 -10 -7 -17t-18 -7q-9 0 -15 5.5t-6 14.5q0 10 7 17t18 7q9 0 15 -5.5 t6 -14.5zM518 828q0 -10 -7 -17t-18 -7q-9 0 -15 5.5t-6 14.5q0 10 7 17t18 7q9 0 15 -5.5t6 -14.5z" />
<glyph unicode="&#xdd;" horiz-adv-x="545" d="M292 295l-62 -295h-26l63 299l-151 401h28l140 -381l304 381h31zM348 772l107 102h41l-117 -102h-31z" />
<glyph unicode="&#xde;" horiz-adv-x="560" d="M207 700l-30 -141h154q95 0 145 -45.5t50 -132.5q0 -70 -33 -123.5t-90.5 -82t-131.5 -28.5h-182l-31 -147h-26l149 700h26zM172 535l-78 -364h179q70 0 121 27t78 74.5t27 107.5q0 76 -43 115.5t-126 39.5h-158z" />
<glyph unicode="&#xdf;" horiz-adv-x="566" d="M556 599q0 -80 -53.5 -139t-135.5 -72q64 -16 101.5 -63t37.5 -112q0 -64 -31.5 -115.5t-84 -79.5t-115.5 -28q-39 0 -76.5 12t-62.5 32l10 21q60 -42 130 -42q60 0 106.5 27t72.5 72.5t26 100.5q0 74 -52 119.5t-136 45.5h-48l4 22h50q69 0 122 26t81.5 71t28.5 101 q0 63 -40 101t-107 38q-85 0 -144.5 -68t-87.5 -199l-101 -470h-24l101 470q30 141 96.5 215.5t162.5 74.5q75 0 122 -45t47 -116z" />
<glyph unicode="&#xe0;" horiz-adv-x="539" d="M326 522q42 0 82 -17t69 -47l15 55h20l-110 -513h-20l12 72q-37 -38 -85 -60t-95 -22q-80 0 -125.5 54t-45.5 152q0 93 39.5 168t104 116.5t139.5 41.5zM68 198q0 -88 39 -136.5t110 -48.5q49 0 96.5 24.5t87.5 69.5l70 328q-26 30 -65.5 47t-80.5 17q-74 0 -133 -42 t-91.5 -111t-32.5 -148zM318 613l-67 134h31l60 -134h-24z" />
<glyph unicode="&#xe1;" horiz-adv-x="539" d="M326 522q42 0 82 -17t69 -47l15 55h20l-110 -513h-20l12 72q-37 -38 -85 -60t-95 -22q-80 0 -125.5 54t-45.5 152q0 93 39.5 168t104 116.5t139.5 41.5zM68 198q0 -88 39 -136.5t110 -48.5q49 0 96.5 24.5t87.5 69.5l70 328q-26 30 -65.5 47t-80.5 17q-74 0 -133 -42 t-91.5 -111t-32.5 -148zM316 613l116 134h36l-124 -134h-28z" />
<glyph unicode="&#xe2;" horiz-adv-x="539" d="M326 522q42 0 82 -17t69 -47l15 55h20l-110 -513h-20l12 72q-37 -38 -85 -60t-95 -22q-80 0 -125.5 54t-45.5 152q0 93 39.5 168t104 116.5t139.5 41.5zM68 198q0 -88 39 -136.5t110 -48.5q49 0 96.5 24.5t87.5 69.5l70 328q-26 30 -65.5 47t-80.5 17q-74 0 -133 -42 t-91.5 -111t-32.5 -148zM208 613l140 135h25l83 -135h-24l-74 112l-122 -112h-28z" />
<glyph unicode="&#xe3;" horiz-adv-x="539" d="M326 522q42 0 82 -17t69 -47l15 55h20l-110 -513h-20l12 72q-37 -38 -85 -60t-95 -22q-80 0 -125.5 54t-45.5 152q0 93 39.5 168t104 116.5t139.5 41.5zM68 198q0 -88 39 -136.5t110 -48.5q49 0 96.5 24.5t87.5 69.5l70 328q-26 30 -65.5 47t-80.5 17q-74 0 -133 -42 t-91.5 -111t-32.5 -148zM211 627q7 44 28 70.5t49 26.5q16 0 30.5 -9t37.5 -33q19 -21 28.5 -27.5t22.5 -6.5q19 0 34.5 21t20.5 55h21q-7 -44 -28 -70.5t-49 -26.5q-16 0 -30.5 9t-37.5 33q-19 21 -28.5 27.5t-22.5 6.5q-19 0 -34.5 -21t-20.5 -55h-21z" />
<glyph unicode="&#xe4;" horiz-adv-x="539" d="M326 522q42 0 82 -17t69 -47l15 55h20l-110 -513h-20l12 72q-37 -38 -85 -60t-95 -22q-80 0 -125.5 54t-45.5 152q0 93 39.5 168t104 116.5t139.5 41.5zM68 198q0 -88 39 -136.5t110 -48.5q49 0 96.5 24.5t87.5 69.5l70 328q-26 30 -65.5 47t-80.5 17q-74 0 -133 -42 t-91.5 -111t-32.5 -148zM307 687q0 -9 -6.5 -15.5t-16.5 -6.5t-15.5 5.5t-5.5 14.5t6.5 15.5t16.5 6.5t15.5 -5.5t5.5 -14.5zM433 687q0 -9 -6.5 -15.5t-16.5 -6.5t-15.5 5.5t-5.5 14.5t6.5 15.5t16.5 6.5t15.5 -5.5t5.5 -14.5z" />
<glyph unicode="&#xe5;" horiz-adv-x="539" d="M326 522q42 0 82 -17t69 -47l15 55h20l-110 -513h-20l12 72q-37 -38 -85 -60t-95 -22q-80 0 -125.5 54t-45.5 152q0 93 39.5 168t104 116.5t139.5 41.5zM68 198q0 -88 39 -136.5t110 -48.5q49 0 96.5 24.5t87.5 69.5l70 328q-26 30 -65.5 47t-80.5 17q-74 0 -133 -42 t-91.5 -111t-32.5 -148zM442 697q0 -44 -29.5 -73.5t-73.5 -29.5q-37 0 -60 22.5t-23 58.5q0 44 29.5 73.5t73.5 29.5q37 0 60 -22.5t23 -58.5zM420 694q0 29 -17 46.5t-46 17.5q-33 0 -56 -23.5t-23 -56.5q0 -29 17 -46.5t46 -17.5q33 0 56 23.5t23 56.5z" />
<glyph unicode="&#xe6;" horiz-adv-x="889" d="M623 13q44 0 86.5 16.5t72.5 44.5l8 -23q-31 -28 -76 -44.5t-93 -16.5q-78 0 -126 39t-62 114l-31 -143h-20l12 72q-37 -38 -85 -60t-95 -22q-80 0 -125.5 54t-45.5 152q0 93 39.5 168t104 116.5t139.5 41.5q42 0 82 -17t69 -47l15 55h20l-28 -128q43 64 105 100.5 t129 36.5q63 0 100 -32t37 -85q0 -81 -90 -129.5t-241 -48.5q-35 0 -71 4q-1 -13 -1 -28q0 -92 44.5 -141t126.5 -49zM68 198q0 -88 39 -136.5t110 -48.5q49 0 96.5 24.5t87.5 69.5l70 328q-26 30 -65.5 47t-80.5 17q-74 0 -133 -42t-91.5 -111t-32.5 -148zM716 499 q-64 0 -120 -34t-93 -90t-47 -123q29 -3 67 -3q142 0 224.5 42t82.5 113q0 43 -31 69t-83 26z" />
<glyph unicode="&#xe7;" horiz-adv-x="477" d="M230 -10q-88 0 -137.5 56t-49.5 156q0 88 41 162.5t105.5 116t135.5 41.5q74 0 135 -39l-9 -20q-27 17 -60.5 26.5t-66.5 9.5q-70 0 -129.5 -43t-93 -110.5t-33.5 -143.5q0 -90 44 -139.5t120 -49.5q92 0 157 59l8 -22q-32 -29 -75.5 -44.5t-91.5 -15.5zM99 -174 q37 -24 74 -24q35 0 57.5 17.5t22.5 43.5q0 25 -20.5 38t-59.5 13h-15l51 88h24l-40 -69q39 -1 61 -19.5t22 -50.5q0 -36 -28.5 -58.5t-74.5 -22.5t-81 25z" />
<glyph unicode="&#xe8;" horiz-adv-x="505" d="M68 203q0 -92 44.5 -141t126.5 -49q44 0 86.5 16.5t72.5 44.5l8 -23q-31 -28 -76 -44.5t-93 -16.5q-92 0 -143 55t-51 157q0 87 43 161.5t109 116.5t139 42q63 0 100 -32t37 -85q0 -81 -90 -129.5t-241 -48.5q-35 0 -71 4q-1 -13 -1 -28zM332 499q-64 0 -120 -34t-93 -90 t-47 -123q29 -3 67 -3q142 0 224.5 42t82.5 113q0 43 -31 69t-83 26zM318 613l-67 134h31l60 -134h-24z" />
<glyph unicode="&#xe9;" horiz-adv-x="505" d="M68 203q0 -92 44.5 -141t126.5 -49q44 0 86.5 16.5t72.5 44.5l8 -23q-31 -28 -76 -44.5t-93 -16.5q-92 0 -143 55t-51 157q0 87 43 161.5t109 116.5t139 42q63 0 100 -32t37 -85q0 -81 -90 -129.5t-241 -48.5q-35 0 -71 4q-1 -13 -1 -28zM332 499q-64 0 -120 -34t-93 -90 t-47 -123q29 -3 67 -3q142 0 224.5 42t82.5 113q0 43 -31 69t-83 26zM316 613l116 134h36l-124 -134h-28z" />
<glyph unicode="&#xea;" horiz-adv-x="505" d="M68 203q0 -92 44.5 -141t126.5 -49q44 0 86.5 16.5t72.5 44.5l8 -23q-31 -28 -76 -44.5t-93 -16.5q-92 0 -143 55t-51 157q0 87 43 161.5t109 116.5t139 42q63 0 100 -32t37 -85q0 -81 -90 -129.5t-241 -48.5q-35 0 -71 4q-1 -13 -1 -28zM332 499q-64 0 -120 -34t-93 -90 t-47 -123q29 -3 67 -3q142 0 224.5 42t82.5 113q0 43 -31 69t-83 26zM208 613l140 135h25l83 -135h-24l-74 112l-122 -112h-28z" />
<glyph unicode="&#xeb;" horiz-adv-x="505" d="M68 203q0 -92 44.5 -141t126.5 -49q44 0 86.5 16.5t72.5 44.5l8 -23q-31 -28 -76 -44.5t-93 -16.5q-92 0 -143 55t-51 157q0 87 43 161.5t109 116.5t139 42q63 0 100 -32t37 -85q0 -81 -90 -129.5t-241 -48.5q-35 0 -71 4q-1 -13 -1 -28zM332 499q-64 0 -120 -34t-93 -90 t-47 -123q29 -3 67 -3q142 0 224.5 42t82.5 113q0 43 -31 69t-83 26zM307 687q0 -9 -6.5 -15.5t-16.5 -6.5t-15.5 5.5t-5.5 14.5t6.5 15.5t16.5 6.5t15.5 -5.5t5.5 -14.5zM433 687q0 -9 -6.5 -15.5t-16.5 -6.5t-15.5 5.5t-5.5 14.5t6.5 15.5t16.5 6.5t15.5 -5.5t5.5 -14.5z " />
<glyph unicode="&#xec;" horiz-adv-x="188" d="M137 513h24l-110 -513h-24zM150 613l-67 134h31l60 -134h-24z" />
<glyph unicode="&#xed;" horiz-adv-x="188" d="M137 513h24l-110 -513h-24zM148 613l116 134h36l-124 -134h-28z" />
<glyph unicode="&#xee;" horiz-adv-x="188" d="M137 513h24l-110 -513h-24zM40 613l140 135h25l83 -135h-24l-74 112l-122 -112h-28z" />
<glyph unicode="&#xef;" horiz-adv-x="188" d="M137 513h24l-110 -513h-24zM139 687q0 -9 -6.5 -15.5t-16.5 -6.5t-15.5 5.5t-5.5 14.5t6.5 15.5t16.5 6.5t15.5 -5.5t5.5 -14.5zM265 687q0 -9 -6.5 -15.5t-16.5 -6.5t-15.5 5.5t-5.5 14.5t6.5 15.5t16.5 6.5t15.5 -5.5t5.5 -14.5z" />
<glyph unicode="&#xf0;" horiz-adv-x="552" d="M523 748l-123 -83q57 -55 84 -136t27 -194q0 -103 -37.5 -181.5t-100 -121t-137.5 -42.5q-60 0 -103.5 26.5t-67.5 73t-24 104.5q0 89 39 161t101 112.5t131 40.5q58 0 105.5 -31t67.5 -83q-10 167 -105 257l-143 -97l-12 18l138 94q-47 39 -128 72l9 21q86 -34 140 -79 l127 86zM66 194q0 -52 23.5 -93.5t63 -64.5t87.5 -23q68 0 125.5 41.5t89 107.5t31.5 142q0 52 -23.5 93.5t-63 64.5t-87.5 23q-68 0 -125.5 -41.5t-89 -107.5t-31.5 -142z" />
<glyph unicode="&#xf1;" horiz-adv-x="542" d="M143 433q48 42 103.5 65.5t105.5 23.5q65 0 99 -33t34 -94q0 -35 -16 -112l-61 -283h-24l61 283q15 72 15 110q0 106 -111 106q-51 0 -107 -26t-105 -73l-86 -400h-24l110 513h20zM217 627q7 44 28 70.5t49 26.5q16 0 30.5 -9t37.5 -33q19 -21 28.5 -27.5t22.5 -6.5 q19 0 34.5 21t20.5 55h21q-7 -44 -28 -70.5t-49 -26.5q-16 0 -30.5 9t-37.5 33q-19 21 -28.5 27.5t-22.5 6.5q-19 0 -34.5 -21t-20.5 -55h-21z" />
<glyph unicode="&#xf2;" horiz-adv-x="553" d="M43 203q0 90 40 163.5t103 114.5t133 41q87 0 139 -58t52 -155q0 -90 -40 -163.5t-103 -114.5t-133 -41q-87 0 -139 58t-52 155zM68 203q0 -88 45 -139t122 -51q69 0 127.5 42t90.5 109t32 145q0 88 -45 139t-122 51q-69 0 -127.5 -42t-90.5 -109t-32 -145zM329 613 l-67 134h31l60 -134h-24z" />
<glyph unicode="&#xf3;" horiz-adv-x="553" d="M43 203q0 90 40 163.5t103 114.5t133 41q87 0 139 -58t52 -155q0 -90 -40 -163.5t-103 -114.5t-133 -41q-87 0 -139 58t-52 155zM68 203q0 -88 45 -139t122 -51q69 0 127.5 42t90.5 109t32 145q0 88 -45 139t-122 51q-69 0 -127.5 -42t-90.5 -109t-32 -145zM327 613 l116 134h36l-124 -134h-28z" />
<glyph unicode="&#xf4;" horiz-adv-x="553" d="M43 203q0 90 40 163.5t103 114.5t133 41q87 0 139 -58t52 -155q0 -90 -40 -163.5t-103 -114.5t-133 -41q-87 0 -139 58t-52 155zM68 203q0 -88 45 -139t122 -51q69 0 127.5 42t90.5 109t32 145q0 88 -45 139t-122 51q-69 0 -127.5 -42t-90.5 -109t-32 -145zM219 613 l140 135h25l83 -135h-24l-74 112l-122 -112h-28z" />
<glyph unicode="&#xf5;" horiz-adv-x="553" d="M43 203q0 90 40 163.5t103 114.5t133 41q87 0 139 -58t52 -155q0 -90 -40 -163.5t-103 -114.5t-133 -41q-87 0 -139 58t-52 155zM68 203q0 -88 45 -139t122 -51q69 0 127.5 42t90.5 109t32 145q0 88 -45 139t-122 51q-69 0 -127.5 -42t-90.5 -109t-32 -145zM222 627 q7 44 28 70.5t49 26.5q16 0 30.5 -9t37.5 -33q19 -21 28.5 -27.5t22.5 -6.5q19 0 34.5 21t20.5 55h21q-7 -44 -28 -70.5t-49 -26.5q-16 0 -30.5 9t-37.5 33q-19 21 -28.5 27.5t-22.5 6.5q-19 0 -34.5 -21t-20.5 -55h-21z" />
<glyph unicode="&#xf6;" horiz-adv-x="553" d="M43 203q0 90 40 163.5t103 114.5t133 41q87 0 139 -58t52 -155q0 -90 -40 -163.5t-103 -114.5t-133 -41q-87 0 -139 58t-52 155zM68 203q0 -88 45 -139t122 -51q69 0 127.5 42t90.5 109t32 145q0 88 -45 139t-122 51q-69 0 -127.5 -42t-90.5 -109t-32 -145zM318 687 q0 -9 -6.5 -15.5t-16.5 -6.5t-15.5 5.5t-5.5 14.5t6.5 15.5t16.5 6.5t15.5 -5.5t5.5 -14.5zM444 687q0 -9 -6.5 -15.5t-16.5 -6.5t-15.5 5.5t-5.5 14.5t6.5 15.5t16.5 6.5t15.5 -5.5t5.5 -14.5z" />
<glyph unicode="&#xf7;" horiz-adv-x="600" d="M376 503q0 -11 -7.5 -18t-18.5 -7q-10 0 -16 5.5t-6 15.5q0 11 7.5 18t18.5 7q10 0 16 -5.5t6 -15.5zM103 333l5 22h426l-5 -22h-426zM261 185q0 11 7.5 18t18.5 7q10 0 16 -5.5t6 -15.5q0 -11 -7.5 -18t-18.5 -7q-10 0 -16 5.5t-6 15.5z" />
<glyph unicode="&#xf8;" horiz-adv-x="553" d="M549 505l-71 -69q32 -53 32 -127q0 -90 -40 -163.5t-103 -114.5t-133 -41q-46 0 -83.5 17.5t-63.5 49.5l-68 -66l-15 16l71 69q-32 53 -32 127q0 90 40 163.5t103 114.5t133 41q46 0 83.5 -17.5t63.5 -49.5l68 66zM68 203q0 -63 25 -110l355 345q-22 29 -55.5 45 t-74.5 16q-69 0 -127.5 -42t-90.5 -109t-32 -145zM485 309q0 63 -25 110l-355 -345q22 -29 55.5 -45t74.5 -16q69 0 127.5 42t90.5 109t32 145z" />
<glyph unicode="&#xf9;" horiz-adv-x="538" d="M381 0l13 77q-48 -42 -100 -64.5t-103 -22.5q-66 0 -100 32.5t-34 95.5q0 35 16 111l61 284h24l-61 -284q-15 -70 -15 -108q0 -55 27.5 -81.5t86.5 -26.5q50 0 102.5 24t101.5 70l87 406h24l-110 -513h-20zM321 613l-67 134h31l60 -134h-24z" />
<glyph unicode="&#xfa;" horiz-adv-x="538" d="M381 0l13 77q-48 -42 -100 -64.5t-103 -22.5q-66 0 -100 32.5t-34 95.5q0 35 16 111l61 284h24l-61 -284q-15 -70 -15 -108q0 -55 27.5 -81.5t86.5 -26.5q50 0 102.5 24t101.5 70l87 406h24l-110 -513h-20zM319 613l116 134h36l-124 -134h-28z" />
<glyph unicode="&#xfb;" horiz-adv-x="538" d="M381 0l13 77q-48 -42 -100 -64.5t-103 -22.5q-66 0 -100 32.5t-34 95.5q0 35 16 111l61 284h24l-61 -284q-15 -70 -15 -108q0 -55 27.5 -81.5t86.5 -26.5q50 0 102.5 24t101.5 70l87 406h24l-110 -513h-20zM211 613l140 135h25l83 -135h-24l-74 112l-122 -112h-28z" />
<glyph unicode="&#xfc;" horiz-adv-x="538" d="M381 0l13 77q-48 -42 -100 -64.5t-103 -22.5q-66 0 -100 32.5t-34 95.5q0 35 16 111l61 284h24l-61 -284q-15 -70 -15 -108q0 -55 27.5 -81.5t86.5 -26.5q50 0 102.5 24t101.5 70l87 406h24l-110 -513h-20zM310 687q0 -9 -6.5 -15.5t-16.5 -6.5t-15.5 5.5t-5.5 14.5 t6.5 15.5t16.5 6.5t15.5 -5.5t5.5 -14.5zM436 687q0 -9 -6.5 -15.5t-16.5 -6.5t-15.5 5.5t-5.5 14.5t6.5 15.5t16.5 6.5t15.5 -5.5t5.5 -14.5z" />
<glyph unicode="&#xfd;" horiz-adv-x="442" d="M-36 -226q-17 0 -32.5 5t-24.5 13l9 21q20 -16 48 -16q37 0 72 36t95 138l18 31l-83 511h27l75 -482l280 482h29l-326 -552q-43 -72 -73 -112t-56 -57.5t-58 -17.5zM267 613l116 134h36l-124 -134h-28z" />
<glyph unicode="&#xfe;" horiz-adv-x="539" d="M145 440q37 39 84.5 60.5t95.5 21.5q81 0 126 -54.5t45 -152.5q0 -92 -39.5 -167t-104 -116.5t-139.5 -41.5q-43 0 -83 16.5t-68 46.5l-57 -269h-24l207 966h24zM322 499q-50 0 -97 -24t-87 -70l-71 -329q27 -29 66.5 -46t80.5 -17q74 0 133 42t91.5 111t32.5 148 q0 88 -39 136.5t-110 48.5z" />
<glyph unicode="&#xff;" horiz-adv-x="442" d="M-36 -226q-17 0 -32.5 5t-24.5 13l9 21q20 -16 48 -16q37 0 72 36t95 138l18 31l-83 511h27l75 -482l280 482h29l-326 -552q-43 -72 -73 -112t-56 -57.5t-58 -17.5zM258 687q0 -9 -6.5 -15.5t-16.5 -6.5t-15.5 5.5t-5.5 14.5t6.5 15.5t16.5 6.5t15.5 -5.5t5.5 -14.5z M384 687q0 -9 -6.5 -15.5t-16.5 -6.5t-15.5 5.5t-5.5 14.5t6.5 15.5t16.5 6.5t15.5 -5.5t5.5 -14.5z" />
<glyph unicode="&#x102;" horiz-adv-x="586" d="M449 232h-323l-134 -232h-29l409 700h28l113 -700h-28zM140 256h305l-64 415zM393 767q-47 0 -75.5 24.5t-28.5 64.5q0 7 1 13h24v-4q0 -76 80 -76q37 0 63.5 21t38.5 59h25q-12 -46 -47 -74t-81 -28z" />
<glyph unicode="&#x103;" horiz-adv-x="539" d="M326 522q42 0 82 -17t69 -47l15 55h20l-110 -513h-20l12 72q-37 -38 -85 -60t-95 -22q-80 0 -125.5 54t-45.5 152q0 93 39.5 168t104 116.5t139.5 41.5zM68 198q0 -88 39 -136.5t110 -48.5q49 0 96.5 24.5t87.5 69.5l70 328q-26 30 -65.5 47t-80.5 17q-74 0 -133 -42 t-91.5 -111t-32.5 -148zM336 613q-47 0 -74 23.5t-27 64.5q0 7 1 12h23v-5q0 -74 79 -74q36 0 64 21.5t38 57.5h24q-11 -45 -46.5 -72.5t-81.5 -27.5z" />
<glyph unicode="&#x131;" horiz-adv-x="188" d="M137 513h24l-110 -513h-24z" />
<glyph unicode="&#x132;" horiz-adv-x="591" d="M207 700l-149 -700h-26l149 700h26zM308 -10q-33 0 -68 11.5t-62 31.5l11 20q59 -39 119 -39q64 0 103 44.5t60 144.5l106 497h26l-107 -502q-23 -109 -68 -158.5t-120 -49.5z" />
<glyph unicode="&#x133;" horiz-adv-x="376" d="M137 513h24l-110 -513h-24zM203 687q0 -9 -6.5 -15.5t-16.5 -6.5t-15.5 5.5t-5.5 14.5t6.5 15.5t16.5 6.5t15.5 -5.5t5.5 -14.5zM391 687q0 -9 -6.5 -15.5t-16.5 -6.5t-15.5 5.5t-5.5 14.5t6.5 15.5t16.5 6.5t15.5 -5.5t5.5 -14.5zM349 513l-127 -593q-16 -76 -45.5 -111 t-78.5 -35q-17 0 -33.5 5t-26.5 12l9 19q25 -13 52 -13q38 0 61.5 29t37.5 94l127 593h24z" />
<glyph unicode="&#x152;" horiz-adv-x="1050" d="M615 181q-45 -86 -123.5 -138.5t-167.5 -52.5q-80 0 -139.5 37t-91 102t-31.5 148q0 121 51 221t132.5 156t175.5 56q71 0 126.5 -31t88.5 -86.5t40 -126.5l50 234h379l-5 -24h-353l-66 -309h301l-5 -24h-301l-68 -319h366l-5 -24h-392zM420 686q-93 0 -169.5 -58 t-119 -151t-42.5 -199q0 -80 30 -140t83.5 -92t122.5 -32q71 0 133.5 35t106.5 93t67.5 130t23.5 150q0 80 -30 140t-83.5 92t-122.5 32z" />
<glyph unicode="&#x153;" horiz-adv-x="939" d="M671 -10q-85 0 -135 47t-56 134q-33 -81 -100.5 -131t-145.5 -50q-87 0 -139 58t-52 155q0 90 40 163.5t103 114.5t133 41q80 0 130 -49.5t57 -136.5q37 83 109 134.5t153 51.5q63 0 100 -32t37 -85q0 -81 -90 -129.5t-241 -48.5q-35 0 -71 4q-1 -13 -1 -28 q0 -92 44.5 -141t126.5 -49q44 0 86.5 16.5t72.5 44.5l8 -23q-31 -28 -76 -44.5t-93 -16.5zM68 203q0 -88 45 -139t122 -51q69 0 127.5 42t90.5 109t32 145q0 88 -45 139t-122 51q-69 0 -127.5 -42t-90.5 -109t-32 -145zM766 499q-64 0 -120 -34t-93 -90t-47 -123 q29 -3 67 -3q142 0 224.5 42t82.5 113q0 43 -31 69t-83 26z" />
<glyph unicode="&#x15e;" horiz-adv-x="560" d="M231 -10q-55 0 -113.5 20t-101.5 53l10 21q42 -32 97.5 -51t108.5 -19q65 0 113.5 22t74.5 59.5t26 84.5q0 38 -12 63t-43 48.5t-98 56.5l-37 18q-73 36 -102.5 72.5t-29.5 89.5q0 55 29 96.5t79.5 63.5t114.5 22q47 0 98.5 -15.5t94.5 -43.5l-10 -21q-95 56 -183 56 q-89 0 -142.5 -43t-53.5 -114q0 -46 26 -77t89 -61l37 -18q66 -32 102 -58.5t52 -57.5t16 -77q0 -56 -32 -99.5t-86.5 -67t-123.5 -23.5zM98 -173q34 -24 75 -24q34 0 56 17t22 45q0 23 -20.5 35.5t-58.5 12.5h-16l52 89h25l-40 -69q38 -1 60.5 -19t22.5 -48 q0 -37 -28.5 -60.5t-74.5 -23.5q-48 0 -82 25z" />
<glyph unicode="&#x15f;" horiz-adv-x="442" d="M395 457q-31 19 -68.5 30.5t-71.5 11.5q-64 0 -104.5 -30t-40.5 -78q0 -34 21.5 -59t68.5 -46l29 -13q74 -33 102 -63t28 -78q0 -62 -50 -102t-128 -40q-42 0 -88 16t-78 43l9 19q30 -25 73.5 -40t84.5 -15q69 0 110.5 32.5t41.5 85.5q0 41 -24 65.5t-93 55.5l-29 13 q-54 24 -78.5 54.5t-24.5 71.5q0 57 49 94t122 37q36 0 77.5 -12.5t70.5 -32.5zM45 -174q37 -24 74 -24q35 0 57.5 17.5t22.5 43.5q0 25 -20.5 38t-59.5 13h-15l51 88h24l-40 -69q39 -1 61 -19.5t22 -50.5q0 -36 -28.5 -58.5t-74.5 -22.5t-81 25z" />
<glyph unicode="&#x160;" horiz-adv-x="560" d="M231 -10q-55 0 -113.5 20t-101.5 53l10 21q42 -32 97.5 -51t108.5 -19q65 0 113.5 22t74.5 59.5t26 84.5q0 38 -12 63t-43 48.5t-98 56.5l-37 18q-73 36 -102.5 72.5t-29.5 89.5q0 55 29 96.5t79.5 63.5t114.5 22q47 0 98.5 -15.5t94.5 -43.5l-10 -21q-95 56 -183 56 q-89 0 -142.5 -43t-53.5 -114q0 -46 26 -77t89 -61l37 -18q66 -32 102 -58.5t52 -57.5t16 -77q0 -56 -32 -99.5t-86.5 -67t-123.5 -23.5zM516 874l-131 -102h-27l-84 102h26l74 -82l112 82h30z" />
<glyph unicode="&#x161;" horiz-adv-x="442" d="M395 457q-31 19 -68.5 30.5t-71.5 11.5q-64 0 -104.5 -30t-40.5 -78q0 -34 21.5 -59t68.5 -46l29 -13q74 -33 102 -63t28 -78q0 -62 -50 -102t-128 -40q-42 0 -88 16t-78 43l9 19q30 -25 73.5 -40t84.5 -15q69 0 110.5 32.5t41.5 85.5q0 41 -24 65.5t-93 55.5l-29 13 q-54 24 -78.5 54.5t-24.5 71.5q0 57 49 94t122 37q36 0 77.5 -12.5t70.5 -32.5zM440 748l-140 -135h-25l-83 135h24l74 -112l122 112h28z" />
<glyph unicode="&#x162;" horiz-adv-x="524" d="M364 676l-144 -676h-26l144 676h-243l5 24h512l-5 -24h-243zM85 -173q34 -24 75 -24q34 0 56 17t22 45q0 23 -20.5 35.5t-58.5 12.5h-16l52 89h25l-40 -69q38 -1 60.5 -19t22.5 -48q0 -37 -28.5 -60.5t-74.5 -23.5q-48 0 -82 25z" />
<glyph unicode="&#x163;" horiz-adv-x="356" d="M287 35q-25 -21 -57.5 -33t-65.5 -12q-51 0 -76.5 28.5t-25.5 82.5q0 25 9 68l69 322h-96l5 22h96l37 154h20l-33 -154h188l-5 -22h-188l-69 -322q-9 -41 -9 -67q0 -89 82 -89q28 0 58.5 12t53.5 32zM34 -174q37 -24 74 -24q35 0 57.5 17.5t22.5 43.5q0 25 -20.5 38 t-59.5 13h-15l51 88h24l-40 -69q39 -1 61 -19.5t22 -50.5q0 -36 -28.5 -58.5t-74.5 -22.5t-81 25z" />
<glyph unicode="&#x174;" horiz-adv-x="806" d="M160 0l-28 700h27l23 -661l290 601h29l31 -604l304 664h28l-325 -700h-29l-31 602l-290 -602h-29zM386 772l131 102h27l84 -102h-26l-74 82l-112 -82h-30z" />
<glyph unicode="&#x175;" horiz-adv-x="697" d="M411 494l42 -457l248 476h28l-272 -513h-24l-43 454l-232 -454h-26l-54 513h26l47 -479l235 460h25zM291 613l140 135h25l83 -135h-24l-74 112l-122 -112h-28z" />
<glyph unicode="&#x176;" horiz-adv-x="545" d="M292 295l-62 -295h-26l63 299l-151 401h28l140 -381l304 381h31zM252 772l131 102h27l84 -102h-26l-74 82l-112 -82h-30z" />
<glyph unicode="&#x177;" horiz-adv-x="442" d="M-36 -226q-17 0 -32.5 5t-24.5 13l9 21q20 -16 48 -16q37 0 72 36t95 138l18 31l-83 511h27l75 -482l280 482h29l-326 -552q-43 -72 -73 -112t-56 -57.5t-58 -17.5zM159 613l140 135h25l83 -135h-24l-74 112l-122 -112h-28z" />
<glyph unicode="&#x178;" horiz-adv-x="545" d="M292 295l-62 -295h-26l63 299l-151 401h28l140 -381l304 381h31zM328 828q0 -10 -7 -17t-18 -7q-9 0 -15 5.5t-6 14.5q0 10 7 17t18 7q9 0 15 -5.5t6 -14.5zM472 828q0 -10 -7 -17t-18 -7q-9 0 -15 5.5t-6 14.5q0 10 7 17t18 7q9 0 15 -5.5t6 -14.5z" />
<glyph unicode="&#x17d;" horiz-adv-x="561" d="M-9 0l5 22l555 654h-411l5 24h445l-5 -22l-555 -654h435l-5 -24h-469zM527 874l-131 -102h-27l-84 102h26l74 -82l112 82h30z" />
<glyph unicode="&#x17e;" horiz-adv-x="452" d="M27 22h329l-5 -22h-360l4 20l420 471h-311l5 22h342l-4 -20zM445 748l-140 -135h-25l-83 135h24l74 -112l122 112h28z" />
<glyph unicode="&#x218;" horiz-adv-x="560" d="M231 -10q-55 0 -113.5 20t-101.5 53l10 21q42 -32 97.5 -51t108.5 -19q65 0 113.5 22t74.5 59.5t26 84.5q0 38 -12 63t-43 48.5t-98 56.5l-37 18q-73 36 -102.5 72.5t-29.5 89.5q0 55 29 96.5t79.5 63.5t114.5 22q47 0 98.5 -15.5t94.5 -43.5l-10 -21q-95 56 -183 56 q-89 0 -142.5 -43t-53.5 -114q0 -46 26 -77t89 -61l37 -18q66 -32 102 -58.5t52 -57.5t16 -77q0 -56 -32 -99.5t-86.5 -67t-123.5 -23.5zM142 -202q45 37 56 79q-9 2 -13.5 7.5t-4.5 13.5q0 11 8 18t19 7q9 0 15 -6t6 -18q0 -26 -21 -58.5t-54 -55.5z" />
<glyph unicode="&#x219;" horiz-adv-x="442" d="M395 457q-31 19 -68.5 30.5t-71.5 11.5q-64 0 -104.5 -30t-40.5 -78q0 -34 21.5 -59t68.5 -46l29 -13q74 -33 102 -63t28 -78q0 -62 -50 -102t-128 -40q-42 0 -88 16t-78 43l9 19q30 -25 73.5 -40t84.5 -15q69 0 110.5 32.5t41.5 85.5q0 41 -24 65.5t-93 55.5l-29 13 q-54 24 -78.5 54.5t-24.5 71.5q0 57 49 94t122 37q36 0 77.5 -12.5t70.5 -32.5zM89 -203q47 41 57 81q-19 2 -19 20q0 11 7.5 18t18.5 7q9 0 15 -6t6 -18q0 -26 -21.5 -58.5t-53.5 -55.5z" />
<glyph unicode="&#x21a;" horiz-adv-x="524" d="M364 676l-144 -676h-26l144 676h-243l5 24h512l-5 -24h-243zM126 -202q45 37 56 79q-9 2 -13.5 7.5t-4.5 13.5q0 11 8 18t19 7q9 0 15 -6t6 -18q0 -26 -21 -58.5t-54 -55.5z" />
<glyph unicode="&#x21b;" horiz-adv-x="356" d="M287 35q-25 -21 -57.5 -33t-65.5 -12q-51 0 -76.5 28.5t-25.5 82.5q0 25 9 68l69 322h-96l5 22h96l37 154h20l-33 -154h188l-5 -22h-188l-69 -322q-9 -41 -9 -67q0 -89 82 -89q28 0 58.5 12t53.5 32zM78 -203q47 41 57 81q-19 2 -19 20q0 11 7.5 18t18.5 7q9 0 15 -6 t6 -18q0 -26 -21.5 -58.5t-53.5 -55.5z" />
<glyph unicode="&#x237;" horiz-adv-x="188" d="M161 513l-127 -593q-16 -76 -45.5 -111t-78.5 -35q-17 0 -33.5 5t-26.5 12l9 19q25 -13 52 -13q38 0 61.5 29t37.5 94l127 593h24z" />
<glyph unicode="&#x2c6;" horiz-adv-x="542" d="M223 613l140 135h25l83 -135h-24l-74 112l-122 -112h-28z" />
<glyph unicode="&#x2c7;" horiz-adv-x="542" d="M500 748l-140 -135h-25l-83 135h24l74 -112l122 112h28z" />
<glyph unicode="&#x2cb;" horiz-adv-x="542" d="M383 613l-67 134h31l60 -134h-24z" />
<glyph unicode="&#x2d8;" horiz-adv-x="542" d="M355 613q-47 0 -74 23.5t-27 64.5q0 7 1 12h23v-5q0 -74 79 -74q36 0 64 21.5t38 57.5h24q-11 -45 -46.5 -72.5t-81.5 -27.5z" />
<glyph unicode="&#x2da;" horiz-adv-x="542" d="M456 697q0 -44 -29.5 -73.5t-73.5 -29.5q-37 0 -60 22.5t-23 58.5q0 44 29.5 73.5t73.5 29.5q37 0 60 -22.5t23 -58.5zM434 694q0 29 -17 46.5t-46 17.5q-33 0 -56 -23.5t-23 -56.5q0 -29 17 -46.5t46 -17.5q33 0 56 23.5t23 56.5z" />
<glyph unicode="&#x2dc;" horiz-adv-x="542" d="M225 627q7 44 28 70.5t49 26.5q16 0 30.5 -9t37.5 -33q19 -21 28.5 -27.5t22.5 -6.5q19 0 34.5 21t20.5 55h21q-7 -44 -28 -70.5t-49 -26.5q-16 0 -30.5 9t-37.5 33q-19 21 -28.5 27.5t-22.5 6.5q-19 0 -34.5 -21t-20.5 -55h-21z" />
<glyph unicode="&#x300;" horiz-adv-x="0" d="M-2 613l-67 134h31l60 -134h-24z" />
<glyph unicode="&#x301;" horiz-adv-x="0" d="M-4 613l116 134h36l-124 -134h-28z" />
<glyph unicode="&#x302;" horiz-adv-x="0" d="M-112 613l140 135h25l83 -135h-24l-74 112l-122 -112h-28z" />
<glyph unicode="&#x303;" horiz-adv-x="0" d="M-109 627q7 44 28 70.5t49 26.5q16 0 30.5 -9t37.5 -33q19 -21 28.5 -27.5t22.5 -6.5q19 0 34.5 21t20.5 55h21q-7 -44 -28 -70.5t-49 -26.5q-16 0 -30.5 9t-37.5 33q-19 21 -28.5 27.5t-22.5 6.5q-19 0 -34.5 -21t-20.5 -55h-21z" />
<glyph unicode="&#x306;" horiz-adv-x="0" d="M16 613q-47 0 -74 23.5t-27 64.5q0 7 1 12h23v-5q0 -74 79 -74q36 0 64 21.5t38 57.5h24q-11 -45 -46.5 -72.5t-81.5 -27.5z" />
<glyph unicode="&#x308;" horiz-adv-x="0" d="M-13 687q0 -9 -6.5 -15.5t-16.5 -6.5t-15.5 5.5t-5.5 14.5t6.5 15.5t16.5 6.5t15.5 -5.5t5.5 -14.5zM113 687q0 -9 -6.5 -15.5t-16.5 -6.5t-15.5 5.5t-5.5 14.5t6.5 15.5t16.5 6.5t15.5 -5.5t5.5 -14.5z" />
<glyph unicode="&#x30a;" horiz-adv-x="0" d="M122 697q0 -44 -29.5 -73.5t-73.5 -29.5q-37 0 -60 22.5t-23 58.5q0 44 29.5 73.5t73.5 29.5q37 0 60 -22.5t23 -58.5zM100 694q0 29 -17 46.5t-46 17.5q-33 0 -56 -23.5t-23 -56.5q0 -29 17 -46.5t46 -17.5q33 0 56 23.5t23 56.5z" />
<glyph unicode="&#x30c;" horiz-adv-x="0" d="M165 748l-140 -135h-25l-83 135h24l74 -112l122 112h28z" />
<glyph unicode="&#x326;" horiz-adv-x="0" d="M-72 -203q47 41 57 81q-19 2 -19 20q0 11 7.5 18t18.5 7q9 0 15 -6t6 -18q0 -26 -21.5 -58.5t-53.5 -55.5z" />
<glyph unicode="&#x327;" horiz-adv-x="0" d="M-116 -174q37 -24 74 -24q35 0 57.5 17.5t22.5 43.5q0 25 -20.5 38t-59.5 13h-15l51 88h24l-40 -69q39 -1 61 -19.5t22 -50.5q0 -36 -28.5 -58.5t-74.5 -22.5t-81 25z" />
<glyph unicode="&#x1e80;" horiz-adv-x="806" d="M160 0l-28 700h27l23 -661l290 601h29l31 -604l304 664h28l-325 -700h-29l-31 602l-290 -602h-29zM490 772l-75 102h36l65 -102h-26z" />
<glyph unicode="&#x1e81;" horiz-adv-x="697" d="M411 494l42 -457l248 476h28l-272 -513h-24l-43 454l-232 -454h-26l-54 513h26l47 -479l235 460h25zM401 613l-67 134h31l60 -134h-24z" />
<glyph unicode="&#x1e82;" horiz-adv-x="806" d="M160 0l-28 700h27l23 -661l290 601h29l31 -604l304 664h28l-325 -700h-29l-31 602l-290 -602h-29zM482 772l107 102h41l-117 -102h-31z" />
<glyph unicode="&#x1e83;" horiz-adv-x="697" d="M411 494l42 -457l248 476h28l-272 -513h-24l-43 454l-232 -454h-26l-54 513h26l47 -479l235 460h25zM399 613l116 134h36l-124 -134h-28z" />
<glyph unicode="&#x1e84;" horiz-adv-x="806" d="M160 0l-28 700h27l23 -661l290 601h29l31 -604l304 664h28l-325 -700h-29l-31 602l-290 -602h-29zM462 828q0 -10 -7 -17t-18 -7q-9 0 -15 5.5t-6 14.5q0 10 7 17t18 7q9 0 15 -5.5t6 -14.5zM606 828q0 -10 -7 -17t-18 -7q-9 0 -15 5.5t-6 14.5q0 10 7 17t18 7 q9 0 15 -5.5t6 -14.5z" />
<glyph unicode="&#x1e85;" horiz-adv-x="697" d="M411 494l42 -457l248 476h28l-272 -513h-24l-43 454l-232 -454h-26l-54 513h26l47 -479l235 460h25zM390 687q0 -9 -6.5 -15.5t-16.5 -6.5t-15.5 5.5t-5.5 14.5t6.5 15.5t16.5 6.5t15.5 -5.5t5.5 -14.5zM516 687q0 -9 -6.5 -15.5t-16.5 -6.5t-15.5 5.5t-5.5 14.5 t6.5 15.5t16.5 6.5t15.5 -5.5t5.5 -14.5z" />
<glyph unicode="&#x1e9e;" horiz-adv-x="658" d="M363 393l266 244q-36 22 -92 36t-106 14q-117 0 -188.5 -71.5t-103.5 -220.5l-84 -395h-26l84 395q34 161 112 238t207 77q60 0 124.5 -18t99.5 -44l-5 -22l-249 -228q98 -1 153.5 -51t55.5 -137q0 -65 -31 -115t-83 -77.5t-115 -27.5q-91 0 -162 48l10 21q31 -22 72 -34 t82 -12q58 0 104 27t71 71.5t25 98.5q0 77 -49.5 121t-135.5 44q-16 0 -40 -3z" />
<glyph unicode="&#x1ef2;" horiz-adv-x="545" d="M292 295l-62 -295h-26l63 299l-151 401h28l140 -381l304 381h31zM356 772l-75 102h36l65 -102h-26z" />
<glyph unicode="&#x1ef3;" horiz-adv-x="442" d="M-36 -226q-17 0 -32.5 5t-24.5 13l9 21q20 -16 48 -16q37 0 72 36t95 138l18 31l-83 511h27l75 -482l280 482h29l-326 -552q-43 -72 -73 -112t-56 -57.5t-58 -17.5zM269 613l-67 134h31l60 -134h-24z" />
<glyph unicode="&#x2000;" horiz-adv-x="500" />
<glyph unicode="&#x2001;" horiz-adv-x="1000" />
<glyph unicode="&#x2002;" horiz-adv-x="500" />
<glyph unicode="&#x2003;" horiz-adv-x="1000" />
<glyph unicode="&#x2004;" horiz-adv-x="333" />
<glyph unicode="&#x2005;" horiz-adv-x="250" />
<glyph unicode="&#x2006;" horiz-adv-x="166" />
<glyph unicode="&#x2007;" horiz-adv-x="600" />
<glyph unicode="&#x2008;" horiz-adv-x="150" />
<glyph unicode="&#x2009;" horiz-adv-x="200" />
<glyph unicode="&#x200a;" horiz-adv-x="55" />
<glyph unicode="&#x200b;" horiz-adv-x="0" />
<glyph unicode="&#x2013;" horiz-adv-x="500" d="M6 284h500l-5 -22h-500z" />
<glyph unicode="&#x2014;" horiz-adv-x="1000" d="M6 284h1000l-5 -22h-1000z" />
<glyph unicode="&#x2018;" horiz-adv-x="114" d="M196 698q-29 -19 -49.5 -44.5t-28.5 -52.5q10 0 16 -6t6 -14q0 -11 -6.5 -18t-16.5 -7q-24 0 -24 25q0 31 28 69t68 61z" />
<glyph unicode="&#x2019;" horiz-adv-x="114" d="M79 566q29 19 49.5 44.5t28.5 52.5q-10 0 -16 6t-6 14q0 11 6.5 18t16.5 7q24 0 24 -25q0 -31 -28 -69t-68 -61z" />
<glyph unicode="&#x201a;" horiz-adv-x="114" d="M-65 -106q29 19 49.5 44.5t28.5 52.5q-10 0 -16 6t-6 14q0 11 6.5 18t16.5 7q24 0 24 -25q0 -31 -28 -69t-68 -61z" />
<glyph unicode="&#x201c;" horiz-adv-x="229" d="M196 698q-29 -19 -49.5 -44.5t-28.5 -52.5q10 0 16 -6t6 -14q0 -11 -6.5 -18t-16.5 -7q-24 0 -24 25q0 31 28 69t68 61zM311 698q-29 -19 -49.5 -44.5t-28.5 -52.5q10 0 16 -6t6 -14q0 -11 -6.5 -18t-16.5 -7q-24 0 -24 25q0 31 28 69t68 61z" />
<glyph unicode="&#x201d;" horiz-adv-x="229" d="M79 566q29 19 49.5 44.5t28.5 52.5q-10 0 -16 6t-6 14q0 11 6.5 18t16.5 7q24 0 24 -25q0 -31 -28 -69t-68 -61zM194 566q29 19 49.5 44.5t28.5 52.5q-10 0 -16 6t-6 14q0 11 6.5 18t16.5 7q24 0 24 -25q0 -31 -28 -69t-68 -61z" />
<glyph unicode="&#x201e;" horiz-adv-x="229" d="M-65 -106q29 19 49.5 44.5t28.5 52.5q-10 0 -16 6t-6 14q0 11 6.5 18t16.5 7q24 0 24 -25q0 -31 -28 -69t-68 -61zM50 -106q29 19 49.5 44.5t28.5 52.5q-10 0 -16 6t-6 14q0 11 6.5 18t16.5 7q24 0 24 -25q0 -31 -28 -69t-68 -61z" />
<glyph unicode="&#x2020;" horiz-adv-x="451" d="M279 453l-121 -569h-25l121 569h-161l5 22h161l55 255h25l-55 -255h162l-5 -22h-162z" />
<glyph unicode="&#x2021;" horiz-adv-x="451" d="M212 139l-54 -255h-25l54 255h-162l5 22h162l62 292h-161l5 22h161l55 255h25l-55 -255h162l-5 -22h-162l-62 -292h161l-5 -22h-161z" />
<glyph unicode="&#x2022;" horiz-adv-x="203" d="M98 229q-22 0 -35.5 13t-13.5 35q0 28 20 48t49 20q22 0 35.5 -13t13.5 -35q0 -28 -20 -48t-49 -20z" />
<glyph unicode="&#x2026;" horiz-adv-x="1000" d="M139 17q0 -11 -8.5 -19t-19.5 -8q-10 0 -16 6t-6 15q0 11 8.5 19t19.5 8q10 0 16 -6t6 -15zM473 17q0 -11 -8.5 -19t-19.5 -8q-10 0 -16 6t-6 15q0 11 8.5 19t19.5 8q10 0 16 -6t6 -15zM807 17q0 -11 -8.5 -19t-19.5 -8q-10 0 -16 6t-6 15q0 11 8.5 19t19.5 8q10 0 16 -6 t6 -15z" />
<glyph unicode="&#x2032;" horiz-adv-x="144" d="M164 700h32l-79 -175h-22z" />
<glyph unicode="&#x2033;" horiz-adv-x="270" d="M164 700h32l-79 -175h-22zM290 700h32l-79 -175h-22z" />
<glyph unicode="&#x2039;" horiz-adv-x="239" d="M64 278l95 -166h-28l-95 168l160 168h32z" />
<glyph unicode="&#x203a;" horiz-adv-x="239" d="M90 448h28l95 -168l-160 -168h-32l164 170z" />
<glyph unicode="&#x2044;" horiz-adv-x="102" d="M-199 0l511 690h27l-511 -690h-27z" />
<glyph unicode="&#x2070;" d="M322 799q-53 0 -93.5 -45.5t-55.5 -121.5q-8 -42 -8 -77q0 -58 26.5 -91t73.5 -33q53 0 93.5 45.5t55.5 121.5q8 42 8 77q0 58 -26.5 91t-73.5 33zM324 820q57 0 89.5 -39t32.5 -105q0 -43 -8 -81q-18 -87 -64.5 -136t-110.5 -49q-57 0 -89.5 39t-32.5 105q0 43 8 81 q18 87 64.5 136t110.5 49z" />
<glyph unicode="&#x2074;" d="M328 420l21 99h-228l4 20l283 271h25l-58 -270h60l-5 -21h-59l-21 -99h-22zM353 540l51 238l-249 -238h198z" />
<glyph unicode="&#x2075;" d="M247 410q-36 0 -68 10t-56 29l8 21q52 -38 117 -38q61 0 96.5 29.5t35.5 78.5q0 86 -130 86q-41 0 -75 -4l50 188h217l-5 -21h-195l-38 -144q24 3 49 3q73 0 112 -27.5t39 -79.5q0 -58 -43.5 -94.5t-113.5 -36.5z" />
<glyph unicode="&#x2076;" d="M344 820q59 0 107 -28l-8 -21q-50 27 -100 27q-62 0 -107 -43t-62 -116q62 12 101 12q70 0 106.5 -27t36.5 -77q0 -60 -40.5 -98.5t-102.5 -38.5q-64 0 -98 38.5t-34 110.5q0 77 26.5 137t72 92t102.5 32zM272 630q-50 0 -102 -13q-4 -24 -4 -57q0 -62 28.5 -95t81.5 -33 q51 0 84.5 32.5t33.5 81.5q0 84 -122 84z" />
<glyph unicode="&#x2077;" d="M218 420h-23l1 6q8 49 24 90t46 84t90 109l73 80h-240l4 21h269l-4 -21l-85 -93q-75 -82 -108.5 -141t-45.5 -129z" />
<glyph unicode="&#x2078;" d="M451 722q0 -33 -23.5 -62t-63.5 -45q29 -14 45 -36t16 -48q0 -51 -45 -86t-113 -35q-62 0 -101 29.5t-39 77.5q0 39 27.5 69.5t77.5 46.5q-55 24 -55 75q0 47 41.5 79.5t103.5 32.5q56 0 92.5 -27.5t36.5 -70.5zM259 623q-50 -12 -80 -40.5t-30 -63.5q0 -39 33 -63 t86 -24q58 0 96.5 28t38.5 71q0 27 -17 45t-54 28zM199 709q0 -25 16 -40.5t52 -25.5l70 -19q41 14 66.5 40t25.5 56q0 34 -31 56t-78 22q-52 0 -86.5 -25.5t-34.5 -63.5z" />
<glyph unicode="&#x2079;" d="M236 410q-60 0 -104 25l8 21q43 -24 97 -24q61 0 105.5 42.5t61.5 117.5q-50 -13 -102 -13q-70 0 -108 28t-38 80q0 38 19.5 68.5t52.5 47.5t73 17q62 0 98 -39.5t36 -109.5q0 -77 -26.5 -137t-71.5 -92t-101 -32zM304 600q54 0 104 13q4 25 4 57q0 61 -29 94.5t-83 33.5 q-52 0 -86 -31t-34 -79q0 -43 32 -65.5t92 -22.5z" />
<glyph unicode="&#x2080;" d="M209 259q-53 0 -93.5 -45.5t-55.5 -121.5q-8 -42 -8 -77q0 -58 26.5 -91t73.5 -33q53 0 93.5 45.5t55.5 121.5q8 42 8 77q0 58 -26.5 91t-73.5 33zM211 280q57 0 89.5 -39t32.5 -105q0 -43 -8 -81q-18 -87 -64.5 -136t-110.5 -49q-57 0 -89.5 39t-32.5 105q0 43 8 81 q18 87 64.5 136t110.5 49z" />
<glyph unicode="&#x2081;" d="M283 270l-83 -390h-23l77 362l-152 -101l-11 17l169 112h23z" />
<glyph unicode="&#x2082;" d="M183 58q-66 -27 -99 -62t-45 -95h232l-4 -21h-255l4 21q14 69 49 107.5t110 69.5q55 22 80 37.5t36 33t11 41.5q0 30 -24 49t-64 19q-31 0 -64 -12.5t-59 -33.5l-9 19q25 22 62 35.5t72 13.5q49 0 79.5 -25t30.5 -65q0 -41 -28 -69t-115 -63z" />
<glyph unicode="&#x2083;" d="M132 -130q-71 0 -122 38l8 21q24 -18 54 -27.5t61 -9.5q57 0 93.5 29t36.5 75q0 37 -26 57t-75 20h-58l4 21h68q50 0 84 26.5t34 66.5q0 32 -25 51.5t-68 19.5q-27 0 -56.5 -10t-55.5 -27l-8 19q24 18 57 29t65 11q51 0 83 -25.5t32 -65.5q0 -38 -27 -67.5t-70 -39.5 q31 -9 48.5 -31.5t17.5 -54.5q0 -55 -44 -90.5t-111 -35.5z" />
<glyph unicode="&#x2084;" d="M213 -120l21 99h-228l4 20l283 271h25l-58 -270h60l-5 -21h-59l-21 -99h-22zM238 0l51 238l-249 -238h198z" />
<glyph unicode="&#x2085;" d="M133 -130q-36 0 -68 10t-56 29l8 21q52 -38 117 -38q61 0 96.5 29.5t35.5 78.5q0 86 -130 86q-41 0 -75 -4l50 188h217l-5 -21h-195l-38 -144q24 3 49 3q73 0 112 -27.5t39 -79.5q0 -58 -43.5 -94.5t-113.5 -36.5z" />
<glyph unicode="&#x2086;" d="M230 280q59 0 107 -28l-8 -21q-50 27 -100 27q-62 0 -107 -43t-62 -116q62 12 101 12q70 0 106.5 -27t36.5 -77q0 -60 -40.5 -98.5t-102.5 -38.5q-64 0 -98 38.5t-34 110.5q0 77 26.5 137t72 92t102.5 32zM158 90q-50 0 -102 -13q-4 -24 -4 -57q0 -62 28.5 -95t81.5 -33 q51 0 84.5 32.5t33.5 81.5q0 84 -122 84z" />
<glyph unicode="&#x2087;" d="M104 -120h-23l1 6q8 49 24 90t46 84t90 109l73 80h-240l4 21h269l-4 -21l-85 -93q-75 -82 -108.5 -141t-45.5 -129z" />
<glyph unicode="&#x2088;" d="M336 182q0 -33 -23.5 -62t-63.5 -45q29 -14 45 -36t16 -48q0 -51 -45 -86t-113 -35q-62 0 -101 29.5t-39 77.5q0 39 27.5 69.5t77.5 46.5q-55 24 -55 75q0 47 41.5 79.5t103.5 32.5q56 0 92.5 -27.5t36.5 -70.5zM144 83q-50 -12 -80 -40.5t-30 -63.5q0 -39 33 -63t86 -24 q58 0 96.5 28t38.5 71q0 27 -17 45t-54 28zM84 169q0 -25 16 -40.5t52 -25.5l70 -19q41 14 66.5 40t25.5 56q0 34 -31 56t-78 22q-52 0 -86.5 -25.5t-34.5 -63.5z" />
<glyph unicode="&#x2089;" d="M122 -130q-60 0 -104 25l8 21q43 -24 97 -24q61 0 105.5 42.5t61.5 117.5q-50 -13 -102 -13q-70 0 -108 28t-38 80q0 38 19.5 68.5t52.5 47.5t73 17q62 0 98 -39.5t36 -109.5q0 -77 -26.5 -137t-71.5 -92t-101 -32zM190 60q54 0 104 13q4 25 4 57q0 61 -29 94.5t-83 33.5 q-52 0 -86 -31t-34 -79q0 -43 32 -65.5t92 -22.5z" />
<glyph unicode="&#x20ac;" horiz-adv-x="600" d="M142 260q6 -116 66 -181.5t162 -65.5q39 0 76 11.5t66 31.5l9 -19q-28 -21 -69 -34t-83 -13q-75 0 -130 33.5t-86.5 94.5t-35.5 142h-87l8 22h79q0 63 18 130h-82l8 22h80q26 80 76.5 140.5t114 93t131.5 32.5q45 0 89 -11.5t78 -32.5l-9 -20q-74 41 -158 41 q-66 0 -125 -31t-103.5 -86t-68.5 -126h335l-8 -22h-333q-18 -65 -18 -130h319l-8 -22h-311z" />
<glyph unicode="&#x20ba;" horiz-adv-x="600" d="M189 247l-48 -225h62q132 0 200.5 59.5t92.5 195.5h25q-25 -146 -99.5 -211.5t-219.5 -65.5h-90l50 235l-111 -52l6 25l110 51l28 133l-112 -52l6 25l112 52l58 273h24l-56 -261l230 107l-6 -25l-229 -107l-28 -132l231 107l-6 -25z" />
<glyph unicode="&#x20bd;" horiz-adv-x="600" d="M167 145l-31 -145h-24l31 145h-121l5 22h120l27 125h-121l5 22h121l80 376h126q97 0 149 -44t52 -129q0 -67 -33.5 -119t-92 -79t-137.5 -27h-125l-27 -125h216l-5 -22h-215zM278 668l-75 -354h126q72 0 124 26t80 72.5t28 103.5q0 74 -45 113t-132 39h-106z" />
<glyph unicode="&#x2122;" horiz-adv-x="755" d="M434 700l145 -307l144 307h31v-384h-24v346l-141 -297h-21l-141 295v-344h-24v384h31zM202 677v-361h-24v361h-133v23h291v-23h-134z" />
<glyph unicode="&#x2212;" horiz-adv-x="600" d="M103 333l5 22h426l-5 -22h-426z" />
<glyph unicode="&#x25fc;" horiz-adv-x="515" d="M0 515h515v-515h-515v515z" />
<glyph unicode="&#xfeff;" horiz-adv-x="0" />
<glyph horiz-adv-x="600" d="M94 193q0 87 22 183q21 100 60 174.5t90.5 112t113.5 37.5q78 0 121 -53.5t43 -149.5q0 -87 -22 -183q-21 -100 -60 -174.5t-90.5 -112t-113.5 -37.5q-78 0 -121 53.5t-43 149.5zM119 194q0 -88 36 -134.5t104 -46.5q84 0 145.5 80t92.5 223q22 98 22 180q0 88 -36 134.5 t-104 46.5q-84 0 -145.5 -80t-92.5 -223q-22 -98 -22 -180z" />
<glyph horiz-adv-x="600" d="M401 690l-143 -668h199l-5 -22h-413l5 22h190l136 637l-213 -148l-12 19l232 160h24z" />
<glyph horiz-adv-x="600" d="M440 22l-5 -22h-373l5 24q18 83 43.5 139t68.5 96.5t122 80.5l20 10q108 54 150 99t42 104q0 57 -38 90.5t-102 33.5q-46 0 -93 -19.5t-88 -56.5l-12 20q41 38 92 58.5t103 20.5q73 0 118 -40t45 -105q0 -66 -47 -118t-159 -108l-20 -10q-53 -27 -86.5 -51.5t-57.5 -56 t-42.5 -76.5t-33.5 -113h348z" />
<glyph horiz-adv-x="600" d="M238 -10q-48 0 -95 13.5t-80 37.5l10 21q34 -23 78.5 -36t87.5 -13q89 0 143 51.5t54 138.5q0 68 -43.5 109t-116.5 41h-72l6 22h75q86 0 140.5 47t54.5 121q0 63 -40 98.5t-107 35.5q-40 0 -83.5 -16t-79.5 -43l-10 19q37 30 83.5 46.5t92.5 16.5q50 0 89 -20t59.5 -55 t20.5 -81q0 -68 -44 -118t-116 -63q35 -10 61.5 -33.5t40.5 -55.5t14 -70q0 -97 -61 -155.5t-162 -58.5z" />
<glyph horiz-adv-x="600" d="M360 0l41 191h-361l5 21l462 478h24l-102 -477h99l-5 -22h-98l-41 -191h-24zM405 213l93 437l-422 -437h329z" />
<glyph horiz-adv-x="600" d="M244 -10q-49 0 -96 16t-82 43l10 23q36 -28 80.5 -43.5t88.5 -15.5q95 0 157 60.5t62 154.5q0 72 -47 111t-132 39q-55 0 -123 -2l91 314h296l-5 -22h-274l-78 -269q42 2 94 2q95 0 149 -46t54 -126q0 -71 -33 -125.5t-89 -84t-123 -29.5z" />
<glyph horiz-adv-x="600" d="M407 700q39 0 77.5 -12t67.5 -32l-10 -21q-66 42 -136 42q-96 0 -165 -75t-102 -212q33 6 75.5 10.5t73.5 4.5q107 0 160.5 -46t53.5 -136q0 -68 -29.5 -121.5t-79 -82.5t-110.5 -29q-92 0 -141 59t-49 172q0 94 25.5 188t68 159.5t98 98.5t122.5 33zM284 382 q-32 0 -75 -4.5t-75 -10.5q-16 -77 -16 -146q0 -103 43 -155.5t124 -52.5q83 0 137.5 59.5t54.5 148.5q0 81 -47.5 121t-145.5 40z" />
<glyph horiz-adv-x="600" d="M153 34q14 70 38 130t66 127.5t114 159.5l168 216h-377l5 23h407l-5 -23l-181 -233q-63 -81 -103 -144.5t-65 -123.5t-40 -132l-7 -34h-27z" />
<glyph horiz-adv-x="600" d="M67 159q0 78 52 135t141 80q-50 23 -77 61.5t-27 85.5q0 52 29 93t77.5 63.5t105.5 22.5q52 0 94.5 -21t65 -56.5t22.5 -81.5q0 -64 -45.5 -117t-116.5 -74q109 -51 109 -153q0 -61 -32 -108t-85.5 -73t-116.5 -26q-56 0 -101.5 22.5t-70 60t-24.5 86.5zM289 363 q-90 -21 -143.5 -74.5t-53.5 -127.5q0 -44 23.5 -77.5t63 -52t86.5 -18.5q60 0 107.5 25t73.5 66t26 92t-32 88.5t-93 58.5zM361 361q72 18 118 66.5t46 112.5q0 42 -20.5 72.5t-57 47.5t-80.5 17q-53 0 -96 -21t-66.5 -56t-23.5 -78q0 -49 31.5 -85.5t91.5 -56.5z" />
<glyph horiz-adv-x="600" d="M213 -10q-90 0 -152 47l10 21q62 -45 143 -45q97 0 165.5 75t101.5 213q-74 -12 -148 -12q-107 0 -161.5 44.5t-54.5 132.5q0 66 30 120.5t79.5 84t108.5 29.5q91 0 141.5 -59.5t50.5 -168.5q0 -97 -25 -191t-67 -159t-98 -98.5t-124 -33.5zM337 312q72 0 150 13 q15 80 15 146q0 100 -44 153t-125 53q-55 0 -99 -29.5t-68 -77.5t-24 -103q0 -79 48 -117t147 -38z" />
<glyph d="M234 379q-53 0 -93.5 -45.5t-55.5 -121.5q-8 -42 -8 -77q0 -58 26.5 -91t73.5 -33q53 0 93.5 45.5t55.5 121.5q8 42 8 77q0 58 -26.5 91t-73.5 33zM236 400q57 0 89.5 -39t32.5 -105q0 -43 -8 -81q-18 -87 -64.5 -136t-110.5 -49q-57 0 -89.5 39t-32.5 105q0 43 8 81 q18 87 64.5 136t110.5 49z" />
<glyph d="M308 390l-83 -390h-23l77 362l-152 -101l-11 17l169 112h23z" />
<glyph d="M208 178q-66 -27 -99 -62t-45 -95h232l-4 -21h-255l4 21q14 69 49 107.5t110 69.5q55 22 80 37.5t36 33t11 41.5q0 30 -24 49t-64 19q-31 0 -64 -12.5t-59 -33.5l-9 19q25 22 62 35.5t72 13.5q49 0 79.5 -25t30.5 -65q0 -41 -28 -69t-115 -63z" />
<glyph d="M158 -10q-71 0 -122 38l8 21q24 -18 54 -27.5t61 -9.5q57 0 93.5 29t36.5 75q0 37 -26 57t-75 20h-58l4 21h68q50 0 84 26.5t34 66.5q0 32 -25 51.5t-68 19.5q-27 0 -56.5 -10t-55.5 -27l-8 19q24 18 57 29t65 11q51 0 83 -25.5t32 -65.5q0 -38 -27 -67.5t-70 -39.5 q31 -9 48.5 -31.5t17.5 -54.5q0 -55 -44 -90.5t-111 -35.5z" />
<glyph d="M239 0l21 99h-228l4 20l283 271h25l-58 -270h60l-5 -21h-59l-21 -99h-22zM264 120l51 238l-249 -238h198z" />
<glyph d="M159 -10q-36 0 -68 10t-56 29l8 21q52 -38 117 -38q61 0 96.5 29.5t35.5 78.5q0 86 -130 86q-41 0 -75 -4l50 188h217l-5 -21h-195l-38 -144q24 3 49 3q73 0 112 -27.5t39 -79.5q0 -58 -43.5 -94.5t-113.5 -36.5z" />
<glyph d="M255 400q59 0 107 -28l-8 -21q-50 27 -100 27q-62 0 -107 -43t-62 -116q62 12 101 12q70 0 106.5 -27t36.5 -77q0 -60 -40.5 -98.5t-102.5 -38.5q-64 0 -98 38.5t-34 110.5q0 77 26.5 137t72 92t102.5 32zM183 210q-50 0 -102 -13q-4 -24 -4 -57q0 -62 28.5 -95t81.5 -33 q51 0 84.5 32.5t33.5 81.5q0 84 -122 84z" />
<glyph d="M129 0h-23l1 6q8 49 24 90t46 84t90 109l73 80h-240l4 21h269l-4 -21l-85 -93q-75 -82 -108.5 -141t-45.5 -129z" />
<glyph d="M362 302q0 -33 -23.5 -62t-63.5 -45q29 -14 45 -36t16 -48q0 -51 -45 -86t-113 -35q-62 0 -101 29.5t-39 77.5q0 39 27.5 69.5t77.5 46.5q-55 24 -55 75q0 47 41.5 79.5t103.5 32.5q56 0 92.5 -27.5t36.5 -70.5zM170 203q-50 -12 -80 -40.5t-30 -63.5q0 -39 33 -63 t86 -24q58 0 96.5 28t38.5 71q0 27 -17 45t-54 28zM110 289q0 -25 16 -40.5t52 -25.5l70 -19q41 14 66.5 40t25.5 56q0 34 -31 56t-78 22q-52 0 -86.5 -25.5t-34.5 -63.5z" />
<glyph d="M147 -10q-60 0 -104 25l8 21q43 -24 97 -24q61 0 105.5 42.5t61.5 117.5q-50 -13 -102 -13q-70 0 -108 28t-38 80q0 38 19.5 68.5t52.5 47.5t73 17q62 0 98 -39.5t36 -109.5q0 -77 -26.5 -137t-71.5 -92t-101 -32zM215 180q54 0 104 13q4 25 4 57q0 61 -29 94.5t-83 33.5 q-52 0 -86 -31t-34 -79q0 -43 32 -65.5t92 -22.5z" />
<glyph d="M298 679q-53 0 -93.5 -45.5t-55.5 -121.5q-8 -42 -8 -77q0 -58 26.5 -91t73.5 -33q53 0 93.5 45.5t55.5 121.5q8 42 8 77q0 58 -26.5 91t-73.5 33zM300 700q57 0 89.5 -39t32.5 -105q0 -43 -8 -81q-18 -87 -64.5 -136t-110.5 -49q-57 0 -89.5 39t-32.5 105q0 43 8 81 q18 87 64.5 136t110.5 49z" />
<glyph d="M372 690l-83 -390h-23l77 362l-152 -101l-11 17l169 112h23z" />
<glyph d="M272 478q-66 -27 -99 -62t-45 -95h232l-4 -21h-255l4 21q14 69 49 107.5t110 69.5q55 22 80 37.5t36 33t11 41.5q0 30 -24 49t-64 19q-31 0 -64 -12.5t-59 -33.5l-9 19q25 22 62 35.5t72 13.5q49 0 79.5 -25t30.5 -65q0 -41 -28 -69t-115 -63z" />
<glyph d="M221 290q-71 0 -122 38l8 21q24 -18 54 -27.5t61 -9.5q57 0 93.5 29t36.5 75q0 37 -26 57t-75 20h-58l4 21h68q50 0 84 26.5t34 66.5q0 32 -25 51.5t-68 19.5q-27 0 -56.5 -10t-55.5 -27l-8 19q24 18 57 29t65 11q51 0 83 -25.5t32 -65.5q0 -38 -27 -67.5t-70 -39.5 q31 -9 48.5 -31.5t17.5 -54.5q0 -55 -44 -90.5t-111 -35.5z" />
<glyph d="M302 300l21 99h-228l4 20l283 271h25l-58 -270h60l-5 -21h-59l-21 -99h-22zM327 420l51 238l-249 -238h198z" />
<glyph d="M222 290q-36 0 -68 10t-56 29l8 21q52 -38 117 -38q61 0 96.5 29.5t35.5 78.5q0 86 -130 86q-41 0 -75 -4l50 188h217l-5 -21h-195l-38 -144q24 3 49 3q73 0 112 -27.5t39 -79.5q0 -58 -43.5 -94.5t-113.5 -36.5z" />
<glyph d="M319 700q59 0 107 -28l-8 -21q-50 27 -100 27q-62 0 -107 -43t-62 -116q62 12 101 12q70 0 106.5 -27t36.5 -77q0 -60 -40.5 -98.5t-102.5 -38.5q-64 0 -98 38.5t-34 110.5q0 77 26.5 137t72 92t102.5 32zM247 510q-50 0 -102 -13q-4 -24 -4 -57q0 -62 28.5 -95t81.5 -33 q51 0 84.5 32.5t33.5 81.5q0 84 -122 84z" />
<glyph d="M193 300h-23l1 6q8 49 24 90t46 84t90 109l73 80h-240l4 21h269l-4 -21l-85 -93q-75 -82 -108.5 -141t-45.5 -129z" />
<glyph d="M426 602q0 -33 -23.5 -62t-63.5 -45q29 -14 45 -36t16 -48q0 -51 -45 -86t-113 -35q-62 0 -101 29.5t-39 77.5q0 39 27.5 69.5t77.5 46.5q-55 24 -55 75q0 47 41.5 79.5t103.5 32.5q56 0 92.5 -27.5t36.5 -70.5zM234 503q-50 -12 -80 -40.5t-30 -63.5q0 -39 33 -63 t86 -24q58 0 96.5 28t38.5 71q0 27 -17 45t-54 28zM174 589q0 -25 16 -40.5t52 -25.5l70 -19q41 14 66.5 40t25.5 56q0 34 -31 56t-78 22q-52 0 -86.5 -25.5t-34.5 -63.5z" />
<glyph d="M211 290q-60 0 -104 25l8 21q43 -24 97 -24q61 0 105.5 42.5t61.5 117.5q-50 -13 -102 -13q-70 0 -108 28t-38 80q0 38 19.5 68.5t52.5 47.5t73 17q62 0 98 -39.5t36 -109.5q0 -77 -26.5 -137t-71.5 -92t-101 -32zM279 480q54 0 104 13q4 25 4 57q0 61 -29 94.5t-83 33.5 q-52 0 -86 -31t-34 -79q0 -43 32 -65.5t92 -22.5z" />
<glyph d="M114 -190l13 61q-68 8 -119 45l8 21q50 -37 115 -44l39 182q-52 19 -77 43t-25 58q0 48 37.5 75t100.5 27h8l13 62h23l-14 -64q44 -6 96 -34l-8 -20q-46 27 -92 32l-35 -165l17 -6q86 -31 86 -96q0 -54 -41 -85.5t-105 -31.5h-4l-13 -60h-23zM192 66l-37 -174 q56 0 88.5 25t32.5 70q0 51 -72 75zM92 177q0 -26 20 -44.5t63 -34.5l34 158h-4q-54 0 -83.5 -20.5t-29.5 -58.5z" />
<glyph d="M135 -190l13 61q-43 6 -66.5 35.5t-23.5 78.5t21.5 90.5t57 66.5t75.5 28l13 61h23l-13 -61q41 -3 75 -26l-8 -20q-39 23 -72 25l-55 -257q45 2 87 33l7 -21q-38 -32 -98 -34l-13 -60h-23zM82 -14q0 -81 71 -93l54 255q-36 -5 -65 -29t-44.5 -59t-15.5 -74z" />
<glyph horiz-adv-x="608" d="M442 270l-325 -390h-29l325 390h29zM294 -37q0 22 4 39q11 48 39.5 76.5t67.5 28.5q38 0 60.5 -25t22.5 -68q0 -22 -4 -39q-11 -48 -39.5 -76.5t-67.5 -28.5q-38 0 -60.5 25t-22.5 68zM317 -37q0 -34 16 -53t45 -19q30 0 52 23.5t31 63.5q4 16 4 36q0 34 -16 53t-45 19 q-30 0 -52 -23.5t-31 -63.5q-4 -16 -4 -36zM42 136q0 22 4 39q11 48 39.5 76.5t67.5 28.5q38 0 60.5 -25t22.5 -68q0 -22 -4 -39q-11 -48 -39.5 -76.5t-67.5 -28.5q-38 0 -60.5 25t-22.5 68zM65 136q0 -34 16 -53t45 -19q30 0 52 23.5t31 63.5q4 16 4 36q0 34 -16 53t-45 19 q-30 0 -52 -23.5t-31 -63.5q-4 -16 -4 -36z" />
<glyph horiz-adv-x="387" d="M17 150h84l43 120h24l-43 -120h114l43 120h23l-43 -120h75l-6 -22h-77l-38 -106h82l-6 -22h-84l-43 -120h-24l43 120h-114l-43 -120h-23l43 120h-75l6 22h77l38 106h-82zM78 22h114l39 106h-114z" />
<glyph d="M229 350l13 61q-68 8 -119 45l8 21q50 -37 115 -44l39 182q-52 19 -77 43t-25 58q0 48 37.5 75t100.5 27h8l13 62h23l-14 -64q44 -6 96 -34l-8 -20q-46 27 -92 32l-35 -165l17 -6q86 -31 86 -96q0 -54 -41 -85.5t-105 -31.5h-4l-13 -60h-23zM307 606l-37 -174 q56 0 88.5 25t32.5 70q0 51 -72 75zM207 717q0 -26 20 -44.5t63 -34.5l34 158h-4q-54 0 -83.5 -20.5t-29.5 -58.5z" />
<glyph d="M249 350l13 61q-43 6 -66.5 35.5t-23.5 78.5t21.5 90.5t57 66.5t75.5 28l13 61h23l-13 -61q41 -3 75 -26l-8 -20q-39 23 -72 25l-55 -257q45 2 87 33l7 -21q-38 -32 -98 -34l-13 -60h-23zM196 526q0 -81 71 -93l54 255q-36 -5 -65 -29t-44.5 -59t-15.5 -74z" />
<glyph horiz-adv-x="608" d="M557 810l-325 -390h-29l325 390h29zM409 503q0 22 4 39q11 48 39.5 76.5t67.5 28.5q38 0 60.5 -25t22.5 -68q0 -22 -4 -39q-11 -48 -39.5 -76.5t-67.5 -28.5q-38 0 -60.5 25t-22.5 68zM432 503q0 -34 16 -53t45 -19q30 0 52 23.5t31 63.5q4 16 4 36q0 34 -16 53t-45 19 q-30 0 -52 -23.5t-31 -63.5q-4 -16 -4 -36zM157 676q0 22 4 39q11 48 39.5 76.5t67.5 28.5q38 0 60.5 -25t22.5 -68q0 -22 -4 -39q-11 -48 -39.5 -76.5t-67.5 -28.5q-38 0 -60.5 25t-22.5 68zM180 676q0 -34 16 -53t45 -19q30 0 52 23.5t31 63.5q4 16 4 36q0 34 -16 53 t-45 19q-30 0 -52 -23.5t-31 -63.5q-4 -16 -4 -36z" />
<glyph horiz-adv-x="387" d="M132 690h84l43 120h24l-43 -120h114l43 120h23l-43 -120h75l-6 -22h-77l-38 -106h82l-6 -22h-84l-43 -120h-24l43 120h-114l-43 -120h-23l43 120h-75l6 22h77l38 106h-82zM193 562h114l39 106h-114z" />
<glyph d="M139 -70l13 61q-68 8 -119 45l8 21q50 -37 115 -44l39 182q-52 19 -77 43t-25 58q0 48 37.5 75t100.5 27h8l13 62h23l-14 -64q44 -6 96 -34l-8 -20q-46 27 -92 32l-35 -165l17 -6q86 -31 86 -96q0 -54 -41 -85.5t-105 -31.5h-4l-13 -60h-23zM217 186l-37 -174 q56 0 88.5 25t32.5 70q0 51 -72 75zM117 297q0 -26 20 -44.5t63 -34.5l34 158h-4q-54 0 -83.5 -20.5t-29.5 -58.5z" />
<glyph d="M160 -70l13 61q-43 6 -66.5 35.5t-23.5 78.5t21.5 90.5t57 66.5t75.5 28l13 61h23l-13 -61q41 -3 75 -26l-8 -20q-39 23 -72 25l-55 -257q45 2 87 33l7 -21q-38 -32 -98 -34l-13 -60h-23zM107 106q0 -81 71 -93l54 255q-36 -5 -65 -29t-44.5 -59t-15.5 -74z" />
<glyph horiz-adv-x="608" d="M468 390l-325 -390h-29l325 390h29zM320 83q0 22 4 39q11 48 39.5 76.5t67.5 28.5q38 0 60.5 -25t22.5 -68q0 -22 -4 -39q-11 -48 -39.5 -76.5t-67.5 -28.5q-38 0 -60.5 25t-22.5 68zM343 83q0 -34 16 -53t45 -19q30 0 52 23.5t31 63.5q4 16 4 36q0 34 -16 53t-45 19 q-30 0 -52 -23.5t-31 -63.5q-4 -16 -4 -36zM68 256q0 22 4 39q11 48 39.5 76.5t67.5 28.5q38 0 60.5 -25t22.5 -68q0 -22 -4 -39q-11 -48 -39.5 -76.5t-67.5 -28.5q-38 0 -60.5 25t-22.5 68zM91 256q0 -34 16 -53t45 -19q30 0 52 23.5t31 63.5q4 16 4 36q0 34 -16 53t-45 19 q-30 0 -52 -23.5t-31 -63.5q-4 -16 -4 -36z" />
<glyph horiz-adv-x="387" d="M43 270h84l43 120h24l-43 -120h114l43 120h23l-43 -120h75l-6 -22h-77l-38 -106h82l-6 -22h-84l-43 -120h-24l43 120h-114l-43 -120h-23l43 120h-75l6 22h77l38 106h-82zM104 142h114l39 106h-114z" />
<glyph d="M202 230l13 61q-68 8 -119 45l8 21q50 -37 115 -44l39 182q-52 19 -77 43t-25 58q0 48 37.5 75t100.5 27h8l13 62h23l-14 -64q44 -6 96 -34l-8 -20q-46 27 -92 32l-35 -165l17 -6q86 -31 86 -96q0 -54 -41 -85.5t-105 -31.5h-4l-13 -60h-23zM280 486l-37 -174 q56 0 88.5 25t32.5 70q0 51 -72 75zM180 597q0 -26 20 -44.5t63 -34.5l34 158h-4q-54 0 -83.5 -20.5t-29.5 -58.5z" />
<glyph d="M224 230l13 61q-43 6 -66.5 35.5t-23.5 78.5t21.5 90.5t57 66.5t75.5 28l13 61h23l-13 -61q41 -3 75 -26l-8 -20q-39 23 -72 25l-55 -257q45 2 87 33l7 -21q-38 -32 -98 -34l-13 -60h-23zM171 406q0 -81 71 -93l54 255q-36 -5 -65 -29t-44.5 -59t-15.5 -74z" />
<glyph horiz-adv-x="608" d="M531 690l-325 -390h-29l325 390h29zM383 383q0 22 4 39q11 48 39.5 76.5t67.5 28.5q38 0 60.5 -25t22.5 -68q0 -22 -4 -39q-11 -48 -39.5 -76.5t-67.5 -28.5q-38 0 -60.5 25t-22.5 68zM406 383q0 -34 16 -53t45 -19q30 0 52 23.5t31 63.5q4 16 4 36q0 34 -16 53t-45 19 q-30 0 -52 -23.5t-31 -63.5q-4 -16 -4 -36zM131 556q0 22 4 39q11 48 39.5 76.5t67.5 28.5q38 0 60.5 -25t22.5 -68q0 -22 -4 -39q-11 -48 -39.5 -76.5t-67.5 -28.5q-38 0 -60.5 25t-22.5 68zM154 556q0 -34 16 -53t45 -19q30 0 52 23.5t31 63.5q4 16 4 36q0 34 -16 53 t-45 19q-30 0 -52 -23.5t-31 -63.5q-4 -16 -4 -36z" />
<glyph horiz-adv-x="387" d="M106 570h84l43 120h24l-43 -120h114l43 120h23l-43 -120h75l-6 -22h-77l-38 -106h82l-6 -22h-84l-43 -120h-24l43 120h-114l-43 -120h-23l43 120h-75l6 22h77l38 106h-82zM167 442h114l39 106h-114z" />
<glyph horiz-adv-x="150" d="M122 373q0 -10 -7.5 -17.5t-18.5 -7.5q-8 0 -14 5.5t-6 13.5q0 10 7.5 17.5t18.5 7.5q8 0 14 -5.5t6 -13.5z" />
<glyph horiz-adv-x="149" d="M126 393q0 -10 -7.5 -17.5t-18.5 -7.5q-8 0 -14 5.5t-6 13.5q0 10 7.5 17.5t18.5 7.5q8 0 14 -5.5t6 -13.5z" />
<glyph horiz-adv-x="591" d="M207 700l-149 -700h-26l149 700h26zM308 -10q-33 0 -68 11.5t-62 31.5l11 20q59 -39 119 -39q64 0 103 44.5t60 144.5l106 497h26l-107 -502q-23 -109 -68 -158.5t-120 -49.5zM181 772l107 102h41l-117 -102h-31zM577 772l107 102h41l-117 -102h-31z" />
<glyph horiz-adv-x="376" d="M137 513h24l-110 -513h-24zM349 513l-127 -593q-16 -76 -45.5 -111t-78.5 -35q-17 0 -33.5 5t-26.5 12l9 19q25 -13 52 -13q38 0 61.5 29t37.5 94l127 593h24zM148 613l116 134h36l-124 -134h-28zM336 613l116 134h36l-124 -134h-28z" />
<glyph horiz-adv-x="291" d="M65 513h95l12 57q19 94 63 142t110 48q17 0 34 -4t27 -10l-8 -20q-24 11 -53 11q-114 0 -149 -167l-12 -57h160l-5 -22h-160l-130 -616h-24l130 616h-95z" />
<glyph horiz-adv-x="291" d="M65 513h95l12 57q19 94 63 142t110 48q17 0 34 -4t27 -10l-8 -20q-24 11 -53 11q-114 0 -149 -167l-12 -57h281l-5 -22h-281l-130 -616h-24l130 616h-95z" />
<glyph horiz-adv-x="0" d="M-119 -173q34 -24 75 -24q34 0 56 17t22 45q0 23 -20.5 35.5t-58.5 12.5h-16l52 89h25l-40 -69q38 -1 60.5 -19t22.5 -48q0 -37 -28.5 -60.5t-74.5 -23.5q-48 0 -82 25z" />
<glyph horiz-adv-x="0" d="M-73 -202q45 37 56 79q-9 2 -13.5 7.5t-4.5 13.5q0 11 8 18t19 7q9 0 15 -6t6 -18q0 -26 -21 -58.5t-54 -55.5z" />
<glyph horiz-adv-x="0" d="M-9 762l107 102h41l-117 -102h-31z" />
<glyph horiz-adv-x="0" d="M-1 762l-75 102h36l65 -102h-26z" />
<glyph horiz-adv-x="0" d="M-105 762l131 102h27l84 -102h-26l-74 82l-112 -82h-30z" />
<glyph horiz-adv-x="0" d="M164 857q-7 -44 -27.5 -69t-50.5 -25q-19 0 -34.5 8.5t-35.5 29.5q-18 20 -30 27.5t-26 7.5q-20 0 -35 -19.5t-20 -52.5h-22q7 44 27.5 69t50.5 25q19 0 34.5 -8.5t35.5 -29.5q18 -20 30 -27.5t26 -7.5q20 0 35 19.5t20 52.5h22z" />
<glyph horiz-adv-x="0" d="M152 864l-131 -102h-27l-84 102h26l74 -82l112 82h30z" />
<glyph horiz-adv-x="0" d="M-29 818q0 -10 -7 -17t-18 -7q-9 0 -15 5.5t-6 14.5q0 10 7 17t18 7q9 0 15 -5.5t6 -14.5zM115 818q0 -10 -7 -17t-18 -7q-9 0 -15 5.5t-6 14.5q0 10 7 17t18 7q9 0 15 -5.5t6 -14.5z" />
<glyph horiz-adv-x="0" d="M12 757q-47 0 -75.5 24.5t-28.5 64.5q0 7 1 13h24v-4q0 -76 80 -76q37 0 63.5 21t38.5 59h25q-12 -46 -47 -74t-81 -28z" />
<glyph horiz-adv-x="0" d="M123 853q0 -45 -30.5 -75t-75.5 -30q-39 0 -62.5 23t-23.5 60q0 45 30.5 75t75.5 30q39 0 62.5 -23t23.5 -60zM100 851q0 29 -18 46.5t-47 17.5q-34 0 -57.5 -24t-23.5 -58q0 -29 18 -46.5t47 -17.5q34 0 57.5 24t23.5 58z" />
<glyph horiz-adv-x="638" d="M452 -10q-21 0 -39 6q-50 15 -74 15t-74 -15q-18 -6 -39 -6q-66 0 -85 76q-19 77 -19 94q0 19 8 39q3 9 3 23q0 21 -5 48.5t-12.5 56.5t-14.5 54t-11 42q-10 40 -10 55q0 43 40 75q7 6 10 9.5t5.5 8t5.5 13.5q21 60 72 93t126 33t126 -33t72 -93q3 -8 5 -12.5t5 -8 t11 -10.5q40 -32 40 -75q0 -15 -10 -55q-4 -17 -11 -42t-14.5 -54t-12.5 -56.5t-5 -48.5q0 -14 3 -23q8 -20 8 -39q0 -17 -19 -94q-19 -76 -85 -76zM233 238q5 0 14 7.5t14 16.5q7 12 15.5 35.5t8.5 28.5t-5 5q-1 0 -2.5 -0.5t-3.5 -2.5q-4 -4 -10 -7t-10 -3q-3 0 -5.5 1.5 t-2.5 2.5q0 4 8 10q10 7 10 11q0 5 -7 5q-3 0 -9 -7q-5 -5 -12 -5q-11 0 -16 8q-3 6 -7 6q-7 0 -7 -5q0 -2 0.5 -4t0.5 -4q0 -8 -7 -8q-4 0 -9 4q-3 2 -11 2q-3 0 -5.5 2t-2.5 5q0 7 13 14q4 3 27 8q4 1 4 7t-7 6q-19 0 -32 -5q-13 -4 -18 -11t-5 -18q0 -18 10 -41t27 -40 q12 -13 22 -18.5t20 -5.5zM338 53q22 0 41 8t27 21q12 17 12 37v19q0 13 2 25q1 4 1.5 7.5t0.5 5.5q0 4 -5 4t-24.5 -3.5t-54.5 -3.5q-34 0 -53 3.5t-24 3.5q-7 0 -7 -4q0 -2 2 -9.5t4 -11.5q3 -5 18 -7q25 -2 44 -2q23 0 35 1t18 1q16 0 16 -12q0 -11 -14 -13 q-25 -3 -53 -3q-17 0 -29.5 1t-21.5 1q-13 0 -13 -10q0 -13 12 -30q9 -13 27 -21t39 -8zM469 204q15 0 25 37q9 35 20 49q8 9 15 21t7 18q0 8 -4 8q-1 0 -5 -1.5t-8 -3.5t-5 -2q-7 0 -7 9q0 8 6 29.5t15 45.5q13 33 13 48q0 11 -8 25q-10 15 -15 15t-13 -8q-17 -17 -42 -17 q-29 0 -45 28q-7 12 -7 19q0 6 5 6q3 0 10 -5t11 -5q6 0 11 8q5 10 5 26q0 17 -6.5 29.5t-14.5 12.5q-3 0 -17 -4t-34.5 -8.5t-42.5 -4.5q-11 0 -32 3t-28 5q-15 5 -22 7t-10 2q-7 0 -18 -7q-12 -7 -28.5 -20.5t-25.5 -24.5q-29 -31 -29 -49q1 -10 4.5 -20t4.5 -25 q0 -12 -1.5 -20t-1.5 -15q0 -8 2.5 -10t13.5 -2q17 0 36.5 3t36 6t22.5 3q12 0 20.5 -4t18.5 -14q13 -13 13 -32q0 -6 -1 -17t-2 -20l-8 -79q2 -32 35 -32q17 0 26.5 8.5t9.5 23.5q0 4 -0.5 7.5t-0.5 6.5q0 11 8 11q5 0 20 -15l37 -38q16 -17 31 -17zM365 373q-4 0 -6.5 2.5 t-2.5 5.5q0 5 6 8q12 7 44.5 21t42.5 17q9 3 13 3q9 0 18 -8q7 -6 14.5 -15t7.5 -12q0 -5 -3 -9t-7 -4q-5 0 -9 2.5t-11 7.5t-16 5q-12 0 -47 -11q-7 -2 -16 -5t-17 -5.5t-11 -2.5zM451 338q-12 1 -24 4.5t-21 3.5q-11 0 -16.5 -0.5t-12.5 -0.5q-9 0 -9 5q0 7 6 8 q9 3 37.5 6t37.5 3q6 0 8.5 -1.5t4.5 -6.5q3 -6 10 -6q3 0 5.5 1t6.5 1q5 0 5 -5q0 -4 -13.5 -8t-24.5 -4z" />
</font>
</defs>
</svg>
