<?xml version="1.0" standalone="no"?>
<!DOCTYPE svg PUBLIC "-//W3C//DTD SVG 1.1//EN" "http://www.w3.org/Graphics/SVG/1.1/DTD/svg11.dtd" >
<svg xmlns="http://www.w3.org/2000/svg">
<metadata>Generated by IcoMoon</metadata>
<defs>
<font id="ChartIcons" horiz-adv-x="1024">
<font-face units-per-em="1024" ascent="960" descent="-64" />
<missing-glyph horiz-adv-x="1024" />
<glyph unicode="&#x20;" horiz-adv-x="512" d="" />
<glyph unicode="&#xe600;" glyph-name="Age" d="M965.972 366.691h-355.297v178.892h2.181c103.202 4.926 181.12 28.451 232.979 62.859h97.362c14.929-0.026 27.021-12.135 27.021-27.067 0-0.058 0-0.115-0.001-0.173l0.094-210.289zM923.166-6.995c-0.026-14.965-12.131-27.094-27.084-27.161h-285.407v331.302h312.491zM667.647 778.773c38.161 43.087 65.674 48.012 85.47 40.859 25.402-10.039 64.032-50.921-1.313-82.96-41.339-21.644-89.672-36.254-140.89-40.845 17.244 31.402 36.465 58.533 57.599 84.021zM415.834 366.691h-357.783l-4.316 4.222 0.117 210.345c0 0.028 0 0.061 0 0.094 0 14.945 12.102 27.064 27.041 27.091h97.341c51.765-34.409 129.706-57.934 233.073-62.859h4.456zM415.834-34.156h-287.84c-14.97 0.040-27.091 12.185-27.091 27.161 0 0 0 0 0 0v304.141h314.931zM271.046 819.608c19.843 7.037 47.285 2.346 85.494-40.859 20.327-24.42 39.543-51.554 56.582-80.138-51.082 1.774-99.407 16.385-142.868 39.047-63.357 31.052-24.563 71.864 0.722 81.973zM1039.738 581.211c0 0 0 0 0 0 0 53.355-43.219 96.615-96.558 96.682h-34.79c27.208 60.631 4.198 133.694-75.455 201.526-140.871 120.090-265.37-52.258-320.935-150.441-55.448 98.183-179.97 270.53-321.029 150.441-79.583-67.762-102.616-140.894-75.361-201.526h-34.713c-53.286-0.093-96.447-43.312-96.447-96.611 0-0.025 0-0.050 0-0.074l-0.188-210.294c0.087-31.049 19.355-57.576 46.575-68.361l0.616-309.499c0.067-53.296 43.247-96.484 96.533-96.564h768.090c53.289 0.080 96.464 43.271 96.517 96.559v309.283c27.758 10.95 47.059 37.501 47.145 68.572z" />
<glyph unicode="&#xe601;" glyph-name="CombineWith" d="M995.738 646.224h-198.042v160.313c0 15.633-12.72 28.308-28.308 28.308h-741.080c-15.633 0-28.308-12.675-28.308-28.308v-521.739c0-15.633 12.675-28.285 28.308-28.285h198.042v-160.336c0-15.633 12.675-28.285 28.308-28.285h741.080c15.588 0 28.262 12.675 28.262 28.285v521.762c0 15.61-12.675 28.285-28.262 28.285zM226.35 617.938v-297.028h-145.021c-10.445 0-18.887 8.42-18.887 18.864v411.853c0 10.399 8.442 18.864 18.887 18.864h634.971c10.445 0 18.887-8.465 18.887-18.864v-105.404h-480.529c-15.633 0-28.308-12.675-28.308-28.285zM961.513 151.154c0-10.422-8.397-18.864-18.842-18.864h-635.017c-10.399 0-18.842 8.442-18.842 18.864v105.358h480.575c15.61 0 28.308 12.675 28.308 28.285v297.074h144.976c10.445 0 18.842-8.488 18.842-18.864v-411.853z" />
<glyph unicode="&#xe602;" glyph-name="CompareWith" d="M987.682 880.356h-951.342c-20.070 0-36.341-16.27-36.341-36.318v-794.078c0-20.070 16.27-36.341 36.341-36.341h951.364c20.070 0 36.341 16.27 36.341 36.341v794.078c-0.023 20.048-16.293 36.318-36.363 36.318zM80.213 120.502v516.87h390.44v-541.082h-366.228c-13.38 0-24.212 10.832-24.212 24.212zM943.809 120.502c0-13.38-10.809-24.212-24.189-24.212h-366.273v541.082h390.463v-516.87z" />
<glyph unicode="&#xe604;" glyph-name="DayofWeek" d="M1025.177 912.067c0.009 0.336 0.014 0.731 0.014 1.128 0 25.543-20.447 46.31-45.866 46.827l-935.215 0.001c-25.482-0.531-45.936-21.313-45.936-46.873 0-0.381 0.005-0.76 0.014-1.139l-0.001-141.848h1026.992zM946.529 452.762h-177.575v177.597h177.575zM946.529 227.14h-177.575v177.438h177.575zM946.529 1.495h-177.575v177.575h177.575zM716.019 452.762h-177.575v177.597h177.575zM716.019 227.14h-177.575v177.438h177.575zM716.019 1.495h-177.575v177.575h177.575zM485.488 227.14h-177.575v177.438h177.575zM485.488 1.495h-177.575v177.575h177.575zM255.001 227.14h-177.575v177.438h177.575zM255.001 1.495h-177.575v177.575h177.575zM-1.815 695.877v-711.943c-0.009-0.342-0.014-0.746-0.014-1.15 0-25.547 20.463-46.314 45.892-46.805l935.852-0.001c25.467 0.518 45.914 21.285 45.914 46.828 0 0.397-0.005 0.792-0.015 1.186l0.001 711.884z" />
<glyph unicode="&#xe605;" glyph-name="DeleteRemoveClose" d="M744.704 335.672c15.43-15.438 24.973-36.76 24.973-60.312 0-47.119-38.198-85.317-85.317-85.317-23.568 0-44.903 9.556-60.344 25.004l-112.336 112.304-112.368-112.368c-15.378-15.068-36.459-24.367-59.711-24.367-47.134 0-85.344 38.21-85.344 85.344 0 23.252 9.299 44.333 24.381 59.725l112.386 112.354-112.368 112.368c-15.68 15.475-25.392 36.963-25.392 60.72 0 47.108 38.188 85.296 85.296 85.296 23.757 0 45.245-9.712 60.711-25.383l112.409-112.377 112.368 112.368c15.475 15.68 36.963 25.392 60.72 25.392 47.108 0 85.296-38.188 85.296-85.296 0-23.757-9.712-45.245-25.383-60.711l-112.345-112.377zM873.728 810.040c-92.654 92.653-220.653 149.96-362.037 149.96-282.77 0-512-229.23-512-512s229.23-512 512-512c141.384 0 269.384 57.307 362.037 149.96 93.015 92.488 150.582 220.541 150.582 362.040s-57.567 269.551-150.558 362.016z" />
<glyph unicode="&#xe606;" glyph-name="Ethnicity" d="M512 960c-282.305-0.023-512-229.74-512-512.023 0-282.328 229.695-511.977 512-511.977s512 229.649 512 511.977c0 282.283-229.695 512-512 512.023zM907.264 602.419c-4.142 6.349-18.204 26.419-31.812 29.81-9.944 2.549-29.605-5.643-48.356-13.54-10.809-4.528-20.912-8.784-26.465-9.671-17.112-2.617-42.303-30.333-54.522-49.903-5.78-2.617-32.745-16.338-32.745-43.827l-0.046-4.506c-0.159-30.811-0.546-95.027 58.982-107.861 14.086-3.049 27.671-4.506 41.529-4.506 10.672 0 19.593 0.842 27.557 1.593 5.939 0.546 11.082 1.070 15.588 1.070 8.42 0 13.676-1.752 18.159-6.007 7.964-7.782 7.737-14.996 7.396-26.010-0.273-10.627-0.614-23.871 7.077-41.643 8.26-19.16 8.055-47.536 7.851-72.545-0.046-10.012-0.182-19.524 0.319-27.602-79.394-138.422-227.169-224.393-385.911-224.393-245.373 0-444.939 199.566-444.939 444.848 0 129.001 55.956 250.971 153.668 335.826 0.478-45.079-5.871-75.23-17.681-83.331-11.605-8.101-41.097-43.941-25.099-101.012 9.17-32.836 25.714-45.648 38.98-55.933 8.966-6.94 16.111-12.447 18.751-22.323 1.889-6.963 2.412-12.356 2.867-16.68 1.32-14.268 4.119-17.886 28.695-21.049 24.553-3.163 39.504-16.703 54.090-29.764 4.665-4.233 9.057-8.238 13.79-11.856 3.914-3.095 8.306-6.144 12.675-9.125 18.978-13.084 29.924-21.914 22.005-33.792-13.631-20.412-9.079-78.643 22.232-111.866 28.285-29.969 41.028-92.888 41.028-128.023 0-42.257 8.010-115.94 61.827-134.167 8.26-2.844 10.081-0.569 10.809 0.683 1.616 2.776-0.091 5.757-3.231 11.196-5.188 9.148-13.926 24.462-11.696 44.214 2.799 25.463 24.326 55.592 43.349 82.17 8.693 12.151 16.839 23.598 23.188 34.27 2.367 4.050 5.552 9.011 9.079 14.677 21.003 33.428 56.229 89.384 46.899 126.589-2.844 11.514-9.83 20.48-20.617 26.647-23.666 13.471-39.208 27.83-52.929 40.482-18.091 16.794-33.724 31.243-61.099 37.251-26.351 5.734-49.903 6.918-65.013 6.918-12.766 0-20.526-0.796-20.935-0.865-0.068-0.023-7.327-1.115-15.292-1.115-10.945 0-18.091 2.094-18.66 5.393-0.319 1.57-0.569 3.618-0.887 5.962-2.298 16.68-7.077 51.382-31.949 51.382l-1.070-0.023c-0.705-0.023-1.434-0.046-2.207-0.046-12.993 0-23.78 4.892-28.763 13.016-4.437 7.327-3.868 16.839 1.638 27.534 6.713 12.811 18.546 19.024 36.295 19.024 4.983 0 9.739-0.478 13.562-0.842 2.867-0.296 5.257-0.546 7.077-0.546l2.48 0.046c15.132 0 17.567-7.828 19.456-14.063 1.115-3.618 2.48-8.078 7.145-8.078 1.001 0 2.071 0.25 3.209 0.751 10.9 4.756 9.99 12.561 9.216 19.41-1.070 9.125-2.253 19.433 15.747 33.382 5.393 4.233 10.49 8.329 15.451 12.242 25.964 20.708 46.467 37.069 83.991 50.54 27.967 10.081 40.095 33.655 42.052 52.315 1.957 17.886-4.506 33.746-16.816 41.37-7.691 4.824-16.338 7.236-25.737 7.236-20.457 0-39.982-11.969-48.037-23.256-3.686-5.188-11.787-8.374-21.208-8.374-11.332 0-24.030 4.847-26.783 15.861-2.389 9.421-0.228 19.433 5.985 27.398 7.532 9.671 20.002 14.973 35.066 14.973l2.116-0.046c29.491-0.978 63.625 12.72 68.153 26.601 0.842 2.594 1.434 7.623-4.301 11.81-2.981 2.116-2.549 3.391-2.412 3.823 2.185 6.645 27.102 14.928 39.003 13.972 11.492-0.865 32.745-7.851 41.119-18.295 2.867-3.732 3.982-7.396 3.391-11.287-2.367-15.223-4.642-42.803 7.487-56.98 4.892-5.734 11.469-8.579 19.684-8.579 17.18 0 40.573 16.907 63.215 33.36 15.952 11.56 32.427 23.552 40.664 23.916 7.578 0.455 13.722 3.049 17.18 7.327 1.434 1.752 2.367 3.664 2.867 5.757 81.419-52.383 144.088-130.458 177.471-220.979-10.286 2.731-18.136 2.071-21.891 1.661z" />
<glyph unicode="&#xe607;" glyph-name="Expand" d="M994.395 834.844h-775.6c-16.361 0-29.628-13.244-29.628-29.605v-326.565h-159.562c-16.361 0-29.605-13.266-29.605-29.628v-369.186c0-16.338 13.244-29.605 29.605-29.605h531.661c16.338 0 29.605 13.266 29.605 29.605v149.732h403.524c16.361 0 29.605 13.244 29.605 29.605v546.042c0 16.361-13.244 29.605-29.605 29.605zM958.623 316.746c0-10.9-8.852-19.752-19.729-19.752h-664.599c-10.9 0-19.752 8.852-19.752 19.752v430.99c0 10.9 8.852 19.752 19.752 19.752h664.599c10.9 0 19.729-8.852 19.729-19.752v-430.99z" />
<glyph unicode="&#xe608;" glyph-name="Gender" d="M794.131 772.248c-51.877 0.026-93.922 42.087-93.922 93.968 0 51.897 42.071 93.968 93.968 93.968s93.968-42.071 93.968-93.968c0-18.71-5.468-36.143-14.894-50.788-16.603-25.967-45.688-43.18-78.793-43.18-0.115 0-0.23 0-0.345 0.001zM576.163 604.504v-239.312c-0.010-0.32-0.016-0.696-0.016-1.073 0-19.891 16.125-36.016 36.016-36.016s36.016 16.125 36.016 36.016c0 0.377-0.006 0.754-0.017 1.128l0.001 221.561c0 9.15 7.418 16.568 16.568 16.568s16.568-7.418 16.568-16.568v-602.832c0-26.598 21.562-48.16 48.16-48.16s48.16 21.562 48.16 48.16v0 335.616c0 9.243 7.493 16.736 16.736 16.736s16.736-7.493 16.736-16.736v-335.616c0-26.554 21.526-48.080 48.080-48.080s48.080 21.526 48.080 48.080v0 602.832c0 9.15 7.418 16.568 16.568 16.568s16.568-7.418 16.568-16.568v-221.616c-0.010-0.32-0.016-0.696-0.016-1.073 0-19.891 16.125-36.016 36.016-36.016s36.016 16.125 36.016 36.016c0 0.377-0.006 0.754-0.017 1.128l0.001 239.257c-0.236 78.942-64.163 142.875-143.081 143.12h-150.023c-78.948-0.236-142.884-64.172-143.12-143.097zM274.995 772.248c-51.877 0.026-93.922 42.087-93.922 93.968 0 51.897 42.071 93.968 93.968 93.968s93.968-42.071 93.968-93.968c0-18.71-5.468-36.143-14.894-50.788-16.603-25.967-45.688-43.18-78.793-43.18-0.115 0-0.23 0-0.345 0.001zM36.099 353.464c3.421-1.185 7.364-1.87 11.467-1.87 15.782 0 29.199 10.129 34.104 24.241l73.197 216.253c2.201 6.737 8.429 11.519 15.774 11.519 9.146 0 16.56-7.414 16.56-16.56 0-1.99-0.351-3.899-0.995-5.667l-115.499-341.629c-1.333-2.901-2.11-6.294-2.11-9.869 0-13.326 10.802-24.128 24.128-24.128 0.805 0 1.601 0.039 2.386 0.116l69.197-0.008c6.579-0.018 11.909-5.342 11.936-11.917v-216.931c0-22.692 18.396-41.088 41.088-41.088s41.088 18.396 41.088 41.088v212.288c0 9.15 7.418 16.568 16.568 16.568s16.568-7.418 16.568-16.568v-212.304c0-22.67 18.378-41.048 41.048-41.048s41.048 18.378 41.048 41.048v0 216.944c0.027 6.572 5.348 11.893 11.917 11.92h69.379c0.685-0.069 1.481-0.109 2.286-0.109 13.326 0 24.128 10.802 24.128 24.128 0 3.575-0.777 6.968-2.172 10.019l-115.346 341.609c-0.686 1.749-1.084 3.775-1.084 5.893 0 9.146 7.414 16.56 16.56 16.56 7.477 0 13.796-4.955 15.854-11.76l73.358-216.117c4.76-14.699 18.328-25.141 34.335-25.141 19.891 0 36.016 16.125 36.016 36.016 0 4.357-0.774 8.533-2.191 12.399l-90.624 269.158c-17.879 44.966-59.983 76.661-109.776 79.093l-121.888 0.011c-50.116-2.413-92.259-34.125-109.849-78.28l-65.591-194.344c-0.224-0.688-0.352-1.36-0.56-2.032l-24.896-73.792c-1.21-3.452-1.91-7.432-1.91-11.575 0-15.773 10.135-29.179 24.249-34.061z" />
<glyph unicode="&#xe609;" glyph-name="HasChildren" d="M1216.473 667.56c0-25.903-20.999-46.902-46.902-46.902h-1002.833c-15.138 0-34.332 4.433-29.195 29.736 42.414 210.855 210.558 309.525 401.247 309.525 175.929 0 327.448-58.85 387.244-245.538h243.538c0 0 0 0 0 0 25.875 0 46.856-20.952 46.902-46.816zM745.968 270.638c-0.104-0.001-0.228-0.001-0.351-0.001-41.072 0-74.367 33.295-74.367 74.367s33.295 74.367 74.367 74.367c41.072 0 74.367-33.295 74.367-74.367 0-0.019 0-0.038 0-0.056-0.045-40.916-33.12-74.095-73.995-74.31zM692.66 100.71c-71.366-66.744-163.899-91.587-264.596-18.68-12.273 8.894-24.329 17.679-21.167 32.439 2.736 12.511 13.721 21.739 26.862 21.739 1.975 0 3.901-0.208 5.758-0.604 13.039-2.671 26.718-4.996 40.721-6.537 14.476-1.721 31.242-2.703 48.237-2.703 41.287 0 81.221 5.794 119.033 16.613 6.928 2.12 16.417 5.364 25.527 8.851 2.897 1.135 6.252 1.793 9.761 1.793 11.613 0 21.543-7.208 25.56-17.394 5.471-14.324-4.666-25.246-15.722-35.572zM353.507 270.963c-0.040 0-0.088 0-0.135 0-41.072 0-74.367 33.295-74.367 74.367s33.295 74.367 74.367 74.367c41.072 0 74.367-33.295 74.367-74.367 0-0.019 0-0.038 0-0.057 0-0.021 0-0.050 0-0.078 0-40.982-33.223-74.205-74.205-74.205 0 0 0 0 0 0zM974.341 550.292h-830.554c-78.041-2.897-140.604-65.281-143.778-142.979-0.075-1.874-0.112-3.727-0.112-5.589 0-73.337 57.794-133.176 130.321-136.455 0.641-0.015 1.049-0.018 1.458-0.018 4.135 0 8.21 0.258 12.209 0.758l-0.477-0.049c19.727-59.721 45.809-111.594 78.265-158.74 70.416-103.198 189.776-171.423 325.070-171.423 4.428 0 8.838 0.073 13.23 0.218 214.46-0.017 353.814 138.688 414.908 330.026v0c3.511-0.453 7.573-0.711 11.694-0.711 0.45 0 0.9 0.003 1.349 0.009 72.691 3.259 130.444 63.037 130.444 136.305 0 1.89-0.038 3.77-0.114 5.641-3.179 77.769-65.815 140.179-143.65 142.998z" />
<glyph unicode="&#xe60a;" glyph-name="Income" d="M505.652 193.138c85.697 0 134.963 34.293 134.963 89.975 0 68.54-74.957 85.697-162.816 104.971-107.11 23.575-244.213 66.423-244.213 224.939 0 113.527 81.397 194.947 209.943 218.453v47.104c0 53.567 21.436 81.419 68.54 81.419h6.417c49.289 0 66.423-25.691 66.423-81.419v-42.849c134.963-12.834 207.804-72.818 207.804-134.963-3.501-38.936-28.255-71.339-62.449-85.763l-1.813 0.089c-49.815 57.069-122.348 93.222-203.346 94.252-81.576 0.002-130.865-38.546-130.865-94.252 0-62.145 66.423-79.258 160.677-100.693 109.227-23.552 254.862-68.54 254.862-222.777 0-122.106-85.697-205.665-224.939-227.078v-49.266c0-53.567-21.436-79.28-68.562-79.28h-6.417c-49.266 0-68.562 23.575-68.562 79.28v44.988c-145.636 17.112-227.078 83.536-227.078 149.936 4.15 37.029 27.919 67.654 60.533 81.513l1.794-0.093c57.305-60.7 138.32-98.487 228.16-98.487 0.332 0 0.663 0.001 0.994 0.002z" />
<glyph unicode="&#xe60b;" glyph-name="Map" d="M513.434 960c-214.426 0-388.278-173.852-388.278-388.278 0-126.976 61.212-239.343 155.443-310.204 0 0 48.219-46.444 78.37-96.984 18.614-31.221 93.844-158.561 108.385-184.434 14.108-25.099 27.557-43.008 44.692-44.1l2.162 0.091c17.135 1.070 31.175 18.887 45.306 43.986 14.564 25.873 89.156 153.577 108.407 184.434 33.428 53.589 78.37 96.984 78.37 96.984 94.231 70.838 155.443 183.228 155.443 310.204 0 214.448-173.852 388.301-388.301 388.301zM513.479 373.521c-106.633 0-193.468 86.767-193.468 193.422 0 106.633 86.835 193.422 193.468 193.422s193.377-86.79 193.377-193.422c0-106.678-86.744-193.422-193.377-193.422z" />
<glyph unicode="&#xe60c;" glyph-name="MaritalStatus" d="M1063.683 410.756c-49.528-68.808-123.738-143.765-239.525-255.619-1.519-1.755-3.17-3.318-4.963-4.706l0.503 0.246c-68.808-64.348-201.271-175.482-201.742-175.897l-0.693-0.499c-1.293-1.255-2.726-2.38-4.269-3.344-23.831-19.134-53.681-31.494-86.303-33.855-4.048-0.636-8.133-0.989-12.298-0.999h-4.747c-4.261 0.022-8.423 0.374-12.482 1.031-33.454 2.486-63.931 15.429-88.251 35.551-1.122 0.841-2.285 1.616-2.894 2.226-3.407 2.992-133.239 112.187-199.692 174.512l-1.191 1.191c-1.345 1-2.518 2.111-3.547 3.347-116.922 112.746-191.159 187.897-241.020 257.037-44.804 57.691-71.827 131.134-71.827 210.89 0 0.037 0 0.073 0 0.11-0.008 0.83-0.012 1.818-0.012 2.807 0 183.236 147.037 332.13 329.559 335.129 4.492 0.004 8.010-0.329 10.281-0.329 150.33 0 259.469-143.765 283.375-214.789 18.725 69.251 131.66 214.789 283.015 214.789 4.654 0.332 8.033 0.332 10.388 0.332 182.839-2.956 329.923-151.868 329.923-335.133 0-0.988-0.004-1.976-0.013-2.962 0.002-0.116 0.002-0.433 0.002-0.75 0-79.525-26.917-152.764-72.138-211.102z" />
<glyph unicode="&#xe60d;" glyph-name="PeopleinHousehold" d="M1026.753 214.974c-1.008 5.728-2.224 13.44-3.856 22.4-6.57 43.326-17.533 82.239-32.662 118.998-8.17 17.658-36.554 34.794-73.85 43.082-0.254 0.079-0.567 0.152-0.888 0.203 0.424 0.357 0.856 0.725 1.352 1.045 17.682 11.815 30.787 29.282 36.815 49.778 2.405 8.011 3.697 16.484 3.697 25.26 0 0.007 0 0.013 0 0.020 0 0.070 0 0.153 0 0.237 0 49.75-40.33 90.080-90.080 90.080s-90.080-40.33-90.080-90.080c0-30.869 15.527-58.111 39.197-74.343 1.123-0.807 1.907-1.447 2.739-1.991-0.496 0-1.152-0.288-1.712-0.4-27.764-4.55-51.742-18.214-69.295-37.762-1.887-2.531-3.52-5.278-4.87-8.183-3.993-8.027-7.698-17.267-10.672-26.828-7.832-24.949-14.961-54.516-20.25-84.715-2.32-13.311-3.472-21.039-4.544-26.815-0.649-3.168-1.049-6.832-1.103-10.579-0.001-26.141 27.743-49.101 70.111-62.717 26.266-8.291 56.473-13.068 87.795-13.068 0.938 0 1.876 0.004 2.812 0.013 88.881-0.001 160.177 33.791 160.177 75.727 0.018 0.486 0.028 1.058 0.028 1.632 0 3.18-0.307 6.289-0.893 9.297zM640.945 469.358c16.912-16.976 11.2-30.896-12.8-30.896h-66.16v-276.224l-0.256 0.608 0.176-0.608c-0.017-17.008-13.732-30.806-30.705-30.96h-116.319v203.296c0.001 0.087 0.002 0.189 0.002 0.292 0 9.945-7.959 18.031-17.855 18.236h-138.851c-9.877-0.231-17.795-8.293-17.795-18.203 0-0.114 0.001-0.228 0.003-0.342v-203.343h-117.392c-17.026 0.109-30.789 13.923-30.816 30.957v276.355h-66.048c-24 0-29.744 13.904-12.8 30.896l285.136 286.288c7.38 7.231 17.497 11.693 28.656 11.693s21.276-4.462 28.663-11.7z" />
<glyph unicode="&#xe60e;" glyph-name="Reset" d="M85.545 237.536l81.446-69.785c30.172-25.853 54.791-14.5 54.791 25.236v201.579c537.174 0 725.056-186.092 859.010-411.365 19.296-32.067 53.915-53.187 93.466-53.187 0.069 0 0.138 0 0.208 0 0.055 0 0.133 0 0.211 0 20.424 0 39.519 5.69 55.787 15.572 31.601 19.040 52.728 53.674 52.728 93.243 0 20.502-5.672 39.68-15.532 56.049-167.987 282.412-423.863 630.965-1045.754 630.965v189.054c0 39.736-24.681 51.089-54.791 25.236l-409.329-350.959c-10.386-8.323-16.979-21.008-16.979-35.232s6.593-26.908 16.89-35.163z" />
<glyph unicode="&#xe60f;" glyph-name="Settings" d="M864.37 448.114c48.333 21.686 93.98 50.244 136.078 85.22 8.92 7.464 12.857 19.092 10.149 30.333-10.672 44.237-25.577 84.56-44.396 119.74-4.983 9.307-14.404 15.314-24.963 15.929-57.321 3.322-113.414-2.321-166.48-16.293-11.514 12.971-25.077 25.805-40.892 38.958-13.244 11.059-28.262 21.276-46.262 31.767 5.37 53.134 3.322 108.203-6.007 160.518-1.957 11.059-9.739 20.23-20.48 23.506-38.002 12.106-78.871 19.228-124.996 21.982-11.287 1.502-21.231-4.506-27.216-13.608-31.471-48.014-54.864-99.396-69.45-152.644-20.389-4.255-38.502-9.626-54.75-16.043-18.728-7.464-35.385-15.314-50.085-23.893-42.212 30.47-89.611 55.774-141.471 75.184-10.763 3.959-22.665 1.798-30.925-5.985-29.4-26.806-57.048-59.711-81.874-97.781-6.007-9.011-6.622-20.48-1.866-30.174 26.169-51.61 58.869-97.326 97.576-136.465-5.234-16.748-9.83-34.93-13.653-55.728-2.685-19.547-3.959-37.569-4.050-54.841-48.333-21.686-93.958-50.335-136.078-85.22-8.897-7.441-12.811-19.137-10.035-30.379 10.559-44.328 25.554-84.605 44.282-119.785 4.961-9.33 14.382-15.269 24.94-15.883 57.549-3.277 113.641 2.344 166.502 16.293 11.583-13.039 25.122-25.919 41.097-38.958 13.153-11.014 28.035-21.322 45.943-31.676-5.166-53.134-3.118-108.203 6.098-160.563 1.98-11.014 9.853-20.116 20.503-23.529 37.456-11.856 78.234-19.001 124.996-22.005 0.66-0.091 1.274-0.091 1.911-0.091 10.149 0 19.661 5.143 25.259 13.767 31.448 48.105 54.841 99.442 69.655 152.553 20.594 4.506 38.275 9.717 54.613 16.225 18.637 7.35 35.18 15.11 49.971 23.711 42.439-30.538 89.953-55.842 141.608-75.139 10.65-4.028 22.642-1.661 31.039 6.007 29.286 26.852 56.798 59.711 81.647 97.621 6.007 9.011 6.622 20.548 1.866 30.128-25.987 51.587-58.687 97.439-97.485 136.602 5.37 16.612 9.83 34.93 13.653 55.842 2.594 19.661 3.937 37.66 4.028 54.795zM512.228 271.667c-96.757 0-175.536 78.689-175.536 175.514 0 96.711 78.78 175.354 175.536 175.354 96.643 0 175.286-78.666 175.286-175.354 0-96.802-78.643-175.514-175.286-175.514z" />
<glyph unicode="&#xe610;" glyph-name="TimeofDay" d="M512 960c282.77 0 512-229.23 512-512s-229.23-512-512-512c-282.77 0-512 229.23-512 512s229.23 512 512 512zM512 823.467c-207.365 0-375.467-168.102-375.467-375.467s168.102-375.467 375.467-375.467c207.365 0 375.467 168.102 375.467 375.467-0.233 207.271-168.196 375.234-375.444 375.467zM365.978 265.705c-0.034 0-0.075 0-0.115 0-23.564 0-42.667 19.103-42.667 42.667 0 12.128 5.060 23.073 13.184 30.842l132.954 126.991v218.203c0 23.57 19.108 42.678 42.678 42.678s42.678-19.108 42.678-42.678v-236.407c-0.006-12.119-5.064-23.055-13.182-30.819l-146.038-139.643c-7.638-7.324-18.024-11.833-29.464-11.833-0.042 0-0.083 0-0.125 0z" />
<glyph unicode="&#xe611;" glyph-name="Female" horiz-adv-x="457" d="M228.27 772.193c-51.877 0.026-93.922 42.087-93.922 93.968 0 51.897 42.071 93.968 93.968 93.968s93.968-42.071 93.968-93.968c0-18.71-5.468-36.143-14.894-50.788-16.603-25.967-45.688-43.18-78.793-43.18-0.115 0-0.23 0-0.345 0.001zM-10.61 353.409c3.421-1.185 7.364-1.87 11.467-1.87 15.782 0 29.199 10.129 34.104 24.241l73.197 216.253c2.201 6.737 8.429 11.519 15.774 11.519 9.146 0 16.56-7.414 16.56-16.56 0-1.99-0.351-3.899-0.995-5.667l-115.515-341.645c-1.333-2.901-2.11-6.294-2.11-9.869 0-13.326 10.802-24.128 24.128-24.128 0.805 0 1.601 0.039 2.386 0.116l69.197-0.008c6.579-0.018 11.909-5.342 11.936-11.917v-216.915c0-22.692 18.396-41.088 41.088-41.088s41.088 18.396 41.088 41.088v212.288c0 9.15 7.418 16.568 16.568 16.568s16.568-7.418 16.568-16.568v-212.304c0-22.67 18.378-41.048 41.048-41.048s41.048 18.378 41.048 41.048v0 216.944c0.027 6.572 5.348 11.893 11.917 11.92h69.379c0.685-0.069 1.481-0.109 2.286-0.109 13.326 0 24.128 10.802 24.128 24.128 0 3.575-0.777 6.968-2.172 10.019l-115.33 341.609c-0.817 1.893-1.292 4.098-1.292 6.413 0 9.146 7.414 16.56 16.56 16.56 7.666 0 14.116-5.209 16.002-12.282l73.354-216.116c4.76-14.699 18.328-25.141 34.335-25.141 19.891 0 36.016 16.125 36.016 36.016 0 4.357-0.774 8.533-2.191 12.399l-90.576 269.158c-17.885 44.979-60.012 76.68-109.826 79.093l-121.886 0.011c-50.116-2.413-92.259-34.125-109.849-78.28l-65.527-194.344c-0.224-0.688-0.352-1.36-0.56-2.032l-24.896-73.792c-1.21-3.452-1.91-7.432-1.91-11.575 0-15.773 10.135-29.179 24.249-34.061z" />
<glyph unicode="&#xe612;" glyph-name="Male" horiz-adv-x="363" d="M181.363 772.248c-51.877 0.026-93.922 42.087-93.922 93.968 0 51.897 42.071 93.968 93.968 93.968s93.968-42.071 93.968-93.968c0-18.71-5.468-36.143-14.894-50.788-16.603-25.967-45.688-43.18-78.793-43.18-0.115 0-0.23 0-0.345 0.001zM-36.605 604.504v-239.312c-0.010-0.32-0.016-0.696-0.016-1.073 0-19.891 16.125-36.016 36.016-36.016s36.016 16.125 36.016 36.016c0 0.377-0.006 0.754-0.017 1.128l0.001 221.561c0 9.15 7.418 16.568 16.568 16.568s16.568-7.418 16.568-16.568v-602.832c0-26.598 21.562-48.16 48.16-48.16s48.16 21.562 48.16 48.16v0 335.616c0 9.243 7.493 16.736 16.736 16.736s16.736-7.493 16.736-16.736v-335.616c0-26.554 21.526-48.080 48.080-48.080s48.080 21.526 48.080 48.080v0 602.832c0 9.15 7.418 16.568 16.568 16.568s16.568-7.418 16.568-16.568v-221.616c-0.010-0.32-0.016-0.696-0.016-1.073 0-19.891 16.125-36.016 36.016-36.016s36.016 16.125 36.016 36.016c0 0.377-0.006 0.754-0.017 1.128l0.001 239.257c-0.236 78.942-64.163 142.875-143.081 143.12h-150.023c-78.948-0.236-142.884-64.172-143.12-143.097z" />
<glyph unicode="&#xe613;" glyph-name="Minus" d="M756.19 362.667h-488.448c-47.128 0-85.333 38.205-85.333 85.333s38.205 85.333 85.333 85.333h488.448c47.128 0 85.333-38.205 85.333-85.333s-38.205-85.333-85.333-85.333zM512 960c-282.77 0-512-229.23-512-512s229.23-512 512-512c282.77 0 512 229.23 512 512s-229.23 512-512 512z" />
<glyph unicode="&#xe614;" glyph-name="Plus" d="M756.19 362.667h-158.857v-158.925c0-47.128-38.205-85.333-85.333-85.333s-85.333 38.205-85.333 85.333v158.925h-158.925c-47.128 0-85.333 38.205-85.333 85.333s38.205 85.333 85.333 85.333h158.925v158.925c0 47.128 38.205 85.333 85.333 85.333s85.333-38.205 85.333-85.333v-158.925h158.857c47.128 0 85.333-38.205 85.333-85.333s-38.205-85.333-85.333-85.333zM512 960c-282.77 0-512-229.23-512-512s229.23-512 512-512c282.77 0 512 229.23 512 512-0.311 282.645-229.355 511.689-511.97 512z" />
<glyph unicode="&#xe615;" glyph-name="Pencil" d="M994.101 864.439l-65.936 65.872c-19.124 19.83-45.924 32.145-75.601 32.145-28.081 0-53.587-11.026-72.425-28.985-24.166-24.184-45.606-45.56-58.79-58.728l217.184-217.12c13.168 13.104 34.608 34.544 58.832 58.768 17.903 18.813 28.918 44.326 28.918 72.412 0 29.683-12.303 56.493-32.088 75.608zM679.925 833.319l217.184-217.184-520.848-520.832c-0.816-0.816-1.984-1.712-2.928-2.528-11.69-10.499-25.093-19.428-39.671-26.266l-302.345-126.822c-14.672-6.144-33.6 13.584-27.712 28.192l126.256 301.040c6.944 14.875 15.341 27.685 25.289 39.11 1.191 1.402 2.631 3.146 3.927 4.442z" />
<glyph unicode="&#xe616;" glyph-name="Pin" horiz-adv-x="776" d="M349.448-32.451c-4.751 8.917-110.635 188.573-130.136 220.662-17.88 29.455-56.049 71.52-56.387 71.948-69.065 59.878-162.924 159.591-162.924 315.399 0 211.993 173.891 384.442 387.595 384.442 214.402 0 388.293-172.607 388.293-384.712 0-152.926-87.914-248.991-164.433-315.624 0.225 0-37.246-42.628-54.923-71.768-18.826-31.031-124.822-212.195-129.416-220.797-6.395-12.633-17.092-31.099-38.823-31.099s-34.949 23.847-38.845 31.549z" />
<glyph unicode="&#xe617;" glyph-name="Star" d="M477.761 929.999c18.889 40.033 49.621 40.033 68.415 0l101.432-215.404c18.858-40.033 68.637-77.939 110.67-84.352l226.801-34.477c42.065-6.413 51.557-37.144 21.175-68.32l-164.164-167.688c-30.414-31.017-49.367-92.479-42.16-136.417l38.7-236.737c7.175-43.874-17.747-62.859-55.335-42.287l-202.8 111.94c-37.684 20.794-99.209 20.794-136.798 0l-202.863-111.94c-37.684-20.572-62.573-1.587-55.272 42.287l38.636 236.737c7.302 43.938-11.842 105.4-42.351 136.417l-164.005 167.688c-30.414 31.176-20.953 61.907 21.175 68.32l226.801 34.477c41.938 6.413 91.812 44.319 110.543 84.352l101.4 215.404z" />
<glyph unicode="&#xe800;" glyph-name="Afternoon" horiz-adv-x="1026" d="M512.383 706.204c-142.252 0-257.57-115.318-257.57-257.57s115.318-257.57 257.57-257.57c142.252 0 257.57 115.318 257.57 257.57-0.019 142.244-115.326 257.551-257.568 257.57zM292.018 673.027c8.543 8.512 13.828 20.287 13.828 33.297s-5.286 24.785-13.827 33.296l-73.047 73.047c-8.598 9.028-20.71 14.643-34.133 14.643-26.015 0-47.104-21.089-47.104-47.104 0-13.423 5.615-25.535 14.624-34.115l73.099-73.064c8.518-8.516 20.284-13.783 33.28-13.783s24.762 5.267 33.28 13.783zM872.285 84.568c8.526 8.519 13.8 20.292 13.8 33.297s-5.274 24.778-13.8 33.297l-73.046 73.046c-8.432 8.030-19.869 12.971-32.461 12.971-26.015 0-47.104-21.089-47.104-47.104 0-12.592 4.941-24.029 12.989-32.48l73.027-73.026c8.523-8.518 20.295-13.786 33.297-13.786s24.774 5.268 33.297 13.786zM214.843 88.63l73.079 73.045c8.735 8.558 14.151 20.476 14.151 33.658 0 26.015-21.089 47.104-47.104 47.104-13.191 0-25.116-5.422-33.667-14.16l-73.054-73.054c-9.028-8.598-14.643-20.71-14.643-34.133 0-26.015 21.089-47.104 47.104-47.104 13.423 0 25.535 5.615 34.115 14.624zM803.267 668.896l73.079 73.045c9.028 8.598 14.643 20.71 14.643 34.133 0 26.015-21.089 47.104-47.104 47.104-13.423 0-25.535-5.615-34.115-14.624l-73.098-73.065c-9.028-8.598-14.643-20.71-14.643-34.133 0-26.015 21.089-47.104 47.104-47.104 13.423 0 25.535 5.615 34.115 14.624zM197.878 451.501c0 0 0 0 0 0 0 25.996-21.074 47.070-47.070 47.070-0.012 0-0.024 0-0.036 0h-103.32c-25.464-0.707-45.836-21.518-45.836-47.087s20.373-46.38 45.771-47.085l103.387-0.001c26.015 0 47.104 21.089 47.104 47.104zM1024.383 445.767c0 26.015-21.089 47.104-47.104 47.104 0 0 0 0 0 0h-103.322c0 0 0 0 0 0-26.015 0-47.104-21.089-47.104-47.104s21.089-47.104 47.104-47.104c0 0 0 0 0 0h103.287c0.010 0 0.022 0 0.034 0 26.015 0 47.104 21.089 47.104 47.104 0 0 0 0 0 0zM556.756-16.262v103.287c0.011 0.378 0.017 0.822 0.017 1.268 0 26.015-21.089 47.104-47.104 47.104s-47.104-21.089-47.104-47.104c0-0.446 0.006-0.89 0.019-1.333l-0.001-103.222c-0.011-0.378-0.017-0.822-0.017-1.268 0-26.015 21.089-47.104 47.104-47.104s47.104 21.089 47.104 47.104c0 0.446-0.006 0.89-0.019 1.333zM515.25 763.104c-26.015 0-47.104 21.089-47.104 47.104 0 0 0 0 0 0v103.322c0 0 0 0 0 0 0 26.015 21.089 47.104 47.104 47.104s47.104-21.089 47.104-47.104c0 0 0 0 0 0v-103.322c0-26.015-21.089-47.104-47.104-47.104z" />
<glyph unicode="&#xe801;" glyph-name="Check" horiz-adv-x="1292" d="M1144.177 947.233l-3.677-1.943c-136.899-68.762-285.663-198.305-291.769-203.718-161.253-141.201-309.462-300.997-420.757-453.438l-44.962 56.758c-50.166 63.211-83.263 105.189-103.732 129.266-36.011 41.77-73.064 84.859-132.389 84.859-27.338 0-56.48-9.020-91.728-27.963-41.285-22.342-55.162-51.97-55.162-82.014 0.139-45.725 32.126-92.492 48.293-116.014 28.032-38.995 53.566-75.076 79.655-111.92 46.627-65.778 94.573-133.638 159.935-222.036 32.542-43.644 71.468-63.072 126.768-63.072 64.321 0 97.904 35.040 124.34 73.064 25.881 36.775 50.374 75.908 76.602 117.193 75.561 120.107 169.58 269.704 357.824 457.671 1.457 1.596 162.502 163.543 271.993 231.819 3.886 1.735 6.73 4.718 20.122 14.64 19.567 15.751 26.505 30.599 26.505 44.199 0 21.787-18.11 40.036-29.905 52.248-20.746 21.44-44.893 33.167-70.704 33.167-15.404 0-31.154-4.094-47.252-12.767z" />
<glyph unicode="&#xe802;" glyph-name="Evening" horiz-adv-x="1347" d="M225.595 390.555h-128.009c0 0 0 0 0 0-32.226 0-58.351-26.124-58.351-58.351s26.124-58.351 58.351-58.351c0 0 0 0 0 0h128.009c32.226 0 58.351 26.124 58.351 58.351s-26.124 58.351-58.351 58.351zM400.538 606.742c10.55 10.558 17.075 25.139 17.075 41.244s-6.525 30.686-17.075 41.245l-90.606 90.606c-10.479 10.116-24.764 16.349-40.505 16.349-32.226 0-58.351-26.124-58.351-58.351 0-15.732 6.226-30.010 16.348-40.504l90.59-90.589c10.55-10.567 25.134-17.105 41.244-17.105s30.694 6.537 41.243 17.104zM735.348 776.684v127.864c0 32.226-26.124 58.351-58.351 58.351s-58.351-26.124-58.351-58.351v-127.973c0-32.226 26.124-58.351 58.351-58.351s58.351 26.124 58.351 58.351zM992.671 328.653c-0.492 175.771-143.095 318.070-318.934 318.070-176.143 0-318.935-142.792-318.935-318.935 0-44.305 9.034-86.5 25.36-124.843l587.538 2.085c15.742 36.39 24.899 78.764 24.899 123.278 0 0.122 0 0.243 0 0.365zM1124.485 692.13c11.009 10.628 17.846 25.517 17.846 42.002 0 32.226-26.124 58.351-58.351 58.351-16.494 0-31.39-6.844-42.003-17.847l-90.623-90.624c-10.555-10.555-17.084-25.137-17.084-41.244 0-32.214 26.114-58.328 58.328-58.328 16.107 0 30.689 6.529 41.244 17.084zM1307.764 325.101c0 0.011 0 0.023 0 0.036 0 32.206-26.108 58.314-58.314 58.314 0 0 0 0 0 0h-128.045c-32.226 0-58.351-26.124-58.351-58.351s26.124-58.351 58.351-58.351h128.009c0 0 0 0 0 0 32.206 0 58.314 26.108 58.314 58.314 0 0.013 0 0.025 0 0.038zM1333.315 105.362c-0.041 14.996-12.186 27.141-27.178 27.182h-1265.271c-15.012 0-27.182-12.17-27.182-27.182s12.17-27.182 27.182-27.182h25.732c32.618-1.885 109.598-7.249 205.931-21.129 68.432-9.063 128.743-21.658 187.388-38.223 82.105-26.449 155.459-54.329 226.917-85.728l-11.867 5.8c56.657 25.6 130.012 53.48 205.043 77.623 65.712 18.867 126.023 31.462 187.691 39.781 103.103 14.483 180.227 19.992 212.737 21.877h25.696c14.996 0.041 27.141 12.186 27.182 27.178z" />
<glyph unicode="&#xe803;" glyph-name="Midnight" horiz-adv-x="1041" d="M860.402 885.927c-5.369 5.285-3.721 10.485 3.763 11.584l40.25 5.835c8.47 1.808 15.463 7.042 19.584 14.148l18.045 36.587c3.34 6.765 8.836 6.765 12.176 0l17.969-36.445c4.197-7.248 11.189-12.482 19.466-14.255l40.444-5.869c7.441-1.099 9.132-6.3 3.763-11.584l-29.13-28.369c-4.781-5.191-7.711-12.15-7.711-19.793 0-1.16 0.067-2.304 0.199-3.428l6.879-39.944c1.268-7.441-3.129-10.654-9.809-7.145l-36.022 18.941c-3.563 1.661-7.735 2.631-12.134 2.631s-8.571-0.969-12.315-2.706l-35.841-18.866c-6.638-3.509-11.077-0.296-9.809 7.145l6.849 40.081c0.126 1.018 0.198 2.195 0.198 3.39 0 7.607-2.92 14.531-7.7 19.715zM233.53 458.062c-5.412 5.285-3.721 10.485 3.763 11.542l40.25 5.835c8.47 1.808 15.463 7.042 19.584 14.148l18.045 36.629c3.34 6.765 8.794 6.765 12.134 0l18.011-36.487c4.197-7.248 11.189-12.482 19.466-14.255l40.444-5.869c7.441-1.057 9.132-6.257 3.763-11.542l-29.13-28.412c-4.781-5.191-7.711-12.15-7.711-19.793 0-1.16 0.067-2.304 0.199-3.428l6.879-39.944c1.268-7.441-3.129-10.654-9.809-7.145l-36.022 18.941c-3.559 1.682-7.732 2.665-12.134 2.665s-8.575-0.982-12.311-2.739l-35.845-18.866c-6.68-3.509-11.077-0.296-9.809 7.145l6.849 40.081c0.122 1.004 0.192 2.167 0.192 3.347 0 7.619-2.917 14.558-7.695 19.759zM178.567 97.21c3.112 5.81 9.142 9.695 16.078 9.695 0.905 0 1.795-0.066 2.665-0.194 17.387-2.629 37.564-4.138 58.093-4.138 226.496 0 410.107 183.611 410.107 410.107 0 108.291-41.973 206.779-110.537 280.084-2.81 2.994-4.668 7.346-4.668 12.132 0 9.994 8.102 18.095 18.095 18.095 0.917 0 1.819-0.068 2.699-0.2 217.243-32.356 382.073-217.683 382.073-441.509 0-246.39-199.739-446.129-446.129-446.129-0.138 0-0.275 0-0.413 0-128.294 0.145-243.917 54.368-325.305 141.099-3.245 3.466-5.101 7.816-5.101 12.599 0 3.054 0.757 5.932 2.093 8.456zM8.943 795.153l40.25 5.835c8.47 1.808 15.463 7.042 19.584 14.148l18.045 36.629c3.34 6.765 8.794 6.765 12.134 0l18.011-36.487c4.197-7.248 11.189-12.482 19.466-14.255l40.444-5.869c7.441-1.057 9.132-6.257 3.763-11.542l-29.13-28.412c-4.781-5.191-7.711-12.15-7.711-19.793 0-1.16 0.067-2.304 0.199-3.428l6.879-39.944c1.268-7.441-3.129-10.654-9.809-7.145l-36.022 18.941c-3.559 1.682-7.732 2.665-12.134 2.665s-8.575-0.982-12.311-2.739l-35.845-18.866c-6.68-3.509-11.077-0.296-9.809 7.145l6.849 40.081c0.121 1 0.19 2.158 0.19 3.332 0 7.624-2.916 14.566-7.693 19.773l-29.111 28.39c-5.412 5.285-3.721 10.485 3.763 11.542z" />
<glyph unicode="&#xe804;" glyph-name="Morning" horiz-adv-x="1348" d="M233.108 387.665h-128.118c0 0 0 0 0 0-32.226 0-58.351-26.124-58.351-58.351s26.124-58.351 58.351-58.351c0 0 0 0 0 0h127.973c0 0 0 0 0 0 32.226 0 58.351 26.124 58.351 58.351s-26.124 58.351-58.351 58.351c0 0 0 0 0 0zM408.051 603.852c10.567 10.55 17.105 25.134 17.105 41.244s-6.537 30.694-17.104 41.243l-90.607 90.607c-10.479 10.116-24.764 16.349-40.505 16.349-32.226 0-58.351-26.124-58.351-58.351 0-15.732 6.226-30.010 16.348-40.504l90.59-90.589c10.55-10.567 25.134-17.105 41.244-17.105s30.694 6.537 41.243 17.104zM742.861 773.686v127.973c0 32.216-26.116 58.333-58.333 58.333s-58.333-26.116-58.333-58.333c0 0 0 0 0 0v-127.973c0-32.216 26.116-58.333 58.333-58.333s58.333 26.116 58.333 58.333c0 0 0 0 0 0zM1000.184 325.763c0.003 0.501 0.004 1.093 0.004 1.686 0 176.143-142.792 318.935-318.935 318.935s-318.935-142.792-318.935-318.935c0-81.042 30.227-155.025 80.022-211.288 3.875 1.388 6.956 2.077 11.45 3.237 90.411 28.444 162.921 56.028 233.57 87.066l-7.488-4.324 10.039-1.45c55.885-25.243 128.407-52.826 202.573-76.749 20.609-5.703 23.835-6.391 28.003-7.443 49.323 55.411 79.517 128.795 79.698 209.227zM1132.071 689.24c10.105 10.477 16.331 24.755 16.331 40.486 0 32.226-26.124 58.351-58.351 58.351-15.741 0-30.026-6.233-40.522-16.365l-90.59-90.59c-11.009-10.628-17.846-25.517-17.846-42.002 0-32.226 26.124-58.351 58.351-58.351 16.494 0 31.39 6.844 42.003 17.847zM1315.35 322.211c0 32.226-26.124 58.351-58.351 58.351h-128.082c-32.226 0-58.351-26.124-58.351-58.351s26.124-58.351 58.351-58.351h128.009c32.226 0 58.351 26.124 58.351 58.351zM1333.797-36.809c-0.041 14.996-12.186 27.141-27.178 27.182h-25.736c-32.618 1.885-109.598 7.249-205.931 21.129-68.431 9.062-128.742 21.657-187.387 38.223-82.104 26.448-155.458 54.329-226.916 85.728l11.865-5.8c-56.656-25.599-130.011-53.48-205.042-77.622-65.713-18.867-126.024-31.462-187.691-39.782-103.103-14.483-180.228-19.992-212.737-21.877h-25.696c-15.012 0-27.182-12.17-27.182-27.182s12.17-27.182 27.182-27.182h1265.304c14.996 0.041 27.141 12.186 27.182 27.178z" />
<glyph unicode="&#xe805;" glyph-name="Left-Carrot" horiz-adv-x="630" d="M526.199 960c-26.283 0-52.565-9.353-72.636-28.262l-411.921-387.482c-26.419-24.986-41.643-60.006-41.643-96.051s15.223-71.066 41.847-96.051l412.877-387.823c40.209-37.82 105.267-37.751 145.476 0.137 40.073 37.888 39.936 99.26-0.273 137.011l-368.981 346.863 367.957 346.112c40.141 37.82 40.277 99.191 0.205 137.148-20.070 18.91-46.49 28.399-72.909 28.399z" />
<glyph unicode="&#xe806;" glyph-name="Right-Carrot" horiz-adv-x="630" d="M103.97-64c26.283 0 52.565 9.353 72.636 28.262l411.921 387.482c26.419 24.986 41.643 60.006 41.643 96.051s-15.223 71.066-41.847 96.051l-412.877 387.823c-40.209 37.82-105.267 37.751-145.476-0.137-40.073-37.888-39.936-99.26 0.273-137.011l368.981-346.863-367.957-346.112c-40.141-37.82-40.277-99.191-0.205-137.148 20.070-18.91 46.49-28.399 72.909-28.399z" />
<glyph unicode="&#xe900;" glyph-name="scienceTech" horiz-adv-x="1031" d="M1030.388-22.544c0-22.875-4.259-41.593-27.099-41.593h-974.37c-22.875 0.137-28.92 18.856-28.92 41.593s6.045 41.559 28.92 41.559h30.912c0.485 8.749 7.668 15.669 16.48 15.731h45.515c8.819-0.079 16.001-6.985 16.518-15.685l40.256-0.046c0.521 8.758 7.721 15.671 16.549 15.731h45.412c8.833-0.043 16.035-6.969 16.519-15.688l40.462-0.043c0.521 8.758 7.721 15.671 16.549 15.731h45.377c8.819-0.079 16.001-6.985 16.518-15.685l40.496-0.046c0.468 8.757 7.661 15.686 16.482 15.731h45.479c8.834-0.060 16.034-6.973 16.553-15.685l40.428-0.046c0.504 8.765 7.714 15.688 16.551 15.731h45.41c8.819-0.079 16.001-6.985 16.518-15.685l40.428-0.046c0.52 8.746 7.701 15.652 16.513 15.731h45.448c8.841-0.042 16.051-6.965 16.553-15.686l40.393-0.044c0.521 8.758 7.721 15.671 16.549 15.731h45.446c8.819-0.079 16.001-6.985 16.518-15.685l40.428-0.046c0.52 8.746 7.701 15.652 16.513 15.731h45.414c8.841-0.042 16.051-6.965 16.553-15.686l32.631-0.044c22.84 0 27.099-18.719 27.099-41.559zM931.299 960h-832.176c-39.2-0.117-70.946-31.863-71.062-71.051v-600.728c0.097-39.214 31.851-70.98 71.051-71.097h260.528l-53.786-96.96c-3.268-3.948-5.25-9.064-5.25-14.643 0-12.728 10.318-23.046 23.046-23.046 1.492 0 2.951 0.142 4.364 0.413l374.539-0.023c1.257-0.243 2.702-0.382 4.179-0.382 12.728 0 23.046 10.318 23.046 23.046 0 5.576-1.98 10.689-5.275 14.675l-53.755 96.921h260.551c39.212 0.117 70.965 31.882 71.062 71.087v600.726c-0.117 39.2-31.863 70.946-71.051 71.062zM922.507 386.177c-0.058-15.683-12.756-28.38-28.433-28.439h-757.753c-15.683 0.058-28.38 12.756-28.439 28.433v465.638c0.058 15.683 12.756 28.38 28.433 28.439h757.753c15.683-0.058 28.38-12.756 28.439-28.433v-465.638z" />
<glyph unicode="&#xe901;" glyph-name="entertainment" horiz-adv-x="1516" d="M1515.54 510.39l-7.578 15.661v2.526l-125.285 261.683-3.536 8.083-6.062 13.135c-5.046 8.228-13.99 13.633-24.197 13.633-4.23 0-8.242-0.928-11.846-2.592l-15.485 0.073c-5.818-0.854-12.533-1.341-19.363-1.341-40.078 0-76.236 16.788-101.823 43.716l-10.666 11.679c-4.722 9.425-14.306 15.782-25.375 15.782-3.4 0-6.66-0.6-9.68-1.699l-20.516-10.041-114.676-55.065 41.425-43.951 12.124-12.124c15.359-16.39 24.792-38.495 24.792-62.804 0-21.582-7.436-41.427-19.886-57.114l-3.391-5.367c-6.147-10.179-9.784-22.472-9.784-35.615s3.637-25.436 9.959-35.929l3.361-5.748c12.132-15.61 19.451-35.487 19.451-57.073 0-24.869-9.714-47.469-25.554-64.214l-11.073-15.617-410.206-410.206c16.296-7.803 30.182-17.974 41.875-30.253 3.78-3.657 7.25-7.447 10.479-11.441 4.906-9.661 14.49-16.018 25.559-16.018 3.4 0 6.66 0.6 9.68 1.699l19.505 9.536 681.993 325.841c6.438 4.425 10.606 11.749 10.606 20.047 0 3.924-0.932 7.629-2.586 10.908l0.064 11.48c-1.394 7.43-2.191 15.978-2.191 24.712 0 44.246 20.461 83.713 52.438 109.455l8.859 7.284c6.166 4.131 10.17 11.071 10.17 18.947 0 3-0.581 5.864-1.637 8.486zM573.885 960c8.142-0.139 15.549-3.175 21.26-8.118l11.072-7.037c18.644-9.775 40.731-15.511 64.158-15.511s45.514 5.736 64.933 15.88l14.38 8.219c5.524 4.839 12.745 7.864 20.667 8.082 0.127 0.002 0.224 0.003 0.321 0.003 6.363 0 12.141-2.503 16.404-6.577l10.095-10.6 6.062-6.062 219.248-218.238c2.63-3.661 4.206-8.233 4.206-13.173 0-6.56-2.779-12.471-7.223-16.621l-5.57-9.611c-12.286-20.443-19.553-45.114-19.553-71.483s7.267-51.040 19.908-72.12l5.708-9.466c4.515-4.408 7.316-10.556 7.316-17.357 0-5.451-1.799-10.482-4.835-14.532l-12.079-15.598-538.522-537.006c-4.045-3.763-9.486-6.073-15.467-6.073-0.246 0-0.49 0.004-0.734 0.012-0.596-0.044-1.334-0.069-2.077-0.069-7.169 0-13.802 2.298-19.202 6.197l-14.048 7.511c-18.644 9.775-40.731 15.511-64.158 15.511s-45.514-5.736-64.933-15.88l-12.865-7.209c-5.524-4.839-12.745-7.864-20.667-8.082-6.911 0.134-13.029 3.227-17.196 8.052l-233.418 233.423c-2.63 3.661-4.206 8.233-4.206 13.173 0 6.56 2.779 12.471 7.223 16.621l5.57 9.611c12.286 20.443 19.553 45.114 19.553 71.483s-7.267 51.040-19.908 72.12l-5.708 9.466c-4.515 4.408-7.316 10.556-7.316 17.357 0 5.451 1.799 10.482 4.835 14.532l13.595 13.577 534.986 539.027c4.048 3.775 9.497 6.093 15.489 6.093 0.416 0 0.829-0.011 1.24-0.033z" />
<glyph unicode="&#xe902;" glyph-name="device" horiz-adv-x="590" d="M523.551 164.504c0-13.868-11.242-25.11-25.11-25.11h-408.043c-13.868 0-25.11 11.242-25.11 25.11v627.759c0 13.868 11.242 25.11 25.11 25.11h409.299c13.868 0 25.11-11.242 25.11-25.11v-627.759zM345.267 5.807h-100.441c-18.766 1.609-33.389 17.239-33.389 36.284s14.623 34.675 33.254 36.275l100.577 0.009c18.766-1.609 33.389-17.239 33.389-36.284s-14.623-34.675-33.254-36.275zM495.929 954.476c-56.247 5.273-173.513 5.524-196.363 5.524h-8.286c-22.85 0-140.367 0-196.614-5.524-62.023-5.775-94.917-40.177-94.917-98.935v-814.831c0-59.009 32.895-93.159 94.917-99.186 56.247-5.273 173.764-5.524 196.865-5.524h7.784c22.85 0 139.865 0 196.112 5.524 62.023 5.775 94.666 40.177 94.666 99.186v814.58c0 59.009-32.643 93.159-94.666 98.935z" />
<glyph unicode="&#xe903;" glyph-name="osSwitch" horiz-adv-x="1937" d="M1494.136-63.626c295.572 0 442.608 120.029 442.608 333.832 0 180.794-150.037 264.064-339.833 306.825-102.775 21.005-177.793 21.005-177.793 75.018s44.261 75.018 132.032 75.018c100.551-3.783 191.133-43.585 259.853-106.789 57.502 29.147 98.541 84.091 107.619 149.267 0.118 97.807-112.41 187.829-369.722 187.829-270.066 0-418.602-124.53-418.602-326.33s165.040-273.067 329.33-306.075c98.274-21.005 176.293-21.005 176.293-81.77s-42.76-75.018-136.533-75.018c-111.688 5.357-212.592 47.561-291.783 114.615-53.189-29.382-91.219-81.796-99.701-143.627-0.112-104.521 103.413-202.795 391.484-202.795zM518.898 207.94c-0.819-0.011-1.785-0.017-2.753-0.017-119.737 0-216.803 97.066-216.803 216.803 0 8.199 0.455 16.291 1.341 24.253-0.089 149.057 84.682 242.080 218.215 242.080s217.553-98.274 217.553-243.059-87.021-240.059-217.553-240.059zM518.898-63.626c6.573-0.312 14.276-0.489 22.021-0.489 273.862 0 495.871 222.009 495.871 495.871 0 5.712-0.097 11.401-0.288 17.067 0.209 4.253 0.315 10.217 0.315 16.205 0 273.448-221.673 495.121-495.121 495.121-8.019 0-15.993-0.191-23.918-0.568-5.445 0.353-13.141 0.53-20.877 0.53-274.276 0-496.621-222.345-496.621-496.621 0-5.447 0.088-10.874 0.262-16.28-0.19-4.063-0.287-9.765-0.287-15.488 0-273.862 222.009-495.871 495.871-495.871 8.010 0 15.975 0.19 23.891 0.565z" />
<glyph unicode="&#xe904;" glyph-name="visitors" horiz-adv-x="886" d="M407.405 352.087c5.616 18.411 11.867 34.005 19.249 48.941 2.634 5.491 6.417 11.803 10.742 17.693 4.15 5.673 8.692 10.961 13.613 15.869-7.778 37.339-18.664 70.205-32.78 101.293-12.623 28.007-54.153 53.34-109.527 66.214h-1.384l2.077 1.523c26.085 17.414 45.417 43.17 54.306 73.398 3.566 11.84 5.487 24.368 5.498 37.343 0 0.040 0 0.080 0 0.121 0 73.32-59.437 132.758-132.758 132.758s-132.758-59.437-132.758-132.758c0-45.343 22.732-85.376 57.42-109.326 1.691-1.12 2.66-2.089 4.044-2.92h-2.492c-46.791-10.521-84.168-30.732-102.302-55.373-2.64-3.566-5.042-7.61-7.021-11.891-5.903-11.957-11.359-25.723-15.713-39.969-11.4-37.092-21.746-81.099-29.374-126.032-3.266-19.514-5.066-31.004-6.589-39.448-0.973-4.662-1.574-10.055-1.66-15.573-0.001-38.555 41.529-72.332 103.409-92.405 38.653-12.22 83.107-19.261 129.205-19.261 1.444 0 2.885 0.007 4.326 0.021 1.107-0.016 2.674-0.025 4.244-0.025 48.607 0 95.343 8.014 138.957 22.792 5.937 49.875 16.502 92.979 29.499 135.015zM884.724 176c0.816-4.013 1.283-8.626 1.283-13.348 0-0.807-0.014-1.611-0.041-2.411 0.003-61.625-105.068-111.461-236.302-111.461-1.22-0.012-2.662-0.019-4.106-0.019-46.098 0-90.552 7.041-132.344 20.107-59.295 19.228-100.271 53.005-100.271 91.49 0.087 5.588 0.687 10.98 1.757 16.203 1.427 7.885 3.226 19.236 5.58 32.387 8.828 51.155 19.354 94.75 32.378 137.252 2.814 8.418 8.27 22.183 14.729 35.367 1.438 3.058 3.84 7.102 6.604 10.863 18.135 24.859 55.235 45.070 102.164 55.176h2.492c-1.246 0.831-2.353 1.8-3.599 2.63-25.095 17.267-43.76 42.303-52.635 71.593-3.585 12.028-5.507 24.763-5.507 37.947 0 73.32 59.437 132.758 132.758 132.758 73.285 0 132.701-59.381 132.758-132.653-0.010-12.987-1.931-25.515-5.498-37.329-8.911-30.242-28.237-55.992-53.823-73.119l-2.421-1.827h1.384c55.373-12.182 96.903-37.515 110.747-69.217 20.35-39.73 37.1-119.053 46.375-170.412 2.353-13.151 4.291-24.503 5.676-32.947z" />
<glyph unicode="&#xe905;" glyph-name="alert" horiz-adv-x="1161" d="M1024 92.496c0.001-0.149 0.001-0.326 0.001-0.503 0-30.581-14.064-57.877-36.078-75.772-23.236-17.252-52.253-27.533-83.672-27.533-1.968 0-3.927 0.040-5.875 0.12l-773.033-0.009c-1.631-0.068-3.545-0.106-5.468-0.106-31.453 0-60.501 10.303-83.95 27.718-21.843 17.769-35.927 45.081-35.927 75.683 0 0.141 0 0.281 0.001 0.422 0 0.234 0 0.506 0 0.762 0 0.912 0.192 1.824 0.224 2.736 0.201 7.014 0.966 13.713 2.255 20.224 3.775 18.853 10.622 36.293 20.018 52.034l386.415 669.038c24.048 42.368 61.040 69.888 102.928 69.888h0.32c41.904 0 78.88-27.584 102.944-69.952l386.816-669.712c8.982-14.987 15.829-32.427 19.552-50.996 1.349-6.813 2.115-13.524 2.301-20.38 0.003-1.073 0.227-2.001 0.227-2.897 0-0.24 0-0.464 0-0.768zM459.056 594.768l22.736-246.816c1.456-10.576 4.448-32.592 25.28-32.592h8.32c21.616 0 25.296 20.192 27.584 33.056l21.904 245.872c0.817 3.4 1.285 7.304 1.285 11.316 0 11.461-3.82 22.031-10.256 30.504-7.939 8.274-19.232 13.495-31.744 13.495-0.953 0-1.899-0.030-2.837-0.090l-18.784 0.007c-0.808 0.053-1.751 0.083-2.701 0.083-12.518 0-23.815-5.227-31.827-13.618-6.361-8.307-10.183-18.821-10.183-30.228 0-3.896 0.446-7.687 1.289-11.326zM566.48 185.072c0.126 1.273 0.198 2.751 0.198 4.246 0 25.158-20.394 45.552-45.552 45.552-1.495 0-2.973-0.072-4.432-0.213l-10.391 0.014c-1.152 0.104-2.493 0.164-3.847 0.164-24.963 0-45.2-20.237-45.2-45.2 0-1.607 0.084-3.195 0.248-4.759l-0.017-8.877c-0.154-1.387-0.241-2.996-0.241-4.625 0-24.539 19.893-44.432 44.432-44.432 1.629 0 3.238 0.088 4.822 0.259l10.38-0.017c1.507-0.18 3.253-0.282 5.023-0.282 24.742 0 44.8 20.058 44.8 44.8 0 1.514-0.075 3.010-0.222 4.485z" />
<glyph unicode="&#xe906;" glyph-name="websites" horiz-adv-x="1331" d="M1177.782 361.704c-0.185-8.605-7.204-15.51-15.837-15.51-0.001 0-0.002 0-0.004 0h-397.324c-0.001 0-0.002 0-0.003 0-8.632 0-15.652 6.905-15.836 15.493v251.48c-0.020 0.296-0.031 0.642-0.031 0.99 0 8.748 7.092 15.84 15.84 15.84 0.011 0 0.022 0 0.033 0h396.002c0.001 0 0.002 0 0.003 0 8.632 0 15.652-6.905 15.836-15.493v-252.8zM682.777 102.652c-0.185-8.605-7.204-15.51-15.837-15.51-0.001 0-0.002 0-0.004 0h-496.325c-0.001 0-0.002 0-0.003 0-8.632 0-15.652 6.905-15.836 15.493v510.532c-0.020 0.296-0.031 0.642-0.031 0.99 0 8.748 7.092 15.84 15.84 15.84 0.011 0 0.022 0 0.033 0h496.653c0.001 0 0.002 0 0.003 0 8.632 0 15.652-6.905 15.836-15.493v-511.522zM1144.781 87.141h-363.004c-18.226 0-33 14.775-33 33s14.775 33 33 33h363.004c18.226 0 33-14.775 33-33s-14.775-33-33-33zM1144.781 216.503h-363.004c-18.226 0-33 14.775-33 33s14.775 33 33 33h363.004c18.226 0 33-14.775 33-33s-14.775-33-33-33zM1243.782 37.971c-0.185-8.605-7.204-15.51-15.837-15.51-0.001 0-0.002 0-0.004 0h-1123.331c-0.001 0-0.002 0-0.003 0-8.632 0-15.652 6.905-15.836 15.493v648.474c0.185 8.605 7.204 15.51 15.837 15.51 0.001 0 0.002 0 0.004 0h1122.011c0.001 0 0.002 0 0.003 0 8.632 0 15.652-6.905 15.836-15.493v-648.474zM137.611 873.539c24.319-0.372 43.89-20.173 43.89-44.546 0-24.605-19.946-44.55-44.55-44.55-24.603 0-44.548 19.943-44.55 44.545 0.186 24.645 20.208 44.552 44.879 44.552 0.116 0 0.233 0 0.349-0.001zM284.463 873.539c24.319-0.372 43.89-20.173 43.89-44.546 0-24.605-19.946-44.55-44.55-44.55s-44.548 19.943-44.55 44.545c0.186 24.645 20.208 44.552 44.879 44.552 0.116 0 0.233 0 0.349-0.001zM431.314 873.539c24.319-0.372 43.89-20.173 43.89-44.546 0-24.605-19.946-44.55-44.55-44.55s-44.548 19.943-44.55 44.545c0.372 24.684 20.469 44.551 45.206 44.551 0.002 0 0.003 0 0.005 0zM1226.622 960h-1122.011c-0.197 0.001-0.429 0.002-0.662 0.002-56.45 0-102.256-45.575-102.629-101.938v-820.094c0.559-56.255 46.292-101.643 102.626-101.643 0.234 0 0.467 0.001 0.701 0.002h1121.975c0.099 0 0.217-0.001 0.335-0.001 56.516 0 102.397 45.535 102.956 101.919v820.111c-0.744 56.293-46.553 101.642-102.953 101.642-0.119 0-0.238 0-0.357-0.001z" />
<glyph unicode="&#xe907;" glyph-name="Frequency" horiz-adv-x="1075" d="M807.882 120.252c0 0 0 0 0 0 0-6.841-5.54-12.389-12.378-12.402h-271.293v665.395h271.292c6.832-0.013 12.366-5.547 12.379-12.378zM426.248 340.548c-0.007 0-0.015 0-0.023 0-23.237 0-42.075 18.838-42.075 42.075s18.838 42.075 42.075 42.075c23.237 0 42.075-18.838 42.075-42.075-0.026-23.219-18.835-42.036-42.049-42.075zM795.503 842.058h-271.292v88.951c0.060 0.669 0.093 1.448 0.093 2.235 0 14.604-11.699 26.476-26.236 26.755-5.388-0.074-10.422-1.412-14.864-3.727l-255.521-126.479c-16.957-9.477-28.449-26.953-29.373-47.185l-0.005-685.066c0.893-20.409 12.889-37.819 30.064-46.415l255.040-112.1c4.008-1.867 8.695-2.978 13.636-3.026 15.090 0.175 27.241 12.435 27.241 27.532 0 0.721-0.028 1.436-0.082 2.144l0.006 73.361h271.292c44.828 0.052 81.153 36.385 81.192 81.211v640.618c-0.052 44.82-36.372 81.14-81.187 81.192z" />
<glyph unicode="&#xe908;" glyph-name="family" horiz-adv-x="1142" d="M1292.974 328.312c0 10.187-3.881 24.254-6.791 40.261-11.87 78.357-31.671 148.736-58.995 215.229-28.052 39.42-76.569 70.823-132.67 77.668l-0.911 0.091h2.425c32.025 21.345 55.757 52.948 66.651 90.042 4.293 14.351 6.597 29.521 6.597 45.229 0 0.194 0 0.387-0.001 0.581 0.001 0.183 0.002 0.435 0.002 0.688 0 90.015-72.971 162.986-162.986 162.986s-162.986-72.971-162.986-162.986c0-55.986 28.228-105.378 71.228-134.722l4.928-3.758h-2.91c-38.83-7.881-73.091-23.452-102.584-45.131 0.718-4.832 0.718-10.653 0.718-15.989-0.050-24.045-3.591-47.244-10.143-69.143-4.508-16.845-10.803-32.968-18.637-48.169 37.68-18.776 67.122-48.842 85.966-85.276 28.041-65.102 49.839-139.644 62.376-217.287 21.805-8.265 46.225-9.849 71.004-9.905 161.116 0 291.117 61.12 291.117 136.792 0.358 2.912 0.563 6.283 0.563 9.702s-0.204 6.79-0.602 10.101zM242.295 332.193c7.596 24.705 15.993 45.594 25.88 65.615 3.779 8.045 9.117 17.116 15.215 25.604 18.407 24.133 41.487 44.427 67.911 59.541-5.849 13.265-12.11 28.050-16.87 43.492-6.614 22.225-10.158 45.79-10.158 70.183 0 0.147 0 0.293 0 0.44 0 5.798 0 11.134 0 16.47-29.285 21.61-64.237 37.383-102.172 44.844l-1.635 0.268h2.425c31.996 21.375 55.716 52.966 66.648 90.038 4.295 14.439 6.599 29.704 6.599 45.507 0 0.097 0 0.195 0 0.292 0.001 0.198 0.002 0.45 0.002 0.703 0 90.015-72.971 162.986-162.986 162.986s-162.986-72.971-162.986-162.986c0-55.986 28.228-105.378 71.228-134.722l4.928-3.758h-2.91c-50.272-8.108-93.705-32.807-125.46-68.197-3.366-4.547-6.28-9.484-8.687-14.703-6.982-13.91-13.559-29.965-18.93-46.562-14.222-45.039-27.188-98.455-36.857-153.010-4.098-24.096-6.039-38.163-7.979-48.35-0.278-2.907-0.436-6.286-0.436-9.702s0.158-6.794 0.468-10.129c-0.032-48.080 48.476-88.342 126.573-112.596 47.498-15.092 102.127-23.789 158.787-23.789 1.647 0 3.292 0.007 4.935 0.022 24.959 0.073 49.718 1.657 74.037 4.665 8.435 62.936 21.721 116.469 37.993 168.685zM875.807 100.81c0.361-3.057 0.568-6.598 0.568-10.187s-0.206-7.13-0.607-10.611c0.040-79.613-135.782-145.099-305.559-145.099-63.571 0.721-124.346 11.675-181.082 31.286-76.979 24.983-129.853 68.64-129.853 118.118-0.287 3.052-0.45 6.6-0.45 10.187s0.164 7.134 0.484 10.637c-0.033 10.221 4.332 25.259 7.243 42.236 11.483 66.203 25.122 122.562 41.973 177.517 3.742 10.559 10.819 28.070 19.139 44.856 1.798 3.976 4.876 9.233 8.433 14.119 33.484 37.285 79.252 63.369 130.945 71.842l4.698 0.176-3.396 2.425c-32.431 22.281-56.564 54.589-68.076 92.397-4.632 15.441-7.114 31.782-7.114 48.702 0 0.362 0.001 0.723 0.003 1.084 0 94.781 76.88 171.662 171.717 171.662s171.718-76.881 171.718-171.718c0.002-0.326 0.004-0.711 0.004-1.097 0-16.897-2.483-33.214-7.103-48.606-11.431-39.471-36.556-73.099-69.889-95.427l-3.050-0.394c61.062-6.68 113.176-40.056 145.065-88.035 26.953-64.259 47.93-138.375 59.906-215.467 3.613-22.47 6.038-37.022 7.979-48.179z" />
<glyph unicode="&#xe909;" glyph-name="autoTravel" horiz-adv-x="1393" d="M1380.659 35.846c-11.499-13.944-28.777-22.765-48.115-22.765-0.391 0-0.78 0.004-1.169 0.011l-57.527-0.001c0 66.428-53.851 120.279-120.279 120.279s-120.279-53.851-120.279-120.279h-688.704c0 66.428-53.851 120.279-120.279 120.279s-120.279-53.851-120.279-120.279h-46.44c-1.064-0.070-2.306-0.11-3.558-0.11-17.008 0-32.294 7.373-42.835 19.098-7.726 9.001-12.401 20.722-12.401 33.535 0 3.933 0.441 7.764 1.275 11.445 5.782 26.94 12.182 49.652 19.809 71.793 5.722 22.633 29.856 42.219 58.564 42.219 1.323 0 2.636-0.042 3.938-0.124l10.503 0.009c2.217-0.239 4.789-0.376 7.392-0.376 24.179 0 45.609 11.769 58.873 29.892l12.682 12.744 50.62 53.406c18.083 19.181 43.663 31.124 72.032 31.124 0.472 0 0.943-0.003 1.414-0.010l729.035 0.001c1.959 0.124 4.248 0.194 6.553 0.194 29.518 0 56.332-11.571 76.157-30.424l70.078-62.65c6.441-6.724 14.857-11.508 24.316-13.417 4.477-0.050 110.825-20.484 125.221-24.199 23.641-5.966 42.18-23.429 49.551-45.947 5.712-18.14 16.394-53.898 16.394-55.292 1.029-4.106 1.62-8.821 1.62-13.673 0-13.85-4.812-26.575-12.854-36.597zM1154.961 90.18c0 0 0 0 0 0 42.576 0 77.090-34.514 77.090-77.090s-34.514-77.090-77.090-77.090c-42.576 0-77.090 34.514-77.090 77.090 0 0 0 0 0 0 0 42.576 34.514 77.090 77.090 77.090zM147.215 13.090c0.001-42.575 34.515-77.089 77.090-77.089s77.090 34.514 77.090 77.090c0 42.576-34.514 77.090-77.090 77.090-0.163 0-0.326-0.001-0.489-0.002-42.351-0.263-76.601-34.676-76.601-77.089 0 0 0-0.001 0-0.001zM1360.225 567.118c0-69.195-175.543-62.229-228.484-62.229h-724.927c-0.702-0.007-1.532-0.011-2.362-0.011-64.38 0-122.987 24.718-166.848 65.181-18.702 21.051-36.717 44.23-53.146 68.567l-42.815 2.332c-46.44 0-67.338 0-85.449 25.078-6.966 11.146-9.752 14.396-16.254 26.006-4.849 6.533-7.762 14.756-7.762 23.659 0 22.057 17.881 39.938 39.938 39.938 2.084 0 4.13-0.16 6.127-0.467 0.133 0.015 0.551 0.008 0.972 0.008 19.493 0 35.294 15.802 35.294 35.294 0 9.586-3.822 18.28-10.025 24.641-23.677 35.751-51.077 78.476-58.043 92.873-2.944 4.92-4.684 10.854-4.684 17.194 0 18.411 14.676 33.393 32.967 33.889l64.597 0.001c1.249 0.1 2.703 0.158 4.172 0.158 16.92 0 32.064-7.604 42.202-19.581 46.507-46.521 129.634-126.398 157.034-149.618 65.016-55.728 116.564-54.335 195.048-54.335h440.25c74.304 0 154.645 4.18 193.654-46.44 14.731-20.765 36.118-35.964 61.007-42.554 82.492-19.211 126.61-35.465 126.61-78.654z" />
<glyph unicode="&#xe90a;" glyph-name="business" horiz-adv-x="1059" d="M571.321 748.138h-519.415c-29.616-4.927-51.917-30.359-51.917-60.999 0-0.403 0.004-0.806 0.012-1.208l-0.001-686.373c-0.009-0.407-0.015-0.887-0.015-1.369 0-30.918 22.2-56.652 51.53-62.129l301.588-0.061v247.172c0 7.062 10.946 0 18.361 0h120.408c7.062 0 2.825 5.65 2.825 0v-247.172h141.241v749.992c-5.175 32.856-31.428 58.268-64.272 62.113zM247.172 77.241c0-7.062 11.652 0 4.59 0h-120.408c-7.062 0-25.423-5.297-25.423 0v105.931c0 7.062 18.361 0 25.423 0h120.408c7.062 0-4.59 5.65-4.59 0v-105.931zM247.172 292.634c0-3.531 11.652-3.531 4.59-3.531h-120.408c-7.062 0-25.423 0-25.423 5.297v102.753c0 7.062 18.361-2.119 25.423-2.119h120.408c7.062 0-4.59 9.181-4.59 2.119v-102.753zM247.172 508.028c0-7.062 11.652-9.181 4.59-9.181h-120.408c-0.817-0.084-1.766-0.132-2.727-0.132-9.268 0-17.493 4.463-22.644 11.357l-0.053 102.474c4.465 12.964 13.501 23.376 25.139 29.524l120.693 0.137c7.062 0-4.59-22.246-4.59-29.661v-102.753zM494.345 264.739c0-7.216-5.849-13.065-13.065-13.065 0 0 0 0 0 0h-115.112c-0.051-0.001-0.112-0.001-0.173-0.001-7.216 0-13.065 5.849-13.065 13.065 0 0.749 0.063 1.483 0.184 2.197l-0.011 115.035c0 7.216 5.849 13.065 13.065 13.065 0 0 0 0 0 0h115.465c0 0 0 0 0 0 7.216 0 13.065-5.849 13.065-13.065 0 0 0 0 0 0v-115.465zM494.345 508.028c0-7.062 4.59-9.181-2.825-9.181h-120.055c-7.062 0-18.361 2.119-18.361 9.181v104.519c1.667 12.409 8.494 22.955 18.214 29.566l120.556 0.095c2.896-5.248 4.601-11.504 4.601-18.159 0-4.108-0.65-8.064-1.852-11.772l0.076-102.483zM1007.404 960h-482.692c-32.326-0.207-59.24-23.123-65.601-53.587l-0.077-122.965h112.287c1.711 0.111 3.709 0.175 5.723 0.175 51.874 0 93.926-42.052 93.926-93.926 0-1.303-0.027-2.6-0.079-3.89l0.006-749.807h336.508c29.721 5.538 51.921 31.272 51.921 62.19 0 0.481-0.005 0.961-0.016 1.44l0.001 906.345c0 0.012 0 0.027 0 0.042 0 29.092-22.995 52.813-51.8 53.98zM953.379 77.241c0-7.062-18.361 0-25.423 0h-120.408c-7.062 0 4.59-5.297 4.59 0v105.931c0 7.062-11.652 0-4.59 0h120.408c7.062 0 25.423 5.65 25.423 0v-105.931zM953.379 292.634c0-7.062-18.361-5.297-25.423-5.297h-120.408c-7.062 0 4.59 0 4.59 5.297v104.519c0 7.062-11.652-2.119-4.59-2.119h120.408c7.062 0 25.423 9.181 25.423 2.119v-102.753zM953.379 508.381c-5.199-5.844-12.74-9.508-21.137-9.508-1.513 0-2.998 0.119-4.447 0.348l-120.248-0.021c-7.062 0 4.59 2.119 4.59 9.181v104.166c0 7.062-11.652 29.661-4.59 29.661h120.408c11.922-6.285 20.958-16.697 25.313-29.294l0.11-103.12zM953.379 723.774c-5.502-7.738-14.436-12.725-24.534-12.725-0.313 0-0.624 0.005-0.935 0.014l-120.363-0.001c-7.062 0 4.59 5.65 4.59 12.712v104.519c0 7.062-11.652 25.777-4.59 25.777h120.408c11.698-4.809 20.77-13.995 25.316-25.468l0.108-103.061z" />
<glyph unicode="&#xe90b;" glyph-name="food-drink" horiz-adv-x="1028" d="M1019.204 751.020c-4.385 3.476-9.998 5.576-16.102 5.576s-11.717-2.1-16.156-5.617l-166.787-166.115c-4.093-4.18-9.795-6.771-16.102-6.771-12.443 0-22.53 10.087-22.53 22.53 0 6.136 2.453 11.7 6.432 15.763l163.411 164.439c6.929 4.749 11.415 12.623 11.415 21.544 0 14.38-11.657 26.037-26.037 26.037-9.709 0-18.177-5.314-22.653-13.193l-160.399-161.831c-3.962-4.335-9.64-7.044-15.951-7.044-11.92 0-21.583 9.663-21.583 21.583 0 6.311 2.709 11.99 7.028 15.937l163.432 164.458c2.578 3.937 4.111 8.76 4.111 13.942 0 0.037 0 0.073 0 0.11 0.218 0.921 0.343 1.985 0.343 3.078s-0.125 2.157-0.361 3.178c-1.118 13.338-12.301 23.811-25.931 23.811-7.278 0-13.859-2.986-18.583-7.8l-161.021-162.734c-3.962-4.335-9.64-7.044-15.951-7.044-11.92 0-21.583 9.663-21.583 21.583 0 6.311 2.709 11.99 7.028 15.937l163.089 163.088c4.823 4.693 7.816 11.247 7.816 18.5 0 14.25-11.552 25.802-25.802 25.802-6.997 0-13.344-2.785-17.992-7.308l-215.483-191.159c-34.196-32.902-55.437-79.056-55.437-130.171 0-24.195 4.759-47.278 13.393-68.365 29.513-46.671 70.815-84.898 119.814-110.356 16.928-5.376 34.413-8.004 52.512-8.004 0.087 0 0.173 0 0.259 0 0.149-0.001 0.341-0.001 0.533-0.001 51.508 0 98.224 20.518 132.42 53.827l191.466 215.791c4.080 4.576 6.574 10.644 6.574 17.295 0 7.676-3.322 14.576-8.606 19.342zM334.025 274.478c-12.333 14.046-25.009 29.463-37.685 45.222l-276.127-274.072c-11.486-11.486-18.59-27.353-18.59-44.879 0-35.053 28.416-63.469 63.469-63.469 17.526 0 33.394 7.104 44.879 18.59l285.377 285.034c-24.457 4.805-45.501 17.022-61.25 34.177zM98.323 906.899c0.368 0.016 0.799 0.025 1.233 0.025 7.854 0 15.007-3.004 20.373-7.925l823.906-852.343c11.229-11.728 18.142-27.668 18.142-45.223 0-36.013-29.092-65.231-65.057-65.434h-0.019c-18.046 0.221-34.282 7.791-45.887 19.85l-312.804 320.684c-6.735 6.42-14.692 11.628-23.477 15.233-8.372 3.437-17.509 5.327-27.086 5.327-0.29 0-0.58-0.002-0.869-0.005h-4.752c-16.806-2.024-31.685-4.909-46.177-8.746-2.567-0.567-8.186-1.191-13.951-1.191-0.18 0-0.359 0.001-0.538 0.002-0.548-0.018-1.224-0.028-1.903-0.028-18.902 0-35.961 7.891-48.063 20.558-128.495 148.367-283.688 385.096-305.957 561.53-0.22 1.414-0.346 3.046-0.346 4.706 0 15.605 11.099 28.618 25.834 31.574l7.058 0.034z" />
<glyph unicode="&#xe90c;" glyph-name="GovEdPolitics" horiz-adv-x="1035" d="M922.221 149.908h-30.361v385.38c0 11.623-9.423 21.046-21.046 21.046h-61.412c-11.623 0-21.046-9.423-21.046-21.046v-385.38h-56.582v385.38c0 11.623-9.423 21.046-21.046 21.046h-61.412c-11.623 0-21.046-9.423-21.046-21.046v-385.38h-56.927v385.38c0 0.021 0 0.046 0 0.071 0 11.016-8.464 20.055-19.243 20.97l-62.87 0.005c-11.623 0-21.046-9.423-21.046-21.046v-385.38h-56.927v385.38c0 11.623-9.423 21.046-21.046 21.046h-61.412c-11.623 0-21.046-9.423-21.046-21.046v-385.38h-56.927v385.38c0 11.623-9.423 21.046-21.046 21.046h-61.067c-11.623 0-21.046-9.423-21.046-21.046v-385.38h-34.501c-21.532 0-38.987-17.455-38.987-38.987s17.455-38.987 38.987-38.987h809.057c21.532 0 38.987 17.455 38.987 38.987s-17.455 38.987-38.987 38.987zM566.167 770.933c0.007 0.307 0.011 0.668 0.011 1.030 0 26.486-21.471 47.957-47.957 47.957s-47.957-21.471-47.957-47.957c0-26.239 21.073-47.557 47.219-47.951 0.037 0 0.038 0 0.038 0 26.365 0 47.76 21.275 47.956 47.593zM1028.83 625.337c-2.996-7.026-9.845-11.861-17.822-11.861-1.51 0-2.979 0.173-4.389 0.501l-978.673-0.026c-1.448-0.421-3.111-0.663-4.83-0.663-9.894 0-17.914 8.020-17.914 17.914 0 8.174 5.475 15.070 12.958 17.22l471.415 304.678c8.28 4.789 18.214 7.614 28.809 7.614s20.529-2.826 29.091-7.764l469.281-304.497c7.49-2.891 12.707-10.033 12.707-18.393 0-1.181-0.104-2.338-0.304-3.461zM994.674-63.31h-955.687c0 0 0 0 0 0-21.532 0-38.987 17.455-38.987 38.987s17.455 38.987 38.987 38.987c0 0 0 0 0 0h957.067c21.532 0 38.987-17.455 38.987-38.987s-17.455-38.987-38.987-38.987z" />
<glyph unicode="&#xe90d;" glyph-name="healthSciences" horiz-adv-x="1246" d="M916.407 960h-10.385c-151.211 0-264.204-145.396-282.898-214.77-24.094 71.036-132.933 214.77-283.314 214.77h-9.97c-182.815-3.033-329.85-151.944-329.85-335.197 0-0.892 0.003-1.782 0.010-2.672-0.016-1.034-0.025-2.417-0.025-3.802 0-48.392 10.568-94.315 29.521-135.589l204.382 2.025 89.73 249.249c4.996 14.636 18.627 24.974 34.673 24.974 0.663 0 1.321-0.018 1.975-0.052 16.544-0.521 30.399-11.836 34.74-27.15l117.211-413.187 62.728 144.149c5.917 13.316 19.027 22.433 34.266 22.433 0.075 0 0.15 0 0.225-0.001h190.249c20.763 0 37.595-16.832 37.595-37.595s-16.832-37.595-37.595-37.595h-166.166l-93.469-218.509c-5.917-13.316-19.027-22.433-34.266-22.433-0.075 0-0.15 0-0.225 0.001h-2.896c-16.024 1.012-29.235 11.976-33.582 26.738l-114.306 401.972-58.989-163.674c-5.288-14.645-19.068-24.925-35.249-24.925-0.021 0-0.043 0-0.064 0h-187.765c74.815-93.615 153.436-177.108 238.279-253.85l5.57-4.954c66.467-62.312 196.076-171.567 199.4-174.475l3.323-2.492c24.080-19.873 54.569-32.783 87.96-35.279 2.327-0.182 4.427-0.268 6.547-0.268s4.22 0.086 6.297 0.254l4.296-0.018c1.742-0.152 3.769-0.238 5.816-0.238s4.074 0.087 6.077 0.256c32.896 2.273 62.799 14.582 86.869 33.87l4.261 3.085s132.933 111.331 201.892 175.721v0l5.816 6.647c86.408 78.285 164.767 161.78 235.994 251.209 47.846 61.545 74.836 134.411 75.152 213.569 0.006 0.826 0.010 1.717 0.010 2.608 0 183.253-147.035 332.164-329.565 335.193z" />
<glyph unicode="&#xe90e;" glyph-name="hobbiesPets" d="M806.571 496.128c0.004 0.411 0.006 0.897 0.006 1.383 0 86.632-69.556 157.019-155.869 158.359l-4.905 0.002c-61.738-5.447-112.791-45.974-133.449-101.318-22.036 54.995-72.906 95.247-133.837 101.265l-5.099 0.053c-86.439-1.342-155.995-71.729-155.995-158.361 0-0.486 0.002-0.972 0.007-1.458-0.001 0.066-0.001 0.056-0.001 0.046 0-37.824 12.844-72.648 34.408-100.349 35.212-44.196 72.546-83.91 112.869-120.381l0.861-0.767c31.403-29.355 92.843-81.237 94.549-82.603v0c11.42-9.436 25.892-15.556 41.741-16.711l13.896-0.014c15.656 1.158 29.755 7.017 41.103 16.154l1.905-0.111s62.805 52.565 95.232 83.285v0l2.389 2.389c40.93 37.032 78.040 76.522 111.775 118.823 22.836 29.303 35.681 64.088 35.681 101.874 0 0.051 0 0.102 0 0.153zM1024 448c0-282.77-229.23-512-512-512s-512 229.23-512 512c0 282.77 229.23 512 512 512s512-229.23 512-512z" />
<glyph unicode="&#xe90f;" glyph-name="homeGarden" horiz-adv-x="1354" d="M1281.618 272.442c0 0.002 0 0.004 0 0.006 0 10.534-8.407 19.104-18.877 19.368h-177.7c-10.7 0-19.374-8.674-19.374-19.374 0 0 0 0 0 0v-151.686c0-10.7 8.674-19.374 19.374-19.374h177.676c10.495 0.264 18.902 8.835 18.902 19.368 0 0.002 0 0.004 0 0.006zM1485.756-15.337v0c0-26.098-21.156-47.254-47.254-47.254h-581.228v413.475h26.935c3.714-0.468 8.012-0.735 12.372-0.735 57.676 0 104.432 46.756 104.432 104.432 0 33.164-15.459 62.718-39.564 81.848l-241.685 242.107h497.115c0.068 0 0.148 0 0.228 0 24.762 0 47.208-9.92 63.579-26.003l179.080-179.553c16.108-17.318 25.994-40.614 25.994-66.219 0-0.31-0.001-0.62-0.004-0.929zM398.908 959.519c0.395 0.009 0.861 0.014 1.329 0.014 17.916 0 34.144-7.225 45.93-18.919l458.835-460.725c27.407-27.407 17.957-49.617-20.792-49.617h-107.267v-494.28h-236.271v327c0.002 0.142 0.004 0.309 0.004 0.476 0 16.016-12.851 29.030-28.804 29.294h-223.065c-15.978-0.264-28.829-13.278-28.829-29.294 0-0.167 0.001-0.335 0.004-0.501v-326.974h-189.017c-0.001 0-0.001 0-0.002 0-27.498 0-49.82 22.157-50.087 49.592v444.688h-105.377c-38.749 0-47.254 22.21-20.792 49.617l456.949 461.202c11.782 11.691 28.010 18.915 45.926 18.915 0.467 0 0.933-0.005 1.398-0.015z" />
<glyph unicode="&#xe910;" glyph-name="personalFinance" horiz-adv-x="1036" d="M840.329 732.828h-131.194c-7.246 0-13.119 5.874-13.119 13.119v131.194h-483.345c-9.457-0.189-17.073-7.806-17.262-17.244v-450.909l285.864-207.148c10.207-6.288 22.575-10.014 35.813-10.014 0.154 0 0.308 0.001 0.461 0.002 1.344-0.103 2.938-0.162 4.547-0.162 12.917 0 24.948 3.793 35.040 10.327l282.849 208.721v322.115zM1035.738 499.096v-512.69c-0.194-27.569-22.491-49.866-50.042-50.061h-935.636c-27.569 0.194-49.866 22.491-50.061 50.042v512.709c1.939 32.091 17.473 60.204 40.866 78.893l72.030 51.265v269.292c0.385 34.027 28.059 61.463 62.141 61.463 0.365 0 0.73-0.003 1.094-0.009l542.672 0.001c20.233-0.893 38.415-9.003 52.183-21.797l130.452-130.456c12.748-13.717 20.857-31.9 21.744-51.959l0.006-126.879 70.775-50.406c23.923-18.849 39.712-47.099 41.758-79.087zM537.548 589.206c-41.084 9.322-69.049 16.917-69.049 43.846s21.405 41.084 56.966 41.084c35.391-0.438 67.016-16.199 88.607-40.943 15.684 5.779 26.795 20.017 28.077 37 0.009 27.074-31.754 53.313-90.791 59.182v18.989c0 24.512-7.595 34.525-29.001 34.525h-4.488c-0.471 0.027-1.021 0.043-1.575 0.043-16.017 0-29.001-12.984-29.001-29.001 0-1.969 0.196-3.893 0.57-5.752l-0.031-20.529c-50.246-3.784-89.803-44.658-91.486-95.126-0.004-69.211 59.723-88.2 106.677-98.557 38.322-8.286 71.121-15.881 71.121-45.918 0-24.167-21.405-39.358-59.037-39.358-0.156-0.001-0.341-0.001-0.526-0.001-39.464 0-75.061 16.553-100.228 43.095-14.731-5.449-25.37-18.507-27.312-34.258-0.021-29.205 34.504-58.206 99.065-65.801v-19.679c-0.591-2.132-0.93-4.581-0.93-7.108 0-15.254 12.366-27.62 27.62-27.62 1.18 0 2.342 0.074 3.483 0.218l2.626-0.014c0.731-0.067 1.581-0.105 2.441-0.105 15.635 0 28.31 12.675 28.31 28.31 0 2.241-0.26 4.421-0.752 6.512l0.038 20.523c60.763 9.322 98.395 45.918 98.395 99.086 0 69.049-63.525 87.002-111.169 97.359z" />
<glyph unicode="&#xe911;" glyph-name="realEstate" horiz-adv-x="1252" d="M691.496 715.243c-0.025-7.693-6.265-13.921-13.96-13.926h-129.263c-7.675 0.012-13.892 6.236-13.892 13.913 0 0.005 0 0.010 0 0.014v110.352c0 0.004 0 0.009 0 0.014 0 7.677 6.217 13.901 13.891 13.913h129.274c7.696-0.006 13.935-6.233 13.961-13.924zM691.496 483.648c-0.019-7.702-6.258-13.941-13.959-13.961h-129.265c-7.676 0.016-13.892 6.242-13.892 13.92 0 0.014 0 0.029 0 0.043v110.317c0 0.004 0 0.009 0 0.014 0 7.677 6.217 13.901 13.891 13.913h129.274c7.696-0.006 13.935-6.233 13.961-13.924zM433.687 715.243c-0.008-7.688-6.238-13.919-13.926-13.926h-129.288c-7.675 0.023-13.888 6.249-13.892 13.926v110.353c0.004 7.678 6.217 13.903 13.89 13.926h129.299c7.688-0.008 13.919-6.238 13.926-13.926zM433.687 483.648c0-0.003 0-0.007 0-0.010 0-7.696-6.232-13.937-13.925-13.95h-129.288c-7.678 0.027-13.892 6.258-13.892 13.94 0 0.007 0 0.014 0 0.022v110.318c0.004 7.678 6.217 13.903 13.89 13.926h129.299c7.688-0.008 13.919-6.238 13.926-13.926zM763.108 959.999h-558.182c-30.719-0.099-55.592-24.984-55.671-55.698v-737.8c0.095-30.708 24.963-55.577 55.662-55.671h71.655v251.494c0.004 7.678 6.217 13.903 13.89 13.926h129.299c7.688-0.008 13.919-6.238 13.926-13.926v-251.495h152.723c-3.625 17.193-5.7 36.948-5.7 57.188 0 141.759 101.803 259.74 236.288 284.823l1.792 451.466c-0.087 30.719-24.963 55.599-55.673 55.692zM779.731 95.334c0-20.275 24.883-40.585 69.393-45.807v-13.756c0-17.033 5.905-24.235 20.958-24.235h1.946c14.404 0 20.958 7.851 20.958 24.235v15.053c37.72 1.153 67.956 31.615 68.743 69.318 0.001 47.213-44.509 60.969-77.891 68.171-28.809 6.554-49.118 11.776-49.118 30.754 0 17.033 15.053 28.809 39.936 28.809 24.809-0.306 46.976-11.359 62.106-28.709 11.010 4.086 18.81 14.084 19.739 26.010 0.007 19.083-22.282 37.413-63.516 41.338v13.107c0 16.998-5.222 24.883-20.275 24.883h-1.969c-14.404 0-20.958-8.533-20.958-24.883v-14.404c-35.268-2.57-63.054-31.268-64.168-66.692-0.003-48.543 41.913-61.65 74.647-68.852 26.829-5.905 49.766-11.127 49.766-32.085 0-16.998-15.053-27.477-41.267-27.477-0.079 0-0.172 0-0.265 0-27.473 0-52.248 11.55-69.734 30.060-10.44-3.978-17.902-13.414-19.011-24.715zM870.741 400.042c128.135-0.010 232.004-103.885 232.004-232.021 0-128.142-103.879-232.021-232.021-232.021-128.136 0-232.012 103.87-232.021 232.003 0.010 128.148 103.891 232.030 232.037 232.039z" />
<glyph unicode="&#xe912;" glyph-name="news" horiz-adv-x="1282" d="M1193.755 839.778c-0.073 17.555-14.284 31.767-31.833 31.84h-1041.743c-17.528-0.097-31.706-14.305-31.754-31.835v-602.865c0.048-17.535 14.226-31.743 31.745-31.84h1041.745c17.555 0.073 31.767 14.284 31.84 31.833v602.868zM1282.137 880.422v-684.148c-0.121-43.886-35.653-79.433-79.521-79.578h-517.356v-92.314h210.399c24.406 0 44.191-19.785 44.191-44.191s-19.785-44.191-44.191-44.191h-509.179c0 0 0 0 0 0-24.406 0-44.191 19.785-44.191 44.191s19.785 44.191 44.191 44.191c0 0 0 0 0 0h210.399v92.314h-517.129c-43.965 0.048-79.603 35.627-79.749 79.564v684.162c0.145 43.891 35.687 79.433 79.564 79.578h1123.038c43.883-0.145 79.414-35.692 79.535-79.566zM794.668 805.289h-623.973c-8.771-0.024-15.874-7.128-15.898-15.896v-501.275c0 0 0 0 0 0 0-8.789 7.113-15.917 15.896-15.941h115.395c0.513 2.992 0.983 5.812 1.581 9.018 7.426 43.487 16.332 80.604 27.378 116.787 2.446 7.092 7.090 18.689 12.568 29.8 1.242 2.604 3.28 6.039 5.611 9.247 22.034 24.512 52.146 41.675 86.156 47.268 1.586 0.117 2.398 0.501 2.997 0.587-1.068 0.684-1.966 1.496-3.034 2.222-21.346 14.715-37.225 36.024-44.792 60.949-3.032 10.206-4.655 21.007-4.655 32.187 0 62.408 50.591 112.999 112.999 112.999 62.351 0 112.908-50.5 112.999-112.83 0.001-0.168 0.001-0.357 0.001-0.545 0-10.831-1.562-21.297-4.472-31.185-7.574-25.738-24.023-47.652-45.805-62.213-1.054-0.665-1.614-1.102-2.126-1.588 0.438-0.066 0.812-0.155 1.176-0.268 39.539-4.814 73.226-26.663 93.916-57.878 17.695-42.337 31.441-91.163 39.253-141.946 1.053-6.798 1.523-9.619 2.079-12.611h114.922c8.786 0.024 15.898 7.152 15.898 15.941 0 0 0 0 0 0v501.273c-0.024 8.771-7.128 15.874-15.896 15.898zM1127.639 592.625c0 0 0 0 0 0 0 8.789-7.113 15.917-15.896 15.941h-222.795c-8.776-0.048-15.874-7.162-15.898-15.939v-107.787c0.048-8.761 7.137-15.85 15.894-15.898h222.541c8.771 0.024 15.874 7.128 15.898 15.896v107.787zM1127.639 396.031c-0.024 8.771-7.128 15.874-15.896 15.898h-222.795c-8.761-0.048-15.85-7.137-15.898-15.894v-107.747c0.024-8.779 7.123-15.893 15.894-15.941h222.541c8.786 0.024 15.898 7.152 15.898 15.941 0 0 0 0 0 0v107.571zM1127.639 681.776c-0.024-8.771-7.128-15.874-15.896-15.898h-222.795c-8.771 0.024-15.874 7.128-15.898 15.896v107.616c0.024 8.771 7.128 15.874 15.896 15.898h222.539c8.771-0.024 15.874-7.128 15.898-15.896v-107.787z" />
<glyph unicode="&#xe913;" glyph-name="shopping" horiz-adv-x="1329" d="M1251.752 799.598h-876.891l-28.358 124.954c-4.087 20.591-22.008 35.898-43.504 35.898-0.283 0-0.566-0.003-0.848-0.008l-256.068 0.001c-25.451 0-46.082-20.632-46.082-46.082s20.632-46.082 46.082-46.082h218.891c132.929-590.207 138.247-604.386 138.247-604.386 11.844-73.009 57.962-133.178 120.996-164.254-5.968-15.12-10.222-32.257-10.222-50.388 0-0.092 0-0.183 0-0.275-0.141-2.117-0.222-4.606-0.222-7.113 0-63.382 51.381-114.762 114.762-114.762s114.762 51.381 114.762 114.762c0 2.508-0.080 4.996-0.239 7.464 0.018-0.199 0.018-0.035 0.018 0.128 0 7.989-0.807 15.789-2.344 23.324l226.107-0.747c-1.409-6.788-2.216-14.588-2.216-22.577 0-0.163 0-0.327 0.001-0.49-0.002-0.223-0.003-0.516-0.003-0.81 0-63.382 51.381-114.762 114.762-114.762s114.762 51.381 114.762 114.762c0 59.636-45.488 108.648-103.66 114.232-2.128 0.243-4.052 0.361-6.004 0.361s-3.876-0.118-5.766-0.347l-411.411 0.022c-112.104 0-150.21 36.334-169.707 100.14h654.013c36.523 0.485 66.881 26.291 74.348 60.639l99.79 376.699v7.533c0.154 1.857 0.242 4.020 0.242 6.203s-0.088 4.346-0.26 6.485c0.021-0.017 0.023 0.296 0.023 0.609 0 43.005-34.613 77.926-77.5 78.423z" />
<glyph unicode="&#xe914;" glyph-name="society" horiz-adv-x="1455" d="M425.765 120.693h-6.166c-2.49-0.039-5.428-0.061-8.371-0.061-59.028 0-115.981 8.887-169.593 25.395-78.139 25.228-130.757 69.214-130.757 119.366 0.057 7.305 0.802 14.401 2.175 21.27-0.119 10.383 3.991 25.182 7.28 40.392 12.132 66.764 26.38 123.454 43.884 178.695 3.625 10.753 10.743 28.457 19.141 45.413 1.873 4 5.028 9.263 8.67 14.141 33.708 37.516 79.727 63.763 131.704 72.347l4.607 0.18-4.522 3.289c-32.777 22.474-57.155 55.114-68.74 93.317-4.756 15.809-7.309 32.563-7.309 49.914 0 95.581 77.484 173.065 173.065 173.065s173.065-77.484 173.065-173.065c0-0.062 0-0.123 0-0.185-0.073-16.871-2.621-33.128-7.301-48.456-11.568-39.482-36.778-73.097-70.174-95.428l-3.507-0.396c71.528-16.032 126.202-48.919 144.289-89.204 8.878-17.84 17.133-38.981 23.549-60.907-148.897-25.518-262.219-153.228-262.219-307.406 0-22.128 2.334-43.71 6.77-64.515zM1344.118 266.215c0-82.216-136.89-145.522-307.899-145.522h-6.577c4.031 18.686 6.34 40.153 6.34 62.158 0 154.007-113.070 281.605-260.724 304.308l1.571 10.494c6.401 20.905 13.518 38.61 21.917 55.566 1.895 4.003 5.048 9.265 8.677 14.153 33.701 37.504 79.72 63.752 131.697 72.335l4.607 0.18-4.522 3.289c-32.777 22.474-57.155 55.114-68.74 93.317-4.756 15.809-7.309 32.563-7.309 49.914 0 95.581 77.484 173.065 173.065 173.065s173.065-77.484 173.065-173.065c0-0.062 0-0.123 0-0.185-0.073-16.871-2.621-33.128-7.301-48.456-11.568-39.482-36.778-73.097-70.174-95.428l-3.507-0.396c71.528-16.032 126.202-48.919 144.289-89.204 26.673-64.050 47.753-138.768 59.732-216.489 3.986-22.349 6.041-37.559 8.096-46.603 0.365-3.084 0.573-6.656 0.573-10.277s-0.208-7.193-0.613-10.705zM841.367 145.769h-72.761v-76.461c0-22.703-18.405-41.108-41.108-41.108s-41.108 18.405-41.108 41.108v72.761h-76.461c-22.703 0-41.108 18.405-41.108 41.108s18.405 41.108 41.108 41.108h76.461v76.461c0 22.703 18.405 41.108 41.108 41.108s41.108-18.405 41.108-41.108v-76.461h76.461c22.703 0 41.108-18.405 41.108-41.108s-18.405-41.108-41.108-41.108zM727.498 429.825c-136.22 0-246.648-110.428-246.648-246.648s110.428-246.648 246.648-246.648c136.22 0 246.648 110.428 246.648 246.648s-110.428 246.648-246.648 246.648z" />
<glyph unicode="&#xe915;" glyph-name="spirituality" horiz-adv-x="795" d="M815.25 563.703l-201.392-169.888 0.112-0.192c7.833-13.688 12.451-30.087 12.451-47.564 0-53.611-43.461-97.072-97.072-97.072-13.949 0-27.212 2.942-39.2 8.24l-13.603 5.915c-1.168 0.146-2.214 0.37-3.224 0.675l-8.84 3.901-147.472 64.688c-6.825 3.010-11.502 9.717-11.502 17.516 0 0.542 0.023 1.079 0.067 1.609 0.085 2.329 0.606 4.581 1.482 6.647 3.065 6.701 9.829 11.36 17.68 11.36 2.425 0 4.746-0.444 6.887-1.256l174.602-75.556c6.843-3.049 14.829-4.824 23.229-4.824 32.218 0 58.336 26.118 58.336 58.336 0 7.91-1.574 15.452-4.427 22.331 0.030-0.115-0.146 0.125-0.258 0.381-5.913 13.929-16.685 24.837-30.141 30.782l-260.163 112.562c-1.824 0.784-12.56 5.328-14.4 5.904 1.2-0.608 2.736-1.488 4.048-2.192-17.861 8.422-38.796 13.339-60.88 13.339-40.145 0-76.496-16.248-102.835-42.526l-188.717-188.653c-27.471-26.577-44.525-63.776-44.525-104.957 0-80.616 65.352-145.968 145.968-145.968 41.182 0 78.38 17.054 104.919 44.485l74.551 74.52 274.144-37.024c4.84-0.79 10.419-1.241 16.103-1.241 30.046 0 57.147 12.61 76.3 32.825 40.045 40.048 279.565 280.272 312.141 312.944l0.832 0.736c11.733 10.717 19.064 26.082 19.064 43.159 0 32.245-26.139 58.384-58.384 58.384-13.586 0-26.088-4.64-36.007-12.422zM325.17 486.807c-3.357 3.158-6.949 6.212-10.691 9.082 3.742-2.768 7.338-5.826 10.716-9.107zM779.25 726.471c0-0.092 0-0.2 0-0.309 0-28.785-9.745-55.294-26.117-76.408-26.789-33.639-55.177-63.873-85.831-91.652-1.19-1.217-1.788-1.784-2.441-2.283l0.18 0.092c-24.912-23.28-72.832-63.504-73.008-63.664l-0.208-0.144-0.080-0.096c-0.474-0.44-0.998-0.841-1.556-1.19-8.639-6.918-19.443-11.389-31.249-12.255-1.461-0.228-2.934-0.356-4.436-0.363h-1.655c-1.54 0.012-3.041 0.139-4.505 0.374-12.099 0.9-23.125 5.579-31.927 12.855-0.416 0.307-0.832 0.563-1.056 0.787-1.232 1.088-48.224 40.608-72.256 63.12l-0.432 0.432c-0.486 0.362-0.912 0.762-1.287 1.205-31.534 28.508-60.106 58.906-86.069 91.476-17.357 22.402-27.108 48.944-27.108 77.763 0 0.075 0 0.149 0 0.224-0.003 0.297-0.004 0.662-0.004 1.028 0 66.32 53.218 120.21 119.279 121.295 1.622 0.001 2.902-0.127 3.718-0.127 54.4 0 93.92-52.032 102.576-77.744 6.768 25.056 47.632 77.744 102.4 77.744 1.696 0.128 2.912 0.128 3.744 0.128 66.144-1.123 119.332-55.006 119.332-121.312 0-0.343-0.001-0.686-0.004-1.029z" />
<glyph unicode="&#xe916;" glyph-name="sports" horiz-adv-x="1416" d="M905.556 736.796l-21.707-5.663 4.247-7.078c3.452-5.89 5.49-12.97 5.49-20.527 0-22.709-18.409-41.118-41.118-41.118-15.152 0-28.39 8.196-35.523 20.396l-14.734 25.677q-41.526-13.685-82.109-31.145l5.191-8.966c3.452-5.89 5.49-12.97 5.49-20.527 0-22.709-18.409-41.118-41.118-41.118-15.152 0-28.39 8.196-35.523 20.396l-8.599 14.823-42.47-23.123c-11.325-6.606-21.707-13.685-32.088-20.291l8.494-14.629c3.452-5.89 5.49-12.97 5.49-20.527 0-22.709-18.409-41.118-41.118-41.118-15.152 0-28.39 8.196-35.523 20.396l-5.768 9.632q-35.392-25.954-68.424-54.739l15.1-26.426c3.466-5.894 5.514-12.983 5.514-20.551 0-15.151-8.207-28.385-20.419-35.499-6.065-3.663-13.159-5.768-20.744-5.768-0.075 0-0.151 0-0.226 0.001-0.040 0-0.101 0-0.162 0-15.212 0-28.491 8.273-35.584 20.565l-5.768 9.636-15.572-15.572c-7.53-8.149-18.271-13.235-30.201-13.235-22.686 0-41.076 18.39-41.076 41.076 0 10.756 4.134 20.547 10.9 27.869 10.828 11.77 22.154 22.623 33.479 33.477l-10.853 18.876c-3.452 5.89-5.49 12.97-5.49 20.527 0 22.709 18.409 41.118 41.118 41.118 15.152 0 28.39-8.196 35.523-20.396l0.105-3.026q33.032 28.313 68.896 53.795l-12.269 20.763c-3.111 5.663-4.941 12.409-4.941 19.583 0 22.797 18.48 41.277 41.277 41.277 15.623 0 29.218-8.679 36.228-21.478l9.546-16.259c10.853 6.606 21.235 13.685 32.088 20.291l42.47 23.123-7.55 19.819c-3.452 5.89-5.49 12.97-5.49 20.527 0 22.709 18.409 41.118 41.118 41.118 15.152 0 28.39-8.196 35.523-20.396l12.374-21.43q40.111 17.46 81.637 32.088v3.775c-7.82 7.488-12.681 18.012-12.681 29.672 0 22.674 18.381 41.054 41.054 41.054 19.475 0 35.783-13.56 39.997-31.754l11.851-20.568 47.189 11.325c2.553 0.562 5.486 0.884 8.494 0.884 22.771 0 41.231-18.46 41.231-41.231 0-19.763-13.905-36.279-32.465-40.297zM938.116 956.225c-325.96-31.26-606.636-202.048-784.873-451.139l323.365-567.199c165.205 14.649 315.921 65.383 447.907 144.225 133.71 76.817 248.691 182.004 336.98 307.346zM1401.512 847.69c-20.763 36.335-74.087 67.48-201.497 94.378-50.122 10.598-108.042 17.086-167.329 17.924l282.47-487.454c25.037 43.843 48.166 94.978 66.501 148.341 42.977 130.073 42.505 191.891 21.742 227.754zM383.646-64c-60.090 0.801-118.179 7.292-174.371 18.957-121.503 24.929-174.827 56.545-195.59 93.353s-21.235 98.153 19.819 221.316c20.217 59.781 43.347 110.918 70.78 159.296z" />
<glyph unicode="&#xe917;" glyph-name="styleNFashion" horiz-adv-x="854" d="M680.277 524.8c-22.999 0-41.643 18.644-41.643 41.643s18.644 41.643 41.643 41.643c22.999 0 41.643-18.644 41.643-41.643 0 0 0 0 0 0 0.001-0.102 0.001-0.222 0.001-0.343 0-22.81-18.491-41.301-41.301-41.301-0.121 0-0.241 0.001-0.361 0.002zM290.475 524.8c-22.999 0-41.643 18.644-41.643 41.643s18.644 41.643 41.643 41.643c22.999 0 41.643-18.644 41.643-41.643 0 0 0 0 0 0 0-22.999-18.644-41.643-41.643-41.643zM390.144 305.323c-0.231 22.822-18.786 41.234-41.641 41.234-22.999 0-41.643-18.644-41.643-41.643 0-12.842 5.813-24.326 14.951-31.965l0.066-47.158h-167.936v47.104c9.803 7.692 16.043 19.539 16.043 32.844 0 22.999-18.644 41.643-41.643 41.643s-41.643-18.644-41.643-41.643c0-13.305 6.24-25.153 15.952-32.776l0.090-72.772c0-14.138 11.462-25.6 25.6-25.6h220.16c14.138 0 25.6 11.462 25.6 25.6v72.704c9.6 7.631 15.701 19.308 15.701 32.41 0 0.006 0 0.011 0 0.017zM475.136-14.848c-0.188-27.192-22.274-49.163-49.492-49.163-0.36 0-0.72 0.004-1.079 0.012l-375.413-0.001c-27.187 0.194-49.152 22.278-49.152 49.492 0 0 0 0.001 0 0.001v382.293c0 0 0 0.001 0 0.001 0 27.214 21.965 49.299 49.134 49.492h375.485c27.187-0.194 49.152-22.278 49.152-49.492 0 0 0-0.001 0-0.001v-382.293zM324.608 670.549v59.733c4.076 85.915 74.724 154.029 161.28 154.029s157.204-68.114 161.266-153.665l0.014-60.098h-322.56zM826.368 615.253v0c-0.194 30.581-25.029 55.296-55.636 55.296 0 0-0.001 0-0.001 0h-55.979v59.733c0 126.964-102.924 229.888-229.888 229.888s-229.888-102.924-229.888-229.888v-59.733h-55.637c-0.001 0-0.003 0-0.004 0-30.676 0-55.589-24.675-55.974-55.26v-0.036l-4.779-147.115h285.696c55.228-0.942 99.751-45.465 100.692-100.604l0.001-382.383c0.205-2.402 0.321-5.198 0.321-8.021s-0.117-5.619-0.345-8.384l273.091 0.362c0 0 0.001 0 0.001 0 30.608 0 55.443 24.715 55.636 55.278v0.018z" />
<glyph unicode="&#xe918;" glyph-name="before_after" horiz-adv-x="889" d="M1157.661 474.352l-157.742 217.315c-2.8 4.851-7.961 8.064-13.871 8.064s-11.071-3.213-13.83-7.987l-156.73-218.126c-10.152-14.111-4.246-25.54 13.121-25.54l84.793 0.192v-263.287c-0.091-56.573-45.937-102.407-102.505-102.48h-332.029c-56.569 0.073-102.407 45.911-102.48 102.473v245.448c-0.036 9.689-7.872 17.537-17.554 17.591h-111.232c-9.701-0.036-17.555-7.89-17.591-17.587v-245.508c0.109-137.484 111.532-248.907 249.006-249.016h332.032c137.484 0.109 248.907 111.532 249.016 249.006v263.585l84.825 0.192c17.399 0 23.242 11.557 13.057 25.54zM73.258 422.442l-156.721-218.049c-2.796-4.867-7.965-8.092-13.887-8.092s-11.091 3.225-13.846 8.015l-4.67 6.463-56.38 77.578-96.669 133.224c-10.216 14.079-4.342 25.54 13.025 25.54l84.825 0.192v263.766c0.109 137.484 111.532 248.907 249.006 249.016h332.032c137.484-0.109 248.907-111.532 249.016-249.006v-245.515c-0.036-9.683-7.876-17.523-17.555-17.559h-111.614c-9.697 0.018-17.555 7.865-17.591 17.555v245.508c-0.073 56.575-45.907 102.421-102.471 102.512h-331.903c-56.586-0.073-102.439-45.925-102.512-102.505v-263.262l84.761 0.16c17.399 0 23.305-11.493 13.153-25.54z" />
<glyph unicode="&#xe919;" glyph-name="nearby_visits" d="M433.92 616.16c0-55.405-44.915-100.32-100.32-100.32s-100.32 44.915-100.32 100.32c0 55.405 44.915 100.32 100.32 100.32s100.32-44.915 100.32-100.32zM961.92 540.64h-160v357.12h149.12c6.186 0 11.2-5.014 11.2-11.2zM961.92 214.88h-160v273.92h160zM961.92 9.44c0-6.186-5.014-11.2-11.2-11.2h-149.28v164.8h160zM749.44 540.64h-246.88c10.027 21.925 15.873 47.558 15.873 74.557 0 92.582-68.736 169.111-157.961 181.336l-0.952 101.227h389.92zM749.44 214.88h-389.92v121.12l54.080 91.040c12.53 18.546 26.339 34.692 41.762 49.134 4.565 3.972 8.583 7.838 12.397 11.899l281.681 0.087zM749.44-1.76h-389.92v164.8h389.92zM61.44 214.88v273.92h136.96c3.894-4.148 7.913-8.014 12.12-11.67 15.79-14.754 29.6-30.9 41.486-48.456l0.635-0.994 54.88-91.68v-121.76zM307.52-1.76h-233.92c-6.186 0-11.2 5.014-11.2 11.2v153.6h245.12zM62.24 886.56c0 6.186 5.014 11.2 11.2 11.2h234.080v-101.12c-90.064-12.763-158.611-89.216-158.88-181.732 0.069-26.881 5.956-52.341 16.465-75.239l-102.865 1.131zM950.56 960h-876.96c0 0 0 0 0 0-40.592 0-73.509-32.861-73.6-73.431v-877.129c0.091-40.579 33.008-73.44 73.6-73.44 0 0 0 0 0 0h876.96c40.523 0.091 73.349 32.917 73.44 73.431v877.129c-0.091 40.523-32.917 73.349-73.431 73.44z" />
<glyph unicode="&#xe91a;" glyph-name="agriculture" horiz-adv-x="1267" d="M686.469 569.663c-0.501-0.058-1.081-0.092-1.668-0.092-8.399 0-15.208 6.809-15.208 15.208 0 2.837 0.777 5.493 2.129 7.766l77.691 229.316c4.014 10.218 13.793 17.32 25.23 17.32 0.041 0 0.082 0 0.123 0h215.862c13.492-0.658 24.266-11.432 24.922-24.863l0.002-208.747c-61.247-0.363-119.287-13.704-171.634-37.406zM705.901 180.172c0.080 39.97 7.67 78.145 21.432 113.22l25.459 51.11c56.068 90.347 154.725 149.614 267.225 149.614 58.811 0 113.838-16.196 160.866-44.372 6.316-3.488 15.546-6.006 25.364-6.006 31.030 0 56.185 25.155 56.185 56.185 0 19.803-10.245 37.212-25.723 47.219-25.907 15.604-55.559 29.079-86.787 39.021l-2.992 303.713c-0.238 38.633-31.492 69.887-70.103 70.125h-362.056c-38.481-1.156-71.012-25.426-84.27-59.352l-126.951-369.005h-171.089v292.752c-0.239 60.797-49.46 110.018-110.235 110.257h-55.363c-30.718-5.171-53.829-31.57-53.829-63.366s23.111-58.195 53.452-63.314l37.552-0.053v-275.432h-146.165c-1.406 0.127-3.042 0.2-4.695 0.2-30.563 0-55.34-24.777-55.34-55.34 0-7.696 1.571-15.024 4.409-21.683l84.351-248.457c34.868 33.241 82.184 53.694 134.277 53.694 91.99 0 169.083-63.781 189.47-149.532l189.52-1.324c0-7.604 0-14.785 3.38-22.389 6.423-24.48 28.351-42.246 54.428-42.246 0.172 0 0.344 0.001 0.515 0.002h12.225c25.131 5.951 43.541 28.198 43.541 54.744 0 4.253-0.472 8.395-1.368 12.377-4.495 19.717-7.111 42.79-7.111 66.474 0 0.112 0 0.224 0 0.336zM1020.198 427.723c0 0 0 0 0 0-136.019 0-246.284-110.265-246.284-246.284s110.265-246.284 246.284-246.284c136.019 0 246.284 110.265 246.284 246.284s-110.265 246.284-246.284 246.284zM220.515 197.914c0 0 0 0 0 0 72.326 0 130.957-58.631 130.957-130.957s-58.631-130.957-130.957-130.957c-72.326 0-130.957 58.631-130.957 130.957s58.631 130.957 130.957 130.957c72.326 0 130.957-58.631 130.957-130.957s-58.631-130.957-130.957-130.957c-72.326 0-130.957 58.631-130.957 130.957s58.631 130.957 130.957 130.957z" />
<glyph unicode="&#xe91b;" glyph-name="automotive" horiz-adv-x="1376" d="M1038.216 183.631c0-23.807-19.299-43.106-43.106-43.106 0 0 0 0 0 0h-26.597v-70.162c0 0 0 0 0 0 0-28.872-23.406-52.278-52.278-52.278s-52.278 23.406-52.278 52.278c0 0 0 0 0 0v70.162h-353.103v-70.162c0-28.999-23.508-52.507-52.507-52.507s-52.507 23.508-52.507 52.507v70.162h-26.597c0 0 0 0 0 0-23.807 0-43.106 19.299-43.106 43.106 0 0 0 0 0 0v172.425c0.247 44.24 30.718 81.294 71.801 91.577l43.302 173.022c8.009 26.283 31.746 45.195 59.998 45.856l351.345 0.001c28.327-0.663 52.065-19.574 59.954-45.403l43.684-174.714c41.416-10.618 71.538-47.612 71.538-91.642 0-0.026 0-0.052 0-0.077zM1365.18 596.349l-330.175 330.633c-20.975 18.839-48.375 30.901-78.548 32.545l-537.32 0.014c-30.5-1.658-57.9-13.72-78.994-32.664l-330.056-330.528c-17.884-17.884-11.923-32.559 13.757-32.559h96.76v-557.17c0-39.256 31.823-71.079 71.079-71.079h994.193c39.256 0 71.079 31.823 71.079 71.079v557.628h94.925c25.222 0 31.642 14.674 13.757 32.559z" />
<glyph unicode="&#xe91c;" glyph-name="healthcare" horiz-adv-x="1135" d="M487.223 234.083h-106.675c-24.358 0.212-44.046 19.901-44.258 44.238v71.515c0 24.443 19.815 44.259 44.259 44.259 0 0 0 0 0 0h106.675v106.675c0 24.443 19.815 44.259 44.259 44.259 0 0 0 0 0 0h71.495c0 0 0 0 0 0 24.443 0 44.259-19.815 44.259-44.259 0 0 0 0 0 0v-106.675h106.675c0 0 0 0 0 0 24.443 0 44.259-19.815 44.259-44.259 0 0 0 0 0 0v-71.495c0-24.443-19.815-44.259-44.259-44.259 0 0 0 0 0 0h-106.296v-106.675c0-24.443-19.815-44.259-44.259-44.259h-71.495c-24.443 0-44.259 19.815-44.259 44.259 0 0 0 0 0 0zM1028.918 693.314h-923.378c-58.334-0.215-105.54-47.553-105.54-105.917 0 0 0 0 0-0.001v-545.856c0 0 0 0 0-0.001 0-58.364 47.206-105.702 105.519-105.917h923.398c58.411 0.214 105.704 47.507 105.918 105.897v545.876c-0.214 58.411-47.507 105.704-105.897 105.918zM292.409 756.486v48.041c1.065 86.094 71.106 155.477 157.353 155.477 0.403 0 0.806-0.002 1.208-0.005h232.58c0.341 0.003 0.743 0.004 1.146 0.004 86.246 0 156.287-69.382 157.352-155.376l0.001-48.142h-105.161v48.041c-0.835 27.969-23.708 50.324-51.802 50.324-0.407 0-0.812-0.005-1.217-0.014l-232.959 0.001c-0.344 0.008-0.75 0.013-1.157 0.013-28.094 0-50.967-22.355-51.801-50.247l-0.002-48.118z" />
<glyph unicode="&#xe91d;" glyph-name="lodging" horiz-adv-x="1523" d="M1481.424 470.592h-1439.794c-0.463 0.019-1.005 0.030-1.551 0.030-21.625 0-39.253-17.115-40.077-38.539l-0.002-441.253c0-30.001 24.321-54.322 54.322-54.322s54.322 24.321 54.322 54.322v88.337h1305.765v-88.845c0-30.001 24.321-54.322 54.322-54.322s54.322 24.321 54.322 54.322v441.178c-0.826 21.499-18.454 38.614-40.079 38.614-0.545 0-1.088-0.011-1.628-0.032zM104.583 551.822v238.104c-0.009 0.312-0.015 0.678-0.015 1.046 0 20.218 15.971 36.706 35.985 37.536l203.149 0.002c44.169 75.645 214.751 133.521 417.824 133.521s373.656-56.353 415.794-131.49h203.074c20.089-0.832 36.060-17.32 36.060-37.538 0-0.368-0.005-0.734-0.016-1.099l0.001-238.050h-152.305c-26.907 59.907-117.275 103.568-224.904 103.568s-197.997-45.692-226.427-107.629h-111.691c-27.923 63.968-118.291 107.629-226.427 107.629s-197.997-45.692-226.427-107.629z" />
<glyph unicode="&#xe91e;" glyph-name="parks_rec" horiz-adv-x="1137" d="M656.051 148.707h-174.080v-173.397c0-21.679 17.574-39.253 39.253-39.253 0 0 0 0 0 0h95.573c21.679 0 39.253 17.574 39.253 39.253zM965.299 233.699l-162.475 197.632h68.267c21.504 0 27.989 13.653 14.336 30.379l-145.749 176.811h68.267c21.504 0 27.989 13.653 14.336 30.379l-229.035 278.528c-5.724 7.631-14.75 12.516-24.917 12.516s-19.193-4.885-24.86-12.436l-229.092-278.608c-13.653-16.725-7.168-30.379 14.336-30.379h68.267l-145.408-177.152c-13.653-16.725-7.168-30.379 14.336-30.379h68.267l-162.475-197.632c-13.653-16.725-7.168-30.379 14.336-30.379h764.928c21.504 0 27.989 13.653 14.336 30.379z" />
<glyph unicode="&#xe91f;" glyph-name="sports_bna" horiz-adv-x="2113" d="M477.953 82.104h-479.604v-45.777c0-54.843 44.459-99.301 99.301-99.301h373.26c0 49.298 0 97.188 7.043 144.374zM2106.916 81.4h-475.378q5.634-70.426 7.043-144.374h373.26c0 0 0 0 0 0 54.843 0 99.301 44.459 99.301 99.301v46.481h-4.226zM529.364 434.94c39.182 179.779 89.36 336.055 152.493 485.524-206.779-85.374-376.924-196.494-512.494-340.526l-71.008-0.624c-0.212 0.002-0.463 0.003-0.714 0.003-54.843 0-99.301-44.459-99.301-99.301 0-0.496 0.004-0.991 0.011-1.486l-0.001-45.702zM1580.126 434.94h531.015v46.481c0 54.843-44.459 99.301-99.301 99.301h-70.426c-136.152 144.656-306.297 255.775-497.757 320.722 47.824-129.048 98.002-285.325 133.81-447.004zM2111.141 184.927v145.783h-510.591c8.451-46.481 15.494-95.076 21.128-144.374h492.985zM573.733-62.27h257.056v275.367c1.951 53.306 45.635 95.78 99.239 95.78 0.022 0 0.044 0 0.066 0h248.602c0.001 0 0.002 0 0.002 0 54.595 0 98.9-44.058 99.299-98.559v-276.109h257.056c-9.873 364.73-93.174 707.589-235.562 1017.685-68.795 0.385-155.484 9.898-244.394 9.898s-175.599-9.513-259.104-27.576c-127.359-291.319-210.835-632.847-221.467-992.661zM491.334 185.631h-492.985v144.374h510.591c-8.451-46.481-15.494-95.076-21.128-144.374z" />
<glyph unicode="&#xe920;" glyph-name="tourism" horiz-adv-x="1135" d="M703.598 460.294c20.892 0 37.828 16.936 37.828 37.828s-16.936 37.828-37.828 37.828c-20.892 0-37.828-16.936-37.828-37.828s16.936-37.828 37.828-37.828zM1028.539 693.314h-81.33v-247.772l64.686-64.686c3.811-3.83 6.168-9.111 6.168-14.942s-2.356-11.112-6.168-14.943l-64.685-66.576v-350.286h81.33c58.411 0.214 105.704 47.507 105.918 105.897v547.011c-0.214 58.411-47.507 105.704-105.897 105.918zM186.87 692.935h-81.33c-58.497 0-105.918-47.421-105.918-105.918v-545.099c0-58.497 47.421-105.918 105.918-105.918h81.33zM626.429 597.231h147.529c13.885-0.743 26.367-6.208 35.994-14.803l75.598-75.605v186.491h-635.13v-756.557h633.617v286.357l-32.154-31.775c-3.83-3.811-9.111-6.168-14.942-6.168s-11.112 2.356-14.943 6.168l-202.756 201.622c-8.904 10.053-14.443 23.265-14.752 37.764l-0.001 147.592c0 11.699 9.484 21.184 21.184 21.184zM291.653 758.378v46.15c1.065 86.094 71.106 155.477 157.353 155.477 0.403 0 0.806-0.002 1.208-0.005h233.336c0.341 0.003 0.743 0.004 1.146 0.004 86.246 0 156.287-69.382 157.352-155.376l0.001-48.142h-105.54v48.041c-0.835 27.969-23.708 50.324-51.802 50.324-0.407 0-0.812-0.005-1.217-0.014l-232.581 0.001c-0.344 0.008-0.75 0.013-1.157 0.013-28.094 0-50.967-22.355-51.801-50.247l-0.002-48.118z" />
<glyph unicode="&#xe921;" glyph-name="shopping_bna" horiz-adv-x="854" d="M680.44 524.72c-22.999 0-41.643 18.644-41.643 41.643s18.644 41.643 41.643 41.643c22.999 0 41.643-18.644 41.643-41.643 0 0 0 0 0 0 0.001-0.102 0.001-0.222 0.001-0.343 0-22.81-18.491-41.301-41.301-41.301-0.121 0-0.241 0.001-0.361 0.002zM290.638 524.72c-22.999 0-41.643 18.644-41.643 41.643s18.644 41.643 41.643 41.643c22.999 0 41.643-18.644 41.643-41.643 0 0 0 0 0 0 0-22.999-18.644-41.643-41.643-41.643zM390.307 305.243c-0.231 22.822-18.786 41.234-41.641 41.234-22.999 0-41.643-18.644-41.643-41.643 0-12.842 5.813-24.326 14.951-31.965l0.066-47.158h-167.936v47.104c9.803 7.692 16.043 19.539 16.043 32.844 0 22.999-18.644 41.643-41.643 41.643s-41.643-18.644-41.643-41.643c0-13.305 6.24-25.153 15.952-32.776l0.090-72.772c0-14.138 11.462-25.6 25.6-25.6h220.16c14.138 0 25.6 11.462 25.6 25.6v72.704c9.6 7.631 15.701 19.308 15.701 32.41 0 0.006 0 0.011 0 0.017zM475.299-14.928c-0.188-27.192-22.274-49.163-49.492-49.163-0.36 0-0.72 0.004-1.079 0.012l-375.413-0.001c-27.187 0.194-49.152 22.278-49.152 49.492 0 0 0 0.001 0 0.001v382.293c0 0 0 0.001 0 0.001 0 27.214 21.965 49.299 49.134 49.492h375.485c27.187-0.194 49.152-22.278 49.152-49.492 0 0 0-0.001 0-0.001zM324.771 670.469v59.733c4.076 85.915 74.724 154.029 161.28 154.029s157.204-68.114 161.266-153.665l0.014-60.098zM826.531 615.173v0c-0.194 30.581-25.029 55.296-55.636 55.296 0 0-0.001 0-0.001 0h-55.979v59.733c0 126.964-102.924 229.888-229.888 229.888s-229.888-102.924-229.888-229.888v-59.733h-55.637c-0.001 0-0.003 0-0.004 0-30.676 0-55.589-24.675-55.974-55.26v-0.036l-4.779-147.115h285.696c55.228-0.942 99.751-45.465 100.692-100.604l0.001-382.383c0.205-2.402 0.321-5.198 0.321-8.021s-0.117-5.619-0.345-8.384l273.091 0.362c0 0 0.001 0 0.001 0 30.608 0 55.443 24.715 55.636 55.278v0.018z" />
<glyph unicode="&#xe922;" glyph-name="search" horiz-adv-x="1026" d="M635.504 333.366c130.301 0 235.931 105.63 235.931 235.931s-105.63 235.931-235.931 235.931c-130.301 0-235.931-105.63-235.931-235.931 0.348-130.161 105.77-235.583 235.897-235.931zM635.504 959.042c215.004-0.327 389.172-174.696 389.172-389.745 0-215.25-174.495-389.745-389.745-389.745-80.647 0-155.572 24.494-217.743 66.45l-286.636-288.899c-13.67-12.494-31.948-20.147-52.013-20.147-42.644 0-77.214 34.57-77.214 77.214 0 20.065 7.654 38.343 20.201 52.073l288.578 288.573c-40.309 60.383-64.325 134.628-64.325 214.482 0 215.243 174.483 389.734 389.724 389.745z" />
<glyph unicode="&#xe923;" glyph-name="venn" horiz-adv-x="1484" d="M967.203 70.911c-55.666 0.203-108.482 12.185-156.156 33.58 100.010 82.548 161.456 205.844 161.456 343.491s-61.446 260.943-158.404 343.954c44.6 20.925 97.389 32.906 152.954 33.117 1.998 0.035 4.265 0.056 6.536 0.056 208.271 0 377.108-168.837 377.108-377.108s-168.837-377.108-377.108-377.108c-2.271 0-4.537 0.020-6.799 0.060zM134.947 447.982c1.751 208.628 171.282 377.077 380.156 377.077 0.757 0 1.513-0.002 2.268-0.007 55.525-0.211 108.315-12.192 155.966-33.58-100.010-82.548-161.456-205.844-161.456-343.491s61.446-260.943 158.404-343.954c-44.621-20.932-97.437-32.914-153.030-33.117-0.692-0.004-1.422-0.006-2.152-0.006-208.874 0-378.405 168.449-380.155 376.91zM967.203 960c-81.811-0.027-159.197-18.942-228.044-52.621-62.591 33.713-139.868 52.64-221.565 52.64-283.911 0-514.437-228.574-517.592-511.738 1.836-283.474 231.819-512.321 515.251-512.321 0.704 0 1.407 0.001 2.111 0.004 81.699 0.032 159.084 18.933 227.942 52.585 62.704-33.653 140.090-52.554 221.886-52.585 1.302-0.012 2.829-0.018 4.357-0.018 282.78 0 512.018 229.238 512.018 512.018s-229.238 512.018-512.018 512.018c-1.528 0-3.054-0.007-4.579-0.020z" />
<glyph unicode="&#xe924;" glyph-name="sidebar_reset_icon" d="M286.208 371.712l37.376-32.256c13.824-11.776 25.088-6.656 25.088 11.776v92.672c246.784 0 333.312-85.504 395.264-189.44 9.017-14.635 24.854-24.31 42.969-24.576 9.498 0.101 18.318 2.752 25.869 7.296 14.302 9.072 23.811 25.063 23.811 43.275 0 9.266-2.461 17.956-6.765 25.454-77.18 129.799-194.94 290.055-481.148 290.055v87.040c0 18.432-11.264 23.552-25.088 11.776l-182.272-153.6-6.144-5.632c-4.803-3.783-7.858-9.599-7.858-16.128s3.055-12.345 7.814-16.095zM512 960c282.77 0 512-229.23 512-512s-229.23-512-512-512c-282.77 0-512 229.23-512 512s229.23 512 512 512z" />
<glyph unicode="&#xe925;" glyph-name="home" d="M1008 480l-450.72 461.12c-11.592 11.645-27.635 18.851-45.36 18.851s-33.768-7.206-45.358-18.848l-450.562-461.122c-26.72-27.36-17.6-49.76 20.32-49.76h103.84v-444.32c-0.001-0.103-0.001-0.224-0.001-0.346 0-26.831 21.304-48.686 47.92-49.572l186.641-0.002v327.2c-0.005 0.195-0.007 0.425-0.007 0.656 0 15.748 12.5 28.576 28.119 29.103l219.728 0.001c15.738-0.442 28.327-13.305 28.327-29.109 0-0.229-0.003-0.457-0.008-0.685l0.001-327.166h184.16c26.679 0.8 48.003 22.62 48.003 49.419 0 0.176-0.001 0.352-0.003 0.528v0.933-0.96 444.64h104.64c37.92 0 47.040 22.4 20.32 49.76z" />
<glyph unicode="&#xe926;" glyph-name="work" d="M817.44 155.36h-605.76c-17.673 0-32 14.327-32 32s14.327 32 32 32h605.76c17.673 0 32-14.327 32-32s-14.327-32-32-32zM817.44 414.4h-605.76c-17.673 0-32 14.327-32 32s14.327 32 32 32h605.76c17.673 0 32-14.327 32-32s-14.327-32-32-32zM931.040 692.32h-833.12c-52.48 0-96-48-96-105.76v-545.6c0-58.24 42.88-105.76 96-105.76h833.12c52.48 0 96 48 96 105.76v545.6c0 58.24-43.040 105.76-96 105.76zM266.56 756.32v48c0 85.76 64 155.52 143.040 155.52h209.76c78.88 0 143.040-69.76 143.040-155.52v-48h-95.040v48c0.008 0.337 0.013 0.734 0.013 1.132 0 26.739-21.365 48.488-47.956 49.106l-209.818 0.001c-26.648-0.62-48.013-22.369-48.013-49.108 0-0.398 0.005-0.795 0.014-1.191l-0.001-47.941h-95.040z" />
<glyph unicode="&#xe927;" glyph-name="Left-Carrot-Thin" d="M746.792 959.879c0.178 0.007 0.387 0.011 0.597 0.011 8.837 0 16-7.163 16-16 0-4.609-1.949-8.763-5.068-11.683l-452.009-452.328c-8.239-8.346-13.328-19.819-13.328-32.48s5.089-24.134 13.333-32.485l451.835-451.355c2.969-2.909 4.81-6.959 4.81-11.44 0-8.842-7.168-16.010-16.010-16.010-4.361 0-8.315 1.744-11.203 4.572l-452.317 451.837c-14.103 14.197-22.82 33.761-22.82 55.36s8.717 41.163 22.824 55.364l452.316 451.836c2.906 2.963 6.952 4.8 11.427 4.8 0.033 0 0.066 0 0.098 0z" />
<glyph unicode="&#xe928;" glyph-name="Right-Carrot-Thin" d="M277.208-63.88c-0.178-0.007-0.387-0.011-0.597-0.011-8.837 0-16 7.163-16 16 0 4.609 1.949 8.763 5.068 11.683l452.009 452.328c8.239 8.346 13.328 19.819 13.328 32.48s-5.089 24.134-13.333 32.485l-451.835 451.355c-2.969 2.909-4.81 6.959-4.81 11.44 0 8.842 7.168 16.010 16.010 16.010 4.361 0 8.315-1.744 11.203-4.572l452.317-451.837c14.103-14.197 22.82-33.761 22.82-55.36s-8.717-41.163-22.824-55.364l-452.316-451.836c-2.906-2.963-6.952-4.8-11.427-4.8-0.033 0-0.066 0-0.098 0z" />
<glyph unicode="&#xe929;" glyph-name="group" horiz-adv-x="1126" d="M153.653 396.782c0.027-118.123 40.3-226.836 107.853-313.175-153.093 78.305-255.624 233.664-255.624 412.97 0 254.199 206.069 460.269 460.269 460.269 74.893 0 145.608-17.887 208.107-49.623l-8.604 1.207c-282.486-0.4-511.4-229.191-512-511.591zM665.653 857.565c-254.483 0-460.782-206.299-460.782-460.782s206.299-460.782 460.782-460.782c254.483 0 460.782 206.299 460.782 460.782s-206.299 460.782-460.782 460.782z" />
<glyph unicode="&#xe92a;" glyph-name="science" d="M615.84 842.72h-331.84v-272h331.84c72.305-3.617 129.561-63.122 129.561-136s-57.256-132.383-129.239-135.987l-332.162-0.013v-272h331.84c3.404-0.102 7.409-0.16 11.427-0.16 225.421 0 408.16 182.739 408.16 408.16s-182.739 408.16-408.16 408.16c-4.018 0-8.023-0.058-12.014-0.173zM22.4 265.76v-206.72c0-17.673 14.327-32 32-32h170.72v272h-169.92c-17.673 0-32-14.327-32-32zM55.2 844h169.92v-272h-169.92c-17.673 0-32 14.327-32 32v206.080c0 17.673 14.327 32 32 32z" />
</font>
</defs>
</svg>
